<svg xmlns="http://www.w3.org/2000/svg" xmlns:xlink="http://www.w3.org/1999/xlink" viewBox="0 0 1366 768"><defs><style>.cls-1,.cls-12,.cls-13,.cls-16,.cls-19,.cls-2,.cls-20,.cls-23,.cls-24,.cls-27,.cls-3,.cls-30,.cls-33,.cls-37,.cls-53,.cls-6,.cls-7,.cls-9{fill:none;}.cls-2,.cls-3,.cls-6,.cls-7{stroke:#0e2599;}.cls-12,.cls-13,.cls-16,.cls-19,.cls-2,.cls-20,.cls-23,.cls-24,.cls-27,.cls-3,.cls-30,.cls-33,.cls-37,.cls-53,.cls-54,.cls-6,.cls-7,.cls-9{stroke-miterlimit:10;}.cls-2,.cls-37,.cls-53{stroke-width:2px;}.cls-4,.cls-55{fill:#fff;}.cls-5{fill:#0e2599;}.cls-6{stroke-width:1.5px;}.cls-53,.cls-7{stroke-linecap:round;}.cls-8{font-size:16px;fill:#0d0787;}.cls-10,.cls-14,.cls-17,.cls-21,.cls-25,.cls-28,.cls-31,.cls-8{font-family:Babylon5Credits, Babylon5Credits;}.cls-12,.cls-54,.cls-9{stroke:#000;}.cls-13,.cls-16,.cls-19,.cls-20,.cls-24,.cls-27,.cls-30,.cls-33,.cls-54,.cls-9{stroke-width:4px;}.cls-10,.cls-14,.cls-17,.cls-21,.cls-25,.cls-28,.cls-31{font-size:10.05px;}.cls-11{fill:#1d1d1b;fill-rule:evenodd;}.cls-12,.cls-23{stroke-width:5px;}.cls-13{stroke:#df4b38;}.cls-14,.cls-15{fill:#df4b38;}.cls-16{stroke:#2e4e85;}.cls-17{fill:#2e4e85;}.cls-18{fill:#3e5c9a;}.cls-19{stroke:#3e5c9a;}.cls-20,.cls-23{stroke:#090;}.cls-21{fill:#090;}.cls-22{fill:url(#linear-gradient);}.cls-24{stroke:#b4173b;}.cls-25{fill:#c1272d;}.cls-26{fill:#b4173b;}.cls-27{stroke:#385995;}.cls-28,.cls-29{fill:#385995;}.cls-30{stroke:#00b6f3;}.cls-31{fill:#00b6f3;}.cls-32{fill:#29a9e1;}.cls-33{stroke:#29a9e1;}.cls-34,.cls-39{font-size:18px;}.cls-34{font-family:Sen-Regular, Sen;}.cls-35{letter-spacing:-0.01em;}.cls-36{letter-spacing:-0.02em;}.cls-37{stroke:#1b1464;}.cls-38{fill:#02255b;}.cls-39,.cls-48{font-family:Montserrat-SemiBold, Montserrat SemiBold;}.cls-40{letter-spacing:-0.01em;}.cls-41{letter-spacing:-0.02em;}.cls-42{letter-spacing:-0.01em;}.cls-43{letter-spacing:0em;}.cls-44{letter-spacing:-0.02em;}.cls-45{letter-spacing:0em;}.cls-46{letter-spacing:-0.02em;}.cls-47{letter-spacing:-0.01em;}.cls-48{font-size:26px;}.cls-49{letter-spacing:0em;}.cls-50{letter-spacing:-0.01em;}.cls-51{letter-spacing:-0.01em;}.cls-52{letter-spacing:-0.03em;}.cls-53{stroke:#02255b;}.cls-55{font-size:75px;font-family:Montserrat-ExtraBold, Montserrat ExtraBold;letter-spacing:0.1em;}.cls-56{fill:#db2a26;opacity:0;}</style><linearGradient id="linear-gradient" x1="140.8" y1="331.61" x2="124.86" y2="371.35" gradientUnits="userSpaceOnUse"><stop offset="0" stop-color="#4bc25a"/><stop offset="1" stop-color="#368c41"/></linearGradient></defs><title>ciclo_conversacional_1</title><g id="Capa_1" data-name="Capa 1"><path class="cls-1" d="M659.65,436.32c0,129.33-104.84,234.17-234.17,234.17S191.32,565.65,191.32,436.32c0-105,69.05-193.79,164.2-223.54a232.92,232.92,0,0,1,42.83-9.08,236.65,236.65,0,0,1,27.13-1.55C554.81,202.16,659.65,307,659.65,436.32Z"/><ellipse class="cls-1" cx="425.48" cy="436.32" rx="304.96" ry="298.68"/><line class="cls-2" x1="368.43" y1="594.32" x2="342.08" y2="607.2"/><line class="cls-2" x1="400.67" y1="599.61" x2="374.77" y2="593.27"/><line class="cls-2" x1="416" y1="568.43" x2="405.43" y2="598.02"/><line class="cls-2" x1="415.47" y1="556.27" x2="417.05" y2="562.61"/><line class="cls-2" x1="419.7" y1="533.54" x2="415.47" y2="549.93"/><line class="cls-2" x1="420.23" y1="420.96" x2="420.23" y2="527.2"/><line class="cls-2" x1="390.63" y1="391.37" x2="418.11" y2="415.68"/><line class="cls-2" x1="406.48" y1="348.55" x2="389.57" y2="385.55"/><line class="cls-2" x1="409.83" y1="303.61" x2="414.41" y2="326.88"/><line class="cls-2" x1="404.9" y1="276.67" x2="408.25" y2="296.21"/><line class="cls-2" x1="412.83" y1="257.12" x2="405.43" y2="270.86"/><circle class="cls-2" cx="414.68" cy="253.68" r="3.96"/><circle class="cls-2" cx="414.41" cy="330.05" r="3.17"/><circle class="cls-2" cx="389.04" cy="388.72" r="3.17"/><circle class="cls-2" cx="420.23" cy="417.79" r="3.17"/><circle class="cls-2" cx="420.23" cy="530.37" r="3.17"/><circle class="cls-2" cx="414.94" cy="553.1" r="3.17"/><circle class="cls-2" cx="417.05" cy="565.26" r="3.17"/><circle class="cls-2" cx="404.37" cy="600.67" r="3.17"/><circle class="cls-2" cx="371.6" cy="592.74" r="3.17"/><circle class="cls-2" cx="404.37" cy="273.5" r="3.17"/><line class="cls-2" x1="390.63" y1="285.13" x2="406.48" y2="298.87"/><line class="cls-2" x1="374.77" y1="290.94" x2="385.34" y2="284.6"/><line class="cls-2" x1="352.16" y1="273.03" x2="368.96" y2="289.89"/><line class="cls-2" x1="376.62" y1="325.03" x2="387.19" y2="331.9"/><line class="cls-2" x1="361.56" y1="326.36" x2="370.01" y2="324.24"/><line class="cls-2" x1="339.36" y1="284.6" x2="357.33" y2="323.71"/><line class="cls-2" x1="394.33" y1="306.8" x2="390.79" y2="330.52"/><line class="cls-2" x1="380.85" y1="353.05" x2="397.76" y2="342.48"/><line class="cls-2" x1="353.89" y1="342.48" x2="373.98" y2="353.05"/><circle class="cls-2" cx="371.6" cy="291.47" r="3.17"/><circle class="cls-2" cx="387.98" cy="283.01" r="3.17"/><circle class="cls-2" cx="408.6" cy="299.93" r="3.17"/><circle class="cls-2" cx="390.1" cy="333.75" r="3.17"/><circle class="cls-2" cx="394.86" cy="303.63" r="3.17"/><circle class="cls-2" cx="399.61" cy="341.15" r="3.17"/><circle class="cls-2" cx="407.54" cy="345.38" r="3.17"/><circle class="cls-2" cx="377.41" cy="354.37" r="3.17"/><circle class="cls-2" cx="351.52" cy="341.15" r="3.17"/><circle class="cls-2" cx="373.71" cy="323.18" r="3.17"/><circle class="cls-2" cx="358.39" cy="326.88" r="3.17"/><line class="cls-2" x1="412.83" y1="333.75" x2="408.86" y2="342.48"/><line class="cls-2" x1="401.99" y1="341.95" x2="404.63" y2="343.53"/><line class="cls-2" x1="392.76" y1="335.67" x2="397.52" y2="338.84"/><circle class="cls-2" cx="337.77" cy="281.43" r="3.96"/><circle class="cls-2" cx="348.99" cy="269.86" r="3.96" transform="translate(-74.08 144.84) rotate(-21.25)"/><circle class="cls-3" cx="345.7" cy="286.19" r="1.59"/><circle class="cls-3" cx="359.97" cy="286.19" r="1.59" transform="translate(-72.03 128.52) rotate(-18.43)"/><circle class="cls-3" cx="356.8" cy="304.16" r="1.59"/><circle class="cls-3" cx="363.14" cy="294.64" r="1.59" transform="translate(-97.15 212.09) rotate(-28.89)"/><circle class="cls-3" cx="360.5" cy="306.8" r="1.59"/><circle class="cls-3" cx="380.59" cy="295.7" r="1.59"/><circle class="cls-3" cx="368.96" cy="306.27" r="1.59"/><circle class="cls-3" cx="380.59" cy="306.27" r="1.59"/><circle class="cls-3" cx="380.59" cy="312.61" r="1.59"/><circle class="cls-3" cx="352.57" cy="302.04" r="1.59"/><line class="cls-3" x1="360.5" y1="287.77" x2="362.61" y2="293.06"/><line class="cls-3" x1="380.59" y1="297.29" x2="380.59" y2="304.69"/><line class="cls-3" x1="380.59" y1="307.86" x2="380.59" y2="311.03"/><line class="cls-3" x1="370.54" y1="306.27" x2="379" y2="306.27"/><line class="cls-3" x1="362.09" y1="296.23" x2="357.86" y2="302.57"/><line class="cls-3" x1="346.23" y1="287.77" x2="352.04" y2="300.46"/><line class="cls-3" x1="382.17" y1="313.67" x2="391.68" y2="318.96"/><line class="cls-3" x1="361.03" y1="308.38" x2="367.9" y2="324.77"/><line class="cls-3" x1="357.86" y1="305.21" x2="358.91" y2="305.74"/><circle class="cls-3" cx="419.7" cy="312.08" r="1.59"/><circle class="cls-3" cx="416.53" cy="283.01" r="1.59"/><circle class="cls-3" cx="402.26" cy="257.65" r="1.59"/><line class="cls-3" x1="403.31" y1="258.7" x2="408.6" y2="263.46"/><line class="cls-3" x1="408.07" y1="291.47" x2="415.47" y2="284.07"/><line class="cls-3" x1="413.35" y1="318.96" x2="418.64" y2="313.14"/><circle class="cls-3" cx="412.3" cy="382.91" r="1.59"/><circle class="cls-3" cx="418.11" cy="360.71" r="1.59"/><circle class="cls-3" cx="411.77" cy="358.6" r="1.59"/><circle class="cls-3" cx="414.94" cy="364.94" r="1.59"/><circle class="cls-3" cx="404.9" cy="369.17" r="1.59"/><circle class="cls-3" cx="408.6" cy="374.98" r="1.59"/><line class="cls-3" x1="409.65" y1="373.4" x2="413.88" y2="366.52"/><line class="cls-3" x1="407.54" y1="373.4" x2="405.95" y2="370.75"/><line class="cls-3" x1="411.77" y1="381.32" x2="409.13" y2="376.57"/><line class="cls-3" x1="414.41" y1="363.88" x2="412.83" y2="360.18"/><line class="cls-3" x1="416" y1="363.35" x2="417.05" y2="362.3"/><line class="cls-3" x1="400.67" y1="400.35" x2="411.77" y2="384.49"/><line class="cls-3" x1="409.65" y1="407.22" x2="416.53" y2="396.65"/><circle class="cls-3" cx="417.05" cy="395.59" r="1.59"/><line class="cls-3" x1="419.7" y1="431.53" x2="404.37" y2="418.32"/><line class="cls-3" x1="403.31" y1="415.68" x2="404.37" y2="411.98"/><line class="cls-3" x1="394.33" y1="401.94" x2="403.84" y2="409.34"/><circle class="cls-3" cx="403.31" cy="417.26" r="1.59"/><circle class="cls-3" cx="404.9" cy="410.39" r="1.59"/><circle class="cls-3" cx="393.27" cy="400.88" r="1.59"/><circle class="cls-3" cx="385.34" cy="611.24" r="1.59"/><circle class="cls-3" cx="380.06" cy="612.82" r="1.59"/><circle class="cls-3" cx="377.41" cy="622.34" r="1.59"/><line class="cls-3" x1="388.51" y1="597.5" x2="385.87" y2="609.65"/><line class="cls-3" x1="383.76" y1="611.77" x2="381.64" y2="612.3"/><line class="cls-3" x1="379.53" y1="614.41" x2="377.94" y2="620.75"/><circle class="cls-3" cx="376.89" cy="603.84" r="1.59"/><circle class="cls-3" cx="365.26" cy="615.99" r="1.59"/><circle class="cls-3" cx="356.27" cy="612.3" r="1.59"/><circle class="cls-3" cx="350.99" cy="614.41" r="1.59"/><circle class="cls-3" cx="346.76" cy="623.39" r="1.59"/><line class="cls-3" x1="361.03" y1="598.55" x2="356.8" y2="610.71"/><line class="cls-3" x1="375.83" y1="604.9" x2="366.31" y2="614.41"/><line class="cls-3" x1="379" y1="594.85" x2="377.41" y2="602.25"/><line class="cls-3" x1="350.46" y1="615.99" x2="347.29" y2="622.34"/><line class="cls-3" x1="354.69" y1="613.35" x2="352.57" y2="613.88"/><circle class="cls-3" cx="386.93" cy="268.74" r="1.59"/><circle class="cls-3" cx="395.38" cy="261.34" r="1.59"/><circle class="cls-3" cx="383.23" cy="261.34" r="1.59"/><circle class="cls-3" cx="371.6" cy="267.69" r="1.59"/><line class="cls-3" x1="372.66" y1="269.27" x2="381.11" y2="286.19"/><line class="cls-3" x1="385.87" y1="269.8" x2="376.89" y2="277.73"/><line class="cls-3" x1="394.33" y1="262.4" x2="388.51" y2="267.69"/><line class="cls-3" x1="384.28" y1="262.93" x2="385.87" y2="267.16"/><circle class="cls-2" cx="337.19" cy="609.62" r="4.89"/><line class="cls-3" x1="347.5" y1="266.5" x2="341.8" y2="253.47"/><circle class="cls-4" cx="341.87" cy="253.62" r="3.01" transform="translate(-72.99 158.29) rotate(-23.63)"/><path class="cls-5" d="M345,252.26a3.41,3.41,0,1,1-4.49-1.76,3.41,3.41,0,0,1,4.49,1.76Zm-5.51,2.41a2.61,2.61,0,1,0,1.34-3.43,2.61,2.61,0,0,0-1.34,3.43Z"/><line class="cls-2" x1="425" y1="410.95" x2="425" y2="235.55"/><circle class="cls-4" cx="425" cy="410.74" r="3.76"/><path class="cls-5" d="M429.26,410.74A4.26,4.26,0,1,0,425,415a4.26,4.26,0,0,0,4.26-4.26Zm-7.52,0A3.26,3.26,0,1,1,425,414a3.26,3.26,0,0,1-3.26-3.26Z"/><circle class="cls-4" cx="425" cy="235.76" r="3.76"/><path class="cls-5" d="M429.26,235.76A4.26,4.26,0,1,1,425,231.5a4.26,4.26,0,0,1,4.26,4.26Zm-7.52,0A3.26,3.26,0,1,0,425,232.5a3.26,3.26,0,0,0-3.26,3.26Z"/><line class="cls-2" x1="412.03" y1="540.15" x2="405.16" y2="562.88"/><line class="cls-2" x1="412.56" y1="446.07" x2="412.56" y2="534.86"/><line class="cls-2" x1="402.52" y1="434.44" x2="410.45" y2="441.84"/><line class="cls-2" x1="391.16" y1="418.06" x2="398.82" y2="429.68"/><line class="cls-2" x1="371.07" y1="406.96" x2="386.4" y2="413.83"/><line class="cls-2" x1="368.43" y1="368.37" x2="368.43" y2="402.73"/><line class="cls-2" x1="331.7" y1="346.7" x2="365.26" y2="363.62"/><line class="cls-2" x1="333.28" y1="320.81" x2="329.05" y2="342.48"/><line class="cls-2" x1="306.85" y1="308.12" x2="331.17" y2="317.11"/><circle class="cls-2" cx="302.89" cy="306.8" r="3.96"/><line class="cls-2" x1="336.45" y1="304.95" x2="334.87" y2="314.46"/><line class="cls-2" x1="356.54" y1="400.62" x2="365.52" y2="404.31"/><line class="cls-2" x1="334.87" y1="404.84" x2="350.19" y2="400.09"/><line class="cls-2" x1="297.87" y1="380" x2="328.52" y2="403.26"/><line class="cls-2" x1="298.4" y1="364.15" x2="296.28" y2="374.72"/><line class="cls-2" x1="277.26" y1="352.52" x2="295.75" y2="359.92"/><line class="cls-2" x1="314.78" y1="411.19" x2="328" y2="406.96"/><line class="cls-2" x1="289.94" y1="396.92" x2="308.97" y2="410.13"/><line class="cls-2" x1="261.93" y1="410.66" x2="284.66" y2="396.92"/><line class="cls-2" x1="301.57" y1="349.35" x2="299.45" y2="358.86"/><circle class="cls-2" cx="368.16" cy="365.2" r="3.17"/><circle class="cls-2" cx="328.52" cy="345.65" r="3.17"/><circle class="cls-2" cx="333.81" cy="317.63" r="3.17"/><circle class="cls-2" cx="298.93" cy="361.5" r="3.17"/><circle class="cls-2" cx="295.75" cy="377.89" r="3.17"/><circle class="cls-2" cx="368.16" cy="405.9" r="3.17"/><circle class="cls-2" cx="353.37" cy="399.56" r="3.17"/><circle class="cls-2" cx="331.17" cy="405.9" r="3.17"/><circle class="cls-2" cx="311.61" cy="411.71" r="3.17"/><circle class="cls-2" cx="287.3" cy="395.33" r="3.17"/><circle class="cls-2" cx="337.24" cy="300.99" r="3.96"/><line class="cls-2" x1="265.63" y1="380" x2="284.66" y2="393.22"/><circle class="cls-2" cx="389.31" cy="415.41" r="3.17"/><circle class="cls-2" cx="400.41" cy="432.33" r="3.17"/><circle class="cls-2" cx="412.56" cy="443.43" r="3.17"/><circle class="cls-2" cx="412.56" cy="537.51" r="3.17"/><circle class="cls-2" cx="404.63" cy="565.52" r="3.17"/><circle class="cls-2" cx="302.36" cy="345.38" r="3.96"/><circle class="cls-2" cx="273.29" cy="351.2" r="3.96"/><circle class="cls-2" cx="263.25" cy="378.15" r="3.96"/><circle class="cls-2" cx="259.02" cy="412.51" r="3.96"/><polyline class="cls-3" points="401.46 564.99 380.85 573.45 380.06 574.77 377.15 580.85"/><circle class="cls-3" cx="376.49" cy="582.3" r="1.72"/><circle class="cls-3" cx="362.75" cy="586.53" r="1.72"/><line class="cls-3" x1="374.77" y1="582.17" x2="364.2" y2="585.87"/><line class="cls-6" x1="368.16" y1="382.12" x2="343.06" y2="371.28"/><line class="cls-6" x1="341.47" y1="368.64" x2="341.47" y2="364.41"/><line class="cls-6" x1="339.89" y1="361.77" x2="333.02" y2="358.07"/><circle class="cls-6" cx="331.43" cy="357.01" r="1.59"/><circle class="cls-6" cx="341.47" cy="336.93" r="1.59"/><circle class="cls-6" cx="349.93" cy="320.54" r="1.59"/><circle class="cls-6" cx="341.47" cy="362.82" r="1.59"/><circle class="cls-6" cx="341.47" cy="370.22" r="1.59"/><circle class="cls-6" cx="331.43" cy="382.91" r="1.59"/><circle class="cls-6" cx="339.89" cy="382.91" r="1.59"/><circle class="cls-6" cx="309.23" cy="364.41" r="1.59"/><circle class="cls-6" cx="313.46" cy="351.73" r="1.59"/><circle class="cls-6" cx="320.86" cy="364.41" r="1.59"/><circle class="cls-6" cx="317.69" cy="382.91" r="1.59"/><line class="cls-6" x1="319.8" y1="362.82" x2="314.52" y2="353.31"/><line class="cls-6" x1="330.37" y1="381.32" x2="321.92" y2="366"/><line class="cls-6" x1="338.3" y1="382.91" x2="333.02" y2="382.91"/><line class="cls-6" x1="319.27" y1="364.41" x2="310.82" y2="364.41"/><line class="cls-6" x1="329.85" y1="382.91" x2="319.27" y2="382.91"/><line class="cls-6" x1="368.43" y1="392.42" x2="341.47" y2="383.44"/><circle class="cls-3" cx="322.45" cy="303.63" r="1.59"/><circle class="cls-3" cx="323.5" cy="289.89" r="1.59"/><circle class="cls-3" cx="311.87" cy="301.51" r="1.59"/><circle class="cls-3" cx="314.52" cy="333.23" r="1.59"/><circle class="cls-3" cx="321.92" cy="329.53" r="1.59" transform="translate(-131.4 247.54) rotate(-35.42)"/><circle class="cls-3" cx="316.1" cy="316.31" r="1.59"/><line class="cls-6" x1="341.47" y1="351.2" x2="341.47" y2="338.51"/><line class="cls-6" x1="342.53" y1="335.34" x2="348.87" y2="322.13"/><line class="cls-3" x1="321.39" y1="327.94" x2="316.63" y2="317.9"/><line class="cls-3" x1="320.33" y1="330.58" x2="316.1" y2="332.7"/><line class="cls-3" x1="329.32" y1="337.45" x2="322.97" y2="330.58"/><line class="cls-3" x1="320.86" y1="303.63" x2="313.46" y2="302.04"/><line class="cls-3" x1="322.45" y1="302.04" x2="323.5" y2="291.47"/><line class="cls-3" x1="324.03" y1="304.16" x2="335.13" y2="308.38"/><circle class="cls-3" cx="288.09" cy="342.21" r="1.59"/><circle class="cls-3" cx="308.18" cy="328.47" r="1.59"/><circle class="cls-3" cx="298.19" cy="326.18" r="1.59"/><circle class="cls-3" cx="300.78" cy="333.23" r="1.59"/><circle class="cls-3" cx="285.98" cy="333.75" r="1.59"/><circle class="cls-3" cx="284.92" cy="366.52" r="1.59"/><circle class="cls-3" cx="266.95" cy="361.77" r="1.59"/><circle class="cls-3" cx="275.93" cy="372.87" r="1.59"/><circle class="cls-3" cx="255.32" cy="399.29" r="1.59"/><circle class="cls-3" cx="264.31" cy="392.95" r="1.59"/><line class="cls-3" x1="291.26" y1="358.07" x2="288.09" y2="343.8"/><line class="cls-3" x1="287.56" y1="340.63" x2="286.5" y2="335.34"/><line class="cls-3" x1="289.68" y1="341.68" x2="299.72" y2="334.28"/><line class="cls-3" x1="300.78" y1="331.64" x2="299" y2="328"/><line class="cls-3" x1="302.36" y1="332.7" x2="306.59" y2="329.53"/><line class="cls-3" x1="277.52" y1="401.41" x2="265.89" y2="394.01"/><line class="cls-3" x1="262.72" y1="394.01" x2="256.38" y2="398.24"/><line class="cls-3" x1="275.93" y1="386.61" x2="275.93" y2="374.45"/><line class="cls-3" x1="268.01" y1="362.82" x2="274.88" y2="371.28"/><line class="cls-3" x1="283.33" y1="367.58" x2="277.52" y2="372.34"/><line class="cls-6" x1="378.47" y1="410.39" x2="379" y2="386.61"/><line class="cls-6" x1="383.76" y1="373.92" x2="386.4" y2="368.11"/><line class="cls-6" x1="382.17" y1="373.92" x2="377.41" y2="367.05"/><line class="cls-6" x1="380.06" y1="382.91" x2="382.17" y2="377.1"/><circle class="cls-6" cx="379" cy="384.49" r="1.59"/><circle class="cls-6" cx="387.46" cy="366.52" r="1.59"/><circle class="cls-6" cx="376.36" cy="366" r="1.59"/><circle class="cls-6" cx="383.23" cy="375.51" r="1.59"/><circle class="cls-3" cx="387.59" cy="586" r="1.72"/><circle class="cls-3" cx="390.23" cy="578.07" r="1.72"/><circle class="cls-3" cx="396.57" cy="578.07" r="1.72"/><line class="cls-3" x1="389.57" y1="580.05" x2="388.51" y2="584.28"/><line class="cls-3" x1="394.86" y1="578.47" x2="392.21" y2="578.47"/><line class="cls-3" x1="398.56" y1="566.31" x2="396.97" y2="576.35"/><line class="cls-7" x1="255" y1="386" x2="232.09" y2="378.95"/><circle class="cls-4" cx="232.26" cy="379" r="3.01" transform="translate(-198.29 489.53) rotate(-72.9)"/><path class="cls-5" d="M233.26,375.75A3.41,3.41,0,1,1,229,378a3.41,3.41,0,0,1,4.26-2.25Zm-1.77,5.75a2.61,2.61,0,1,0-1.73-3.26,2.61,2.61,0,0,0,1.73,3.26Z"/><line class="cls-3" x1="297.25" y1="325.25" x2="273.17" y2="303.9"/><circle class="cls-4" cx="273.3" cy="304.01" r="3.01" transform="translate(-135.49 306.78) rotate(-48.43)"/><path class="cls-5" d="M275.56,301.46a3.41,3.41,0,1,1-4.81.29,3.41,3.41,0,0,1,4.81-.29Zm-4,4.5a2.61,2.61,0,1,0-.22-3.68,2.61,2.61,0,0,0,.22,3.68Z"/><path class="cls-2" d="M355.07,571a88.11,88.11,0,0,1,53.53-32.95"/><circle class="cls-2" cx="352.32" cy="574.97" r="3.96"/><line class="cls-3" x1="361.43" y1="585.43" x2="354.58" y2="577.96"/><path class="cls-2" d="M512.52,614.41a89.06,89.06,0,0,1,.59,10.26,88.13,88.13,0,1,1-176.26,0c0-3.57,0-6.85.25-10.17"/><text class="cls-8" transform="translate(395.95 692.79)">SWITCH</text><circle class="cls-3" cx="389.66" cy="714.4" r="1.59"/><circle class="cls-3" cx="402.73" cy="718.76" r="1.59"/><circle class="cls-3" cx="409.59" cy="720.01" r="1.59"/><circle class="cls-3" cx="382.8" cy="711.29" r="1.59"/><circle class="cls-3" cx="396.51" cy="716.9" r="1.59"/><circle class="cls-3" cx="460.66" cy="714.4" r="1.59"/><circle class="cls-3" cx="447.58" cy="718.76" r="1.59"/><circle class="cls-3" cx="440.73" cy="720.01" r="1.59"/><circle class="cls-3" cx="467.51" cy="711.29" r="1.59"/><circle class="cls-3" cx="453.81" cy="716.9" r="1.59"/><line class="cls-2" x1="481.29" y1="594.32" x2="507.64" y2="607.2"/><line class="cls-2" x1="449.05" y1="599.61" x2="474.95" y2="593.27"/><line class="cls-2" x1="433.72" y1="568.43" x2="444.29" y2="598.02"/><line class="cls-2" x1="434.25" y1="556.27" x2="432.67" y2="562.61"/><line class="cls-2" x1="430.02" y1="533.54" x2="434.25" y2="549.93"/><line class="cls-2" x1="429.49" y1="420.96" x2="429.49" y2="527.2"/><line class="cls-2" x1="459.09" y1="391.37" x2="431.61" y2="415.68"/><line class="cls-2" x1="443.24" y1="348.55" x2="460.15" y2="385.55"/><line class="cls-2" x1="439.89" y1="303.61" x2="435.31" y2="326.88"/><line class="cls-2" x1="444.82" y1="276.67" x2="441.47" y2="296.21"/><line class="cls-2" x1="436.89" y1="257.12" x2="444.29" y2="270.86"/><circle class="cls-2" cx="435.04" cy="253.68" r="3.96"/><circle class="cls-2" cx="435.31" cy="330.05" r="3.17"/><circle class="cls-2" cx="460.68" cy="388.72" r="3.17"/><circle class="cls-2" cx="429.49" cy="417.79" r="3.17"/><circle class="cls-2" cx="429.49" cy="530.37" r="3.17"/><circle class="cls-2" cx="434.78" cy="553.1" r="3.17"/><circle class="cls-2" cx="432.67" cy="565.26" r="3.17"/><circle class="cls-2" cx="445.35" cy="600.67" r="3.17"/><circle class="cls-2" cx="478.12" cy="592.74" r="3.17"/><circle class="cls-2" cx="445.35" cy="273.5" r="3.17"/><line class="cls-2" x1="459.09" y1="285.13" x2="443.24" y2="298.87"/><line class="cls-2" x1="474.95" y1="290.94" x2="464.38" y2="284.6"/><line class="cls-2" x1="499.56" y1="273.03" x2="480.76" y2="289.89"/><line class="cls-2" x1="473.1" y1="325.03" x2="462.53" y2="331.9"/><line class="cls-2" x1="488.16" y1="326.36" x2="479.71" y2="324.24"/><line class="cls-2" x1="510.36" y1="284.6" x2="492.39" y2="323.71"/><line class="cls-2" x1="455.39" y1="306.8" x2="458.93" y2="330.52"/><line class="cls-2" x1="468.87" y1="353.05" x2="451.96" y2="342.48"/><line class="cls-2" x1="495.83" y1="342.48" x2="475.74" y2="353.05"/><circle class="cls-2" cx="478.12" cy="291.47" r="3.17"/><circle class="cls-2" cx="461.73" cy="283.01" r="3.17"/><circle class="cls-2" cx="441.12" cy="299.93" r="3.17"/><circle class="cls-2" cx="459.62" cy="333.75" r="3.17"/><circle class="cls-2" cx="454.86" cy="303.63" r="3.17"/><circle class="cls-2" cx="450.11" cy="341.15" r="3.17"/><circle class="cls-2" cx="442.18" cy="345.38" r="3.17"/><circle class="cls-2" cx="472.31" cy="354.37" r="3.17"/><circle class="cls-2" cx="498.2" cy="341.15" r="3.17"/><circle class="cls-2" cx="476.01" cy="323.18" r="3.17"/><circle class="cls-2" cx="491.33" cy="326.88" r="3.17"/><line class="cls-2" x1="436.89" y1="333.75" x2="440.86" y2="342.48"/><line class="cls-2" x1="447.73" y1="341.95" x2="445.09" y2="343.53"/><line class="cls-2" x1="456.96" y1="335.67" x2="452.2" y2="338.84"/><circle class="cls-2" cx="511.95" cy="281.43" r="3.96"/><circle class="cls-2" cx="502.73" cy="270.86" r="3.96"/><circle class="cls-3" cx="504.02" cy="286.19" r="1.59"/><circle class="cls-3" cx="490.75" cy="286.19" r="1.59" transform="translate(64.06 661.25) rotate(-71.57)"/><circle class="cls-3" cx="492.92" cy="304.16" r="1.59"/><circle class="cls-3" cx="486.58" cy="294.64" r="1.59" transform="translate(-6.46 578.34) rotate(-61.11)"/><circle class="cls-3" cx="489.22" cy="306.8" r="1.59"/><circle class="cls-3" cx="469.13" cy="295.7" r="1.59"/><circle class="cls-3" cx="480.76" cy="306.27" r="1.59"/><circle class="cls-3" cx="469.13" cy="306.27" r="1.59"/><circle class="cls-3" cx="469.13" cy="312.61" r="1.59"/><circle class="cls-3" cx="497.15" cy="302.04" r="1.59"/><line class="cls-3" x1="490.22" y1="287.77" x2="487.1" y2="293.06"/><line class="cls-3" x1="469.13" y1="297.29" x2="469.13" y2="304.69"/><line class="cls-3" x1="469.13" y1="307.86" x2="469.13" y2="311.03"/><line class="cls-3" x1="479.18" y1="306.27" x2="470.72" y2="306.27"/><line class="cls-3" x1="487.63" y1="296.23" x2="491.86" y2="302.57"/><line class="cls-3" x1="503.49" y1="287.77" x2="497.68" y2="300.46"/><line class="cls-3" x1="467.55" y1="313.67" x2="458.04" y2="318.96"/><line class="cls-3" x1="488.69" y1="308.38" x2="481.82" y2="324.77"/><line class="cls-3" x1="491.86" y1="305.21" x2="490.8" y2="305.74"/><circle class="cls-3" cx="430.02" cy="312.08" r="1.59"/><circle class="cls-3" cx="433.19" cy="283.01" r="1.59"/><circle class="cls-3" cx="447.46" cy="257.65" r="1.59"/><line class="cls-3" x1="446.41" y1="258.7" x2="441.12" y2="263.46"/><line class="cls-3" x1="441.65" y1="291.47" x2="434.25" y2="284.07"/><line class="cls-3" x1="436.36" y1="318.96" x2="431.08" y2="313.14"/><circle class="cls-3" cx="437.42" cy="382.91" r="1.59"/><circle class="cls-3" cx="431.61" cy="360.71" r="1.59"/><circle class="cls-3" cx="437.95" cy="358.6" r="1.59"/><circle class="cls-3" cx="434.78" cy="364.94" r="1.59"/><circle class="cls-3" cx="444.82" cy="369.17" r="1.59"/><circle class="cls-3" cx="441.12" cy="374.98" r="1.59"/><line class="cls-3" x1="440.06" y1="373.4" x2="435.84" y2="366.52"/><line class="cls-3" x1="442.18" y1="373.4" x2="443.76" y2="370.75"/><line class="cls-3" x1="437.95" y1="381.32" x2="440.59" y2="376.57"/><line class="cls-3" x1="435.31" y1="363.88" x2="436.89" y2="360.18"/><line class="cls-3" x1="433.72" y1="363.35" x2="432.67" y2="362.3"/><line class="cls-3" x1="449.05" y1="400.35" x2="437.95" y2="384.49"/><line class="cls-3" x1="440.06" y1="407.22" x2="433.19" y2="396.65"/><circle class="cls-3" cx="432.67" cy="395.59" r="1.59"/><line class="cls-3" x1="430.02" y1="431.53" x2="445.35" y2="418.32"/><line class="cls-3" x1="446.41" y1="415.68" x2="445.35" y2="411.98"/><line class="cls-3" x1="455.39" y1="401.94" x2="445.88" y2="409.34"/><circle class="cls-3" cx="446.41" cy="417.26" r="1.59"/><circle class="cls-3" cx="444.82" cy="410.39" r="1.59"/><circle class="cls-3" cx="456.45" cy="400.88" r="1.59"/><circle class="cls-3" cx="464.38" cy="611.24" r="1.59"/><circle class="cls-3" cx="469.66" cy="612.82" r="1.59"/><circle class="cls-3" cx="472.31" cy="622.34" r="1.59"/><line class="cls-3" x1="461.21" y1="597.5" x2="463.85" y2="609.65"/><line class="cls-3" x1="465.96" y1="611.77" x2="468.08" y2="612.3"/><line class="cls-3" x1="470.19" y1="614.41" x2="471.78" y2="620.75"/><circle class="cls-3" cx="472.83" cy="603.84" r="1.59"/><circle class="cls-3" cx="484.46" cy="615.99" r="1.59"/><circle class="cls-3" cx="493.45" cy="612.3" r="1.59"/><circle class="cls-3" cx="498.73" cy="614.41" r="1.59"/><circle class="cls-3" cx="502.96" cy="623.39" r="1.59"/><line class="cls-3" x1="488.69" y1="598.55" x2="492.92" y2="610.71"/><line class="cls-3" x1="473.89" y1="604.9" x2="483.4" y2="614.41"/><line class="cls-3" x1="470.72" y1="594.85" x2="472.31" y2="602.25"/><line class="cls-3" x1="499.26" y1="615.99" x2="502.43" y2="622.34"/><line class="cls-3" x1="495.03" y1="613.35" x2="497.15" y2="613.88"/><circle class="cls-3" cx="462.79" cy="268.74" r="1.59"/><circle class="cls-3" cx="454.34" cy="261.34" r="1.59"/><circle class="cls-3" cx="466.49" cy="261.34" r="1.59"/><circle class="cls-3" cx="478.12" cy="267.69" r="1.59"/><line class="cls-3" x1="477.06" y1="269.27" x2="468.61" y2="286.19"/><line class="cls-3" x1="463.85" y1="269.8" x2="472.83" y2="277.73"/><line class="cls-3" x1="455.39" y1="262.4" x2="461.21" y2="267.69"/><line class="cls-3" x1="465.43" y1="262.93" x2="463.85" y2="267.16"/><circle class="cls-2" cx="512.53" cy="609.62" r="4.89"/><line class="cls-3" x1="504.5" y1="267.5" x2="511.12" y2="253.43"/><circle class="cls-4" cx="511.05" cy="253.58" r="3.01" transform="translate(64 608.02) rotate(-64.8)"/><path class="cls-5" d="M514.13,255a3.41,3.41,0,1,1-1.63-4.53,3.41,3.41,0,0,1,1.63,4.53Zm-5.44-2.56a2.61,2.61,0,1,0,3.47-1.25,2.61,2.61,0,0,0-3.47,1.25Z"/><line class="cls-2" x1="437.69" y1="540.15" x2="444.56" y2="562.88"/><line class="cls-2" x1="437.16" y1="446.07" x2="437.16" y2="534.86"/><line class="cls-2" x1="447.2" y1="434.44" x2="439.27" y2="441.84"/><line class="cls-2" x1="458.56" y1="418.06" x2="450.9" y2="429.68"/><line class="cls-2" x1="478.65" y1="406.96" x2="463.32" y2="413.83"/><line class="cls-2" x1="481.29" y1="368.37" x2="481.29" y2="402.73"/><line class="cls-2" x1="518.02" y1="346.7" x2="484.46" y2="363.62"/><line class="cls-2" x1="516.44" y1="320.81" x2="520.67" y2="342.48"/><line class="cls-2" x1="542.87" y1="308.12" x2="518.55" y2="317.11"/><circle class="cls-2" cx="546.83" cy="306.8" r="3.96"/><line class="cls-2" x1="513.27" y1="304.95" x2="514.85" y2="314.46"/><line class="cls-2" x1="493.18" y1="400.62" x2="484.2" y2="404.31"/><line class="cls-2" x1="514.85" y1="404.84" x2="499.53" y2="400.09"/><line class="cls-2" x1="551.85" y1="380" x2="521.2" y2="403.26"/><line class="cls-2" x1="551.32" y1="364.15" x2="553.44" y2="374.72"/><line class="cls-2" x1="572.46" y1="352.52" x2="553.96" y2="359.92"/><line class="cls-2" x1="534.94" y1="411.19" x2="521.72" y2="406.96"/><line class="cls-2" x1="559.78" y1="396.92" x2="540.75" y2="410.13"/><line class="cls-2" x1="587.79" y1="410.66" x2="565.06" y2="396.92"/><line class="cls-2" x1="548.15" y1="349.35" x2="550.27" y2="358.86"/><circle class="cls-2" cx="481.56" cy="365.2" r="3.17"/><circle class="cls-2" cx="521.2" cy="345.65" r="3.17"/><circle class="cls-2" cx="515.91" cy="317.63" r="3.17"/><circle class="cls-2" cx="550.79" cy="361.5" r="3.17"/><circle class="cls-2" cx="553.96" cy="377.89" r="3.17"/><circle class="cls-2" cx="481.56" cy="405.9" r="3.17"/><circle class="cls-2" cx="496.35" cy="399.56" r="3.17"/><circle class="cls-2" cx="518.55" cy="405.9" r="3.17"/><circle class="cls-2" cx="538.11" cy="411.71" r="3.17"/><circle class="cls-2" cx="562.42" cy="395.33" r="3.17"/><circle class="cls-2" cx="512.47" cy="300.99" r="3.96"/><line class="cls-2" x1="584.09" y1="380" x2="565.06" y2="393.22"/><circle class="cls-2" cx="460.41" cy="415.41" r="3.17"/><circle class="cls-2" cx="449.31" cy="432.33" r="3.17"/><circle class="cls-2" cx="437.16" cy="443.43" r="3.17"/><circle class="cls-2" cx="437.16" cy="537.51" r="3.17"/><circle class="cls-2" cx="445.09" cy="565.52" r="3.17"/><circle class="cls-2" cx="547.36" cy="345.38" r="3.96"/><circle class="cls-2" cx="576.43" cy="351.2" r="3.96"/><circle class="cls-2" cx="586.47" cy="378.15" r="3.96"/><circle class="cls-2" cx="590.7" cy="412.51" r="3.96"/><polyline class="cls-3" points="448.26 564.99 468.87 573.45 469.66 574.77 472.57 580.85"/><circle class="cls-3" cx="473.23" cy="582.3" r="1.72"/><circle class="cls-3" cx="486.97" cy="586.53" r="1.72"/><line class="cls-3" x1="474.95" y1="582.17" x2="485.52" y2="585.87"/><line class="cls-6" x1="481.56" y1="382.12" x2="506.66" y2="371.28"/><line class="cls-6" x1="508.25" y1="368.64" x2="508.25" y2="364.41"/><line class="cls-6" x1="509.83" y1="361.77" x2="516.7" y2="358.07"/><circle class="cls-6" cx="518.29" cy="357.01" r="1.59"/><circle class="cls-6" cx="508.25" cy="336.93" r="1.59"/><circle class="cls-6" cx="499.79" cy="320.54" r="1.59"/><circle class="cls-6" cx="508.25" cy="362.82" r="1.59"/><circle class="cls-6" cx="508.25" cy="370.22" r="1.59"/><circle class="cls-6" cx="518.29" cy="382.91" r="1.59"/><circle class="cls-6" cx="509.83" cy="382.91" r="1.59"/><circle class="cls-6" cx="540.49" cy="364.41" r="1.59"/><circle class="cls-6" cx="536.26" cy="351.73" r="1.59"/><circle class="cls-6" cx="528.86" cy="364.41" r="1.59"/><circle class="cls-6" cx="532.03" cy="382.91" r="1.59"/><line class="cls-6" x1="529.92" y1="362.82" x2="535.2" y2="353.31"/><line class="cls-6" x1="519.35" y1="381.32" x2="527.8" y2="366"/><line class="cls-6" x1="511.42" y1="382.91" x2="516.7" y2="382.91"/><line class="cls-6" x1="530.44" y1="364.41" x2="538.9" y2="364.41"/><line class="cls-6" x1="519.87" y1="382.91" x2="530.44" y2="382.91"/><line class="cls-6" x1="481.29" y1="392.42" x2="508.25" y2="383.44"/><circle class="cls-3" cx="527.27" cy="303.63" r="1.59"/><circle class="cls-3" cx="526.22" cy="289.89" r="1.59"/><circle class="cls-3" cx="537.84" cy="301.51" r="1.59"/><circle class="cls-3" cx="535.2" cy="333.23" r="1.59"/><circle class="cls-3" cx="527.8" cy="329.53" r="1.59" transform="translate(-46.62 568.69) rotate(-54.58)"/><circle class="cls-3" cx="533.62" cy="316.31" r="1.59"/><line class="cls-6" x1="508.25" y1="351.2" x2="508.25" y2="338.51"/><line class="cls-6" x1="507.19" y1="335.34" x2="500.85" y2="322.13"/><line class="cls-3" x1="528.33" y1="327.94" x2="533.09" y2="317.9"/><line class="cls-3" x1="529.39" y1="330.58" x2="533.62" y2="332.7"/><line class="cls-3" x1="520.4" y1="337.45" x2="526.75" y2="330.58"/><line class="cls-3" x1="528.86" y1="303.63" x2="536.26" y2="302.04"/><line class="cls-3" x1="527.27" y1="302.04" x2="526.22" y2="291.47"/><line class="cls-3" x1="525.69" y1="304.16" x2="514.59" y2="308.38"/><circle class="cls-3" cx="561.63" cy="342.21" r="1.59"/><circle class="cls-3" cx="541.54" cy="328.47" r="1.59"/><circle class="cls-3" cx="549.53" cy="323.18" r="1.59"/><circle class="cls-6" cx="548" cy="332" r="1.59"/><circle class="cls-3" cx="563.74" cy="333.75" r="1.59"/><circle class="cls-3" cx="564.8" cy="366.52" r="1.59"/><circle class="cls-3" cx="582.77" cy="361.77" r="1.59"/><circle class="cls-3" cx="573.79" cy="372.87" r="1.59"/><circle class="cls-3" cx="593.4" cy="399.29" r="1.59"/><circle class="cls-3" cx="585.41" cy="392.95" r="1.59"/><line class="cls-3" x1="558.46" y1="358.07" x2="561.63" y2="343.8"/><line class="cls-3" x1="562.16" y1="340.63" x2="563.21" y2="335.34"/><line class="cls-3" x1="560.04" y1="341.68" x2="549" y2="333.28"/><line class="cls-3" x1="547.94" y1="330.64" x2="549" y2="324.77"/><line class="cls-3" x1="546.36" y1="331.7" x2="543.13" y2="329.53"/><line class="cls-3" x1="572.2" y1="401.41" x2="583.83" y2="394.01"/><line class="cls-3" x1="586" y1="392.01" x2="592.34" y2="386.24"/><line class="cls-3" x1="573.79" y1="386.61" x2="573.79" y2="374.45"/><line class="cls-3" x1="581.71" y1="362.82" x2="574.84" y2="371.28"/><line class="cls-3" x1="566.39" y1="367.58" x2="572.2" y2="372.34"/><line class="cls-6" x1="471.25" y1="410.39" x2="470.72" y2="386.61"/><line class="cls-6" x1="465.96" y1="373.92" x2="463.32" y2="368.11"/><line class="cls-6" x1="467.55" y1="373.92" x2="472.31" y2="367.05"/><line class="cls-6" x1="469.66" y1="382.91" x2="467.55" y2="377.1"/><circle class="cls-6" cx="470.72" cy="384.49" r="1.59"/><circle class="cls-6" cx="462.26" cy="366.52" r="1.59"/><circle class="cls-6" cx="473.36" cy="366" r="1.59"/><circle class="cls-6" cx="466.49" cy="375.51" r="1.59"/><circle class="cls-3" cx="462.13" cy="586" r="1.72"/><circle class="cls-3" cx="459.49" cy="578.07" r="1.72"/><circle class="cls-3" cx="453.15" cy="578.07" r="1.72"/><line class="cls-3" x1="460.15" y1="580.05" x2="461.21" y2="584.28"/><line class="cls-3" x1="454.86" y1="578.47" x2="457.51" y2="578.47"/><line class="cls-3" x1="451.16" y1="566.31" x2="452.75" y2="576.35"/><line class="cls-3" x1="549.5" y1="330.5" x2="579.06" y2="304.63"/><circle class="cls-4" cx="578.94" cy="304.74" r="3.01" transform="translate(-57.43 456.64) rotate(-41.19)"/><path class="cls-5" d="M581.18,307.31a3.41,3.41,0,1,1,.32-4.81,3.41,3.41,0,0,1-.32,4.81Zm-4-4.53a2.61,2.61,0,1,0,3.68.25,2.61,2.61,0,0,0-3.68-.25Z"/><line class="cls-3" x1="593.44" y1="384.92" x2="618.4" y2="377.43"/><circle class="cls-4" cx="593.54" cy="384.89" r="1.88" transform="translate(-85.57 186.79) rotate(-16.7)"/><path class="cls-5" d="M594.15,386.93a2.13,2.13,0,1,0-2.65-1.43,2.13,2.13,0,0,0,2.65,1.43Zm-1.08-3.6a1.63,1.63,0,1,1-1.09,2,1.63,1.63,0,0,1,1.09-2Z"/><circle class="cls-4" cx="618.24" cy="377.48" r="3.01" transform="translate(-82.39 193.57) rotate(-16.7)"/><path class="cls-5" d="M619.22,380.74a3.41,3.41,0,1,1,2.28-4.24,3.41,3.41,0,0,1-2.28,4.24ZM617.49,375a2.61,2.61,0,1,0,3.25,1.75,2.61,2.61,0,0,0-3.25-1.75Z"/><line class="cls-3" x1="586.5" y1="394.5" x2="592.5" y2="398.5"/><path class="cls-2" d="M494.65,571a88.11,88.11,0,0,0-53.53-32.95"/><circle class="cls-2" cx="497.4" cy="574.97" r="3.96"/><line class="cls-3" x1="488.28" y1="585.43" x2="495.14" y2="577.96"/><line class="cls-3" x1="263" y1="392" x2="256.11" y2="386.73"/><circle class="cls-4" cx="256.19" cy="386.79" r="1.88" transform="translate(-206.68 355.34) rotate(-52.59)"/><path class="cls-5" d="M257.49,385.1a2.13,2.13,0,1,1-3,.4,2.13,2.13,0,0,1,3-.4Zm-2.28,3a1.63,1.63,0,1,0-.3-2.28,1.63,1.63,0,0,0,.3,2.28Z"/><circle class="cls-9" cx="330.81" cy="223.1" r="26.81"/><text class="cls-10" transform="translate(312.28 224.5)">EP_ABC</text><path class="cls-11" d="M304.61,145.73a8.88,8.88,0,0,1,6.52-3.61,8.86,8.86,0,0,1-2.14,6.63c-2.89,3.48-6.18,2.91-6.18,2.91S302.18,148.93,304.61,145.73Z"/><path class="cls-11" d="M303.15,154c1.4,0,4-1.93,7.39-1.93a9.26,9.26,0,0,1,8.13,4.15,9,9,0,0,0-4.49,7.86,9.24,9.24,0,0,0,5.59,8.45s-3.91,11-9.19,11c-2.42,0-4.31-1.63-6.86-1.63s-5.19,1.69-6.87,1.69c-4.82,0-10.91-10.43-10.91-18.82s5.15-12.58,10-12.58C299.07,152.22,301.51,154,303.15,154Z"/><circle class="cls-12" cx="302.86" cy="162.87" r="28.09"/><line class="cls-9" x1="311.96" y1="187.92" x2="317.83" y2="201.32"/><circle class="cls-13" cx="249.55" cy="281.75" r="26.81"/><text class="cls-14" transform="translate(229.5 283.15)">EP_GBM</text><g id="_Grupo_" data-name="&lt;Grupo&gt;"><path id="_Trazado_" data-name="&lt;Trazado&gt;" class="cls-15" d="M197.23,259.53h0a21,21,0,0,1-21-21h0a21,21,0,0,1,21-21h0a21,21,0,0,1,21,21h0A21,21,0,0,1,197.23,259.53Z"/><g id="_Grupo_2" data-name="&lt;Grupo&gt;"><path id="_Trazado_2" data-name="&lt;Trazado&gt;" class="cls-4" d="M199.86,237.94h-8.5v2.43h5.73c-.68,3-2.77,4.78-5.58,4.78a6.67,6.67,0,1,1,4.53-11.56l1.88-1.62a9.14,9.14,0,1,0-6.41,15.65c4.85,0,8.35-3.7,8.35-8.75Z"/><polygon id="_Trazado_3" data-name="&lt;Trazado&gt;" class="cls-4" points="212.08 238.04 208.57 238.04 208.57 234.53 206.33 234.53 206.33 238.04 202.82 238.04 202.82 240.28 206.33 240.28 206.33 243.79 208.57 243.79 208.57 240.28 212.08 240.28 212.08 238.04"/></g></g><circle class="cls-13" cx="197.23" cy="238.49" r="26.81"/><line class="cls-13" x1="218.13" y1="255.78" x2="229.02" y2="264.99"/><line class="cls-1" x1="218.13" y1="255.78" x2="423.5" y2="436.5"/><circle class="cls-16" cx="523.51" cy="223.1" r="26.81"/><text class="cls-17" transform="translate(505.37 224.5)">EP_FBK</text><g id="_Grupo_3" data-name="&lt;Grupo&gt;"><path id="_Trazado_4" data-name="&lt;Trazado&gt;" class="cls-18" d="M548.5,184.26h0A21.3,21.3,0,0,1,527.2,163h0a21.3,21.3,0,0,1,21.3-21.3h0a21.3,21.3,0,0,1,21.3,21.3h0A21.3,21.3,0,0,1,548.5,184.26Z"/><path id="_Trazado_5" data-name="&lt;Trazado&gt;" class="cls-4" d="M545.25,175.83h5.18v-13h3.62l.39-4.35h-4V156c0-1,.21-1.43,1.2-1.43h2.81v-4.51h-3.59c-3.86,0-5.6,1.7-5.6,5v3.47h-2.7v4.4h2.7Z"/></g><circle class="cls-19" cx="548.5" cy="162.96" r="26.81"/><line class="cls-19" x1="539.84" y1="189.59" x2="535.66" y2="198.81"/><circle class="cls-20" cx="200.95" cy="368.88" r="26.81"/><text class="cls-21" transform="translate(180.92 370.28)">EP_WAS</text><path class="cls-22" d="M133.83,330.88a18.12,18.12,0,0,0-15.6,27.35L116.85,366l8.05-1.18a18.12,18.12,0,1,0,8.92-33.9Z"/><path class="cls-4" d="M123.67,357.25a5.44,5.44,0,0,1-.46-2.09,1,1,0,0,1,0-.33c0-.11.31-.31.8-.61s1.1-.64,1.83-1l1.1-.6.39-.27a3.19,3.19,0,0,1,.52-.31,1.07,1.07,0,0,1,.44-.1q.37,0,1,.67t1.18,1.36q.58.68.91.68a1,1,0,0,0,.34-.07l.32-.13.35-.2.29-.18a15,15,0,0,0,6.15-6.15l.18-.29.2-.35a2.91,2.91,0,0,0,.14-.32,1,1,0,0,0,.07-.34,1.16,1.16,0,0,0-.42-.69,8.14,8.14,0,0,0-.93-.8,7.19,7.19,0,0,1-.93-.82,1.23,1.23,0,0,1-.42-.76,1,1,0,0,1,.1-.44,3.17,3.17,0,0,1,.31-.52l.27-.39.31-.59.52-.94.55-1a8.3,8.3,0,0,1,.52-.84,1.21,1.21,0,0,1,.34-.37,1,1,0,0,1,.33,0,5.45,5.45,0,0,1,2.09.46,3.73,3.73,0,0,1,1.66,2,6.59,6.59,0,0,1,.71,2.7,5.06,5.06,0,0,1-.05.7c0,.25-.07.46-.1.63a6.75,6.75,0,0,1-.19.68c-.09.28-.16.49-.21.61l-.26.68-.23.62a21.08,21.08,0,0,1-11.13,11.13l-.62.23-.68.26-.61.21a7,7,0,0,1-.68.19l-.63.1a5.08,5.08,0,0,1-.71.05,6.56,6.56,0,0,1-2.7-.71,3.74,3.74,0,0,1-2-1.66Z"/><circle class="cls-23" cx="133.83" cy="349" r="28.09"/><line class="cls-20" x1="160.32" y1="357.15" x2="175.4" y2="361.34"/><circle class="cls-24" cx="603.1" cy="283.42" r="26.81"/><text class="cls-25" transform="translate(581.91 284.82)">EP_CBOT</text><line class="cls-24" x1="633.68" y1="257.45" x2="622.79" y2="266.67"/><path class="cls-26" d="M652.92,228.83c0,2.33-1.47,3.91-3.45,3.47-2.15-.48-4-3.12-3.92-5.81s1.93-4,4-3.14A6.17,6.17,0,0,1,652.92,228.83Z"/><path class="cls-26" d="M659.5,230.91c.06,2-1,3.4-2.38,3.09s-2.85-2.49-2.87-4.75,1.24-3.47,2.72-2.87S659.44,228.95,659.5,230.91Z"/><path class="cls-26" d="M664.4,232.47c.08,1.75-.66,3-1.72,2.77s-2.14-2.07-2.21-4,.83-3.07,1.94-2.62S664.31,230.74,664.4,232.47Z"/><path class="cls-26" d="M653,239.32c0,2.52-1.53,4.62-3.59,4.66-2.26,0-4.19-2.36-4.11-5.31s2-4.83,4.2-4.43C651.45,234.6,653,236.85,653,239.32Z"/><path class="cls-26" d="M659.76,239.89c.06,2.14-1,3.92-2.44,3.94s-2.95-2-3-4.4,1.28-4.07,2.81-3.79S659.7,237.78,659.76,239.89Z"/><path class="cls-26" d="M664.77,240.31c.09,1.86-.67,3.4-1.74,3.42s-2.2-1.67-2.26-3.76.85-3.51,2-3.31S664.68,238.48,664.77,240.31Z"/><path class="cls-26" d="M653,250.8c0,2.74-1.6,5.45-3.76,6.07-2.37.67-4.41-1.42-4.33-4.68s2.15-5.83,4.42-6C651.44,246.08,653,248.12,653,250.8Z"/><path class="cls-26" d="M660,249.59c.07,2.3-1,4.51-2.51,4.93s-3.05-1.32-3.08-4,1.33-4.76,2.9-4.86S660,247.34,660,249.59Z"/><path class="cls-26" d="M665.17,248.71c.09,2-.67,3.84-1.77,4.15s-2.25-1.21-2.33-3.44.86-4,2-4.09S665.08,246.77,665.17,248.71Z"/><circle class="cls-24" cx="655.46" cy="239.02" r="26.81"/><line class="cls-1" x1="633.68" y1="257.45" x2="427.5" y2="436.5"/><circle class="cls-27" cx="650.43" cy="370.56" r="26.81"/><text class="cls-28" transform="translate(629.31 372.79)">EP_CCHT</text><line class="cls-27" x1="691.49" y1="354.64" x2="675.57" y2="359.66"/><path class="cls-29" d="M714.92,339.42c0,2.33-1.47,3.91-3.45,3.47-2.15-.48-4-3.12-3.92-5.81s1.93-4,4-3.14A6.17,6.17,0,0,1,714.92,339.42Z"/><path class="cls-29" d="M721.5,341.5c.06,2-1,3.4-2.38,3.09s-2.85-2.49-2.87-4.75,1.24-3.47,2.72-2.87S721.44,339.53,721.5,341.5Z"/><path class="cls-29" d="M726.39,343.06c.08,1.75-.66,3-1.72,2.77s-2.14-2.07-2.21-4,.83-3.07,1.94-2.62S726.31,341.33,726.39,343.06Z"/><path class="cls-29" d="M715,349.91c0,2.52-1.53,4.62-3.59,4.66-2.26,0-4.19-2.36-4.11-5.31s2-4.83,4.2-4.43C713.45,345.19,715,347.44,715,349.91Z"/><path class="cls-29" d="M721.76,350.48c.06,2.14-1,3.92-2.44,3.94s-2.95-2-3-4.4,1.28-4.07,2.81-3.79S721.7,348.37,721.76,350.48Z"/><path class="cls-29" d="M726.77,350.9c.09,1.86-.67,3.4-1.74,3.42s-2.2-1.67-2.26-3.76.85-3.51,2-3.31S726.68,349.07,726.77,350.9Z"/><path class="cls-29" d="M715,361.39c0,2.74-1.6,5.45-3.76,6.07-2.37.67-4.41-1.42-4.33-4.68s2.15-5.83,4.42-6C713.43,356.67,715,358.71,715,361.39Z"/><path class="cls-29" d="M722,360.18c.07,2.3-1,4.51-2.51,4.93s-3.05-1.32-3.08-4,1.33-4.76,2.9-4.86S722,357.93,722,360.18Z"/><path class="cls-29" d="M727.17,359.3c.09,2-.67,3.84-1.77,4.15s-2.25-1.21-2.33-3.44.86-4,2-4.09S727.08,357.36,727.17,359.3Z"/><circle class="cls-27" cx="717.46" cy="349.61" r="26.81"/><circle class="cls-30" cx="425.48" cy="202.16" r="26.81"/><text class="cls-31" transform="translate(403.74 203.56)">EP_TWTL</text><g id="_Grupo_4" data-name="&lt;Grupo&gt;"><path id="_Trazado_6" data-name="&lt;Trazado&gt;" class="cls-32" d="M425.07,157.27h0a20.46,20.46,0,0,1-20.46-20.46h0a20.46,20.46,0,0,1,20.46-20.46h0a20.46,20.46,0,0,1,20.46,20.46h0A20.46,20.46,0,0,1,425.07,157.27Z"/><path id="_Trazado_7" data-name="&lt;Trazado&gt;" class="cls-4" d="M414.17,143.66a12.72,12.72,0,0,0,19.57-11.3A9.07,9.07,0,0,0,436,130a8.94,8.94,0,0,1-2.57.7,4.48,4.48,0,0,0,2-2.47,9,9,0,0,1-2.84,1.09,4.48,4.48,0,0,0-7.62,4.08,12.69,12.69,0,0,1-9.22-4.67,4.48,4.48,0,0,0,1.38,6,4.46,4.46,0,0,1-2-.56,4.48,4.48,0,0,0,3.59,4.44,4.48,4.48,0,0,1-2,.08,4.48,4.48,0,0,0,4.18,3.11A9,9,0,0,1,414.17,143.66Z"/></g><circle class="cls-33" cx="425.07" cy="136.81" r="26.81"/><line class="cls-33" x1="425.48" y1="163.62" x2="425.48" y2="175.35"/><line class="cls-1" x1="311.96" y1="187.92" x2="423.5" y2="436.5"/><line class="cls-1" x1="539.84" y1="189.59" x2="427.5" y2="436.5"/><line class="cls-1" x1="160.32" y1="357.15" x2="423.5" y2="436.5"/><line class="cls-1" x1="691.49" y1="354.64" x2="427.5" y2="436.5"/><text class="cls-34" transform="translate(801 315.07)">Yggdrasil es un switch con<tspan class="cls-35" x="221.25" y="0">v</tspan><tspan x="230.59" y="0">ersacional de mensajes, </tspan><tspan x="0" y="21.6">e</tspan><tspan class="cls-35" x="10.04" y="21.6">v</tspan><tspan x="19.37" y="21.6">entos y queries. Al igual que el Yggdrasil de la </tspan><tspan x="0" y="43.2">mitología nórdica conecta los mundos del uni</tspan><tspan class="cls-35" x="386.35" y="43.2">v</tspan><tspan x="395.68" y="43.2">erso. </tspan><tspan x="0" y="64.8">Yggdrasil conecta, en una con</tspan><tspan class="cls-35" x="254.57" y="64.8">v</tspan><tspan x="263.9" y="64.8">ersación, cualquier </tspan><tspan x="0" y="86.4">canal, API o servicio que permita una comunicación </tspan><tspan x="0" y="108">vía una representación t</tspan><tspan class="cls-36" x="207.12" y="108">e</tspan><tspan x="216.81" y="108">xtual.</tspan></text><line class="cls-37" x1="773.5" y1="252" x2="773.5" y2="516"/><path d="M31.37,406.61a32,32,0,1,0,0-45.23A32,32,0,0,0,31.37,406.61Zm7.5-23.67,13.76-13.76a1.48,1.48,0,0,1,2.1,2.1L43.49,382.51H73.32a1.49,1.49,0,0,1,0,3H43.49l11.23,11.23a1.48,1.48,0,0,1,0,2.1,1.52,1.52,0,0,1-1.06.43,1.46,1.46,0,0,1-1.06-.43L38.85,385.06A1.53,1.53,0,0,1,38.86,382.94Z"/><path d="M1332.63,361.39a32,32,0,1,0,0,45.23A32,32,0,0,0,1332.63,361.39Zm-7.48,23.67-13.76,13.76a1.46,1.46,0,0,1-1.06.43,1.52,1.52,0,0,1-1.06-.43,1.48,1.48,0,0,1,0-2.1l11.23-11.23h-29.83a1.49,1.49,0,0,1,0-3h29.83l-11.23-11.23a1.48,1.48,0,1,1,2.1-2.1l13.76,13.76A1.53,1.53,0,0,1,1325.15,385.06Z"/><path class="cls-38" d="M1297.36,57.21l-1.52,3.44a16.09,16.09,0,0,1-1.79-7.42c-.1-4.62,1.6-10.14,10.36-9,4.64.58,9.74,3.71,9.74,3.71s-16.31-9.65-17.66,4.19A11.35,11.35,0,0,0,1297.36,57.21Z"/><path class="cls-38" d="M1336.69,78.92l-1.21,4.34a10.38,10.38,0,0,1-.22,9.23c-2.58,4.8-8.82,3.93-16.26.27-.18-.09,14.73,9.46,19.32-1.36C1340,87.34,1338.13,80.32,1336.69,78.92Z"/><polygon class="cls-38" points="1330.67 71.03 1303.83 62.22 1307.51 71.03 1303.83 79.78 1330.67 71.03"/><text class="cls-39" transform="translate(911.07 94.36)">CIC<tspan class="cls-40" x="31.91" y="0">L</tspan><tspan x="42.46" y="0">O DE </tspan><tspan class="cls-41" x="94.48" y="0">V</tspan><tspan x="107.33" y="0">I</tspan><tspan class="cls-42" x="113.07" y="0">D</tspan><tspan x="127.76" y="0">A DE UNA </tspan><tspan class="cls-41" x="225.34" y="0">C</tspan><tspan x="238.15" y="0">O</tspan><tspan class="cls-43" x="253.31" y="0">N</tspan><tspan class="cls-41" x="267.8" y="0">V</tspan><tspan x="280.65" y="0">ERS</tspan><tspan class="cls-42" x="317.19" y="0">A</tspan><tspan x="330.49" y="0">CIÓN</tspan></text><text class="cls-39" transform="translate(1052.28 113.36)"><tspan class="cls-44">C</tspan><tspan x="12.73" y="0">ompo</tspan><tspan class="cls-45" x="67.25" y="0">n</tspan><tspan x="79.67" y="0">en</tspan><tspan class="cls-46" x="103.19" y="0">t</tspan><tspan x="110.5" y="0">es p</tspan><tspan class="cls-43" x="148.28" y="0">r</tspan><tspan x="155.75" y="0">i</tspan><tspan class="cls-45" x="160.95" y="0">n</tspan><tspan x="173.37" y="0">ci</tspan><tspan class="cls-47" x="189.03" y="0">p</tspan><tspan x="201.26" y="0">ales</tspan></text><text class="cls-48" transform="translate(911.05 61.29)">ARQUIT<tspan class="cls-49" x="104.83" y="0">E</tspan><tspan class="cls-50" x="122.17" y="0">C</tspan><tspan class="cls-51" x="140.87" y="0">T</tspan><tspan x="156.18" y="0">URA </tspan><tspan class="cls-52" x="222.35" y="0">Y</tspan><tspan x="238.76" y="0">GGDRASIL</tspan></text><line class="cls-53" x1="843.14" y1="71" x2="1313" y2="71"/><circle class="cls-38" cx="843.52" cy="71" r="7.52"/><path class="cls-54" d="M146.31,143H1.06V60H148.31c4.6,0,10,5.4,10,12v59A12,12,0,0,1,146.31,143Z"/><text class="cls-55" transform="translate(65.26 127.65) scale(0.95 1)">1</text><path class="cls-38" d="M1133.52,727.15l2.56,1.39a10.35,10.35,0,0,1-5.53,1.64c-3.44.09-7.56-1.47-6.74-9.49a30.7,30.7,0,0,1,2.76-8.92s-7.19,14.95,3.12,16.18A7.12,7.12,0,0,0,1133.52,727.15Z"/><path class="cls-38" d="M1149.69,691.11l3.24,1.11a6.47,6.47,0,0,1,6.88.2c3.57,2.36,2.93,8.08.2,14.9-.07.17,7-13.49-1-17.7C1156,688,1150.73,689.8,1149.69,691.11Z"/><polygon class="cls-38" points="1143.81 696.63 1137.25 721.22 1143.81 717.85 1150.33 721.22 1143.81 696.63"/><path class="cls-38" d="M1189.84,695.76l-8.7,0-14,29.8h9.17l1.35-3.44,9-.07.47,3.51h8.63Zm-10,20.33,4.38-11.06,1.62,11.06Z"/><path class="cls-38" d="M1198.38,703.69h8.09s-1.53,11.1-1.62,12.09-.66,3.9,2.74,3.64c2.38-.18,3.19-.85,4.81-15.73h8.18l-3.06,21.85h-7.33l.27-2.92a8.89,8.89,0,0,1-7.51,3.55c-6,0-7.06-5.39-6.3-10.24S1198.38,703.69,1198.38,703.69Z"/><path class="cls-38" d="M1224.1,703.69l-2.92,21.85h8l1.48-10.61s0-4.63,6.2-3.5l1.21-8.32s-3.73-1.44-6.92,3.64l.4-3.06Z"/><path class="cls-38" d="M1251.65,702.92s-11.28-.94-13,10.17c-1.44,9.15,4.68,13.49,11.82,13.26,6.84-.21,10.92-4.59,11.64-11.15S1259.92,703,1251.65,702.92Zm2.19,12.26c-.56,3.21-2,5.23-4.09,5.12s-3.77-2.45-2.85-6.91c1.12-5.41,4.45-4.59,4.45-4.59C1253.85,709.1,1254.41,712,1253.85,715.17Z"/><path class="cls-38" d="M1273.19,703.64h-7.28l-3.1,21.89h8l1.8-12.9s.63-3.37,3.51-3.15,2.16,3.46,2.16,3.46l-1.57,12.59h8.14l1.62-13s1.89-8-5.08-9.35c0,0-4.58-1.3-8.45,3.37Z"/><polygon class="cls-38" points="1291.75 695.1 1299.89 695.1 1299.17 701.17 1291.08 701.17 1291.75 695.1"/><polygon class="cls-38" points="1298.85 703.69 1290.85 703.69 1287.7 725.53 1295.84 725.53 1298.85 703.69"/><polygon class="cls-38" points="1300.34 703.69 1308.79 703.69 1310.54 709.35 1313.42 703.69 1322.72 703.69 1315.13 713.89 1323.5 730.44 1314.95 730.44 1310.14 718.93 1306.9 725.53 1297.95 725.53 1305.55 714.26 1300.34 703.69"/></g>
<g id="links">
    <a href="#">
        <circle class="cls-56" cx="53.98" cy="384" r="31.98" transform="translate(-255.72 150.64) rotate(-45)"/>    
    </a>
    <a href="ciclo_conversacional_2.svg">
        <circle class="cls-56" cx="1310.98" cy="384" r="31.98" transform="translate(112.45 1039.47) rotate(-45)"/>
    </a>
</g>
<style>
     @font-face 
   {
      font-family: 'Montserrat SemiBold', 'Monserrat-SemiBold';
      src: url(svg/Montserrat-SemiBold.ttf)
    }  
</style>
</svg>