<svg xmlns="http://www.w3.org/2000/svg" viewBox="0 0 1366 768"><defs><style>.cls-1,.cls-2,.cls-3,.cls-33,.cls-4,.cls-50{fill:none;}.cls-2,.cls-3,.cls-4{stroke:#0e2599;}.cls-2,.cls-3,.cls-33,.cls-4,.cls-50,.cls-51{stroke-miterlimit:10;}.cls-2,.cls-33,.cls-50{stroke-width:2px;}.cls-4{stroke-width:1.5px;}.cls-5{font-size:14.24px;fill:#0d0787;font-family:Babylon5Credits, Babylon5Credits;}.cls-52,.cls-6{fill:#fff;}.cls-7{fill:#0e2599;}.cls-36,.cls-8{font-size:18px;}.cls-8{font-family:Sen-Bold, Sen;}.cls-9{font-weight:700;}.cls-10{letter-spacing:-0.02em;}.cls-11{letter-spacing:0em;}.cls-12{letter-spacing:-0.02em;}.cls-13{letter-spacing:0em;}.cls-14,.cls-29{font-family:Sen-Regular, Sen;}.cls-15{letter-spacing:-0.02em;}.cls-16{letter-spacing:-0.01em;}.cls-17,.cls-19,.cls-20,.cls-21,.cls-24,.cls-25,.cls-27,.cls-28{fill:#0071bc;}.cls-18,.cls-29{font-size:16px;}.cls-18{font-family:Montserrat-Light, Montserrat Light;letter-spacing:0.09em;}.cls-19{letter-spacing:0.08em;}.cls-20{letter-spacing:0.08em;}.cls-21{letter-spacing:0.09em;}.cls-22{letter-spacing:0.14em;}.cls-23{letter-spacing:0.03em;}.cls-24,.cls-26{letter-spacing:0.1em;}.cls-25{letter-spacing:0.1em;}.cls-27{letter-spacing:0.08em;}.cls-28{letter-spacing:0.09em;}.cls-30{letter-spacing:-0.02em;}.cls-31{letter-spacing:-0.02em;}.cls-32{letter-spacing:0em;}.cls-33{stroke:#385995;stroke-dasharray:3 3;}.cls-33,.cls-50{stroke-linecap:round;}.cls-34{fill:#385995;}.cls-35{fill:#02255b;}.cls-36,.cls-45{font-family:Montserrat-SemiBold, Montserrat SemiBold;}.cls-37{letter-spacing:-0.01em;}.cls-38{letter-spacing:-0.02em;}.cls-39{letter-spacing:-0.01em;}.cls-40{letter-spacing:0em;}.cls-41{letter-spacing:-0.02em;}.cls-42{letter-spacing:0em;}.cls-43{letter-spacing:-0.02em;}.cls-44{letter-spacing:-0.01em;}.cls-45{font-size:26px;}.cls-46{letter-spacing:0em;}.cls-47{letter-spacing:-0.01em;}.cls-48{letter-spacing:-0.01em;}.cls-49{letter-spacing:-0.03em;}.cls-50{stroke:#02255b;}.cls-51{stroke:#000;stroke-width:4px;}.cls-52{font-size:75px;font-family:Montserrat-ExtraBold, Montserrat ExtraBold;letter-spacing:0.1em;}.cls-53{fill:#db2a26;opacity:0;}</style></defs><title>ciclo_conversacional_4</title><g id="Capa_1" data-name="Capa 1"><path class="cls-1" d="M850.83,432.41c0,115.09-93.3,208.4-208.4,208.4S434,547.51,434,432.41C434,339,495.49,260,580.17,233.48a207.29,207.29,0,0,1,38.12-8.08A210.61,210.61,0,0,1,642.43,224C757.53,224,850.83,317.32,850.83,432.41Z"/><ellipse class="cls-1" cx="642.43" cy="432.41" rx="271.4" ry="265.81"/><line class="cls-2" x1="591.65" y1="573.03" x2="568.21" y2="584.48"/><line class="cls-2" x1="620.35" y1="577.73" x2="597.3" y2="572.09"/><line class="cls-2" x1="633.99" y1="549.98" x2="624.58" y2="576.32"/><line class="cls-2" x1="633.52" y1="539.16" x2="634.93" y2="544.8"/><line class="cls-2" x1="637.28" y1="518.93" x2="633.52" y2="533.52"/><line class="cls-2" x1="637.75" y1="418.74" x2="637.75" y2="513.29"/><line class="cls-2" x1="611.41" y1="392.4" x2="635.87" y2="414.04"/><line class="cls-2" x1="625.52" y1="354.3" x2="610.47" y2="387.23"/><line class="cls-2" x1="628.5" y1="314.3" x2="632.58" y2="335.02"/><line class="cls-2" x1="624.11" y1="290.33" x2="627.09" y2="307.72"/><line class="cls-2" x1="631.17" y1="272.93" x2="624.58" y2="285.16"/><circle class="cls-2" cx="632.81" cy="269.87" r="3.53"/><circle class="cls-2" cx="632.58" cy="337.84" r="2.82"/><circle class="cls-2" cx="610" cy="390.05" r="2.82"/><circle class="cls-2" cx="637.75" cy="415.92" r="2.82"/><circle class="cls-2" cx="637.75" cy="516.11" r="2.82"/><circle class="cls-2" cx="633.05" cy="536.34" r="2.82"/><circle class="cls-2" cx="634.93" cy="547.16" r="2.82"/><circle class="cls-2" cx="623.64" cy="578.67" r="2.82"/><circle class="cls-2" cx="594.48" cy="571.62" r="2.82"/><circle class="cls-2" cx="623.64" cy="287.51" r="2.82"/><line class="cls-2" x1="611.41" y1="297.86" x2="625.52" y2="310.09"/><line class="cls-2" x1="597.3" y1="303.03" x2="606.71" y2="297.39"/><line class="cls-2" x1="577.17" y1="287.09" x2="592.12" y2="302.09"/><line class="cls-2" x1="598.94" y1="333.37" x2="608.35" y2="339.49"/><line class="cls-2" x1="585.54" y1="334.55" x2="593.07" y2="332.66"/><line class="cls-2" x1="565.78" y1="297.39" x2="581.78" y2="332.19"/><line class="cls-2" x1="614.7" y1="317.14" x2="611.55" y2="338.26"/><line class="cls-2" x1="602.71" y1="358.3" x2="617.76" y2="348.89"/><line class="cls-2" x1="578.72" y1="348.89" x2="596.59" y2="358.3"/><circle class="cls-2" cx="594.48" cy="303.5" r="2.82"/><circle class="cls-2" cx="609.06" cy="295.98" r="2.82"/><circle class="cls-2" cx="627.4" cy="311.03" r="2.82"/><circle class="cls-2" cx="610.94" cy="341.13" r="2.82"/><circle class="cls-2" cx="615.17" cy="314.32" r="2.82"/><circle class="cls-2" cx="619.41" cy="347.72" r="2.82"/><circle class="cls-2" cx="626.46" cy="351.48" r="2.82"/><circle class="cls-2" cx="599.65" cy="359.48" r="2.82"/><circle class="cls-2" cx="576.6" cy="347.72" r="2.82"/><circle class="cls-2" cx="596.36" cy="331.72" r="2.82"/><circle class="cls-2" cx="582.72" cy="335.02" r="2.82"/><line class="cls-2" x1="631.17" y1="341.13" x2="627.64" y2="348.89"/><line class="cls-2" x1="621.52" y1="348.42" x2="623.87" y2="349.83"/><line class="cls-2" x1="613.31" y1="342.84" x2="617.54" y2="345.66"/><circle class="cls-2" cx="564.37" cy="294.56" r="3.53"/><circle class="cls-2" cx="574.35" cy="284.27" r="3.53" transform="translate(-63.98 227.5) rotate(-21.25)"/><circle class="cls-3" cx="571.43" cy="298.8" r="1.41"/><circle class="cls-3" cx="584.13" cy="298.8" r="1.41" transform="translate(-64.51 200.05) rotate(-18.43)"/><circle class="cls-3" cx="581.31" cy="314.79" r="1.41"/><circle class="cls-3" cx="586.95" cy="306.32" r="1.41" transform="translate(-74.95 321.66) rotate(-28.89)"/><circle class="cls-3" cx="584.6" cy="317.14" r="1.41"/><circle class="cls-3" cx="602.47" cy="307.26" r="1.41"/><circle class="cls-3" cx="592.12" cy="316.67" r="1.41"/><circle class="cls-3" cx="602.47" cy="316.67" r="1.41"/><circle class="cls-3" cx="602.47" cy="322.32" r="1.41"/><circle class="cls-3" cx="577.54" cy="312.91" r="1.41"/><line class="cls-3" x1="584.6" y1="300.21" x2="586.48" y2="304.91"/><line class="cls-3" x1="602.47" y1="308.68" x2="602.47" y2="315.26"/><line class="cls-3" x1="602.47" y1="318.08" x2="602.47" y2="320.91"/><line class="cls-3" x1="593.54" y1="316.67" x2="601.06" y2="316.67"/><line class="cls-3" x1="586.01" y1="307.73" x2="582.25" y2="313.38"/><line class="cls-3" x1="571.9" y1="300.21" x2="577.07" y2="311.5"/><line class="cls-3" x1="603.88" y1="323.26" x2="612.35" y2="327.96"/><line class="cls-3" x1="585.07" y1="318.55" x2="591.18" y2="333.14"/><line class="cls-3" x1="582.25" y1="315.73" x2="583.19" y2="316.2"/><circle class="cls-3" cx="637.28" cy="321.85" r="1.41"/><circle class="cls-3" cx="634.46" cy="295.98" r="1.41"/><circle class="cls-3" cx="621.76" cy="273.4" r="1.41"/><line class="cls-3" x1="622.7" y1="274.34" x2="627.4" y2="278.57"/><line class="cls-3" x1="626.93" y1="303.5" x2="633.52" y2="296.92"/><line class="cls-3" x1="631.64" y1="327.96" x2="636.34" y2="322.79"/><circle class="cls-3" cx="630.7" cy="384.88" r="1.41"/><circle class="cls-3" cx="635.87" cy="365.12" r="1.41"/><circle class="cls-3" cx="630.22" cy="363.24" r="1.41"/><circle class="cls-3" cx="633.05" cy="368.88" r="1.41"/><circle class="cls-3" cx="624.11" cy="372.65" r="1.41"/><circle class="cls-3" cx="627.4" cy="377.82" r="1.41"/><line class="cls-3" x1="628.34" y1="376.41" x2="632.11" y2="370.29"/><line class="cls-3" x1="626.46" y1="376.41" x2="625.05" y2="374.06"/><line class="cls-3" x1="630.22" y1="383.47" x2="627.87" y2="379.23"/><line class="cls-3" x1="632.58" y1="367.94" x2="631.17" y2="364.65"/><line class="cls-3" x1="633.99" y1="367.47" x2="634.93" y2="366.53"/><line class="cls-3" x1="620.35" y1="400.4" x2="630.22" y2="386.29"/><line class="cls-3" x1="628.34" y1="406.51" x2="634.46" y2="397.11"/><circle class="cls-3" cx="634.93" cy="396.17" r="1.41"/><line class="cls-3" x1="637.28" y1="428.15" x2="623.64" y2="416.39"/><line class="cls-3" x1="622.7" y1="414.04" x2="623.64" y2="410.75"/><line class="cls-3" x1="614.7" y1="401.81" x2="623.17" y2="408.4"/><circle class="cls-3" cx="622.7" cy="415.45" r="1.41"/><circle class="cls-3" cx="624.11" cy="409.34" r="1.41"/><circle class="cls-3" cx="613.76" cy="400.87" r="1.41"/><circle class="cls-3" cx="606.71" cy="588.08" r="1.41"/><circle class="cls-3" cx="602" cy="589.49" r="1.41"/><circle class="cls-3" cx="599.65" cy="597.96" r="1.41"/><line class="cls-3" x1="609.53" y1="575.85" x2="607.18" y2="586.67"/><line class="cls-3" x1="605.29" y1="588.55" x2="603.41" y2="589.02"/><line class="cls-3" x1="601.53" y1="590.9" x2="600.12" y2="596.55"/><circle class="cls-3" cx="599.18" cy="581.49" r="1.41"/><circle class="cls-3" cx="588.83" cy="592.31" r="1.41"/><circle class="cls-3" cx="580.84" cy="589.02" r="1.41"/><circle class="cls-3" cx="576.13" cy="590.9" r="1.41"/><circle class="cls-3" cx="572.37" cy="598.9" r="1.41"/><line class="cls-3" x1="585.07" y1="576.79" x2="581.31" y2="587.61"/><line class="cls-3" x1="598.24" y1="582.43" x2="589.77" y2="590.9"/><line class="cls-3" x1="601.06" y1="573.5" x2="599.65" y2="580.08"/><line class="cls-3" x1="575.66" y1="592.31" x2="572.84" y2="597.96"/><line class="cls-3" x1="579.42" y1="589.96" x2="577.54" y2="590.43"/><circle class="cls-3" cx="608.12" cy="283.28" r="1.41"/><circle class="cls-3" cx="615.64" cy="276.69" r="1.41"/><circle class="cls-3" cx="604.82" cy="276.69" r="1.41"/><circle class="cls-3" cx="594.48" cy="282.33" r="1.41"/><line class="cls-3" x1="595.42" y1="283.75" x2="602.94" y2="298.8"/><line class="cls-3" x1="607.18" y1="284.22" x2="599.18" y2="291.27"/><line class="cls-3" x1="614.7" y1="277.63" x2="609.53" y2="282.33"/><line class="cls-3" x1="605.77" y1="278.1" x2="607.18" y2="281.86"/><circle class="cls-2" cx="563.86" cy="586.64" r="4.35"/><line class="cls-2" x1="630.46" y1="524.81" x2="624.35" y2="545.04"/><line class="cls-2" x1="630.93" y1="441.09" x2="630.93" y2="520.11"/><line class="cls-2" x1="621.99" y1="430.74" x2="629.05" y2="437.32"/><line class="cls-2" x1="611.88" y1="416.16" x2="618.7" y2="426.5"/><line class="cls-2" x1="594.01" y1="406.28" x2="607.65" y2="412.39"/><line class="cls-2" x1="591.65" y1="371.94" x2="591.65" y2="402.52"/><line class="cls-2" x1="558.96" y1="352.66" x2="588.83" y2="367.71"/><line class="cls-2" x1="560.37" y1="329.61" x2="556.61" y2="348.89"/><line class="cls-2" x1="536.86" y1="318.32" x2="558.49" y2="326.31"/><circle class="cls-2" cx="533.33" cy="317.14" r="3.53"/><line class="cls-2" x1="563.2" y1="315.5" x2="561.79" y2="323.96"/><line class="cls-2" x1="581.07" y1="400.63" x2="589.07" y2="403.93"/><line class="cls-2" x1="561.79" y1="404.4" x2="575.43" y2="400.16"/><line class="cls-2" x1="528.86" y1="382.29" x2="556.14" y2="402.99"/><line class="cls-2" x1="529.33" y1="368.18" x2="527.45" y2="377.59"/><line class="cls-2" x1="510.51" y1="357.83" x2="526.98" y2="364.42"/><line class="cls-2" x1="543.91" y1="410.04" x2="555.67" y2="406.28"/><line class="cls-2" x1="521.8" y1="397.34" x2="538.74" y2="409.1"/><line class="cls-2" x1="496.87" y1="409.57" x2="517.1" y2="397.34"/><line class="cls-2" x1="532.15" y1="355.01" x2="530.27" y2="363.47"/><circle class="cls-2" cx="591.42" cy="369.12" r="2.82"/><circle class="cls-2" cx="556.14" cy="351.71" r="2.82"/><circle class="cls-2" cx="560.84" cy="326.78" r="2.82"/><circle class="cls-2" cx="529.8" cy="365.83" r="2.82"/><circle class="cls-2" cx="526.98" cy="380.41" r="2.82"/><circle class="cls-2" cx="591.42" cy="405.34" r="2.82"/><circle class="cls-2" cx="578.25" cy="399.69" r="2.82"/><circle class="cls-2" cx="558.49" cy="405.34" r="2.82"/><circle class="cls-2" cx="541.09" cy="410.51" r="2.82"/><circle class="cls-2" cx="519.45" cy="395.93" r="2.82"/><circle class="cls-2" cx="563.9" cy="311.97" r="3.53"/><line class="cls-2" x1="500.17" y1="382.29" x2="517.1" y2="394.05"/><circle class="cls-2" cx="610.23" cy="413.8" r="2.82"/><circle class="cls-2" cx="620.11" cy="428.86" r="2.82"/><circle class="cls-2" cx="630.93" cy="438.73" r="2.82"/><circle class="cls-2" cx="630.93" cy="522.46" r="2.82"/><circle class="cls-2" cx="623.87" cy="547.39" r="2.82"/><circle class="cls-2" cx="532.86" cy="351.48" r="3.53"/><circle class="cls-2" cx="506.99" cy="356.65" r="3.53"/><circle class="cls-2" cx="498.05" cy="380.64" r="3.53"/><circle class="cls-2" cx="494.29" cy="411.22" r="3.53"/><polyline class="cls-3" points="621.05 546.92 602.71 554.45 602 555.62 599.41 561.03"/><circle class="cls-3" cx="598.83" cy="562.33" r="1.53"/><circle class="cls-3" cx="586.6" cy="566.09" r="1.53"/><line class="cls-3" x1="597.3" y1="562.21" x2="587.89" y2="565.5"/><line class="cls-4" x1="591.42" y1="384.17" x2="569.08" y2="374.53"/><line class="cls-4" x1="567.66" y1="372.18" x2="567.66" y2="368.41"/><line class="cls-4" x1="566.25" y1="366.06" x2="560.14" y2="362.77"/><circle class="cls-4" cx="558.73" cy="361.83" r="1.41"/><circle class="cls-4" cx="567.66" cy="343.95" r="1.41"/><circle class="cls-4" cx="575.19" cy="329.37" r="1.41"/><circle class="cls-4" cx="567.66" cy="367" r="1.41"/><circle class="cls-4" cx="567.66" cy="373.59" r="1.41"/><circle class="cls-4" cx="558.73" cy="384.88" r="1.41"/><circle class="cls-4" cx="566.25" cy="384.88" r="1.41"/><circle class="cls-4" cx="538.97" cy="368.41" r="1.41"/><circle class="cls-4" cx="542.73" cy="357.12" r="1.41"/><circle class="cls-4" cx="549.32" cy="368.41" r="1.41"/><circle class="cls-4" cx="546.5" cy="384.88" r="1.41"/><line class="cls-4" x1="548.38" y1="367" x2="543.68" y2="358.54"/><line class="cls-4" x1="557.79" y1="383.47" x2="550.26" y2="369.82"/><line class="cls-4" x1="564.84" y1="384.88" x2="560.14" y2="384.88"/><line class="cls-4" x1="547.91" y1="368.41" x2="540.38" y2="368.41"/><line class="cls-4" x1="557.32" y1="384.88" x2="547.91" y2="384.88"/><line class="cls-4" x1="591.65" y1="393.34" x2="567.66" y2="385.35"/><circle class="cls-3" cx="550.73" cy="314.32" r="1.41"/><circle class="cls-3" cx="551.67" cy="302.09" r="1.41"/><circle class="cls-3" cx="541.32" cy="312.44" r="1.41"/><circle class="cls-3" cx="543.68" cy="340.66" r="1.41"/><circle class="cls-3" cx="550.26" cy="337.37" r="1.41" transform="translate(-93.69 381.32) rotate(-35.42)"/><circle class="cls-3" cx="545.09" cy="325.61" r="1.41"/><line class="cls-4" x1="567.66" y1="356.65" x2="567.66" y2="345.36"/><line class="cls-4" x1="568.61" y1="342.54" x2="574.25" y2="330.78"/><line class="cls-3" x1="549.79" y1="335.96" x2="545.56" y2="327.02"/><line class="cls-3" x1="548.85" y1="338.31" x2="545.09" y2="340.19"/><line class="cls-3" x1="556.85" y1="344.42" x2="551.2" y2="338.31"/><line class="cls-3" x1="549.32" y1="314.32" x2="542.73" y2="312.91"/><line class="cls-3" x1="550.73" y1="312.91" x2="551.67" y2="303.5"/><line class="cls-3" x1="552.14" y1="314.79" x2="562.02" y2="318.55"/><circle class="cls-3" cx="520.16" cy="348.66" r="1.41"/><circle class="cls-3" cx="538.03" cy="336.43" r="1.41"/><circle class="cls-3" cx="529.14" cy="334.39" r="1.41"/><circle class="cls-3" cx="531.45" cy="340.66" r="1.41"/><circle class="cls-3" cx="518.28" cy="341.13" r="1.41"/><circle class="cls-3" cx="517.33" cy="370.29" r="1.41"/><circle class="cls-3" cx="501.34" cy="366.06" r="1.41"/><circle class="cls-3" cx="509.34" cy="375.94" r="1.41"/><circle class="cls-3" cx="490.99" cy="399.46" r="1.41"/><circle class="cls-3" cx="498.99" cy="393.81" r="1.41"/><line class="cls-3" x1="522.98" y1="362.77" x2="520.16" y2="350.07"/><line class="cls-3" x1="519.69" y1="347.25" x2="518.75" y2="342.54"/><line class="cls-3" x1="521.57" y1="348.19" x2="530.51" y2="341.6"/><line class="cls-3" x1="531.45" y1="339.25" x2="529.87" y2="336.01"/><line class="cls-3" x1="532.86" y1="340.19" x2="536.62" y2="337.37"/><line class="cls-3" x1="510.75" y1="401.34" x2="500.4" y2="394.75"/><line class="cls-3" x1="497.58" y1="394.75" x2="491.93" y2="398.52"/><line class="cls-3" x1="509.34" y1="388.17" x2="509.34" y2="377.35"/><line class="cls-3" x1="502.28" y1="367" x2="508.4" y2="374.53"/><line class="cls-3" x1="515.92" y1="371.24" x2="510.75" y2="375.47"/><line class="cls-4" x1="600.59" y1="409.34" x2="601.06" y2="388.17"/><line class="cls-4" x1="605.29" y1="376.88" x2="607.65" y2="371.71"/><line class="cls-4" x1="603.88" y1="376.88" x2="599.65" y2="370.77"/><line class="cls-4" x1="602" y1="384.88" x2="603.88" y2="379.7"/><circle class="cls-4" cx="601.06" cy="386.29" r="1.41"/><circle class="cls-4" cx="608.59" cy="370.29" r="1.41"/><circle class="cls-4" cx="598.71" cy="369.82" r="1.41"/><circle class="cls-4" cx="604.82" cy="378.29" r="1.41"/><circle class="cls-3" cx="608.71" cy="565.62" r="1.53"/><circle class="cls-3" cx="611.06" cy="558.56" r="1.53"/><circle class="cls-3" cx="616.7" cy="558.56" r="1.53"/><line class="cls-3" x1="610.47" y1="560.33" x2="609.53" y2="564.09"/><line class="cls-3" x1="615.17" y1="558.92" x2="612.82" y2="558.92"/><line class="cls-3" x1="618.47" y1="548.1" x2="617.05" y2="557.03"/><path class="cls-2" d="M579.76,552.27A78.42,78.42,0,0,1,627.4,523"/><circle class="cls-2" cx="577.31" cy="555.8" r="3.53"/><line class="cls-3" x1="585.43" y1="565.11" x2="579.33" y2="558.46"/><path class="cls-2" d="M719.89,590.9a79.26,79.26,0,0,1,.53,9.13,78.43,78.43,0,1,1-156.87,0c0-3.17,0-6.1.23-9"/><text class="cls-5" transform="translate(616.14 660.65)">SWITCH</text><circle class="cls-3" cx="610.54" cy="679.89" r="1.41"/><circle class="cls-3" cx="622.18" cy="683.77" r="1.41"/><circle class="cls-3" cx="628.28" cy="684.88" r="1.41"/><circle class="cls-3" cx="604.45" cy="677.12" r="1.41"/><circle class="cls-3" cx="616.64" cy="682.11" r="1.41"/><circle class="cls-3" cx="673.73" cy="679.89" r="1.41"/><circle class="cls-3" cx="662.09" cy="683.77" r="1.41"/><circle class="cls-3" cx="656" cy="684.88" r="1.41"/><circle class="cls-3" cx="679.83" cy="677.12" r="1.41"/><circle class="cls-3" cx="667.64" cy="682.11" r="1.41"/><line class="cls-2" x1="692.1" y1="573.03" x2="715.54" y2="584.48"/><line class="cls-2" x1="663.4" y1="577.73" x2="686.45" y2="572.09"/><line class="cls-2" x1="649.76" y1="549.98" x2="659.17" y2="576.32"/><line class="cls-2" x1="650.23" y1="539.16" x2="648.82" y2="544.8"/><line class="cls-2" x1="646.47" y1="518.93" x2="650.23" y2="533.52"/><line class="cls-2" x1="646" y1="418.74" x2="646" y2="513.29"/><line class="cls-2" x1="672.34" y1="392.4" x2="647.88" y2="414.04"/><line class="cls-2" x1="658.23" y1="354.3" x2="673.28" y2="387.23"/><line class="cls-2" x1="655.25" y1="314.3" x2="651.17" y2="335.02"/><line class="cls-2" x1="659.64" y1="290.33" x2="656.66" y2="307.72"/><line class="cls-2" x1="652.58" y1="272.93" x2="659.17" y2="285.16"/><circle class="cls-2" cx="650.94" cy="269.87" r="3.53"/><circle class="cls-2" cx="651.17" cy="337.84" r="2.82"/><circle class="cls-2" cx="673.75" cy="390.05" r="2.82"/><circle class="cls-2" cx="646" cy="415.92" r="2.82"/><circle class="cls-2" cx="646" cy="516.11" r="2.82"/><circle class="cls-2" cx="650.7" cy="536.34" r="2.82"/><circle class="cls-2" cx="648.82" cy="547.16" r="2.82"/><circle class="cls-2" cx="660.11" cy="578.67" r="2.82"/><circle class="cls-2" cx="689.27" cy="571.62" r="2.82"/><circle class="cls-2" cx="660.11" cy="287.51" r="2.82"/><line class="cls-2" x1="672.34" y1="297.86" x2="658.23" y2="310.09"/><line class="cls-2" x1="686.45" y1="303.03" x2="677.04" y2="297.39"/><line class="cls-2" x1="708.36" y1="287.09" x2="691.63" y2="302.09"/><line class="cls-2" x1="684.81" y1="333.37" x2="675.4" y2="339.49"/><line class="cls-2" x1="698.21" y1="334.55" x2="690.69" y2="332.66"/><line class="cls-2" x1="717.97" y1="297.39" x2="701.97" y2="332.19"/><line class="cls-2" x1="669.05" y1="317.14" x2="672.2" y2="338.26"/><line class="cls-2" x1="681.04" y1="358.3" x2="665.99" y2="348.89"/><line class="cls-2" x1="705.03" y1="348.89" x2="687.16" y2="358.3"/><circle class="cls-2" cx="689.27" cy="303.5" r="2.82"/><circle class="cls-2" cx="674.69" cy="295.98" r="2.82"/><circle class="cls-2" cx="656.35" cy="311.03" r="2.82"/><circle class="cls-2" cx="672.81" cy="341.13" r="2.82"/><circle class="cls-2" cx="668.58" cy="314.32" r="2.82"/><circle class="cls-2" cx="664.34" cy="347.72" r="2.82"/><circle class="cls-2" cx="657.29" cy="351.48" r="2.82"/><circle class="cls-2" cx="684.1" cy="359.48" r="2.82"/><circle class="cls-2" cx="707.15" cy="347.72" r="2.82"/><circle class="cls-2" cx="687.39" cy="331.72" r="2.82"/><circle class="cls-2" cx="701.03" cy="335.02" r="2.82"/><line class="cls-2" x1="652.58" y1="341.13" x2="656.11" y2="348.89"/><line class="cls-2" x1="662.23" y1="348.42" x2="659.88" y2="349.83"/><line class="cls-2" x1="670.44" y1="342.84" x2="666.21" y2="345.66"/><circle class="cls-2" cx="719.38" cy="294.56" r="3.53"/><circle class="cls-2" cx="711.18" cy="285.16" r="3.53"/><circle class="cls-3" cx="712.32" cy="298.8" r="1.41"/><circle class="cls-3" cx="700.51" cy="298.8" r="1.41" transform="translate(195.53 868.87) rotate(-71.57)"/><circle class="cls-3" cx="702.44" cy="314.79" r="1.41"/><circle class="cls-3" cx="696.8" cy="306.32" r="1.41" transform="translate(91.98 768.45) rotate(-61.11)"/><circle class="cls-3" cx="699.15" cy="317.14" r="1.41"/><circle class="cls-3" cx="681.28" cy="307.26" r="1.41"/><circle class="cls-3" cx="691.63" cy="316.67" r="1.41"/><circle class="cls-3" cx="681.28" cy="316.67" r="1.41"/><circle class="cls-3" cx="681.28" cy="322.32" r="1.41"/><circle class="cls-3" cx="706.21" cy="312.91" r="1.41"/><line class="cls-3" x1="700.04" y1="300.21" x2="697.27" y2="304.91"/><line class="cls-3" x1="681.28" y1="308.68" x2="681.28" y2="315.26"/><line class="cls-3" x1="681.28" y1="318.08" x2="681.28" y2="320.91"/><line class="cls-3" x1="690.21" y1="316.67" x2="682.69" y2="316.67"/><line class="cls-3" x1="697.74" y1="307.73" x2="701.5" y2="313.38"/><line class="cls-3" x1="711.85" y1="300.21" x2="706.68" y2="311.5"/><line class="cls-3" x1="679.87" y1="323.26" x2="671.4" y2="327.96"/><line class="cls-3" x1="698.68" y1="318.55" x2="692.57" y2="333.14"/><line class="cls-3" x1="701.5" y1="315.73" x2="700.56" y2="316.2"/><circle class="cls-3" cx="646.47" cy="321.85" r="1.41"/><circle class="cls-3" cx="649.29" cy="295.98" r="1.41"/><circle class="cls-3" cx="661.99" cy="273.4" r="1.41"/><line class="cls-3" x1="661.05" y1="274.34" x2="656.35" y2="278.57"/><line class="cls-3" x1="656.82" y1="303.5" x2="650.23" y2="296.92"/><line class="cls-3" x1="652.11" y1="327.96" x2="647.41" y2="322.79"/><circle class="cls-3" cx="653.06" cy="384.88" r="1.41"/><circle class="cls-3" cx="647.88" cy="365.12" r="1.41"/><circle class="cls-3" cx="653.53" cy="363.24" r="1.41"/><circle class="cls-3" cx="650.7" cy="368.88" r="1.41"/><circle class="cls-3" cx="659.64" cy="372.65" r="1.41"/><circle class="cls-3" cx="656.35" cy="377.82" r="1.41"/><line class="cls-3" x1="655.41" y1="376.41" x2="651.64" y2="370.29"/><line class="cls-3" x1="657.29" y1="376.41" x2="658.7" y2="374.06"/><line class="cls-3" x1="653.53" y1="383.47" x2="655.88" y2="379.23"/><line class="cls-3" x1="651.17" y1="367.94" x2="652.58" y2="364.65"/><line class="cls-3" x1="649.76" y1="367.47" x2="648.82" y2="366.53"/><line class="cls-3" x1="663.4" y1="400.4" x2="653.53" y2="386.29"/><line class="cls-3" x1="655.41" y1="406.51" x2="649.29" y2="397.11"/><circle class="cls-3" cx="648.82" cy="396.17" r="1.41"/><line class="cls-3" x1="646.47" y1="428.15" x2="660.11" y2="416.39"/><line class="cls-3" x1="661.05" y1="414.04" x2="660.11" y2="410.75"/><line class="cls-3" x1="669.05" y1="401.81" x2="660.58" y2="408.4"/><circle class="cls-3" cx="661.05" cy="415.45" r="1.41"/><circle class="cls-3" cx="659.64" cy="409.34" r="1.41"/><circle class="cls-3" cx="669.99" cy="400.87" r="1.41"/><circle class="cls-3" cx="677.04" cy="588.08" r="1.41"/><circle class="cls-3" cx="681.75" cy="589.49" r="1.41"/><circle class="cls-3" cx="684.1" cy="597.96" r="1.41"/><line class="cls-3" x1="674.22" y1="575.85" x2="676.57" y2="586.67"/><line class="cls-3" x1="678.46" y1="588.55" x2="680.34" y2="589.02"/><line class="cls-3" x1="682.22" y1="590.9" x2="683.63" y2="596.55"/><circle class="cls-3" cx="684.57" cy="581.49" r="1.41"/><circle class="cls-3" cx="694.92" cy="592.31" r="1.41"/><circle class="cls-3" cx="702.91" cy="589.02" r="1.41"/><circle class="cls-3" cx="707.62" cy="590.9" r="1.41"/><circle class="cls-3" cx="711.38" cy="598.9" r="1.41"/><line class="cls-3" x1="698.68" y1="576.79" x2="702.44" y2="587.61"/><line class="cls-3" x1="685.51" y1="582.43" x2="693.98" y2="590.9"/><line class="cls-3" x1="682.69" y1="573.5" x2="684.1" y2="580.08"/><line class="cls-3" x1="708.09" y1="592.31" x2="710.91" y2="597.96"/><line class="cls-3" x1="704.33" y1="589.96" x2="706.21" y2="590.43"/><circle class="cls-3" cx="675.63" cy="283.28" r="1.41"/><circle class="cls-3" cx="668.11" cy="276.69" r="1.41"/><circle class="cls-3" cx="678.93" cy="276.69" r="1.41"/><circle class="cls-3" cx="689.27" cy="282.33" r="1.41"/><line class="cls-3" x1="688.33" y1="283.75" x2="680.81" y2="298.8"/><line class="cls-3" x1="676.57" y1="284.22" x2="684.57" y2="291.27"/><line class="cls-3" x1="669.05" y1="277.63" x2="674.22" y2="282.33"/><line class="cls-3" x1="677.98" y1="278.1" x2="676.57" y2="281.86"/><circle class="cls-2" cx="719.89" cy="586.64" r="4.35"/><line class="cls-2" x1="653.29" y1="524.81" x2="659.41" y2="545.04"/><line class="cls-2" x1="652.82" y1="441.09" x2="652.82" y2="520.11"/><line class="cls-2" x1="661.76" y1="430.74" x2="654.7" y2="437.32"/><line class="cls-2" x1="671.87" y1="416.16" x2="665.05" y2="426.5"/><line class="cls-2" x1="689.74" y1="406.28" x2="676.1" y2="412.39"/><line class="cls-2" x1="692.1" y1="371.94" x2="692.1" y2="402.52"/><line class="cls-2" x1="724.79" y1="352.66" x2="694.92" y2="367.71"/><line class="cls-2" x1="723.38" y1="329.61" x2="727.14" y2="348.89"/><line class="cls-2" x1="746.9" y1="318.32" x2="725.26" y2="326.31"/><circle class="cls-2" cx="750.42" cy="317.14" r="3.53"/><line class="cls-2" x1="720.55" y1="315.5" x2="721.97" y2="323.96"/><line class="cls-2" x1="702.68" y1="400.63" x2="694.68" y2="403.93"/><line class="cls-2" x1="721.97" y1="404.4" x2="708.32" y2="400.16"/><line class="cls-2" x1="754.89" y1="382.29" x2="727.61" y2="402.99"/><line class="cls-2" x1="754.42" y1="368.18" x2="756.3" y2="377.59"/><line class="cls-2" x1="773.24" y1="357.83" x2="756.77" y2="364.42"/><line class="cls-2" x1="739.84" y1="410.04" x2="728.08" y2="406.28"/><line class="cls-2" x1="761.95" y1="397.34" x2="745.01" y2="409.1"/><line class="cls-2" x1="786.88" y1="409.57" x2="766.65" y2="397.34"/><line class="cls-2" x1="751.6" y1="355.01" x2="753.48" y2="363.47"/><circle class="cls-2" cx="692.33" cy="369.12" r="2.82"/><circle class="cls-2" cx="727.61" cy="351.71" r="2.82"/><circle class="cls-2" cx="722.91" cy="326.78" r="2.82"/><circle class="cls-2" cx="753.95" cy="365.83" r="2.82"/><circle class="cls-2" cx="756.77" cy="380.41" r="2.82"/><circle class="cls-2" cx="692.33" cy="405.34" r="2.82"/><circle class="cls-2" cx="705.5" cy="399.69" r="2.82"/><circle class="cls-2" cx="725.26" cy="405.34" r="2.82"/><circle class="cls-2" cx="742.66" cy="410.51" r="2.82"/><circle class="cls-2" cx="764.3" cy="395.93" r="2.82"/><circle class="cls-2" cx="719.85" cy="311.97" r="3.53"/><line class="cls-2" x1="783.58" y1="382.29" x2="766.65" y2="394.05"/><circle class="cls-2" cx="673.52" cy="413.8" r="2.82"/><circle class="cls-2" cx="663.64" cy="428.86" r="2.82"/><circle class="cls-2" cx="652.82" cy="438.73" r="2.82"/><circle class="cls-2" cx="652.82" cy="522.46" r="2.82"/><circle class="cls-2" cx="659.88" cy="547.39" r="2.82"/><circle class="cls-2" cx="750.89" cy="351.48" r="3.53"/><circle class="cls-2" cx="776.76" cy="356.65" r="3.53"/><circle class="cls-2" cx="785.7" cy="380.64" r="3.53"/><circle class="cls-2" cx="789.46" cy="411.22" r="3.53"/><polyline class="cls-3" points="662.7 546.92 681.04 554.45 681.75 555.62 684.34 561.03"/><circle class="cls-3" cx="684.92" cy="562.33" r="1.53"/><circle class="cls-3" cx="697.15" cy="566.09" r="1.53"/><line class="cls-3" x1="686.45" y1="562.21" x2="695.86" y2="565.5"/><line class="cls-4" x1="692.33" y1="384.17" x2="714.67" y2="374.53"/><line class="cls-4" x1="716.09" y1="372.18" x2="716.09" y2="368.41"/><line class="cls-4" x1="717.5" y1="366.06" x2="723.61" y2="362.77"/><circle class="cls-4" cx="725.02" cy="361.83" r="1.41"/><circle class="cls-4" cx="716.09" cy="343.95" r="1.41"/><circle class="cls-4" cx="708.56" cy="329.37" r="1.41"/><circle class="cls-4" cx="716.09" cy="367" r="1.41"/><circle class="cls-4" cx="716.09" cy="373.59" r="1.41"/><circle class="cls-4" cx="725.02" cy="384.88" r="1.41"/><circle class="cls-4" cx="717.5" cy="384.88" r="1.41"/><circle class="cls-4" cx="744.78" cy="368.41" r="1.41"/><circle class="cls-4" cx="741.02" cy="357.12" r="1.41"/><circle class="cls-4" cx="734.43" cy="368.41" r="1.41"/><circle class="cls-4" cx="737.25" cy="384.88" r="1.41"/><line class="cls-4" x1="735.37" y1="367" x2="740.07" y2="358.54"/><line class="cls-4" x1="725.96" y1="383.47" x2="733.49" y2="369.82"/><line class="cls-4" x1="718.91" y1="384.88" x2="723.61" y2="384.88"/><line class="cls-4" x1="735.84" y1="368.41" x2="743.37" y2="368.41"/><line class="cls-4" x1="726.43" y1="384.88" x2="735.84" y2="384.88"/><line class="cls-4" x1="692.1" y1="393.34" x2="716.09" y2="385.35"/><circle class="cls-3" cx="733.02" cy="314.32" r="1.41"/><circle class="cls-3" cx="732.08" cy="302.09" r="1.41"/><circle class="cls-3" cx="742.43" cy="312.44" r="1.41"/><circle class="cls-3" cx="740.07" cy="340.66" r="1.41"/><circle class="cls-3" cx="733.49" cy="337.37" r="1.41" transform="translate(33.47 739.62) rotate(-54.58)"/><circle class="cls-3" cx="738.66" cy="325.61" r="1.41"/><line class="cls-4" x1="716.09" y1="356.65" x2="716.09" y2="345.36"/><line class="cls-4" x1="715.14" y1="342.54" x2="709.5" y2="330.78"/><line class="cls-3" x1="733.96" y1="335.96" x2="738.19" y2="327.02"/><line class="cls-3" x1="734.9" y1="338.31" x2="738.66" y2="340.19"/><line class="cls-3" x1="726.9" y1="344.42" x2="732.55" y2="338.31"/><line class="cls-3" x1="734.43" y1="314.32" x2="741.02" y2="312.91"/><line class="cls-3" x1="733.02" y1="312.91" x2="732.08" y2="303.5"/><line class="cls-3" x1="731.61" y1="314.79" x2="721.73" y2="318.55"/><circle class="cls-3" cx="763.59" cy="348.66" r="1.41"/><circle class="cls-3" cx="745.72" cy="336.43" r="1.41"/><circle class="cls-3" cx="752.83" cy="331.72" r="1.41"/><circle class="cls-4" cx="751.46" cy="339.57" r="1.41"/><circle class="cls-3" cx="765.47" cy="341.13" r="1.41"/><circle class="cls-3" cx="766.42" cy="370.29" r="1.41"/><circle class="cls-3" cx="782.41" cy="366.06" r="1.41"/><circle class="cls-3" cx="774.41" cy="375.94" r="1.41"/><circle class="cls-3" cx="791.87" cy="399.46" r="1.41"/><circle class="cls-3" cx="784.76" cy="393.81" r="1.41"/><line class="cls-3" x1="760.77" y1="362.77" x2="763.59" y2="350.07"/><line class="cls-3" x1="764.06" y1="347.25" x2="765" y2="342.54"/><line class="cls-3" x1="762.18" y1="348.19" x2="752.36" y2="340.71"/><line class="cls-3" x1="751.41" y1="338.36" x2="752.36" y2="333.14"/><line class="cls-3" x1="750" y1="339.3" x2="747.13" y2="337.37"/><line class="cls-3" x1="773" y1="401.34" x2="783.35" y2="394.75"/><line class="cls-3" x1="785.28" y1="392.97" x2="790.93" y2="387.84"/><line class="cls-3" x1="774.41" y1="388.17" x2="774.41" y2="377.35"/><line class="cls-3" x1="781.47" y1="367" x2="775.35" y2="374.53"/><line class="cls-3" x1="767.83" y1="371.24" x2="773" y2="375.47"/><line class="cls-4" x1="683.16" y1="409.34" x2="682.69" y2="388.17"/><line class="cls-4" x1="678.46" y1="376.88" x2="676.1" y2="371.71"/><line class="cls-4" x1="679.87" y1="376.88" x2="684.1" y2="370.77"/><line class="cls-4" x1="681.75" y1="384.88" x2="679.87" y2="379.7"/><circle class="cls-4" cx="682.69" cy="386.29" r="1.41"/><circle class="cls-4" cx="675.16" cy="370.29" r="1.41"/><circle class="cls-4" cx="685.04" cy="369.82" r="1.41"/><circle class="cls-4" cx="678.93" cy="378.29" r="1.41"/><circle class="cls-3" cx="675.05" cy="565.62" r="1.53"/><circle class="cls-3" cx="672.69" cy="558.56" r="1.53"/><circle class="cls-3" cx="667.05" cy="558.56" r="1.53"/><line class="cls-3" x1="673.28" y1="560.33" x2="674.22" y2="564.09"/><line class="cls-3" x1="668.58" y1="558.92" x2="670.93" y2="558.92"/><line class="cls-3" x1="665.28" y1="548.1" x2="666.7" y2="557.03"/><line class="cls-3" x1="785.73" y1="395.19" x2="791.07" y2="398.75"/><path class="cls-2" d="M704,552.27A78.42,78.42,0,0,0,656.35,523"/><circle class="cls-2" cx="706.44" cy="555.8" r="3.53"/><line class="cls-3" x1="698.32" y1="565.11" x2="704.42" y2="558.46"/><line class="cls-3" x1="497.83" y1="392.97" x2="491.87" y2="388.41"/><circle class="cls-6" cx="491.95" cy="388.48" r="1.88" transform="translate(-115.47 543.28) rotate(-52.59)"/><path class="cls-7" d="M493.25,386.78a2.13,2.13,0,1,1-3,.4,2.13,2.13,0,0,1,3-.4Zm-2.28,3a1.63,1.63,0,1,0-.3-2.28,1.63,1.63,0,0,0,.3,2.28Z"/><line class="cls-1" x1="541.4" y1="211.34" x2="640.67" y2="432.57"/><text class="cls-8" transform="translate(102.52 280.07)"><tspan class="cls-9">CCP(Con<tspan class="cls-10" x="74" y="0">v</tspan><tspan class="cls-11" x="83.69" y="0">ersation Creation Pr</tspan><tspan class="cls-12" x="260.91" y="0">o</tspan><tspan class="cls-13" x="271.56" y="0">t</tspan><tspan x="279.53" y="0">ocol)</tspan></tspan><tspan class="cls-14"><tspan x="-6.01" y="31.6">Define una lista de rem</tspan><tspan class="cls-15" x="191.92" y="31.6">o</tspan><tspan x="202.5" y="31.6">tos que deben </tspan><tspan x="90.65" y="53.2">invitarse a la con</tspan><tspan class="cls-16" x="236.6" y="53.2">v</tspan><tspan x="245.93" y="53.2">ersación.</tspan></tspan></text><text class="cls-8" transform="translate(1194.02 156.66)"><tspan class="cls-9">URI</tspan><tspan class="cls-14"><tspan x="-418.11" y="30">Las </tspan><tspan class="cls-17" x="-383.2" y="30">URI</tspan><tspan x="-349.38" y="30" xml:space="preserve"> dentro de Yggs describen de manera única a </tspan><tspan x="-325.72" y="52">un recurso, se componen de los elementos:</tspan></tspan></text><text class="cls-18" transform="translate(725.87 250.87) scale(0.95 1)"><tspan class="cls-17">&lt;p</tspan><tspan class="cls-19" x="22.94" y="0">r</tspan><tspan class="cls-17" x="30.54" y="0">o</tspan><tspan class="cls-20" x="41.98" y="0">t</tspan><tspan class="cls-17" x="49.57" y="0">o</tspan><tspan class="cls-21" x="61.01" y="0">c</tspan><tspan class="cls-17" x="71.26" y="0">olo&gt;</tspan><tspan class="cls-22" x="110.46" y="0">:</tspan><tspan class="cls-23" x="115.87" y="0">/</tspan><tspan x="121.5" y="0">/</tspan><tspan class="cls-24" x="128.14" y="0">&lt;desti</tspan><tspan class="cls-25" x="184.91" y="0">n</tspan><tspan class="cls-17" x="197.21" y="0">o&gt;</tspan><tspan x="219.28" y="0">@</tspan><tspan class="cls-24" x="237.32" y="0">&lt;ruta&gt;</tspan><tspan class="cls-26" x="297.35" y="0">:</tspan><tspan class="cls-17" x="302.07" y="0">subruta/&lt;</tspan><tspan class="cls-27" x="391.83" y="0">e</tspan><tspan class="cls-17" x="402.66" y="0">xt</tspan><tspan class="cls-28" x="420.37" y="0">r</tspan><tspan class="cls-17" x="428.06" y="0">aIn</tspan><tspan class="cls-28" x="457.43" y="0">f</tspan><tspan class="cls-17" x="464.05" y="0">o#UUID</tspan></text><text class="cls-29" transform="translate(816 289.25)">pr<tspan class="cls-30" x="15.86" y="0">o</tspan><tspan x="25.27" y="0">tocolo: Define el pr</tspan><tspan class="cls-31" x="169.98" y="0">o</tspan><tspan x="179.39" y="0">tocolo para el canal, was, gbm, </tspan><tspan x="0" y="19.2">abc,etc.</tspan><tspan x="0" y="46.4">destino: Identifica al recurso dentro del canal.</tspan><tspan x="0" y="82.6">ruta: Identifica la ruta de salida por la que se desea </tspan><tspan x="0" y="99.6">enviar el mensaje.</tspan><tspan x="0" y="138">subruta: Identifica la subruta de salida por la que se </tspan><tspan x="0" y="157.2">desea enviar el mensaje.</tspan><tspan class="cls-30"><tspan x="0" y="195.6">e</tspan><tspan class="cls-32" x="8.61" y="195.6">xtraInfo: Permite a un endpoint agregar información </tspan></tspan><tspan x="0" y="214.8">que necesite la URI.</tspan><tspan x="0" y="253.2">UUID: Identificador único para la URI.</tspan></text><text class="cls-8" transform="translate(333.13 495.07)"><tspan class="cls-9">Mensaje AI</tspan><tspan class="cls-14"><tspan x="-236.74" y="22" xml:space="preserve">Objeto JSON  que representa contenido  </tspan><tspan x="-165.18" y="44">transportable a tr</tspan><tspan class="cls-16" x="-13.2" y="44">a</tspan><tspan x="-2.44" y="44">vés de Ygss.</tspan></tspan></text><line class="cls-33" x1="1120.57" y1="150" x2="1184.95" y2="150"/><circle class="cls-34" cx="1120.76" cy="150" r="3.76"/><circle class="cls-6" cx="1184.74" cy="150" r="3.76"/><path class="cls-34" d="M1184.74,154.26A4.26,4.26,0,1,1,1189,150a4.26,4.26,0,0,1-4.26,4.26Zm0-7.52A3.26,3.26,0,1,0,1188,150a3.26,3.26,0,0,0-3.26-3.26Z"/><polyline class="cls-33" points="1240.81 150 1262 150 1262 597 721.05 597"/><circle class="cls-6" cx="1241.02" cy="150" r="3.76"/><path class="cls-34" d="M1241,154.26a4.26,4.26,0,1,0-4.26-4.26,4.26,4.26,0,0,0,4.26,4.26Zm0-7.52a3.26,3.26,0,1,1-3.26,3.26,3.26,3.26,0,0,1,3.26-3.26Z"/><circle class="cls-6" cx="721.26" cy="597" r="3.76"/><path class="cls-34" d="M721.26,592.74A4.26,4.26,0,1,1,717,597a4.26,4.26,0,0,1,4.26-4.26Zm0,7.52A3.26,3.26,0,1,0,718,597a3.26,3.26,0,0,0,3.26,3.26Z"/><polyline class="cls-33" points="567.95 556 459.32 556 459 490 440.23 490"/><circle class="cls-6" cx="567.74" cy="556" r="3.76"/><path class="cls-34" d="M567.74,551.74A4.26,4.26,0,1,0,572,556a4.26,4.26,0,0,0-4.26-4.26Zm0,7.52A3.26,3.26,0,1,1,571,556a3.26,3.26,0,0,1-3.26,3.26Z"/><circle class="cls-34" cx="440.42" cy="490" r="3.76"/><polyline class="cls-33" points="497.95 357 457.32 357 457 274 438.23 274"/><circle class="cls-6" cx="497.74" cy="357" r="3.76"/><path class="cls-34" d="M497.74,352.74A4.26,4.26,0,1,0,502,357a4.26,4.26,0,0,0-4.26-4.26Zm0,7.52A3.26,3.26,0,1,1,501,357a3.26,3.26,0,0,1-3.26,3.26Z"/><circle class="cls-34" cx="438.42" cy="274" r="3.76"/><path d="M31.37,406.61a32,32,0,1,0,0-45.23A32,32,0,0,0,31.37,406.61Zm7.5-23.67,13.76-13.76a1.48,1.48,0,0,1,2.1,2.1L43.49,382.51H73.32a1.49,1.49,0,0,1,0,3H43.49l11.23,11.23a1.48,1.48,0,0,1,0,2.1,1.52,1.52,0,0,1-1.06.43,1.46,1.46,0,0,1-1.06-.43L38.85,385.06A1.53,1.53,0,0,1,38.86,382.94Z"/><path d="M1332.63,361.39a32,32,0,1,0,0,45.23A32,32,0,0,0,1332.63,361.39Zm-7.48,23.67-13.76,13.76a1.46,1.46,0,0,1-1.06.43,1.52,1.52,0,0,1-1.06-.43,1.48,1.48,0,0,1,0-2.1l11.23-11.23h-29.83a1.49,1.49,0,0,1,0-3h29.83l-11.23-11.23a1.48,1.48,0,1,1,2.1-2.1l13.76,13.76A1.53,1.53,0,0,1,1325.15,385.06Z"/><path class="cls-35" d="M1297.36,57.21l-1.52,3.44a16.09,16.09,0,0,1-1.79-7.42c-.1-4.62,1.6-10.14,10.36-9,4.64.58,9.74,3.71,9.74,3.71s-16.31-9.65-17.66,4.19A11.35,11.35,0,0,0,1297.36,57.21Z"/><path class="cls-35" d="M1336.69,78.92l-1.21,4.34a10.38,10.38,0,0,1-.22,9.23c-2.58,4.8-8.82,3.93-16.26.27-.18-.09,14.73,9.46,19.32-1.36C1340,87.34,1338.13,80.32,1336.69,78.92Z"/><polygon class="cls-35" points="1330.67 71.03 1303.83 62.22 1307.51 71.03 1303.83 79.78 1330.67 71.03"/><text class="cls-36" transform="translate(911.07 94.36)">CIC<tspan class="cls-37" x="31.91" y="0">L</tspan><tspan x="42.46" y="0">O DE </tspan><tspan class="cls-38" x="94.48" y="0">V</tspan><tspan x="107.33" y="0">I</tspan><tspan class="cls-39" x="113.07" y="0">D</tspan><tspan x="127.76" y="0">A DE UNA </tspan><tspan class="cls-38" x="225.34" y="0">C</tspan><tspan x="238.15" y="0">O</tspan><tspan class="cls-40" x="253.31" y="0">N</tspan><tspan class="cls-38" x="267.8" y="0">V</tspan><tspan x="280.65" y="0">ERS</tspan><tspan class="cls-39" x="317.19" y="0">A</tspan><tspan x="330.49" y="0">CIÓN</tspan></text><text class="cls-36" transform="translate(1052.28 113.36)"><tspan class="cls-41">C</tspan><tspan x="12.73" y="0">ompo</tspan><tspan class="cls-42" x="67.25" y="0">n</tspan><tspan x="79.67" y="0">en</tspan><tspan class="cls-43" x="103.19" y="0">t</tspan><tspan x="110.5" y="0">es p</tspan><tspan class="cls-40" x="148.28" y="0">r</tspan><tspan x="155.75" y="0">i</tspan><tspan class="cls-42" x="160.95" y="0">n</tspan><tspan x="173.37" y="0">ci</tspan><tspan class="cls-44" x="189.03" y="0">p</tspan><tspan x="201.26" y="0">ales</tspan></text><text class="cls-45" transform="translate(911.05 61.29)">ARQUIT<tspan class="cls-46" x="104.83" y="0">E</tspan><tspan class="cls-47" x="122.17" y="0">C</tspan><tspan class="cls-48" x="140.87" y="0">T</tspan><tspan x="156.18" y="0">URA </tspan><tspan class="cls-49" x="222.35" y="0">Y</tspan><tspan x="238.76" y="0">GGDRASIL</tspan></text><line class="cls-50" x1="843.14" y1="71" x2="1313" y2="71"/><circle class="cls-35" cx="843.52" cy="71" r="7.52"/><path class="cls-51" d="M146.31,143H1.06V60H148.31c4.6,0,10,5.4,10,12v59A12,12,0,0,1,146.31,143Z"/><text class="cls-52" transform="translate(54.75 127.65) scale(0.95 1)">4</text><path class="cls-35" d="M1133.52,727.15l2.56,1.39a10.35,10.35,0,0,1-5.53,1.64c-3.44.09-7.56-1.47-6.74-9.49a30.7,30.7,0,0,1,2.76-8.92s-7.19,14.95,3.12,16.18A7.12,7.12,0,0,0,1133.52,727.15Z"/><path class="cls-35" d="M1149.69,691.11l3.24,1.11a6.47,6.47,0,0,1,6.88.2c3.57,2.36,2.93,8.08.2,14.9-.07.17,7-13.49-1-17.7C1156,688,1150.73,689.8,1149.69,691.11Z"/><polygon class="cls-35" points="1143.81 696.63 1137.25 721.22 1143.81 717.85 1150.33 721.22 1143.81 696.63"/><path class="cls-35" d="M1189.84,695.76l-8.7,0-14,29.8h9.17l1.35-3.44,9-.07.47,3.51h8.63Zm-10,20.33,4.38-11.06,1.62,11.06Z"/><path class="cls-35" d="M1198.38,703.69h8.09s-1.53,11.1-1.62,12.09-.66,3.9,2.74,3.64c2.38-.18,3.19-.85,4.81-15.73h8.18l-3.06,21.85h-7.33l.27-2.92a8.89,8.89,0,0,1-7.51,3.55c-6,0-7.06-5.39-6.3-10.24S1198.38,703.69,1198.38,703.69Z"/><path class="cls-35" d="M1224.1,703.69l-2.92,21.85h8l1.48-10.61s0-4.63,6.2-3.5l1.21-8.32s-3.73-1.44-6.92,3.64l.4-3.06Z"/><path class="cls-35" d="M1251.65,702.92s-11.28-.94-13,10.17c-1.44,9.15,4.68,13.49,11.82,13.26,6.84-.21,10.92-4.59,11.64-11.15S1259.92,703,1251.65,702.92Zm2.19,12.26c-.56,3.21-2,5.23-4.09,5.12s-3.77-2.45-2.85-6.91c1.12-5.41,4.45-4.59,4.45-4.59C1253.85,709.1,1254.41,712,1253.85,715.17Z"/><path class="cls-35" d="M1273.19,703.64h-7.28l-3.1,21.89h8l1.8-12.9s.63-3.37,3.51-3.15,2.16,3.46,2.16,3.46l-1.57,12.59h8.14l1.62-13s1.89-8-5.08-9.35c0,0-4.58-1.3-8.45,3.37Z"/><polygon class="cls-35" points="1291.75 695.1 1299.89 695.1 1299.17 701.17 1291.08 701.17 1291.75 695.1"/><polygon class="cls-35" points="1298.85 703.69 1290.85 703.69 1287.7 725.53 1295.84 725.53 1298.85 703.69"/><polygon class="cls-35" points="1300.34 703.69 1308.79 703.69 1310.54 709.35 1313.42 703.69 1322.72 703.69 1315.13 713.89 1323.5 730.44 1314.95 730.44 1310.14 718.93 1306.9 725.53 1297.95 725.53 1305.55 714.26 1300.34 703.69"/></g>
<g id="links">
    <a href="ciclo_conversacional_3.svg">
        <circle class="cls-53" cx="53.98" cy="384" r="31.98" transform="translate(-255.72 150.64) rotate(-45)"/>
    </a>
    <a href="ciclo_conversacional_5.svg">
        <circle class="cls-53" cx="1310.98" cy="384" r="31.98" transform="translate(112.45 1039.47) rotate(-45)"/>
    </a>
</g></svg>