<svg xmlns="http://www.w3.org/2000/svg" viewBox="0 0 63.96 63.96"><defs><style>.cls-1{fill:#fff;}</style></defs><title>Recurso 63</title><g id="Capa_2" data-name="Capa 2">
<g id="navegacion">
<circle cx="31.98" cy="31.98" r="31.98" transform="translate(-13.25 31.98) rotate(-45)"/>
<path class="cls-1" d="M21.81,15.66l21,13.91a2,2,0,0,1,.9,1.67v.86a2,2,0,0,1-.86,1.65l-21,14.49a1,1,0,0,1-1.57-.82v-3.3a1,1,0,0,1,.44-.83l16.2-10.85a1,1,0,0,0,0-1.68L20.73,20.67a1,1,0,0,1-.47-.85V16.5A1,1,0,0,1,21.81,15.66Z"/>

</g></g></svg>