<svg xmlns="http://www.w3.org/2000/svg" xmlns:xlink="http://www.w3.org/1999/xlink" viewBox="0 0 1366 768"><defs><style>.cls-1,.cls-12,.cls-13,.cls-16,.cls-19,.cls-2,.cls-20,.cls-23,.cls-24,.cls-27,.cls-3,.cls-30,.cls-33,.cls-39,.cls-54,.cls-6,.cls-7,.cls-9{fill:none;}.cls-2,.cls-3,.cls-6,.cls-7{stroke:#0e2599;}.cls-12,.cls-13,.cls-16,.cls-19,.cls-2,.cls-20,.cls-23,.cls-24,.cls-27,.cls-3,.cls-30,.cls-33,.cls-39,.cls-54,.cls-55,.cls-58,.cls-6,.cls-7,.cls-9{stroke-miterlimit:10;}.cls-2,.cls-39,.cls-54{stroke-width:2px;}.cls-4,.cls-56{fill:#fff;}.cls-5{fill:#0e2599;}.cls-6{stroke-width:1.5px;}.cls-39,.cls-54,.cls-7{stroke-linecap:round;}.cls-8{font-size:14.24px;fill:#0d0787;}.cls-10,.cls-14,.cls-17,.cls-21,.cls-25,.cls-28,.cls-31,.cls-8{font-family:Babylon5Credits, Babylon5Credits;}.cls-12,.cls-55,.cls-9{stroke:#000;}.cls-13,.cls-16,.cls-19,.cls-20,.cls-24,.cls-27,.cls-30,.cls-33,.cls-55,.cls-58,.cls-9{stroke-width:4px;}.cls-10,.cls-14,.cls-17,.cls-21,.cls-25,.cls-28,.cls-31{font-size:8.95px;}.cls-11{fill:#1d1d1b;fill-rule:evenodd;}.cls-12,.cls-23{stroke-width:5px;}.cls-13{stroke:#df4b38;}.cls-14,.cls-15{fill:#df4b38;}.cls-16{stroke:#2e4e85;}.cls-17{fill:#2e4e85;}.cls-18{fill:#3e5c9a;}.cls-19{stroke:#3e5c9a;}.cls-20,.cls-23{stroke:#090;}.cls-21{fill:#090;}.cls-22{fill:url(#linear-gradient);}.cls-24{stroke:#b4173b;}.cls-25{fill:#c1272d;}.cls-26{fill:#b4173b;}.cls-27,.cls-39{stroke:#385995;}.cls-28,.cls-29{fill:#385995;}.cls-30{stroke:#00b6f3;}.cls-31{fill:#00b6f3;}.cls-32{fill:#29a9e1;}.cls-33{stroke:#29a9e1;}.cls-34,.cls-37{font-size:18px;}.cls-34{font-family:Sen-Regular, Sen;}.cls-35{letter-spacing:-0.02em;}.cls-36{letter-spacing:-0.01em;}.cls-37,.cls-49{font-family:Montserrat-SemiBold, Montserrat SemiBold;}.cls-38{letter-spacing:0em;}.cls-39{stroke-dasharray:3 3;}.cls-40{fill:#02255b;}.cls-41{letter-spacing:-0.01em;}.cls-42{letter-spacing:-0.02em;}.cls-43{letter-spacing:-0.01em;}.cls-44{letter-spacing:0em;}.cls-45{letter-spacing:-0.02em;}.cls-46{letter-spacing:0em;}.cls-47{letter-spacing:-0.02em;}.cls-48{letter-spacing:-0.01em;}.cls-49{font-size:26px;}.cls-50{letter-spacing:0em;}.cls-51{letter-spacing:-0.01em;}.cls-52{letter-spacing:-0.01em;}.cls-53{letter-spacing:-0.03em;}.cls-54{stroke:#02255b;}.cls-56{font-size:75px;font-family:Montserrat-ExtraBold, Montserrat ExtraBold;letter-spacing:0.1em;}.cls-57,.cls-60{opacity:0;}.cls-58{stroke:#1b1464;}.cls-59{font-size:10px;fill:#f7f0f0;font-family:MyriadPro-Regular, Myriad Pro;}.cls-60{fill:#db2a26;}</style><linearGradient id="linear-gradient" x1="146.08" y1="310.22" x2="131.89" y2="345.59" gradientUnits="userSpaceOnUse"><stop offset="0" stop-color="#4bc25a"/><stop offset="1" stop-color="#368c41"/></linearGradient></defs><title>ciclo_conversacional_3</title><g id="Capa_1" data-name="Capa 1"><path class="cls-1" d="M607.83,403.41c0,115.09-93.3,208.4-208.4,208.4S191,518.51,191,403.41C191,310,252.49,231,337.17,204.48a207.29,207.29,0,0,1,38.12-8.08A210.61,210.61,0,0,1,399.43,195C514.53,195,607.83,288.32,607.83,403.41Z"/><ellipse class="cls-1" cx="399.43" cy="403.41" rx="271.4" ry="265.81"/><line class="cls-2" x1="348.65" y1="544.03" x2="325.21" y2="555.48"/><line class="cls-2" x1="377.35" y1="548.73" x2="354.3" y2="543.09"/><line class="cls-2" x1="390.99" y1="520.98" x2="381.58" y2="547.32"/><line class="cls-2" x1="390.52" y1="510.16" x2="391.93" y2="515.8"/><line class="cls-2" x1="394.28" y1="489.93" x2="390.52" y2="504.52"/><line class="cls-2" x1="394.75" y1="389.74" x2="394.75" y2="484.29"/><line class="cls-2" x1="368.41" y1="363.4" x2="392.87" y2="385.04"/><line class="cls-2" x1="382.52" y1="325.3" x2="367.47" y2="358.23"/><line class="cls-2" x1="385.5" y1="285.3" x2="389.58" y2="306.02"/><line class="cls-2" x1="381.11" y1="261.33" x2="384.09" y2="278.72"/><line class="cls-2" x1="388.17" y1="243.93" x2="381.58" y2="256.16"/><circle class="cls-2" cx="389.81" cy="240.87" r="3.53"/><circle class="cls-2" cx="389.58" cy="308.84" r="2.82"/><circle class="cls-2" cx="367" cy="361.05" r="2.82"/><circle class="cls-2" cx="394.75" cy="386.92" r="2.82"/><circle class="cls-2" cx="394.75" cy="487.11" r="2.82"/><circle class="cls-2" cx="390.05" cy="507.34" r="2.82"/><circle class="cls-2" cx="391.93" cy="518.16" r="2.82"/><circle class="cls-2" cx="380.64" cy="549.67" r="2.82"/><circle class="cls-2" cx="351.48" cy="542.62" r="2.82"/><circle class="cls-2" cx="380.64" cy="258.51" r="2.82"/><line class="cls-2" x1="368.41" y1="268.86" x2="382.52" y2="281.09"/><line class="cls-2" x1="354.3" y1="274.03" x2="363.71" y2="268.39"/><line class="cls-2" x1="334.17" y1="258.09" x2="349.12" y2="273.09"/><line class="cls-2" x1="355.94" y1="304.37" x2="365.35" y2="310.49"/><line class="cls-2" x1="342.54" y1="305.55" x2="350.07" y2="303.66"/><line class="cls-2" x1="322.78" y1="268.39" x2="338.78" y2="303.19"/><line class="cls-2" x1="371.7" y1="288.14" x2="368.55" y2="309.26"/><line class="cls-2" x1="359.71" y1="329.3" x2="374.76" y2="319.89"/><line class="cls-2" x1="335.72" y1="319.89" x2="353.59" y2="329.3"/><circle class="cls-2" cx="351.48" cy="274.5" r="2.82"/><circle class="cls-2" cx="366.06" cy="266.98" r="2.82"/><circle class="cls-2" cx="384.4" cy="282.03" r="2.82"/><circle class="cls-2" cx="367.94" cy="312.13" r="2.82"/><circle class="cls-2" cx="372.17" cy="285.32" r="2.82"/><circle class="cls-2" cx="376.41" cy="318.72" r="2.82"/><circle class="cls-2" cx="383.46" cy="322.48" r="2.82"/><circle class="cls-2" cx="356.65" cy="330.48" r="2.82"/><circle class="cls-2" cx="333.6" cy="318.72" r="2.82"/><circle class="cls-2" cx="353.36" cy="302.72" r="2.82"/><circle class="cls-2" cx="339.72" cy="306.02" r="2.82"/><line class="cls-2" x1="388.17" y1="312.13" x2="384.64" y2="319.89"/><line class="cls-2" x1="378.52" y1="319.42" x2="380.87" y2="320.83"/><line class="cls-2" x1="370.31" y1="313.84" x2="374.54" y2="316.66"/><circle class="cls-2" cx="321.37" cy="265.56" r="3.53"/><circle class="cls-2" cx="331.35" cy="255.27" r="3.53" transform="translate(-69.99 137.45) rotate(-21.25)"/><circle class="cls-3" cx="328.43" cy="269.8" r="1.41"/><circle class="cls-3" cx="341.13" cy="269.8" r="1.41" transform="translate(-67.81 121.72) rotate(-18.43)"/><circle class="cls-3" cx="338.31" cy="285.79" r="1.41"/><circle class="cls-3" cx="343.95" cy="277.32" r="1.41" transform="translate(-91.17 200.66) rotate(-28.89)"/><circle class="cls-3" cx="341.6" cy="288.14" r="1.41"/><circle class="cls-3" cx="359.47" cy="278.26" r="1.41"/><circle class="cls-3" cx="349.12" cy="287.67" r="1.41"/><circle class="cls-3" cx="359.47" cy="287.67" r="1.41"/><circle class="cls-3" cx="359.47" cy="293.32" r="1.41"/><circle class="cls-3" cx="334.54" cy="283.91" r="1.41"/><line class="cls-3" x1="341.6" y1="271.21" x2="343.48" y2="275.91"/><line class="cls-3" x1="359.47" y1="279.68" x2="359.47" y2="286.26"/><line class="cls-3" x1="359.47" y1="289.08" x2="359.47" y2="291.91"/><line class="cls-3" x1="350.54" y1="287.67" x2="358.06" y2="287.67"/><line class="cls-3" x1="343.01" y1="278.73" x2="339.25" y2="284.38"/><line class="cls-3" x1="328.9" y1="271.21" x2="334.07" y2="282.5"/><line class="cls-3" x1="360.88" y1="294.26" x2="369.35" y2="298.96"/><line class="cls-3" x1="342.07" y1="289.55" x2="348.18" y2="304.14"/><line class="cls-3" x1="339.25" y1="286.73" x2="340.19" y2="287.2"/><circle class="cls-3" cx="394.28" cy="292.85" r="1.41"/><circle class="cls-3" cx="391.46" cy="266.98" r="1.41"/><circle class="cls-3" cx="378.76" cy="244.4" r="1.41"/><line class="cls-3" x1="379.7" y1="245.34" x2="384.4" y2="249.57"/><line class="cls-3" x1="383.93" y1="274.5" x2="390.52" y2="267.92"/><line class="cls-3" x1="388.64" y1="298.96" x2="393.34" y2="293.79"/><circle class="cls-3" cx="387.7" cy="355.88" r="1.41"/><circle class="cls-3" cx="392.87" cy="336.12" r="1.41"/><circle class="cls-3" cx="387.22" cy="334.24" r="1.41"/><circle class="cls-3" cx="390.05" cy="339.88" r="1.41"/><circle class="cls-3" cx="381.11" cy="343.65" r="1.41"/><circle class="cls-3" cx="384.4" cy="348.82" r="1.41"/><line class="cls-3" x1="385.34" y1="347.41" x2="389.11" y2="341.29"/><line class="cls-3" x1="383.46" y1="347.41" x2="382.05" y2="345.06"/><line class="cls-3" x1="387.22" y1="354.47" x2="384.87" y2="350.23"/><line class="cls-3" x1="389.58" y1="338.94" x2="388.17" y2="335.65"/><line class="cls-3" x1="390.99" y1="338.47" x2="391.93" y2="337.53"/><line class="cls-3" x1="377.35" y1="371.4" x2="387.22" y2="357.29"/><line class="cls-3" x1="385.34" y1="377.51" x2="391.46" y2="368.11"/><circle class="cls-3" cx="391.93" cy="367.17" r="1.41"/><line class="cls-3" x1="394.28" y1="399.15" x2="380.64" y2="387.39"/><line class="cls-3" x1="379.7" y1="385.04" x2="380.64" y2="381.75"/><line class="cls-3" x1="371.7" y1="372.81" x2="380.17" y2="379.4"/><circle class="cls-3" cx="379.7" cy="386.45" r="1.41"/><circle class="cls-3" cx="381.11" cy="380.34" r="1.41"/><circle class="cls-3" cx="370.76" cy="371.87" r="1.41"/><circle class="cls-3" cx="363.71" cy="559.08" r="1.41"/><circle class="cls-3" cx="359" cy="560.49" r="1.41"/><circle class="cls-3" cx="356.65" cy="568.96" r="1.41"/><line class="cls-3" x1="366.53" y1="546.85" x2="364.18" y2="557.67"/><line class="cls-3" x1="362.29" y1="559.55" x2="360.41" y2="560.02"/><line class="cls-3" x1="358.53" y1="561.9" x2="357.12" y2="567.55"/><circle class="cls-3" cx="356.18" cy="552.49" r="1.41"/><circle class="cls-3" cx="345.83" cy="563.31" r="1.41"/><circle class="cls-3" cx="337.84" cy="560.02" r="1.41"/><circle class="cls-3" cx="333.13" cy="561.9" r="1.41"/><circle class="cls-3" cx="329.37" cy="569.9" r="1.41"/><line class="cls-3" x1="342.07" y1="547.79" x2="338.31" y2="558.61"/><line class="cls-3" x1="355.24" y1="553.43" x2="346.77" y2="561.9"/><line class="cls-3" x1="358.06" y1="544.5" x2="356.65" y2="551.08"/><line class="cls-3" x1="332.66" y1="563.31" x2="329.84" y2="568.96"/><line class="cls-3" x1="336.42" y1="560.96" x2="334.54" y2="561.43"/><circle class="cls-3" cx="365.12" cy="254.28" r="1.41"/><circle class="cls-3" cx="372.64" cy="247.69" r="1.41"/><circle class="cls-3" cx="361.82" cy="247.69" r="1.41"/><circle class="cls-3" cx="351.48" cy="253.33" r="1.41"/><line class="cls-3" x1="352.42" y1="254.75" x2="359.94" y2="269.8"/><line class="cls-3" x1="364.18" y1="255.22" x2="356.18" y2="262.27"/><line class="cls-3" x1="371.7" y1="248.63" x2="366.53" y2="253.33"/><line class="cls-3" x1="362.77" y1="249.1" x2="364.18" y2="252.86"/><circle class="cls-2" cx="320.86" cy="557.64" r="4.35"/><line class="cls-3" x1="330.03" y1="252.28" x2="325.1" y2="241"/><circle class="cls-4" cx="325.16" cy="241.16" r="3.01" transform="translate(-69.4 150.55) rotate(-23.63)"/><path class="cls-5" d="M328.29,239.79A3.41,3.41,0,1,1,323.8,238a3.41,3.41,0,0,1,4.49,1.76Zm-5.51,2.41a2.61,2.61,0,1,0,1.34-3.43,2.61,2.61,0,0,0-1.34,3.43Z"/><line class="cls-2" x1="399" y1="380.39" x2="399" y2="225.18"/><circle class="cls-4" cx="399" cy="380.18" r="3.76"/><path class="cls-5" d="M403.26,380.18a4.26,4.26,0,1,0-4.26,4.26,4.26,4.26,0,0,0,4.26-4.26Zm-7.52,0a3.26,3.26,0,1,1,3.26,3.26,3.26,3.26,0,0,1-3.26-3.26Z"/><circle class="cls-4" cx="399" cy="225.39" r="3.76"/><path class="cls-5" d="M403.26,225.39a4.26,4.26,0,1,1-4.26-4.26,4.26,4.26,0,0,1,4.26,4.26Zm-7.52,0a3.26,3.26,0,1,0,3.26-3.26,3.26,3.26,0,0,0-3.26,3.26Z"/><line class="cls-2" x1="387.46" y1="495.81" x2="381.35" y2="516.04"/><line class="cls-2" x1="387.93" y1="412.09" x2="387.93" y2="491.11"/><line class="cls-2" x1="378.99" y1="401.74" x2="386.05" y2="408.32"/><line class="cls-2" x1="368.88" y1="387.16" x2="375.7" y2="397.5"/><line class="cls-2" x1="351.01" y1="377.28" x2="364.65" y2="383.39"/><line class="cls-2" x1="348.65" y1="342.94" x2="348.65" y2="373.52"/><line class="cls-2" x1="315.96" y1="323.66" x2="345.83" y2="338.71"/><line class="cls-2" x1="317.37" y1="300.61" x2="313.61" y2="319.89"/><line class="cls-2" x1="293.86" y1="289.32" x2="315.49" y2="297.31"/><circle class="cls-2" cx="290.33" cy="288.14" r="3.53"/><line class="cls-2" x1="320.2" y1="286.5" x2="318.79" y2="294.96"/><line class="cls-2" x1="338.07" y1="371.63" x2="346.07" y2="374.93"/><line class="cls-2" x1="318.79" y1="375.4" x2="332.43" y2="371.16"/><line class="cls-2" x1="285.86" y1="353.29" x2="313.14" y2="373.99"/><line class="cls-2" x1="286.33" y1="339.18" x2="284.45" y2="348.59"/><line class="cls-2" x1="267.51" y1="328.83" x2="283.98" y2="335.42"/><line class="cls-2" x1="300.91" y1="381.04" x2="312.67" y2="377.28"/><line class="cls-2" x1="278.8" y1="368.34" x2="295.74" y2="380.1"/><line class="cls-2" x1="253.87" y1="380.57" x2="274.1" y2="368.34"/><line class="cls-2" x1="289.15" y1="326.01" x2="287.27" y2="334.47"/><circle class="cls-2" cx="348.42" cy="340.12" r="2.82"/><circle class="cls-2" cx="313.14" cy="322.71" r="2.82"/><circle class="cls-2" cx="317.84" cy="297.78" r="2.82"/><circle class="cls-2" cx="286.8" cy="336.83" r="2.82"/><circle class="cls-2" cx="283.98" cy="351.41" r="2.82"/><circle class="cls-2" cx="348.42" cy="376.34" r="2.82"/><circle class="cls-2" cx="335.25" cy="370.69" r="2.82"/><circle class="cls-2" cx="315.49" cy="376.34" r="2.82"/><circle class="cls-2" cx="298.09" cy="381.51" r="2.82"/><circle class="cls-2" cx="276.45" cy="366.93" r="2.82"/><circle class="cls-2" cx="320.9" cy="282.97" r="3.53"/><line class="cls-2" x1="257.17" y1="353.29" x2="274.1" y2="365.05"/><circle class="cls-2" cx="367.23" cy="384.8" r="2.82"/><circle class="cls-2" cx="377.11" cy="399.86" r="2.82"/><circle class="cls-2" cx="387.93" cy="409.73" r="2.82"/><circle class="cls-2" cx="387.93" cy="493.46" r="2.82"/><circle class="cls-2" cx="380.87" cy="518.39" r="2.82"/><circle class="cls-2" cx="289.86" cy="322.48" r="3.53"/><circle class="cls-2" cx="263.99" cy="327.65" r="3.53"/><circle class="cls-2" cx="255.05" cy="351.64" r="3.53"/><circle class="cls-2" cx="251.29" cy="382.22" r="3.53"/><polyline class="cls-3" points="378.05 517.92 359.71 525.45 359 526.62 356.42 532.03"/><circle class="cls-3" cx="355.83" cy="533.33" r="1.53"/><circle class="cls-3" cx="343.6" cy="537.09" r="1.53"/><line class="cls-3" x1="354.3" y1="533.21" x2="344.89" y2="536.5"/><line class="cls-6" x1="348.42" y1="355.17" x2="326.08" y2="345.53"/><line class="cls-6" x1="324.66" y1="343.18" x2="324.66" y2="339.41"/><line class="cls-6" x1="323.25" y1="337.06" x2="317.14" y2="333.77"/><circle class="cls-6" cx="315.73" cy="332.83" r="1.41"/><circle class="cls-6" cx="324.66" cy="314.95" r="1.41"/><circle class="cls-6" cx="332.19" cy="300.37" r="1.41"/><circle class="cls-6" cx="324.66" cy="338" r="1.41"/><circle class="cls-6" cx="324.66" cy="344.59" r="1.41"/><circle class="cls-6" cx="315.73" cy="355.88" r="1.41"/><circle class="cls-6" cx="323.25" cy="355.88" r="1.41"/><circle class="cls-6" cx="295.97" cy="339.41" r="1.41"/><circle class="cls-6" cx="299.73" cy="328.12" r="1.41"/><circle class="cls-6" cx="306.32" cy="339.41" r="1.41"/><circle class="cls-6" cx="303.5" cy="355.88" r="1.41"/><line class="cls-6" x1="305.38" y1="338" x2="300.68" y2="329.54"/><line class="cls-6" x1="314.79" y1="354.47" x2="307.26" y2="340.82"/><line class="cls-6" x1="321.84" y1="355.88" x2="317.14" y2="355.88"/><line class="cls-6" x1="304.91" y1="339.41" x2="297.38" y2="339.41"/><line class="cls-6" x1="314.32" y1="355.88" x2="304.91" y2="355.88"/><line class="cls-6" x1="348.65" y1="364.34" x2="324.66" y2="356.35"/><circle class="cls-3" cx="307.73" cy="285.32" r="1.41"/><circle class="cls-3" cx="308.67" cy="273.09" r="1.41"/><circle class="cls-3" cx="298.32" cy="283.44" r="1.41"/><circle class="cls-3" cx="300.68" cy="311.66" r="1.41"/><circle class="cls-3" cx="307.26" cy="308.37" r="1.41" transform="translate(-121.85 235.13) rotate(-35.42)"/><circle class="cls-3" cx="302.09" cy="296.61" r="1.41"/><line class="cls-6" x1="324.66" y1="327.65" x2="324.66" y2="316.36"/><line class="cls-6" x1="325.61" y1="313.54" x2="331.25" y2="301.78"/><line class="cls-3" x1="306.79" y1="306.96" x2="302.56" y2="298.02"/><line class="cls-3" x1="305.85" y1="309.31" x2="302.09" y2="311.19"/><line class="cls-3" x1="313.85" y1="315.42" x2="308.2" y2="309.31"/><line class="cls-3" x1="306.32" y1="285.32" x2="299.73" y2="283.91"/><line class="cls-3" x1="307.73" y1="283.91" x2="308.67" y2="274.5"/><line class="cls-3" x1="309.14" y1="285.79" x2="319.02" y2="289.55"/><circle class="cls-3" cx="277.16" cy="319.66" r="1.41"/><circle class="cls-3" cx="295.03" cy="307.43" r="1.41"/><circle class="cls-3" cx="286.14" cy="305.39" r="1.41"/><circle class="cls-3" cx="288.45" cy="311.66" r="1.41"/><circle class="cls-3" cx="275.28" cy="312.13" r="1.41"/><circle class="cls-3" cx="274.33" cy="341.29" r="1.41"/><circle class="cls-3" cx="258.34" cy="337.06" r="1.41"/><circle class="cls-3" cx="266.34" cy="346.94" r="1.41"/><circle class="cls-3" cx="247.99" cy="370.46" r="1.41"/><circle class="cls-3" cx="255.99" cy="364.81" r="1.41"/><line class="cls-3" x1="279.98" y1="333.77" x2="277.16" y2="321.07"/><line class="cls-3" x1="276.69" y1="318.25" x2="275.75" y2="313.54"/><line class="cls-3" x1="278.57" y1="319.19" x2="287.51" y2="312.6"/><line class="cls-3" x1="288.45" y1="310.25" x2="286.87" y2="307.01"/><line class="cls-3" x1="289.86" y1="311.19" x2="293.62" y2="308.37"/><line class="cls-3" x1="267.75" y1="372.34" x2="257.4" y2="365.75"/><line class="cls-3" x1="254.58" y1="365.75" x2="248.93" y2="369.52"/><line class="cls-3" x1="266.34" y1="359.17" x2="266.34" y2="348.35"/><line class="cls-3" x1="259.28" y1="338" x2="265.4" y2="345.53"/><line class="cls-3" x1="272.92" y1="342.24" x2="267.75" y2="346.47"/><line class="cls-6" x1="357.59" y1="380.34" x2="358.06" y2="359.17"/><line class="cls-6" x1="362.29" y1="347.88" x2="364.65" y2="342.71"/><line class="cls-6" x1="360.88" y1="347.88" x2="356.65" y2="341.77"/><line class="cls-6" x1="359" y1="355.88" x2="360.88" y2="350.7"/><circle class="cls-6" cx="358.06" cy="357.29" r="1.41"/><circle class="cls-6" cx="365.59" cy="341.29" r="1.41"/><circle class="cls-6" cx="355.71" cy="340.82" r="1.41"/><circle class="cls-6" cx="361.82" cy="349.29" r="1.41"/><circle class="cls-3" cx="365.71" cy="536.62" r="1.53"/><circle class="cls-3" cx="368.06" cy="529.56" r="1.53"/><circle class="cls-3" cx="373.7" cy="529.56" r="1.53"/><line class="cls-3" x1="367.47" y1="531.33" x2="366.53" y2="535.09"/><line class="cls-3" x1="372.17" y1="529.92" x2="369.82" y2="529.92"/><line class="cls-3" x1="375.47" y1="519.1" x2="374.05" y2="528.03"/><line class="cls-7" x1="247.71" y1="358.63" x2="227.66" y2="352.46"/><circle class="cls-4" cx="227.83" cy="352.51" r="3.01" transform="translate(-176.1 466.59) rotate(-72.9)"/><path class="cls-5" d="M228.83,349.25a3.41,3.41,0,1,1-4.26,2.25,3.41,3.41,0,0,1,4.26-2.25ZM227.06,355a2.61,2.61,0,1,0-1.73-3.26,2.61,2.61,0,0,0,1.73,3.26Z"/><line class="cls-3" x1="285.31" y1="304.56" x2="264.15" y2="285.8"/><circle class="cls-4" cx="264.27" cy="285.91" r="3.01" transform="translate(-124.98 293.94) rotate(-48.43)"/><path class="cls-5" d="M266.54,283.36a3.41,3.41,0,1,1-4.81.29,3.41,3.41,0,0,1,4.81-.29Zm-4,4.5a2.61,2.61,0,1,0-.22-3.68,2.61,2.61,0,0,0,.22,3.68Z"/><path class="cls-2" d="M336.76,523.27A78.42,78.42,0,0,1,384.4,494"/><circle class="cls-2" cx="334.31" cy="526.8" r="3.53"/><line class="cls-3" x1="342.43" y1="536.11" x2="336.33" y2="529.46"/><path class="cls-2" d="M476.89,561.9a79.26,79.26,0,0,1,.53,9.13,78.43,78.43,0,0,1-156.87,0c0-3.17,0-6.1.23-9"/><text class="cls-8" transform="translate(373.14 631.65)">SWITCH</text><circle class="cls-3" cx="367.54" cy="650.89" r="1.41"/><circle class="cls-3" cx="379.18" cy="654.77" r="1.41"/><circle class="cls-3" cx="385.28" cy="655.88" r="1.41"/><circle class="cls-3" cx="361.45" cy="648.12" r="1.41"/><circle class="cls-3" cx="373.64" cy="653.11" r="1.41"/><circle class="cls-3" cx="430.73" cy="650.89" r="1.41"/><circle class="cls-3" cx="419.09" cy="654.77" r="1.41"/><circle class="cls-3" cx="413" cy="655.88" r="1.41"/><circle class="cls-3" cx="436.83" cy="648.12" r="1.41"/><circle class="cls-3" cx="424.64" cy="653.11" r="1.41"/><line class="cls-2" x1="449.1" y1="544.03" x2="472.54" y2="555.48"/><line class="cls-2" x1="420.4" y1="548.73" x2="443.45" y2="543.09"/><line class="cls-2" x1="406.76" y1="520.98" x2="416.17" y2="547.32"/><line class="cls-2" x1="407.23" y1="510.16" x2="405.82" y2="515.8"/><line class="cls-2" x1="403.47" y1="489.93" x2="407.23" y2="504.52"/><line class="cls-2" x1="403" y1="389.74" x2="403" y2="484.29"/><line class="cls-2" x1="429.34" y1="363.4" x2="404.88" y2="385.04"/><line class="cls-2" x1="415.23" y1="325.3" x2="430.28" y2="358.23"/><line class="cls-2" x1="412.25" y1="285.3" x2="408.17" y2="306.02"/><line class="cls-2" x1="416.64" y1="261.33" x2="413.66" y2="278.72"/><line class="cls-2" x1="409.58" y1="243.93" x2="416.17" y2="256.16"/><circle class="cls-2" cx="407.94" cy="240.87" r="3.53"/><circle class="cls-2" cx="408.17" cy="308.84" r="2.82"/><circle class="cls-2" cx="430.75" cy="361.05" r="2.82"/><circle class="cls-2" cx="403" cy="386.92" r="2.82"/><circle class="cls-2" cx="403" cy="487.11" r="2.82"/><circle class="cls-2" cx="407.7" cy="507.34" r="2.82"/><circle class="cls-2" cx="405.82" cy="518.16" r="2.82"/><circle class="cls-2" cx="417.11" cy="549.67" r="2.82"/><circle class="cls-2" cx="446.27" cy="542.62" r="2.82"/><circle class="cls-2" cx="417.11" cy="258.51" r="2.82"/><line class="cls-2" x1="429.34" y1="268.86" x2="415.23" y2="281.09"/><line class="cls-2" x1="443.45" y1="274.03" x2="434.04" y2="268.39"/><line class="cls-2" x1="465.36" y1="258.09" x2="448.63" y2="273.09"/><line class="cls-2" x1="441.81" y1="304.37" x2="432.4" y2="310.49"/><line class="cls-2" x1="455.21" y1="305.55" x2="447.69" y2="303.66"/><line class="cls-2" x1="474.97" y1="268.39" x2="458.97" y2="303.19"/><line class="cls-2" x1="426.05" y1="288.14" x2="429.2" y2="309.26"/><line class="cls-2" x1="438.04" y1="329.3" x2="422.99" y2="319.89"/><line class="cls-2" x1="462.03" y1="319.89" x2="444.16" y2="329.3"/><circle class="cls-2" cx="446.27" cy="274.5" r="2.82"/><circle class="cls-2" cx="431.69" cy="266.98" r="2.82"/><circle class="cls-2" cx="413.35" cy="282.03" r="2.82"/><circle class="cls-2" cx="429.81" cy="312.13" r="2.82"/><circle class="cls-2" cx="425.58" cy="285.32" r="2.82"/><circle class="cls-2" cx="421.34" cy="318.72" r="2.82"/><circle class="cls-2" cx="414.29" cy="322.48" r="2.82"/><circle class="cls-2" cx="441.1" cy="330.48" r="2.82"/><circle class="cls-2" cx="464.15" cy="318.72" r="2.82"/><circle class="cls-2" cx="444.39" cy="302.72" r="2.82"/><circle class="cls-2" cx="458.03" cy="306.02" r="2.82"/><line class="cls-2" x1="409.58" y1="312.13" x2="413.11" y2="319.89"/><line class="cls-2" x1="419.23" y1="319.42" x2="416.88" y2="320.83"/><line class="cls-2" x1="427.44" y1="313.84" x2="423.21" y2="316.66"/><circle class="cls-2" cx="476.38" cy="265.56" r="3.53"/><circle class="cls-2" cx="468.18" cy="256.16" r="3.53"/><circle class="cls-3" cx="469.32" cy="269.8" r="1.41"/><circle class="cls-3" cx="457.51" cy="269.8" r="1.41" transform="translate(56.88 618.51) rotate(-71.57)"/><circle class="cls-3" cx="459.44" cy="285.79" r="1.41"/><circle class="cls-3" cx="453.8" cy="277.32" r="1.41" transform="translate(-8.24 540.69) rotate(-61.11)"/><circle class="cls-3" cx="456.15" cy="288.14" r="1.41"/><circle class="cls-3" cx="438.28" cy="278.26" r="1.41"/><circle class="cls-3" cx="448.63" cy="287.67" r="1.41"/><circle class="cls-3" cx="438.28" cy="287.67" r="1.41"/><circle class="cls-3" cx="438.28" cy="293.32" r="1.41"/><circle class="cls-3" cx="463.21" cy="283.91" r="1.41"/><line class="cls-3" x1="457.04" y1="271.21" x2="454.27" y2="275.91"/><line class="cls-3" x1="438.28" y1="279.68" x2="438.28" y2="286.26"/><line class="cls-3" x1="438.28" y1="289.08" x2="438.28" y2="291.91"/><line class="cls-3" x1="447.21" y1="287.67" x2="439.69" y2="287.67"/><line class="cls-3" x1="454.74" y1="278.73" x2="458.5" y2="284.38"/><line class="cls-3" x1="468.85" y1="271.21" x2="463.68" y2="282.5"/><line class="cls-3" x1="436.87" y1="294.26" x2="428.4" y2="298.96"/><line class="cls-3" x1="455.68" y1="289.55" x2="449.57" y2="304.14"/><line class="cls-3" x1="458.5" y1="286.73" x2="457.56" y2="287.2"/><circle class="cls-3" cx="403.47" cy="292.85" r="1.41"/><circle class="cls-3" cx="406.29" cy="266.98" r="1.41"/><circle class="cls-3" cx="418.99" cy="244.4" r="1.41"/><line class="cls-3" x1="418.05" y1="245.34" x2="413.35" y2="249.57"/><line class="cls-3" x1="413.82" y1="274.5" x2="407.23" y2="267.92"/><line class="cls-3" x1="409.11" y1="298.96" x2="404.41" y2="293.79"/><circle class="cls-3" cx="410.06" cy="355.88" r="1.41"/><circle class="cls-3" cx="404.88" cy="336.12" r="1.41"/><circle class="cls-3" cx="410.53" cy="334.24" r="1.41"/><circle class="cls-3" cx="407.7" cy="339.88" r="1.41"/><circle class="cls-3" cx="416.64" cy="343.65" r="1.41"/><circle class="cls-3" cx="413.35" cy="348.82" r="1.41"/><line class="cls-3" x1="412.41" y1="347.41" x2="408.64" y2="341.29"/><line class="cls-3" x1="414.29" y1="347.41" x2="415.7" y2="345.06"/><line class="cls-3" x1="410.53" y1="354.47" x2="412.88" y2="350.23"/><line class="cls-3" x1="408.17" y1="338.94" x2="409.58" y2="335.65"/><line class="cls-3" x1="406.76" y1="338.47" x2="405.82" y2="337.53"/><line class="cls-3" x1="420.4" y1="371.4" x2="410.53" y2="357.29"/><line class="cls-3" x1="412.41" y1="377.51" x2="406.29" y2="368.11"/><circle class="cls-3" cx="405.82" cy="367.17" r="1.41"/><line class="cls-3" x1="403.47" y1="399.15" x2="417.11" y2="387.39"/><line class="cls-3" x1="418.05" y1="385.04" x2="417.11" y2="381.75"/><line class="cls-3" x1="426.05" y1="372.81" x2="417.58" y2="379.4"/><circle class="cls-3" cx="418.05" cy="386.45" r="1.41"/><circle class="cls-3" cx="416.64" cy="380.34" r="1.41"/><circle class="cls-3" cx="426.99" cy="371.87" r="1.41"/><circle class="cls-3" cx="434.04" cy="559.08" r="1.41"/><circle class="cls-3" cx="438.75" cy="560.49" r="1.41"/><circle class="cls-3" cx="441.1" cy="568.96" r="1.41"/><line class="cls-3" x1="431.22" y1="546.85" x2="433.57" y2="557.67"/><line class="cls-3" x1="435.46" y1="559.55" x2="437.34" y2="560.02"/><line class="cls-3" x1="439.22" y1="561.9" x2="440.63" y2="567.55"/><circle class="cls-3" cx="441.57" cy="552.49" r="1.41"/><circle class="cls-3" cx="451.92" cy="563.31" r="1.41"/><circle class="cls-3" cx="459.91" cy="560.02" r="1.41"/><circle class="cls-3" cx="464.62" cy="561.9" r="1.41"/><circle class="cls-3" cx="468.38" cy="569.9" r="1.41"/><line class="cls-3" x1="455.68" y1="547.79" x2="459.44" y2="558.61"/><line class="cls-3" x1="442.51" y1="553.43" x2="450.98" y2="561.9"/><line class="cls-3" x1="439.69" y1="544.5" x2="441.1" y2="551.08"/><line class="cls-3" x1="465.09" y1="563.31" x2="467.91" y2="568.96"/><line class="cls-3" x1="461.33" y1="560.96" x2="463.21" y2="561.43"/><circle class="cls-3" cx="432.63" cy="254.28" r="1.41"/><circle class="cls-3" cx="425.11" cy="247.69" r="1.41"/><circle class="cls-3" cx="435.93" cy="247.69" r="1.41"/><circle class="cls-3" cx="446.27" cy="253.33" r="1.41"/><line class="cls-3" x1="445.33" y1="254.75" x2="437.81" y2="269.8"/><line class="cls-3" x1="433.57" y1="255.22" x2="441.57" y2="262.27"/><line class="cls-3" x1="426.05" y1="248.63" x2="431.22" y2="253.33"/><line class="cls-3" x1="434.98" y1="249.1" x2="433.57" y2="252.86"/><circle class="cls-2" cx="476.89" cy="557.64" r="4.35"/><line class="cls-3" x1="469.75" y1="253.17" x2="475.49" y2="240.97"/><circle class="cls-4" cx="475.42" cy="241.12" r="3.01" transform="translate(54.82 568.62) rotate(-64.8)"/><path class="cls-5" d="M478.5,242.57a3.41,3.41,0,1,1-1.63-4.53,3.41,3.41,0,0,1,1.63,4.53ZM473.06,240a2.61,2.61,0,1,0,3.47-1.25,2.61,2.61,0,0,0-3.47,1.25Z"/><line class="cls-2" x1="410.29" y1="495.81" x2="416.41" y2="516.04"/><line class="cls-2" x1="409.82" y1="412.09" x2="409.82" y2="491.11"/><line class="cls-2" x1="418.76" y1="401.74" x2="411.7" y2="408.32"/><line class="cls-2" x1="428.87" y1="387.16" x2="422.05" y2="397.5"/><line class="cls-2" x1="446.74" y1="377.28" x2="433.1" y2="383.39"/><line class="cls-2" x1="449.1" y1="342.94" x2="449.1" y2="373.52"/><line class="cls-2" x1="481.79" y1="323.66" x2="451.92" y2="338.71"/><line class="cls-2" x1="480.38" y1="300.61" x2="484.14" y2="319.89"/><line class="cls-2" x1="503.9" y1="289.32" x2="482.26" y2="297.31"/><circle class="cls-2" cx="507.42" cy="288.14" r="3.53"/><line class="cls-2" x1="477.55" y1="286.5" x2="478.97" y2="294.96"/><line class="cls-2" x1="459.68" y1="371.63" x2="451.68" y2="374.93"/><line class="cls-2" x1="478.97" y1="375.4" x2="465.32" y2="371.16"/><line class="cls-2" x1="511.89" y1="353.29" x2="484.61" y2="373.99"/><line class="cls-2" x1="511.42" y1="339.18" x2="513.3" y2="348.59"/><line class="cls-2" x1="530.24" y1="328.83" x2="513.77" y2="335.42"/><line class="cls-2" x1="496.84" y1="381.04" x2="485.08" y2="377.28"/><line class="cls-2" x1="518.95" y1="368.34" x2="502.01" y2="380.1"/><line class="cls-2" x1="543.88" y1="380.57" x2="523.65" y2="368.34"/><line class="cls-2" x1="508.6" y1="326.01" x2="510.48" y2="334.47"/><circle class="cls-2" cx="449.33" cy="340.12" r="2.82"/><circle class="cls-2" cx="484.61" cy="322.71" r="2.82"/><circle class="cls-2" cx="479.91" cy="297.78" r="2.82"/><circle class="cls-2" cx="510.95" cy="336.83" r="2.82"/><circle class="cls-2" cx="513.77" cy="351.41" r="2.82"/><circle class="cls-2" cx="449.33" cy="376.34" r="2.82"/><circle class="cls-2" cx="462.5" cy="370.69" r="2.82"/><circle class="cls-2" cx="482.26" cy="376.34" r="2.82"/><circle class="cls-2" cx="499.66" cy="381.51" r="2.82"/><circle class="cls-2" cx="521.3" cy="366.93" r="2.82"/><circle class="cls-2" cx="476.85" cy="282.97" r="3.53"/><line class="cls-2" x1="540.58" y1="353.29" x2="523.65" y2="365.05"/><circle class="cls-2" cx="430.52" cy="384.8" r="2.82"/><circle class="cls-2" cx="420.64" cy="399.86" r="2.82"/><circle class="cls-2" cx="409.82" cy="409.73" r="2.82"/><circle class="cls-2" cx="409.82" cy="493.46" r="2.82"/><circle class="cls-2" cx="416.88" cy="518.39" r="2.82"/><circle class="cls-2" cx="507.89" cy="322.48" r="3.53"/><circle class="cls-2" cx="533.76" cy="327.65" r="3.53"/><circle class="cls-2" cx="542.7" cy="351.64" r="3.53"/><circle class="cls-2" cx="546.46" cy="382.22" r="3.53"/><polyline class="cls-3" points="419.7 517.92 438.04 525.45 438.75 526.62 441.33 532.03"/><circle class="cls-3" cx="441.92" cy="533.33" r="1.53"/><circle class="cls-3" cx="454.15" cy="537.09" r="1.53"/><line class="cls-3" x1="443.45" y1="533.21" x2="452.86" y2="536.5"/><line class="cls-6" x1="449.33" y1="355.17" x2="471.67" y2="345.53"/><line class="cls-6" x1="473.09" y1="343.18" x2="473.09" y2="339.41"/><line class="cls-6" x1="474.5" y1="337.06" x2="480.61" y2="333.77"/><circle class="cls-6" cx="482.02" cy="332.83" r="1.41"/><circle class="cls-6" cx="473.09" cy="314.95" r="1.41"/><circle class="cls-6" cx="465.56" cy="300.37" r="1.41"/><circle class="cls-6" cx="473.09" cy="338" r="1.41"/><circle class="cls-6" cx="473.09" cy="344.59" r="1.41"/><circle class="cls-6" cx="482.02" cy="355.88" r="1.41"/><circle class="cls-6" cx="474.5" cy="355.88" r="1.41"/><circle class="cls-6" cx="501.78" cy="339.41" r="1.41"/><circle class="cls-6" cx="498.02" cy="328.12" r="1.41"/><circle class="cls-6" cx="491.43" cy="339.41" r="1.41"/><circle class="cls-6" cx="494.25" cy="355.88" r="1.41"/><line class="cls-6" x1="492.37" y1="338" x2="497.07" y2="329.54"/><line class="cls-6" x1="482.96" y1="354.47" x2="490.49" y2="340.82"/><line class="cls-6" x1="475.91" y1="355.88" x2="480.61" y2="355.88"/><line class="cls-6" x1="492.84" y1="339.41" x2="500.37" y2="339.41"/><line class="cls-6" x1="483.43" y1="355.88" x2="492.84" y2="355.88"/><line class="cls-6" x1="449.1" y1="364.34" x2="473.09" y2="356.35"/><circle class="cls-3" cx="490.02" cy="285.32" r="1.41"/><circle class="cls-3" cx="489.08" cy="273.09" r="1.41"/><circle class="cls-3" cx="499.43" cy="283.44" r="1.41"/><circle class="cls-3" cx="497.07" cy="311.66" r="1.41"/><circle class="cls-3" cx="490.49" cy="308.37" r="1.41" transform="translate(-45.07 529.39) rotate(-54.58)"/><circle class="cls-3" cx="495.66" cy="296.61" r="1.41"/><line class="cls-6" x1="473.09" y1="327.65" x2="473.09" y2="316.36"/><line class="cls-6" x1="472.14" y1="313.54" x2="466.5" y2="301.78"/><line class="cls-3" x1="490.96" y1="306.96" x2="495.19" y2="298.02"/><line class="cls-3" x1="491.9" y1="309.31" x2="495.66" y2="311.19"/><line class="cls-3" x1="483.9" y1="315.42" x2="489.55" y2="309.31"/><line class="cls-3" x1="491.43" y1="285.32" x2="498.02" y2="283.91"/><line class="cls-3" x1="490.02" y1="283.91" x2="489.08" y2="274.5"/><line class="cls-3" x1="488.61" y1="285.79" x2="478.73" y2="289.55"/><circle class="cls-3" cx="520.59" cy="319.66" r="1.41"/><circle class="cls-3" cx="502.72" cy="307.43" r="1.41"/><circle class="cls-3" cx="509.83" cy="302.72" r="1.41"/><circle class="cls-6" cx="508.46" cy="310.57" r="1.41"/><circle class="cls-3" cx="522.47" cy="312.13" r="1.41"/><circle class="cls-3" cx="523.42" cy="341.29" r="1.41"/><circle class="cls-3" cx="539.41" cy="337.06" r="1.41"/><circle class="cls-3" cx="531.41" cy="346.94" r="1.41"/><circle class="cls-3" cx="548.87" cy="370.46" r="1.41"/><circle class="cls-3" cx="541.76" cy="364.81" r="1.41"/><line class="cls-3" x1="517.77" y1="333.77" x2="520.59" y2="321.07"/><line class="cls-3" x1="521.06" y1="318.25" x2="522" y2="313.54"/><line class="cls-3" x1="519.18" y1="319.19" x2="509.36" y2="311.71"/><line class="cls-3" x1="508.41" y1="309.36" x2="509.36" y2="304.14"/><line class="cls-3" x1="507" y1="310.3" x2="504.13" y2="308.37"/><line class="cls-3" x1="530" y1="372.34" x2="540.35" y2="365.75"/><line class="cls-3" x1="542.28" y1="363.97" x2="547.93" y2="358.84"/><line class="cls-3" x1="531.41" y1="359.17" x2="531.41" y2="348.35"/><line class="cls-3" x1="538.47" y1="338" x2="532.35" y2="345.53"/><line class="cls-3" x1="524.83" y1="342.24" x2="530" y2="346.47"/><line class="cls-6" x1="440.16" y1="380.34" x2="439.69" y2="359.17"/><line class="cls-6" x1="435.46" y1="347.88" x2="433.1" y2="342.71"/><line class="cls-6" x1="436.87" y1="347.88" x2="441.1" y2="341.77"/><line class="cls-6" x1="438.75" y1="355.88" x2="436.87" y2="350.7"/><circle class="cls-6" cx="439.69" cy="357.29" r="1.41"/><circle class="cls-6" cx="432.16" cy="341.29" r="1.41"/><circle class="cls-6" cx="442.04" cy="340.82" r="1.41"/><circle class="cls-6" cx="435.93" cy="349.29" r="1.41"/><circle class="cls-3" cx="432.05" cy="536.62" r="1.53"/><circle class="cls-3" cx="429.69" cy="529.56" r="1.53"/><circle class="cls-3" cx="424.05" cy="529.56" r="1.53"/><line class="cls-3" x1="430.28" y1="531.33" x2="431.22" y2="535.09"/><line class="cls-3" x1="425.58" y1="529.92" x2="427.93" y2="529.92"/><line class="cls-3" x1="422.28" y1="519.1" x2="423.7" y2="528.03"/><line class="cls-3" x1="509.8" y1="309.23" x2="535.84" y2="286.45"/><circle class="cls-4" cx="535.71" cy="286.56" r="3.01" transform="translate(-56.15 423.67) rotate(-41.19)"/><path class="cls-5" d="M538,289.12a3.41,3.41,0,1,1,.32-4.81,3.41,3.41,0,0,1-.32,4.81Zm-4-4.53a2.61,2.61,0,1,0,3.68.25,2.61,2.61,0,0,0-3.68-.25Z"/><line class="cls-3" x1="549.12" y1="357.6" x2="570.78" y2="351.1"/><circle class="cls-4" cx="549.22" cy="357.57" r="1.88" transform="translate(-79.58 172.9) rotate(-16.7)"/><path class="cls-5" d="M549.83,359.61a2.13,2.13,0,1,0-2.65-1.43,2.13,2.13,0,0,0,2.65,1.43Zm-1.08-3.6a1.63,1.63,0,1,1-1.09,2,1.63,1.63,0,0,1,1.09-2Z"/><circle class="cls-4" cx="570.61" cy="351.15" r="3.01" transform="translate(-76.84 178.77) rotate(-16.7)"/><path class="cls-5" d="M571.59,354.42a3.41,3.41,0,1,1,2.28-4.24,3.41,3.41,0,0,1-2.28,4.24Zm-1.73-5.76a2.61,2.61,0,1,0,3.25,1.75,2.61,2.61,0,0,0-3.25-1.75Z"/><line class="cls-3" x1="542.73" y1="366.19" x2="548.07" y2="369.75"/><path class="cls-2" d="M461,523.27A78.42,78.42,0,0,0,413.35,494"/><circle class="cls-2" cx="463.44" cy="526.8" r="3.53"/><line class="cls-3" x1="455.32" y1="536.11" x2="461.42" y2="529.46"/><line class="cls-3" x1="254.83" y1="363.97" x2="248.87" y2="359.41"/><circle class="cls-4" cx="248.95" cy="359.48" r="1.88" transform="translate(-187.83 338.87) rotate(-52.59)"/><path class="cls-5" d="M250.25,357.78a2.13,2.13,0,1,1-3,.4,2.13,2.13,0,0,1,3-.4Zm-2.28,3a1.63,1.63,0,1,0-.3-2.28,1.63,1.63,0,0,0,.3,2.28Z"/><circle class="cls-9" cx="315.18" cy="213.66" r="23.86"/><text class="cls-10" transform="translate(298.69 214.9)">EP_ABC</text><path class="cls-11" d="M291.86,144.8a7.9,7.9,0,0,1,5.8-3.21,7.89,7.89,0,0,1-1.91,5.9c-2.57,3.09-5.5,2.59-5.5,2.59A6.86,6.86,0,0,1,291.86,144.8Z"/><path class="cls-11" d="M290.56,152.18c1.25,0,3.57-1.72,6.58-1.72a8.24,8.24,0,0,1,7.23,3.69,8,8,0,0,0-4,7,8.22,8.22,0,0,0,5,7.52s-3.48,9.79-8.18,9.79c-2.16,0-3.84-1.45-6.11-1.45s-4.62,1.51-6.11,1.51c-4.29,0-9.71-9.29-9.71-16.75s4.59-11.2,8.89-11.2C286.93,150.57,289.1,152.18,290.56,152.18Z"/><circle class="cls-12" cx="290.3" cy="160.05" r="25"/><line class="cls-9" x1="298.4" y1="182.34" x2="303.62" y2="194.27"/><circle class="cls-13" cx="242.85" cy="265.85" r="23.86"/><text class="cls-14" transform="translate(225.01 267.09)">EP_GBM</text><g id="_Grupo_" data-name="&lt;Grupo&gt;"><path id="_Trazado_" data-name="&lt;Trazado&gt;" class="cls-15" d="M196.3,246.07h0a18.72,18.72,0,0,1-18.72-18.72h0a18.72,18.72,0,0,1,18.72-18.72h0A18.72,18.72,0,0,1,215,227.35h0A18.72,18.72,0,0,1,196.3,246.07Z"/><g id="_Grupo_2" data-name="&lt;Grupo&gt;"><path id="_Trazado_2" data-name="&lt;Trazado&gt;" class="cls-4" d="M198.64,226.86h-7.57V229h5.1a5,5,0,0,1-5,4.26,5.93,5.93,0,1,1,4-10.29l1.67-1.44a8.13,8.13,0,1,0-5.71,13.93c4.31,0,7.43-3.29,7.43-7.78Z"/><polygon id="_Trazado_3" data-name="&lt;Trazado&gt;" class="cls-4" points="209.51 226.95 206.39 226.95 206.39 223.83 204.4 223.83 204.4 226.95 201.27 226.95 201.27 228.94 204.4 228.94 204.4 232.07 206.39 232.07 206.39 228.94 209.51 228.94 209.51 226.95"/></g></g><circle class="cls-13" cx="196.3" cy="227.35" r="23.86"/><line class="cls-13" x1="214.89" y1="242.74" x2="224.59" y2="250.94"/><line class="cls-1" x1="214.89" y1="242.74" x2="397.67" y2="403.57"/><circle class="cls-16" cx="486.67" cy="213.66" r="23.86"/><text class="cls-17" transform="translate(470.53 214.9)">EP_FBK</text><g id="_Grupo_3" data-name="&lt;Grupo&gt;"><path id="_Trazado_4" data-name="&lt;Trazado&gt;" class="cls-18" d="M508.91,179.08h0a19,19,0,0,1-19-19h0a19,19,0,0,1,19-19h0a19,19,0,0,1,19,19h0A19,19,0,0,1,508.91,179.08Z"/><path id="_Trazado_5" data-name="&lt;Trazado&gt;" class="cls-4" d="M506,171.59h4.61V160h3.22l.34-3.87h-3.56V154c0-.91.18-1.27,1.07-1.27h2.5v-4H511c-3.43,0-5,1.51-5,4.41v3.08h-2.4v3.92H506Z"/></g><circle class="cls-19" cx="508.91" cy="160.13" r="23.86"/><line class="cls-19" x1="501.21" y1="183.83" x2="497.48" y2="192.03"/><circle class="cls-20" cx="199.61" cy="343.39" r="23.86"/><text class="cls-21" transform="translate(181.78 344.64)">EP_WAS</text><path class="cls-22" d="M139.87,309.57A16.13,16.13,0,0,0,126,333.91l-1.22,6.88,7.17-1a16.13,16.13,0,1,0,7.94-30.17Z"/><path class="cls-4" d="M130.83,333a4.84,4.84,0,0,1-.41-1.86.87.87,0,0,1,0-.3c0-.1.27-.28.71-.54s1-.57,1.63-.91l1-.53.35-.24a2.84,2.84,0,0,1,.46-.28,1,1,0,0,1,.39-.09q.33,0,.87.6t1.05,1.21q.52.61.81.61a.9.9,0,0,0,.31-.07l.29-.12.31-.17.26-.16a13.36,13.36,0,0,0,5.48-5.48l.16-.26.17-.31a2.59,2.59,0,0,0,.12-.29.9.9,0,0,0,.06-.3,1,1,0,0,0-.38-.62,7.24,7.24,0,0,0-.83-.71,6.4,6.4,0,0,1-.83-.73,1.1,1.1,0,0,1-.38-.67.93.93,0,0,1,.09-.39,2.82,2.82,0,0,1,.28-.46l.24-.35.28-.52.46-.84.49-.88a7.39,7.39,0,0,1,.46-.75,1.07,1.07,0,0,1,.3-.33.86.86,0,0,1,.3,0,4.85,4.85,0,0,1,1.86.41,3.32,3.32,0,0,1,1.48,1.74,5.86,5.86,0,0,1,.63,2.41,4.51,4.51,0,0,1,0,.63c0,.22-.06.41-.09.56a6,6,0,0,1-.17.61c-.08.25-.14.43-.18.54l-.23.61-.2.55a18.76,18.76,0,0,1-9.9,9.9l-.55.2-.61.23-.54.18a6.18,6.18,0,0,1-.61.17l-.56.09a4.52,4.52,0,0,1-.63,0,5.84,5.84,0,0,1-2.41-.63,3.33,3.33,0,0,1-1.74-1.48Z"/><circle class="cls-23" cx="139.87" cy="325.7" r="25"/><line class="cls-20" x1="163.45" y1="332.95" x2="176.87" y2="336.68"/><circle class="cls-24" cx="557.5" cy="267.34" r="23.86"/><text class="cls-25" transform="translate(538.64 268.58)">EP_CBOT</text><line class="cls-24" x1="584.71" y1="244.23" x2="575.02" y2="252.43"/><path class="cls-26" d="M601.84,218.75c0,2.07-1.31,3.48-3.07,3.09-1.91-.43-3.55-2.78-3.49-5.17s1.72-3.55,3.56-2.79A5.49,5.49,0,0,1,601.84,218.75Z"/><path class="cls-26" d="M607.69,220.61c.05,1.78-.86,3-2.12,2.75s-2.53-2.22-2.55-4.23,1.1-3.09,2.42-2.55S607.64,218.86,607.69,220.61Z"/><path class="cls-26" d="M612.05,222c.07,1.56-.59,2.68-1.53,2.47s-1.91-1.84-2-3.58.74-2.73,1.72-2.33S612,220.45,612.05,222Z"/><path class="cls-26" d="M601.88,228.09c0,2.24-1.36,4.11-3.2,4.15-2,0-3.73-2.1-3.66-4.72s1.81-4.3,3.74-3.95C600.53,223.89,601.87,225.89,601.88,228.09Z"/><path class="cls-26" d="M607.93,228.6c.06,1.9-.88,3.49-2.18,3.51s-2.62-1.74-2.64-3.91,1.14-3.62,2.5-3.37S607.87,226.72,607.93,228.6Z"/><path class="cls-26" d="M612.39,229c.08,1.65-.59,3-1.55,3s-2-1.49-2-3.34.75-3.13,1.76-2.94S612.31,227.34,612.39,229Z"/><path class="cls-26" d="M601.92,238.31c0,2.44-1.42,4.85-3.34,5.4-2.11.6-3.92-1.27-3.85-4.16s1.91-5.19,3.94-5.32C600.52,234.1,601.91,235.92,601.92,238.31Z"/><path class="cls-26" d="M608.18,237.23c.06,2-.9,4-2.24,4.39s-2.72-1.18-2.74-3.53,1.18-4.23,2.58-4.32S608.12,235.22,608.18,237.23Z"/><path class="cls-26" d="M612.74,236.45c.08,1.76-.6,3.41-1.58,3.69s-2-1.08-2.07-3.07.77-3.57,1.8-3.64S612.66,234.72,612.74,236.45Z"/><circle class="cls-24" cx="604.1" cy="227.82" r="23.86"/><line class="cls-1" x1="584.71" y1="244.23" x2="401.22" y2="403.57"/><circle class="cls-27" cx="599.63" cy="344.88" r="23.86"/><text class="cls-28" transform="translate(580.82 346.87)">EP_CCHT</text><line class="cls-27" x1="636.16" y1="330.72" x2="621.99" y2="335.19"/><path class="cls-29" d="M657,317.17c0,2.07-1.31,3.48-3.07,3.09-1.91-.43-3.55-2.78-3.49-5.17s1.72-3.55,3.56-2.79A5.49,5.49,0,0,1,657,317.17Z"/><path class="cls-29" d="M662.87,319c.05,1.78-.86,3-2.12,2.75s-2.53-2.22-2.55-4.23,1.1-3.09,2.42-2.55S662.82,317.28,662.87,319Z"/><path class="cls-29" d="M667.23,320.41c.07,1.56-.59,2.68-1.53,2.47s-1.91-1.84-2-3.58.74-2.73,1.72-2.33S667.15,318.87,667.23,320.41Z"/><path class="cls-29" d="M657.06,326.51c0,2.24-1.36,4.11-3.2,4.15-2,0-3.73-2.1-3.66-4.72s1.81-4.3,3.74-3.95C655.71,322.31,657,324.31,657.06,326.51Z"/><path class="cls-29" d="M663.1,327c.06,1.9-.88,3.49-2.18,3.51s-2.62-1.74-2.64-3.91,1.14-3.62,2.5-3.37S663,325.14,663.1,327Z"/><path class="cls-29" d="M667.56,327.39c.08,1.65-.59,3-1.55,3s-2-1.49-2-3.34.75-3.13,1.76-2.94S667.48,325.76,667.56,327.39Z"/><path class="cls-29" d="M657.1,336.73c0,2.44-1.42,4.85-3.34,5.4-2.11.6-3.92-1.27-3.85-4.16s1.91-5.19,3.94-5.32C655.69,332.52,657.09,334.34,657.1,336.73Z"/><path class="cls-29" d="M663.36,335.65c.06,2-.9,4-2.24,4.39s-2.72-1.18-2.74-3.53,1.18-4.23,2.58-4.32S663.3,333.64,663.36,335.65Z"/><path class="cls-29" d="M667.92,334.87c.08,1.76-.6,3.41-1.58,3.69s-2-1.08-2.07-3.07.77-3.57,1.8-3.64S667.83,333.13,667.92,334.87Z"/><circle class="cls-27" cx="659.27" cy="326.24" r="23.86"/><circle class="cls-30" cx="399.43" cy="195.02" r="23.86"/><text class="cls-31" transform="translate(380.08 196.26)">EP_TWTL</text><g id="_Grupo_4" data-name="&lt;Grupo&gt;"><path id="_Trazado_6" data-name="&lt;Trazado&gt;" class="cls-32" d="M399.06,155.07h0a18.21,18.21,0,0,1-18.21-18.21h0a18.21,18.21,0,0,1,18.21-18.21h0a18.21,18.21,0,0,1,18.21,18.21h0A18.21,18.21,0,0,1,399.06,155.07Z"/><path id="_Trazado_7" data-name="&lt;Trazado&gt;" class="cls-4" d="M389.36,143a11.32,11.32,0,0,0,17.42-10.05,8.08,8.08,0,0,0,2-2.06,8,8,0,0,1-2.29.63,4,4,0,0,0,1.75-2.2,8,8,0,0,1-2.53,1,4,4,0,0,0-6.78,3.63,11.3,11.3,0,0,1-8.2-4.16,4,4,0,0,0,1.23,5.32,4,4,0,0,1-1.8-.5,4,4,0,0,0,3.19,4,4,4,0,0,1-1.8.07,4,4,0,0,0,3.72,2.76A8,8,0,0,1,389.36,143Z"/></g><circle class="cls-33" cx="399.06" cy="136.86" r="23.86"/><line class="cls-33" x1="399.43" y1="160.72" x2="399.43" y2="171.16"/><line class="cls-1" x1="298.4" y1="182.34" x2="397.67" y2="403.57"/><line class="cls-1" x1="501.21" y1="183.83" x2="401.22" y2="403.57"/><line class="cls-1" x1="163.45" y1="332.95" x2="397.67" y2="403.57"/><line class="cls-1" x1="636.16" y1="330.72" x2="401.22" y2="403.57"/><text class="cls-34" transform="translate(840.5 211.07) scale(1.06 1)">El endpoint es el traductor entre Yggdrasil y <tspan x="0" y="21.6">cualquier canal/plataforma del mundo </tspan><tspan class="cls-35" x="0" y="43.2">e</tspan><tspan x="9.69" y="43.2">xterior. </tspan><tspan x="0" y="86.4">Un endpoint sabe comunicarse con un y solo un </tspan><tspan x="0" y="108">tipo de canal, al canal con el que se comunique </tspan><tspan x="0" y="129.6">se le denomina pr</tspan><tspan class="cls-35" x="150.8" y="129.6">o</tspan><tspan x="161.38" y="129.6">tocolo. </tspan><tspan x="0" y="172.8">El endpoint sabe realizar una traducción entre </tspan><tspan x="0" y="194.4">cualquier tipo de mensaje del canal hacia un </tspan><tspan x="0" y="216">mensaje AI y de forma in</tspan><tspan class="cls-36" x="216.37" y="216">v</tspan><tspan x="225.7" y="216">ersa sabe traducir </tspan><tspan x="0" y="237.6">cualquier mensaje AI hacia su mejor </tspan><tspan x="0" y="259.2">representación dentro del canal. </tspan><tspan x="0" y="302.4">La traducción de mensajes no necesariamente </tspan><tspan x="0" y="324">es uno a uno, los endpoints tienen la libertad, </tspan><tspan x="0" y="345.6">si es la mejor opción para un canal, de traducir </tspan><tspan x="0" y="367.2">un mensaje AI a muchos mensajes del canal o </tspan><tspan x="0" y="388.8">vice</tspan><tspan class="cls-36" x="33.94" y="388.8">v</tspan><tspan x="43.28" y="388.8">ersa.</tspan></text><text class="cls-37" transform="translate(869 178.77)">E<tspan class="cls-38" x="12.06" y="0">n</tspan><tspan x="24.48" y="0">dpoint</tspan></text><polyline class="cls-39" points="814 618.43 814 175 855.95 175"/><circle class="cls-29" cx="814" cy="618.24" r="3.76"/><circle class="cls-4" cx="855.74" cy="175" r="3.76"/><path class="cls-29" d="M855.74,179.26A4.26,4.26,0,1,1,860,175a4.26,4.26,0,0,1-4.26,4.26Zm0-7.52A3.26,3.26,0,1,0,859,175a3.26,3.26,0,0,0-3.26-3.26Z"/><line class="cls-39" x1="968.05" y1="175" x2="1266.43" y2="175"/><circle class="cls-4" cx="968.26" cy="175" r="3.76"/><path class="cls-29" d="M968.26,179.26A4.26,4.26,0,1,0,964,175a4.26,4.26,0,0,0,4.26,4.26Zm0-7.52A3.26,3.26,0,1,1,965,175a3.26,3.26,0,0,1,3.26-3.26Z"/><circle class="cls-29" cx="1266.24" cy="175" r="3.76"/><polyline class="cls-39" points="599.04 369.05 599.25 388 813.95 388"/><circle class="cls-4" cx="599.05" cy="369.26" r="3.76" transform="translate(-4.04 6.64) rotate(-0.63)"/><path class="cls-29" d="M594.79,369.31A4.26,4.26,0,1,0,599,365a4.26,4.26,0,0,0-4.21,4.31C594.81,371.66,594.76,367,594.79,369.31Zm7.52-.08A3.26,3.26,0,1,1,599,366a3.26,3.26,0,0,1,3.3,3.22Z"/><circle class="cls-4" cx="813.74" cy="388" r="3.76"/><path class="cls-29" d="M813.74,392.26A4.26,4.26,0,1,1,818,388a4.26,4.26,0,0,1-4.26,4.26Zm0-7.52A3.26,3.26,0,1,0,817,388a3.26,3.26,0,0,0-3.26-3.26Z"/><path d="M31.37,406.61a32,32,0,1,0,0-45.23A32,32,0,0,0,31.37,406.61Zm7.5-23.67,13.76-13.76a1.48,1.48,0,0,1,2.1,2.1L43.49,382.51H73.32a1.49,1.49,0,0,1,0,3H43.49l11.23,11.23a1.48,1.48,0,0,1,0,2.1,1.52,1.52,0,0,1-1.06.43,1.46,1.46,0,0,1-1.06-.43L38.85,385.06A1.53,1.53,0,0,1,38.86,382.94Z"/><path d="M1332.63,361.39a32,32,0,1,0,0,45.23A32,32,0,0,0,1332.63,361.39Zm-7.48,23.67-13.76,13.76a1.46,1.46,0,0,1-1.06.43,1.52,1.52,0,0,1-1.06-.43,1.48,1.48,0,0,1,0-2.1l11.23-11.23h-29.83a1.49,1.49,0,0,1,0-3h29.83l-11.23-11.23a1.48,1.48,0,1,1,2.1-2.1l13.76,13.76A1.53,1.53,0,0,1,1325.15,385.06Z"/><path class="cls-40" d="M1297.36,57.21l-1.52,3.44a16.09,16.09,0,0,1-1.79-7.42c-.1-4.62,1.6-10.14,10.36-9,4.64.58,9.74,3.71,9.74,3.71s-16.31-9.65-17.66,4.19A11.35,11.35,0,0,0,1297.36,57.21Z"/><path class="cls-40" d="M1336.69,78.92l-1.21,4.34a10.38,10.38,0,0,1-.22,9.23c-2.58,4.8-8.82,3.93-16.26.27-.18-.09,14.73,9.46,19.32-1.36C1340,87.34,1338.13,80.32,1336.69,78.92Z"/><polygon class="cls-40" points="1330.67 71.03 1303.83 62.22 1307.51 71.03 1303.83 79.78 1330.67 71.03"/><text class="cls-37" transform="translate(911.07 94.36)">CIC<tspan class="cls-41" x="31.91" y="0">L</tspan><tspan x="42.46" y="0">O DE </tspan><tspan class="cls-42" x="94.48" y="0">V</tspan><tspan x="107.33" y="0">I</tspan><tspan class="cls-43" x="113.07" y="0">D</tspan><tspan x="127.76" y="0">A DE UNA </tspan><tspan class="cls-42" x="225.34" y="0">C</tspan><tspan x="238.15" y="0">O</tspan><tspan class="cls-44" x="253.31" y="0">N</tspan><tspan class="cls-42" x="267.8" y="0">V</tspan><tspan x="280.65" y="0">ERS</tspan><tspan class="cls-43" x="317.19" y="0">A</tspan><tspan x="330.49" y="0">CIÓN</tspan></text><text class="cls-37" transform="translate(1052.28 113.36)"><tspan class="cls-45">C</tspan><tspan x="12.73" y="0">ompo</tspan><tspan class="cls-46" x="67.25" y="0">n</tspan><tspan x="79.67" y="0">en</tspan><tspan class="cls-47" x="103.19" y="0">t</tspan><tspan x="110.5" y="0">es p</tspan><tspan class="cls-44" x="148.28" y="0">r</tspan><tspan x="155.75" y="0">i</tspan><tspan class="cls-46" x="160.95" y="0">n</tspan><tspan x="173.37" y="0">ci</tspan><tspan class="cls-48" x="189.03" y="0">p</tspan><tspan x="201.26" y="0">ales</tspan></text><text class="cls-49" transform="translate(911.05 61.29)">ARQUIT<tspan class="cls-50" x="104.83" y="0">E</tspan><tspan class="cls-51" x="122.17" y="0">C</tspan><tspan class="cls-52" x="140.87" y="0">T</tspan><tspan x="156.18" y="0">URA </tspan><tspan class="cls-53" x="222.35" y="0">Y</tspan><tspan x="238.76" y="0">GGDRASIL</tspan></text><line class="cls-54" x1="843.14" y1="71" x2="1313" y2="71"/><circle class="cls-40" cx="843.52" cy="71" r="7.52"/><path class="cls-55" d="M146.31,143H1.06V60H148.31c4.6,0,10,5.4,10,12v59A12,12,0,0,1,146.31,143Z"/><text class="cls-56" transform="translate(58.21 127.65) scale(0.95 1)">3</text><path class="cls-40" d="M1133.52,727.15l2.56,1.39a10.35,10.35,0,0,1-5.53,1.64c-3.44.09-7.56-1.47-6.74-9.49a30.7,30.7,0,0,1,2.76-8.92s-7.19,14.95,3.12,16.18A7.12,7.12,0,0,0,1133.52,727.15Z"/><path class="cls-40" d="M1149.69,691.11l3.24,1.11a6.47,6.47,0,0,1,6.88.2c3.57,2.36,2.93,8.08.2,14.9-.07.17,7-13.49-1-17.7C1156,688,1150.73,689.8,1149.69,691.11Z"/><polygon class="cls-40" points="1143.81 696.63 1137.25 721.22 1143.81 717.85 1150.33 721.22 1143.81 696.63"/><path class="cls-40" d="M1189.84,695.76l-8.7,0-14,29.8h9.17l1.35-3.44,9-.07.47,3.51h8.63Zm-10,20.33,4.38-11.06,1.62,11.06Z"/><path class="cls-40" d="M1198.38,703.69h8.09s-1.53,11.1-1.62,12.09-.66,3.9,2.74,3.64c2.38-.18,3.19-.85,4.81-15.73h8.18l-3.06,21.85h-7.33l.27-2.92a8.89,8.89,0,0,1-7.51,3.55c-6,0-7.06-5.39-6.3-10.24S1198.38,703.69,1198.38,703.69Z"/><path class="cls-40" d="M1224.1,703.69l-2.92,21.85h8l1.48-10.61s0-4.63,6.2-3.5l1.21-8.32s-3.73-1.44-6.92,3.64l.4-3.06Z"/><path class="cls-40" d="M1251.65,702.92s-11.28-.94-13,10.17c-1.44,9.15,4.68,13.49,11.82,13.26,6.84-.21,10.92-4.59,11.64-11.15S1259.92,703,1251.65,702.92Zm2.19,12.26c-.56,3.21-2,5.23-4.09,5.12s-3.77-2.45-2.85-6.91c1.12-5.41,4.45-4.59,4.45-4.59C1253.85,709.1,1254.41,712,1253.85,715.17Z"/><path class="cls-40" d="M1273.19,703.64h-7.28l-3.1,21.89h8l1.8-12.9s.63-3.37,3.51-3.15,2.16,3.46,2.16,3.46l-1.57,12.59h8.14l1.62-13s1.89-8-5.08-9.35c0,0-4.58-1.3-8.45,3.37Z"/><polygon class="cls-40" points="1291.75 695.1 1299.89 695.1 1299.17 701.17 1291.08 701.17 1291.75 695.1"/><polygon class="cls-40" points="1298.85 703.69 1290.85 703.69 1287.7 725.53 1295.84 725.53 1298.85 703.69"/><polygon class="cls-40" points="1300.34 703.69 1308.79 703.69 1310.54 709.35 1313.42 703.69 1322.72 703.69 1315.13 713.89 1323.5 730.44 1314.95 730.44 1310.14 718.93 1306.9 725.53 1297.95 725.53 1305.55 714.26 1300.34 703.69"/></g>
<g id="links">
    <a href="ciclo_conversacional_2.svg">
        <circle class="cls-60" cx="53.98" cy="384" r="31.98" transform="translate(-255.72 150.64) rotate(-45)"/>    
    </a>
    <a href="ciclo_conversacional_4.svg">
            <circle class="cls-60" cx="1310.98" cy="384" r="31.98" transform="translate(112.45 1039.47) rotate(-45)"/>        
    </a>
</g></svg>