<svg xmlns="http://www.w3.org/2000/svg" viewBox="0 0 629.48 146.28"><defs><style>.cls-1{fill:#fff;}</style></defs><title>Recurso 2</title><g id="Capa_2" data-name="Capa 2"><g id="Capa_1-2" data-name="Capa 1"><polygon class="cls-1" points="609.73 77.16 629.49 49.88 609.63 49.88 599.81 63.45 609.73 77.16"/><polygon class="cls-1" points="609.73 84.56 599.81 98.28 609.63 111.85 629.49 111.85 609.73 84.56"/><path class="cls-1" d="M244.87,94.57H207.93l-7,17.28H182l35.46-80.64h18.19l35.58,80.64H251.92Zm-5.8-14.17L226.46,49.53,213.84,80.4Z"/><path class="cls-1" d="M335.91,49.87v62H319.09v-7.37a23.52,23.52,0,0,1-8.41,6.16,26.18,26.18,0,0,1-10.57,2.13q-12,0-19.09-7t-7-20.85v-35H291.7V82.24q0,15,12.39,15A13.22,13.22,0,0,0,314.32,93q3.86-4.2,3.86-12.5V49.87Z"/><path class="cls-1" d="M375.07,51.25a31.48,31.48,0,0,1,12.45-2.3V65.54q-3-.23-4-.23-7.62,0-11.94,4.32t-4.32,13v29.26H349.55v-62h16.93v8.18A19.75,19.75,0,0,1,375.07,51.25Z"/><path class="cls-1" d="M406.44,108.68a30.15,30.15,0,0,1-12-11.35,31.57,31.57,0,0,1-4.32-16.47,31.58,31.58,0,0,1,4.32-16.47,30.16,30.16,0,0,1,12-11.35A38.66,38.66,0,0,1,441,53,30.28,30.28,0,0,1,453,64.39a31.6,31.6,0,0,1,4.32,16.47A31.59,31.59,0,0,1,453,97.33,30.26,30.26,0,0,1,441,108.68a38.66,38.66,0,0,1-34.61,0ZM435,93.36q4.38-4.67,4.38-12.5T435,68.36a14.67,14.67,0,0,0-11.2-4.67,14.85,14.85,0,0,0-11.25,4.67q-4.43,4.67-4.43,12.5t4.43,12.5A14.85,14.85,0,0,0,423.77,98,14.67,14.67,0,0,0,435,93.36Z"/><path class="cls-1" d="M521.8,55.86q7,6.91,7,20.51v35.48H511.06V79.13q0-7.37-3.18-11t-9.21-3.63q-6.71,0-10.68,4.2t-4,12.5v30.64H466.28v-62h16.93v7.26a23.51,23.51,0,0,1,8.75-6,30.14,30.14,0,0,1,11.48-2.13Q514.81,48.95,521.8,55.86Z"/><path class="cls-1" d="M540.61,39.85a9.39,9.39,0,0,1-3.07-7.14,9.4,9.4,0,0,1,3.07-7.14,11.16,11.16,0,0,1,8-2.88,11.44,11.44,0,0,1,8,2.76,8.92,8.92,0,0,1,3.07,6.91,9.85,9.85,0,0,1-3.07,7.43,11,11,0,0,1-8,2.94A11.15,11.15,0,0,1,540.61,39.85Zm-.91,10h17.73v62H539.7Z"/><polygon class="cls-1" points="584.47 49.88 564.62 49.88 587.04 80.86 564.62 111.85 584.47 111.85 606.9 80.86 584.47 49.88"/><path class="cls-1" d="M73.14,0a73.14,73.14,0,1,0,73.14,73.14A73.14,73.14,0,0,0,73.14,0ZM38.95,111.87a.89.89,0,0,1-1.23-1.11L72.61,23.4a.89.89,0,0,1,1.65,0l23,58Zm68.86.05-34.61-11L99.52,87.12l9.36,23.63A.89.89,0,0,1,107.81,111.92Z"/></g></g></svg>