<svg xmlns="http://www.w3.org/2000/svg" viewBox="0 0 466.22 331.78"><defs><style>.cls-1,.cls-4{fill:#fff;}.cls-2{fill:none;stroke:#9ad0f4;}.cls-2,.cls-4{stroke-miterlimit:10;}.cls-3{fill:#366fcc;}.cls-4{stroke:#fff;}.cls-5{fill:#1b1464;}</style></defs><title>Recurso 7</title><g id="Capa_2" data-name="Capa 2"><g id="Capa_1-2" data-name="Capa 1"><path class="cls-1" d="M465.72,318.54c0,7-10.29,12.75-23,12.75H23.49c-12.69,0-23-5.71-23-12.75V13.25C.5,6.21,10.79.5,23.49.5H442.73c12.69,0,23,5.71,23,12.75Z"/><path class="cls-2" d="M465.72,318.54c0,7-10.29,12.75-23,12.75H23.49c-12.69,0-23-5.71-23-12.75V13.25C.5,6.21,10.79.5,23.49.5H442.73c12.69,0,23,5.71,23,12.75Z"/><path class="cls-3" d="M442.73.5H23.49C10.79.5.5,5.39.5,11.42V74.58A388.18,388.18,0,0,0,46.17,83.8l8.91,16.74L66.73,86.47C203,102,433.48,60.72,465.69,11.17,465.4,5.25,455.24.5,442.73.5Z"/><path class="cls-4" d="M176.12,29V46.88h-2.19V29Z"/><path class="cls-4" d="M204.34,39c-.13-2.49-.28-5.48-.25-7.7H204c-.58,2.09-1.28,4.31-2.14,6.78l-3,8.65h-1.66l-2.74-8.5c-.8-2.51-1.48-4.82-2-6.93h-.05c-.05,2.22-.18,5.21-.33,7.89l-.45,7.65H189.6L190.78,29h2.79l2.89,8.63c.7,2.2,1.28,4.16,1.71,6h.08c.43-1.8,1-3.76,1.79-6l3-8.63h2.79l1.06,17.84h-2.14Z"/><path class="cls-4" d="M221.44,38.52h-6.59v6.43h7.34v1.93h-9.53V29h9.15V31h-7v5.64h6.59Z"/><path class="cls-4" d="M227.12,44.07A7.46,7.46,0,0,0,231,45.24c2.24,0,3.55-1.24,3.55-3s-.91-2.62-3.19-3.55c-2.77-1-4.48-2.54-4.48-5.05,0-2.78,2.19-4.84,5.48-4.84a7.39,7.39,0,0,1,3.75.87l-.6,1.88a6.48,6.48,0,0,0-3.22-.85c-2.31,0-3.19,1.46-3.19,2.67,0,1.67,1,2.49,3.37,3.44,2.87,1.16,4.32,2.62,4.32,5.24s-1.94,5.13-5.93,5.13A8.42,8.42,0,0,1,226.57,46Z"/><path class="cls-4" d="M241.91,44.07a7.46,7.46,0,0,0,3.92,1.16c2.24,0,3.55-1.24,3.55-3s-.91-2.62-3.19-3.55c-2.77-1-4.48-2.54-4.48-5.05,0-2.78,2.19-4.84,5.48-4.84a7.39,7.39,0,0,1,3.75.87l-.6,1.88a6.48,6.48,0,0,0-3.22-.85c-2.31,0-3.19,1.46-3.19,2.67,0,1.67,1,2.49,3.37,3.44,2.87,1.16,4.32,2.62,4.32,5.24s-1.94,5.13-5.93,5.13A8.42,8.42,0,0,1,241.35,46Z"/><path class="cls-4" d="M259.73,41.27,258,46.88h-2.26L261.47,29h2.64l5.78,17.84h-2.34l-1.81-5.61Zm5.56-1.8-1.66-5.13c-.38-1.16-.63-2.22-.88-3.26h-.05c-.25,1.06-.53,2.14-.86,3.23l-1.66,5.16Z"/><path class="cls-4" d="M287.29,46.09a15.09,15.09,0,0,1-5.2,1,8.45,8.45,0,0,1-6.34-2.36,9.45,9.45,0,0,1-2.36-6.64c0-5.32,3.49-9.21,9.18-9.21a10,10,0,0,1,4.22.82l-.53,1.88a8.42,8.42,0,0,0-3.75-.77c-4.12,0-6.81,2.7-6.81,7.17s2.59,7.2,6.54,7.2a6.82,6.82,0,0,0,2.92-.48V39.36h-3.44V37.51h5.58Z"/><path class="cls-4" d="M301.8,38.52h-6.59v6.43h7.34v1.93H293V29h9.15V31h-7v5.64h6.59Z"/><path class="cls-5" d="M24.73,108.47a.89.89,0,0,1-.48.38.9.9,0,0,1,.48.38,1.58,1.58,0,0,1,.15.77v3.47q0,1.12,1,1.12h.36v.83h-.49a1.63,1.63,0,0,1-1.83-1.87V110q0-.72-.6-.72h-.45v-.84h.45q.6,0,.6-.72v-3.57a1.63,1.63,0,0,1,1.83-1.87h.49v.83h-.36q-1,0-1,1.12v3.47A1.58,1.58,0,0,1,24.73,108.47Z"/><path class="cls-5" d="M38,121.41a.8.8,0,0,1,.13.46.76.76,0,0,1-.2.55.7.7,0,0,1-1,0,.78.78,0,0,1-.19-.54,1.61,1.61,0,0,1,0-.33,4.06,4.06,0,0,1,.14-.47l.56-1.94h.64l-.45,2A.64.64,0,0,1,38,121.41Zm2.27,0a.8.8,0,0,1,.13.46.76.76,0,0,1-.2.55.7.7,0,0,1-1,0,.78.78,0,0,1-.19-.54,1.64,1.64,0,0,1,0-.33,4.06,4.06,0,0,1,.14-.47l.56-1.94h.64l-.45,2A.64.64,0,0,1,40.27,121.41Z"/><path class="cls-5" d="M54.93,122.9a3.32,3.32,0,0,1,.75,2.36v4.28h-.95v-4.18a2.6,2.6,0,0,0-.53-1.75,1.87,1.87,0,0,0-1.49-.6,2.18,2.18,0,0,0-1.72.71,2.85,2.85,0,0,0-.63,2v3.87h-.95v-4.18a2.6,2.6,0,0,0-.53-1.75,1.89,1.89,0,0,0-1.5-.6,2.18,2.18,0,0,0-1.71.71,2.84,2.84,0,0,0-.63,2v3.87h-.95v-7.38H45v1.35a2.59,2.59,0,0,1,1-1,3.14,3.14,0,0,1,1.53-.37,2.89,2.89,0,0,1,1.53.39,2.38,2.38,0,0,1,1,1.17,2.81,2.81,0,0,1,1.11-1.14,3.3,3.3,0,0,1,1.66-.41A2.71,2.71,0,0,1,54.93,122.9Z"/><path class="cls-5" d="M65.66,126.16H59.79a2.65,2.65,0,0,0,2.76,2.57,2.89,2.89,0,0,0,1.2-.25,2.63,2.63,0,0,0,.95-.72l.53.65a3,3,0,0,1-1.17.9,4,4,0,0,1-3.45-.18,3.41,3.41,0,0,1-1.3-1.34,4,4,0,0,1-.47-1.94,4.13,4.13,0,0,1,.45-1.94,3.33,3.33,0,0,1,1.23-1.33,3.29,3.29,0,0,1,1.75-.48,3.26,3.26,0,0,1,1.75.48,3.31,3.31,0,0,1,1.21,1.33,4.17,4.17,0,0,1,.44,1.94Zm-5.09-2.52a2.73,2.73,0,0,0-.78,1.78h5a2.74,2.74,0,0,0-.78-1.78,2.48,2.48,0,0,0-3.41,0Z"/><path class="cls-5" d="M69.12,129.35a3.46,3.46,0,0,1-1.22-.65l.43-.79a3.52,3.52,0,0,0,1.11.6,4.2,4.2,0,0,0,1.39.23,2.54,2.54,0,0,0,1.42-.32,1,1,0,0,0,.46-.89.82.82,0,0,0-.25-.64,1.66,1.66,0,0,0-.64-.35,8.79,8.79,0,0,0-1-.23,11.23,11.23,0,0,1-1.37-.34,2,2,0,0,1-.89-.6,1.71,1.71,0,0,1-.37-1.17,1.86,1.86,0,0,1,.73-1.52,3.18,3.18,0,0,1,2-.59,5,5,0,0,1,1.36.19,3.65,3.65,0,0,1,1.12.5l-.41.8a3.41,3.41,0,0,0-2.07-.63,2.3,2.3,0,0,0-1.37.34,1,1,0,0,0-.46.88.9.9,0,0,0,.26.67,1.58,1.58,0,0,0,.65.37,9.91,9.91,0,0,0,1.07.25,11.76,11.76,0,0,1,1.35.34,2,2,0,0,1,.87.58,1.64,1.64,0,0,1,.36,1.12,1.81,1.81,0,0,1-.77,1.54,3.51,3.51,0,0,1-2.13.57A5.14,5.14,0,0,1,69.12,129.35Z"/><path class="cls-5" d="M76.91,129.35a3.46,3.46,0,0,1-1.22-.65l.43-.79a3.52,3.52,0,0,0,1.11.6,4.2,4.2,0,0,0,1.39.23,2.54,2.54,0,0,0,1.42-.32,1,1,0,0,0,.46-.89.82.82,0,0,0-.25-.64,1.66,1.66,0,0,0-.64-.35,8.79,8.79,0,0,0-1-.23,11.23,11.23,0,0,1-1.37-.34,2,2,0,0,1-.89-.6,1.71,1.71,0,0,1-.37-1.17,1.86,1.86,0,0,1,.73-1.52,3.18,3.18,0,0,1,2-.59,5,5,0,0,1,1.36.19,3.65,3.65,0,0,1,1.12.5l-.41.8a3.41,3.41,0,0,0-2.07-.63,2.3,2.3,0,0,0-1.37.34,1,1,0,0,0-.46.88.9.9,0,0,0,.26.67,1.58,1.58,0,0,0,.65.37,9.91,9.91,0,0,0,1.07.25,11.76,11.76,0,0,1,1.35.34,2,2,0,0,1,.87.58,1.64,1.64,0,0,1,.36,1.12,1.81,1.81,0,0,1-.77,1.54,3.51,3.51,0,0,1-2.13.57A5.14,5.14,0,0,1,76.91,129.35Z"/><path class="cls-5" d="M89,122.82a2.88,2.88,0,0,1,.73,2.14v4.58h-.91v-1.15a2.21,2.21,0,0,1-.94.9,3.15,3.15,0,0,1-1.47.32,2.79,2.79,0,0,1-1.87-.59,2.1,2.1,0,0,1,0-3.07,3.05,3.05,0,0,1,2.06-.58H88.8v-.45a2,2,0,0,0-.51-1.45,2,2,0,0,0-1.48-.5,3.6,3.6,0,0,0-1.28.23,3.19,3.19,0,0,0-1.05.64L84,123.1a3.74,3.74,0,0,1,1.28-.74,4.75,4.75,0,0,1,1.57-.26A2.88,2.88,0,0,1,89,122.82Zm-1.07,5.62a2.28,2.28,0,0,0,.85-1.12v-1.21H86.6q-1.8,0-1.8,1.32a1.23,1.23,0,0,0,.47,1,2,2,0,0,0,1.31.37A2.4,2.4,0,0,0,87.94,128.44Z"/><path class="cls-5" d="M100.11,122.16v6.49a3.89,3.89,0,0,1-.87,2.79,3.5,3.5,0,0,1-2.63.91,5.62,5.62,0,0,1-1.85-.3,3.75,3.75,0,0,1-1.42-.83l.48-.76a3.57,3.57,0,0,0,1.23.74,4.4,4.4,0,0,0,1.53.27,2.61,2.61,0,0,0,2-.65,2.84,2.84,0,0,0,.63-2v-.94A2.9,2.9,0,0,1,98,128.9a3.42,3.42,0,0,1-1.58.37,3.58,3.58,0,0,1-1.79-.46,3.28,3.28,0,0,1-1.27-1.28,3.74,3.74,0,0,1-.46-1.86,3.7,3.7,0,0,1,.46-1.85,3.26,3.26,0,0,1,1.26-1.26,3.61,3.61,0,0,1,1.8-.45,3.41,3.41,0,0,1,1.61.38,3,3,0,0,1,1.16,1.1v-1.42ZM97.89,128a2.42,2.42,0,0,0,1-1,2.86,2.86,0,0,0,.34-1.4,2.83,2.83,0,0,0-.34-1.4,2.45,2.45,0,0,0-.95-1,2.94,2.94,0,0,0-2.75,0,2.38,2.38,0,0,0-.95,1,3.07,3.07,0,0,0,0,2.81,2.43,2.43,0,0,0,.95,1,2.72,2.72,0,0,0,1.37.34A2.76,2.76,0,0,0,97.89,128Z"/><path class="cls-5" d="M110.14,126.16h-5.87a2.65,2.65,0,0,0,2.76,2.57,2.89,2.89,0,0,0,1.2-.25,2.63,2.63,0,0,0,.95-.72l.53.65a3,3,0,0,1-1.17.9,4,4,0,0,1-3.45-.18,3.41,3.41,0,0,1-1.3-1.34,4,4,0,0,1-.47-1.94,4.13,4.13,0,0,1,.45-1.94,3.33,3.33,0,0,1,1.23-1.33,3.29,3.29,0,0,1,1.75-.48,3.26,3.26,0,0,1,1.75.48,3.31,3.31,0,0,1,1.21,1.33,4.17,4.17,0,0,1,.44,1.94ZM105,123.64a2.73,2.73,0,0,0-.78,1.78h5a2.74,2.74,0,0,0-.78-1.78,2.48,2.48,0,0,0-3.41,0Z"/><path class="cls-5" d="M113.55,119.71h1v9.83h-1Z"/><path class="cls-5" d="M125,119.13v10.42h-.91v-1.46a3,3,0,0,1-1.13,1.14,3.17,3.17,0,0,1-1.58.39,3.42,3.42,0,0,1-1.79-.48,3.33,3.33,0,0,1-1.25-1.33,4.42,4.42,0,0,1,0-3.9,3.29,3.29,0,0,1,1.25-1.33,3.46,3.46,0,0,1,1.79-.47,3.18,3.18,0,0,1,1.54.37,3,3,0,0,1,1.13,1.09v-4.44Zm-2.21,9.24a2.49,2.49,0,0,0,.93-1,3.49,3.49,0,0,0,0-3,2.49,2.49,0,0,0-.93-1,2.66,2.66,0,0,0-2.67,0,2.49,2.49,0,0,0-.93,1,3.49,3.49,0,0,0,0,3,2.49,2.49,0,0,0,.93,1,2.66,2.66,0,0,0,2.67,0Z"/><path class="cls-5" d="M129.57,119.27a.77.77,0,0,1,.2.54,1.52,1.52,0,0,1,0,.36c0,.13-.07.27-.13.44l-.57,1.94h-.64l.47-2a.67.67,0,0,1-.36-.26.77.77,0,0,1-.13-.46.76.76,0,0,1,.2-.55.67.67,0,0,1,.51-.21A.66.66,0,0,1,129.57,119.27Zm2.27,0a.77.77,0,0,1,.2.54,1.52,1.52,0,0,1,0,.36c0,.13-.07.27-.13.44l-.57,1.94h-.64l.47-2a.67.67,0,0,1-.36-.26.77.77,0,0,1-.13-.46.76.76,0,0,1,.2-.55.67.67,0,0,1,.51-.21A.66.66,0,0,1,131.83,119.27Z"/><path class="cls-5" d="M134.91,123.41a.78.78,0,0,1-.21-.55.75.75,0,0,1,.21-.54.66.66,0,0,1,.5-.22.69.69,0,0,1,.51.22.74.74,0,0,1,.21.54.77.77,0,0,1-.21.55.67.67,0,0,1-.51.22A.65.65,0,0,1,134.91,123.41Zm0,6a.78.78,0,0,1-.21-.55.75.75,0,0,1,.21-.54.66.66,0,0,1,.5-.22.69.69,0,0,1,.51.22.74.74,0,0,1,.21.54.77.77,0,0,1-.21.55.67.67,0,0,1-.51.22A.65.65,0,0,1,134.91,129.39Z"/><path class="cls-5" d="M140,119.27a.77.77,0,0,1,.2.54,1.52,1.52,0,0,1,0,.36c0,.13-.07.27-.13.44l-.57,1.94h-.64l.47-2a.67.67,0,0,1-.36-.26.77.77,0,0,1-.13-.46.76.76,0,0,1,.2-.55.67.67,0,0,1,.51-.21A.66.66,0,0,1,140,119.27Zm2.27,0a.77.77,0,0,1,.2.54,1.52,1.52,0,0,1,0,.36c0,.13-.07.27-.13.44l-.57,1.94h-.64l.47-2a.67.67,0,0,1-.36-.26.77.77,0,0,1-.13-.46.76.76,0,0,1,.2-.55.67.67,0,0,1,.51-.21A.66.66,0,0,1,142.29,119.27Z"/><path class="cls-5" d="M146.94,129a3.92,3.92,0,0,1-1.32-1.73,7.71,7.71,0,0,1,0-5.32,3.92,3.92,0,0,1,1.32-1.73,3.38,3.38,0,0,1,3.85,0,4,4,0,0,1,1.33,1.73,7.61,7.61,0,0,1,0,5.32,4,4,0,0,1-1.33,1.73,3.38,3.38,0,0,1-3.85,0Zm3.36-.8a3.08,3.08,0,0,0,1-1.39,7.18,7.18,0,0,0,0-4.41,3.08,3.08,0,0,0-1-1.39,2.39,2.39,0,0,0-2.87,0,3.08,3.08,0,0,0-1,1.39,7.18,7.18,0,0,0,0,4.41,3.08,3.08,0,0,0,1,1.39,2.39,2.39,0,0,0,2.87,0Z"/><path class="cls-5" d="M157,129a3.92,3.92,0,0,1-1.32-1.73,7.71,7.71,0,0,1,0-5.32,3.92,3.92,0,0,1,1.32-1.73,3.38,3.38,0,0,1,3.85,0,4,4,0,0,1,1.33,1.73,7.61,7.61,0,0,1,0,5.32,4,4,0,0,1-1.33,1.73,3.38,3.38,0,0,1-3.85,0Zm3.36-.8a3.08,3.08,0,0,0,1-1.39,7.18,7.18,0,0,0,0-4.41,3.08,3.08,0,0,0-1-1.39,2.39,2.39,0,0,0-2.87,0,3.08,3.08,0,0,0-1,1.39,7.18,7.18,0,0,0,0,4.41,3.08,3.08,0,0,0,1,1.39,2.39,2.39,0,0,0,2.87,0Z"/><path class="cls-5" d="M167.13,129a3.92,3.92,0,0,1-1.32-1.73,7.71,7.71,0,0,1,0-5.32,3.92,3.92,0,0,1,1.32-1.73,3.38,3.38,0,0,1,3.85,0,4,4,0,0,1,1.33,1.73,7.61,7.61,0,0,1,0,5.32A4,4,0,0,1,171,129a3.38,3.38,0,0,1-3.85,0Zm3.36-.8a3.08,3.08,0,0,0,1-1.39,7.18,7.18,0,0,0,0-4.41,3.08,3.08,0,0,0-1-1.39,2.39,2.39,0,0,0-2.87,0,3.08,3.08,0,0,0-1,1.39,7.18,7.18,0,0,0,0,4.41,3.08,3.08,0,0,0,1,1.39,2.39,2.39,0,0,0,2.87,0Z"/><path class="cls-5" d="M180.84,124.51a2.62,2.62,0,0,1,.93,2.14,3.06,3.06,0,0,1-.38,1.53,2.64,2.64,0,0,1-1.14,1.06,4.09,4.09,0,0,1-1.87.39,5.28,5.28,0,0,1-1.9-.34,3.85,3.85,0,0,1-1.45-.92l.47-.8a3.43,3.43,0,0,0,1.23.82,4.23,4.23,0,0,0,1.64.32,2.66,2.66,0,0,0,1.79-.55,1.83,1.83,0,0,0,.63-1.46,1.77,1.77,0,0,0-.71-1.53,4.21,4.21,0,0,0-2.41-.52h-2l.48-4.93h5.11v.9H177l-.32,3.13h1.2A4.62,4.62,0,0,1,180.84,124.51Z"/><path class="cls-5" d="M186,129a3.92,3.92,0,0,1-1.32-1.73,7.71,7.71,0,0,1,0-5.32,3.92,3.92,0,0,1,1.32-1.73,3.38,3.38,0,0,1,3.85,0,4,4,0,0,1,1.33,1.73,7.61,7.61,0,0,1,0,5.32,4,4,0,0,1-1.33,1.73,3.38,3.38,0,0,1-3.85,0Zm3.36-.8a3.08,3.08,0,0,0,1-1.39,7.18,7.18,0,0,0,0-4.41,3.08,3.08,0,0,0-1-1.39,2.39,2.39,0,0,0-2.87,0,3.08,3.08,0,0,0-1,1.39,7.18,7.18,0,0,0,0,4.41,3.08,3.08,0,0,0,1,1.39,2.39,2.39,0,0,0,2.87,0Z"/><path class="cls-5" d="M196.13,129a3.92,3.92,0,0,1-1.32-1.73,7.71,7.71,0,0,1,0-5.32,3.92,3.92,0,0,1,1.32-1.73,3.38,3.38,0,0,1,3.85,0,4,4,0,0,1,1.33,1.73,7.61,7.61,0,0,1,0,5.32A4,4,0,0,1,200,129a3.38,3.38,0,0,1-3.85,0Zm3.36-.8a3.08,3.08,0,0,0,1-1.39,7.18,7.18,0,0,0,0-4.41,3.08,3.08,0,0,0-1-1.39,2.39,2.39,0,0,0-2.87,0,3.08,3.08,0,0,0-1,1.39,7.18,7.18,0,0,0,0,4.41,3.08,3.08,0,0,0,1,1.39,2.39,2.39,0,0,0,2.87,0Z"/><path class="cls-5" d="M206.23,129a3.92,3.92,0,0,1-1.32-1.73,7.71,7.71,0,0,1,0-5.32,3.92,3.92,0,0,1,1.32-1.73,3.38,3.38,0,0,1,3.85,0,4,4,0,0,1,1.33,1.73,7.61,7.61,0,0,1,0,5.32,4,4,0,0,1-1.33,1.73,3.38,3.38,0,0,1-3.85,0Zm3.36-.8a3.08,3.08,0,0,0,1-1.39,7.18,7.18,0,0,0,0-4.41,3.08,3.08,0,0,0-1-1.39,2.39,2.39,0,0,0-2.87,0,3.08,3.08,0,0,0-1,1.39,7.18,7.18,0,0,0,0,4.41,3.08,3.08,0,0,0,1,1.39,2.39,2.39,0,0,0,2.87,0Z"/><path class="cls-5" d="M217.09,119.71v9.83h-1v-8.93h-2.2v-.9Z"/><path class="cls-5" d="M221.83,119.27a.77.77,0,0,1,.2.54,1.52,1.52,0,0,1,0,.36c0,.13-.07.27-.13.44l-.57,1.94h-.64l.47-2a.67.67,0,0,1-.36-.26.77.77,0,0,1-.13-.46.76.76,0,0,1,.2-.55.67.67,0,0,1,.51-.21A.66.66,0,0,1,221.83,119.27Zm2.27,0a.77.77,0,0,1,.2.54,1.52,1.52,0,0,1,0,.36c0,.13-.07.27-.13.44l-.57,1.94h-.64l.47-2a.67.67,0,0,1-.36-.26.77.77,0,0,1-.13-.46.76.76,0,0,1,.2-.55.67.67,0,0,1,.51-.21A.66.66,0,0,1,224.09,119.27Z"/><path class="cls-5" d="M228,128.3a.77.77,0,0,1,.2.54,1.61,1.61,0,0,1,0,.37,4,4,0,0,1-.14.45l-.56,1.94h-.64l.45-2a.67.67,0,0,1-.35-.26.84.84,0,0,1,.07-1,.7.7,0,0,1,1,0Z"/><path class="cls-5" d="M38,138.25a.8.8,0,0,1,.13.46.76.76,0,0,1-.2.55.7.7,0,0,1-1,0,.78.78,0,0,1-.19-.54,1.61,1.61,0,0,1,0-.33,4.06,4.06,0,0,1,.14-.47l.56-1.94h.64l-.45,2A.64.64,0,0,1,38,138.25Zm2.27,0a.8.8,0,0,1,.13.46.76.76,0,0,1-.2.55.7.7,0,0,1-1,0,.78.78,0,0,1-.19-.54,1.64,1.64,0,0,1,0-.33,4.06,4.06,0,0,1,.14-.47l.56-1.94h.64l-.45,2A.64.64,0,0,1,40.27,138.25Z"/><path class="cls-5" d="M44.58,146a3.37,3.37,0,0,1-1.29-1.34,4,4,0,0,1-.47-1.94,4,4,0,0,1,.47-1.94,3.38,3.38,0,0,1,1.29-1.33,3.63,3.63,0,0,1,1.86-.48,3.45,3.45,0,0,1,1.62.37,2.75,2.75,0,0,1,1.13,1.09l-.71.51a2.25,2.25,0,0,0-.88-.82,2.5,2.5,0,0,0-1.16-.27,2.64,2.64,0,0,0-1.37.36,2.46,2.46,0,0,0-.95,1,3.51,3.51,0,0,0,0,3,2.47,2.47,0,0,0,.95,1,2.64,2.64,0,0,0,1.37.36,2.55,2.55,0,0,0,1.16-.27,2.2,2.2,0,0,0,.88-.81l.71.51a2.74,2.74,0,0,1-1.13,1.09,3.46,3.46,0,0,1-1.61.37A3.63,3.63,0,0,1,44.58,146Z"/><path class="cls-5" d="M53.23,146a3.45,3.45,0,0,1-1.28-1.34,4.25,4.25,0,0,1,0-3.87,3.4,3.4,0,0,1,1.28-1.33,3.73,3.73,0,0,1,3.65,0,3.35,3.35,0,0,1,1.27,1.33,4.31,4.31,0,0,1,0,3.87A3.4,3.4,0,0,1,56.88,146a3.69,3.69,0,0,1-3.65,0Zm3.17-.76a2.45,2.45,0,0,0,.93-1,3.55,3.55,0,0,0,0-3,2.45,2.45,0,0,0-.93-1,2.69,2.69,0,0,0-2.68,0,2.49,2.49,0,0,0-.93,1,3.49,3.49,0,0,0,0,3,2.49,2.49,0,0,0,.93,1,2.69,2.69,0,0,0,2.68,0Z"/><path class="cls-5" d="M67.49,139.75a3.25,3.25,0,0,1,.78,2.35v4.28h-.95V142.2a2.53,2.53,0,0,0-.55-1.75,2,2,0,0,0-1.56-.6,2.33,2.33,0,0,0-1.79.71,2.76,2.76,0,0,0-.66,2v3.87h-.95V139h.91v1.36a2.69,2.69,0,0,1,1.07-1,3.29,3.29,0,0,1,1.59-.37A2.79,2.79,0,0,1,67.49,139.75Z"/><path class="cls-5" d="M77.88,139l-3.12,7.38h-1L70.67,139h1l2.63,6.29L76.94,139Z"/><path class="cls-5" d="M86.38,143H80.52a2.65,2.65,0,0,0,2.76,2.57,2.89,2.89,0,0,0,1.2-.25,2.63,2.63,0,0,0,.95-.72l.53.65a3,3,0,0,1-1.17.9,4,4,0,0,1-3.45-.18,3.41,3.41,0,0,1-1.3-1.34,4,4,0,0,1-.47-1.94,4.13,4.13,0,0,1,.45-1.94,3.33,3.33,0,0,1,1.23-1.33,3.29,3.29,0,0,1,1.75-.48,3.26,3.26,0,0,1,1.75.48A3.31,3.31,0,0,1,86,140.75a4.17,4.17,0,0,1,.44,1.94Zm-5.09-2.52a2.73,2.73,0,0,0-.78,1.78h5a2.74,2.74,0,0,0-.78-1.78,2.48,2.48,0,0,0-3.41,0Z"/><path class="cls-5" d="M91.5,139.33a3.24,3.24,0,0,1,1.63-.38v1h-.23a2.18,2.18,0,0,0-1.73.72,3,3,0,0,0-.63,2v3.76H89.6V139h.91v1.45A2.37,2.37,0,0,1,91.5,139.33Z"/><path class="cls-5" d="M96.41,146.2a3.46,3.46,0,0,1-1.22-.65l.43-.79a3.52,3.52,0,0,0,1.11.6,4.2,4.2,0,0,0,1.39.23,2.54,2.54,0,0,0,1.42-.32,1,1,0,0,0,.46-.89.82.82,0,0,0-.25-.64,1.66,1.66,0,0,0-.64-.35,8.79,8.79,0,0,0-1-.23,11.23,11.23,0,0,1-1.37-.34,2,2,0,0,1-.89-.6,1.71,1.71,0,0,1-.37-1.17,1.86,1.86,0,0,1,.73-1.52,3.18,3.18,0,0,1,2-.59,5,5,0,0,1,1.36.19,3.65,3.65,0,0,1,1.12.5l-.41.8a3.41,3.41,0,0,0-2.07-.63,2.3,2.3,0,0,0-1.37.34,1,1,0,0,0-.46.88.9.9,0,0,0,.26.67,1.58,1.58,0,0,0,.65.37,9.91,9.91,0,0,0,1.07.25,11.76,11.76,0,0,1,1.35.34,2,2,0,0,1,.87.58,1.64,1.64,0,0,1,.36,1.12,1.81,1.81,0,0,1-.77,1.54,3.51,3.51,0,0,1-2.13.57A5.14,5.14,0,0,1,96.41,146.2Z"/><path class="cls-5" d="M108.51,139.67a2.88,2.88,0,0,1,.73,2.14v4.58h-.91v-1.15a2.21,2.21,0,0,1-.94.9,3.15,3.15,0,0,1-1.47.32,2.79,2.79,0,0,1-1.87-.59,2.1,2.1,0,0,1,0-3.07,3.05,3.05,0,0,1,2.06-.58h2.23v-.45a2,2,0,0,0-.51-1.45,2,2,0,0,0-1.48-.5A3.6,3.6,0,0,0,105,140a3.19,3.19,0,0,0-1.05.64l-.43-.74a3.74,3.74,0,0,1,1.28-.74,4.75,4.75,0,0,1,1.57-.26A2.88,2.88,0,0,1,108.51,139.67Zm-1.07,5.62a2.28,2.28,0,0,0,.85-1.12V143h-2.2q-1.8,0-1.8,1.32a1.23,1.23,0,0,0,.47,1,2,2,0,0,0,1.31.37A2.4,2.4,0,0,0,107.44,145.29Z"/><path class="cls-5" d="M116.78,145.94a1.77,1.77,0,0,1-.66.39,2.54,2.54,0,0,1-.82.13,2,2,0,0,1-1.52-.56,2.21,2.21,0,0,1-.53-1.59v-4.46H112V139h1.25v-1.61h.95V139h2.13v.84h-2.13v4.41a1.44,1.44,0,0,0,.31,1,1.16,1.16,0,0,0,.9.34,1.66,1.66,0,0,0,.57-.1,1.39,1.39,0,0,0,.47-.28Z"/><path class="cls-5" d="M119.75,137.18a.71.71,0,0,1-.2-.51.69.69,0,0,1,.2-.49.65.65,0,0,1,.49-.21.69.69,0,0,1,.69.69.72.72,0,0,1-.2.52.68.68,0,0,1-1,0Zm0,1.83h.95v7.38h-.95Z"/><path class="cls-5" d="M125.66,146a3.45,3.45,0,0,1-1.28-1.34,4.25,4.25,0,0,1,0-3.87,3.4,3.4,0,0,1,1.28-1.33,3.73,3.73,0,0,1,3.65,0,3.35,3.35,0,0,1,1.27,1.33,4.31,4.31,0,0,1,0,3.87,3.4,3.4,0,0,1-1.27,1.34,3.69,3.69,0,0,1-3.65,0Zm3.17-.76a2.45,2.45,0,0,0,.93-1,3.55,3.55,0,0,0,0-3,2.45,2.45,0,0,0-.93-1,2.69,2.69,0,0,0-2.68,0,2.49,2.49,0,0,0-.93,1,3.49,3.49,0,0,0,0,3,2.49,2.49,0,0,0,.93,1,2.69,2.69,0,0,0,2.68,0Z"/><path class="cls-5" d="M139.92,139.75a3.25,3.25,0,0,1,.78,2.35v4.28h-.95V142.2a2.53,2.53,0,0,0-.55-1.75,2,2,0,0,0-1.56-.6,2.33,2.33,0,0,0-1.79.71,2.76,2.76,0,0,0-.66,2v3.87h-.95V139h.91v1.36a2.69,2.69,0,0,1,1.07-1,3.29,3.29,0,0,1,1.59-.37A2.79,2.79,0,0,1,139.92,139.75Z"/><path class="cls-5" d="M144.74,136.56h1v9.83h-1Z"/><path class="cls-5" d="M156.24,136v10.42h-.91v-1.46a3,3,0,0,1-1.13,1.14,3.17,3.17,0,0,1-1.58.39,3.42,3.42,0,0,1-1.79-.48,3.33,3.33,0,0,1-1.25-1.33,4.42,4.42,0,0,1,0-3.9,3.29,3.29,0,0,1,1.25-1.33,3.46,3.46,0,0,1,1.79-.47,3.18,3.18,0,0,1,1.54.37,3,3,0,0,1,1.13,1.09V136ZM154,145.22a2.49,2.49,0,0,0,.93-1,3.49,3.49,0,0,0,0-3,2.49,2.49,0,0,0-.93-1,2.66,2.66,0,0,0-2.67,0,2.49,2.49,0,0,0-.93,1,3.49,3.49,0,0,0,0,3,2.49,2.49,0,0,0,.93,1,2.66,2.66,0,0,0,2.67,0Z"/><path class="cls-5" d="M160.76,136.12a.77.77,0,0,1,.2.54,1.52,1.52,0,0,1,0,.36c0,.13-.07.27-.13.44l-.57,1.94h-.64l.47-2a.67.67,0,0,1-.36-.26.77.77,0,0,1-.13-.46.76.76,0,0,1,.2-.55.67.67,0,0,1,.51-.21A.66.66,0,0,1,160.76,136.12Zm2.27,0a.77.77,0,0,1,.2.54,1.52,1.52,0,0,1,0,.36c0,.13-.07.27-.13.44l-.57,1.94h-.64l.47-2a.67.67,0,0,1-.36-.26.77.77,0,0,1-.13-.46.76.76,0,0,1,.2-.55.67.67,0,0,1,.51-.21A.66.66,0,0,1,163,136.12Z"/><path class="cls-5" d="M166.1,140.25a.78.78,0,0,1-.21-.55.75.75,0,0,1,.21-.54.66.66,0,0,1,.5-.22.69.69,0,0,1,.51.22.74.74,0,0,1,.21.54.77.77,0,0,1-.21.55.67.67,0,0,1-.51.22A.65.65,0,0,1,166.1,140.25Zm0,6a.78.78,0,0,1-.21-.55.75.75,0,0,1,.21-.54.66.66,0,0,1,.5-.22.69.69,0,0,1,.51.22.74.74,0,0,1,.21.54.77.77,0,0,1-.21.55.67.67,0,0,1-.51.22A.65.65,0,0,1,166.1,146.23Z"/><path class="cls-5" d="M171.22,136.12a.77.77,0,0,1,.2.54,1.52,1.52,0,0,1,0,.36c0,.13-.07.27-.13.44l-.57,1.94H170l.47-2a.67.67,0,0,1-.36-.26.77.77,0,0,1-.13-.46.76.76,0,0,1,.2-.55.67.67,0,0,1,.51-.21A.66.66,0,0,1,171.22,136.12Zm2.27,0a.77.77,0,0,1,.2.54,1.52,1.52,0,0,1,0,.36c0,.13-.07.27-.13.44l-.57,1.94h-.64l.47-2a.67.67,0,0,1-.36-.26.77.77,0,0,1-.13-.46.76.76,0,0,1,.2-.55.67.67,0,0,1,.51-.21A.66.66,0,0,1,173.48,136.12Z"/><path class="cls-5" d="M178.13,145.87a3.92,3.92,0,0,1-1.32-1.73,7.71,7.71,0,0,1,0-5.32,3.92,3.92,0,0,1,1.32-1.73,3.38,3.38,0,0,1,3.85,0,4,4,0,0,1,1.33,1.73,7.61,7.61,0,0,1,0,5.32,4,4,0,0,1-1.33,1.73,3.38,3.38,0,0,1-3.85,0Zm3.36-.8a3.08,3.08,0,0,0,1-1.39,7.18,7.18,0,0,0,0-4.41,3.08,3.08,0,0,0-1-1.39,2.39,2.39,0,0,0-2.87,0,3.08,3.08,0,0,0-1,1.39,7.18,7.18,0,0,0,0,4.41,3.08,3.08,0,0,0,1,1.39,2.39,2.39,0,0,0,2.87,0Z"/><path class="cls-5" d="M188.23,145.87a3.92,3.92,0,0,1-1.32-1.73,7.71,7.71,0,0,1,0-5.32,3.92,3.92,0,0,1,1.32-1.73,3.38,3.38,0,0,1,3.85,0,4,4,0,0,1,1.33,1.73,7.61,7.61,0,0,1,0,5.32,4,4,0,0,1-1.33,1.73,3.38,3.38,0,0,1-3.85,0Zm3.36-.8a3.08,3.08,0,0,0,1-1.39,7.18,7.18,0,0,0,0-4.41,3.08,3.08,0,0,0-1-1.39,2.39,2.39,0,0,0-2.87,0,3.08,3.08,0,0,0-1,1.39,7.18,7.18,0,0,0,0,4.41,3.08,3.08,0,0,0,1,1.39,2.39,2.39,0,0,0,2.87,0Z"/><path class="cls-5" d="M201.94,141.36a2.62,2.62,0,0,1,.93,2.14,3.06,3.06,0,0,1-.38,1.53,2.64,2.64,0,0,1-1.14,1.06,4.09,4.09,0,0,1-1.87.39,5.28,5.28,0,0,1-1.9-.34,3.85,3.85,0,0,1-1.45-.92l.47-.8a3.43,3.43,0,0,0,1.23.82,4.23,4.23,0,0,0,1.64.32,2.66,2.66,0,0,0,1.79-.55,1.83,1.83,0,0,0,.63-1.46,1.77,1.77,0,0,0-.71-1.53,4.21,4.21,0,0,0-2.41-.52h-2l.48-4.93h5.11v.9H198.1l-.32,3.13H199A4.62,4.62,0,0,1,201.94,141.36Z"/><path class="cls-5" d="M206.58,136.12a.77.77,0,0,1,.2.54,1.52,1.52,0,0,1,0,.36c0,.13-.07.27-.13.44L206,139.4h-.64l.47-2a.67.67,0,0,1-.36-.26.77.77,0,0,1-.13-.46.76.76,0,0,1,.2-.55.67.67,0,0,1,.51-.21A.66.66,0,0,1,206.58,136.12Zm2.27,0a.77.77,0,0,1,.2.54,1.52,1.52,0,0,1,0,.36c0,.13-.07.27-.13.44l-.57,1.94h-.64l.47-2a.67.67,0,0,1-.36-.26.77.77,0,0,1-.13-.46.76.76,0,0,1,.2-.55.67.67,0,0,1,.51-.21A.66.66,0,0,1,208.85,136.12Z"/><path class="cls-5" d="M212.72,145.15a.77.77,0,0,1,.2.54,1.61,1.61,0,0,1,0,.37,4,4,0,0,1-.14.45l-.56,1.94h-.64l.45-2a.67.67,0,0,1-.35-.26.84.84,0,0,1,.07-1,.7.7,0,0,1,1,0Z"/><path class="cls-5" d="M38,155.1a.8.8,0,0,1,.13.46.76.76,0,0,1-.2.55.7.7,0,0,1-1,0,.78.78,0,0,1-.19-.54,1.61,1.61,0,0,1,0-.33,4.06,4.06,0,0,1,.14-.47l.56-1.94h.64l-.45,2A.64.64,0,0,1,38,155.1Zm2.27,0a.8.8,0,0,1,.13.46.76.76,0,0,1-.2.55.7.7,0,0,1-1,0,.78.78,0,0,1-.19-.54,1.64,1.64,0,0,1,0-.33,4.06,4.06,0,0,1,.14-.47l.56-1.94h.64l-.45,2A.64.64,0,0,1,40.27,155.1Z"/><path class="cls-5" d="M47.6,162.79a1.79,1.79,0,0,1-.66.39,2.56,2.56,0,0,1-.82.13,2,2,0,0,1-1.52-.56,2.21,2.21,0,0,1-.53-1.59v-4.46H42.81v-.84h1.25v-1.61H45v1.61h2.13v.84H45v4.41a1.44,1.44,0,0,0,.31,1,1.16,1.16,0,0,0,.9.34,1.66,1.66,0,0,0,.57-.1,1.39,1.39,0,0,0,.47-.28Z"/><path class="cls-5" d="M56.35,155.85l-3.51,8.27a3.53,3.53,0,0,1-1,1.47,2.13,2.13,0,0,1-1.35.44,2.63,2.63,0,0,1-.95-.17,2,2,0,0,1-.76-.5l.44-.74a1.7,1.7,0,0,0,1.28.56,1.24,1.24,0,0,0,.82-.28,2.55,2.55,0,0,0,.63-1l.31-.72-3.13-7.37h1l2.64,6.28,2.64-6.28Z"/><path class="cls-5" d="M64.35,156.26a3.29,3.29,0,0,1,1.25,1.33,4.45,4.45,0,0,1,0,3.92,3.29,3.29,0,0,1-1.25,1.33,3.44,3.44,0,0,1-1.79.47,3.18,3.18,0,0,1-1.54-.37,3,3,0,0,1-1.13-1.09V166H59V155.85h.91v1.46A3,3,0,0,1,61,156.19a3.18,3.18,0,0,1,1.58-.39A3.46,3.46,0,0,1,64.35,156.26Zm-.52,5.8a2.47,2.47,0,0,0,.94-1,3.23,3.23,0,0,0,.34-1.5,3.18,3.18,0,0,0-.34-1.5,2.51,2.51,0,0,0-2.27-1.38,2.51,2.51,0,0,0-1.34.36,2.55,2.55,0,0,0-.93,1,3.19,3.19,0,0,0-.34,1.5,3.23,3.23,0,0,0,.34,1.5,2.49,2.49,0,0,0,.93,1,2.68,2.68,0,0,0,2.67,0Z"/><path class="cls-5" d="M75.37,159.85H69.5a2.65,2.65,0,0,0,2.76,2.57,2.89,2.89,0,0,0,1.2-.25,2.63,2.63,0,0,0,.95-.72l.53.65a3,3,0,0,1-1.17.9,3.79,3.79,0,0,1-1.54.31,3.75,3.75,0,0,1-1.91-.48,3.41,3.41,0,0,1-1.3-1.34,4,4,0,0,1-.47-1.94A4.13,4.13,0,0,1,69,157.6a3.33,3.33,0,0,1,1.23-1.33,3.29,3.29,0,0,1,1.75-.48,3.26,3.26,0,0,1,1.75.48,3.31,3.31,0,0,1,1.21,1.33,4.17,4.17,0,0,1,.44,1.94Zm-5.09-2.52a2.73,2.73,0,0,0-.78,1.78h5a2.74,2.74,0,0,0-.78-1.78,2.48,2.48,0,0,0-3.41,0Z"/><path class="cls-5" d="M79.15,153a.77.77,0,0,1,.2.54,1.52,1.52,0,0,1,0,.36c0,.13-.07.27-.13.44l-.57,1.94H78l.47-2a.67.67,0,0,1-.36-.26.77.77,0,0,1-.13-.46.76.76,0,0,1,.2-.55.67.67,0,0,1,.51-.21A.66.66,0,0,1,79.15,153Zm2.27,0a.77.77,0,0,1,.2.54,1.52,1.52,0,0,1,0,.36c0,.13-.07.27-.13.44l-.57,1.94h-.64l.47-2a.67.67,0,0,1-.36-.26.77.77,0,0,1-.13-.46.76.76,0,0,1,.2-.55.67.67,0,0,1,.51-.21A.66.66,0,0,1,81.42,153Z"/><path class="cls-5" d="M84.5,157.1a.78.78,0,0,1-.21-.55.75.75,0,0,1,.21-.54.66.66,0,0,1,.5-.22.69.69,0,0,1,.51.22.74.74,0,0,1,.21.54.77.77,0,0,1-.21.55.67.67,0,0,1-.51.22A.65.65,0,0,1,84.5,157.1Zm0,6a.78.78,0,0,1-.21-.55.75.75,0,0,1,.21-.54.66.66,0,0,1,.5-.22.69.69,0,0,1,.51.22.74.74,0,0,1,.21.54.77.77,0,0,1-.21.55.67.67,0,0,1-.51.22A.65.65,0,0,1,84.5,163.08Z"/><path class="cls-5" d="M89.61,153a.77.77,0,0,1,.2.54,1.52,1.52,0,0,1,0,.36c0,.13-.07.27-.13.44l-.57,1.94h-.64l.47-2a.67.67,0,0,1-.36-.26.77.77,0,0,1-.13-.46.76.76,0,0,1,.2-.55.67.67,0,0,1,.51-.21A.66.66,0,0,1,89.61,153Zm2.27,0a.77.77,0,0,1,.2.54,1.52,1.52,0,0,1,0,.36c0,.13-.07.27-.13.44l-.57,1.94h-.64l.47-2a.67.67,0,0,1-.36-.26.77.77,0,0,1-.13-.46.76.76,0,0,1,.2-.55.67.67,0,0,1,.51-.21A.66.66,0,0,1,91.88,153Z"/><path class="cls-5" d="M99.08,162.79a1.79,1.79,0,0,1-.66.39,2.56,2.56,0,0,1-.82.13,2,2,0,0,1-1.52-.56,2.21,2.21,0,0,1-.53-1.59v-4.46H94.29v-.84h1.25v-1.61h.95v1.61h2.13v.84H96.49v4.41a1.44,1.44,0,0,0,.31,1,1.16,1.16,0,0,0,.9.34,1.66,1.66,0,0,0,.57-.1,1.39,1.39,0,0,0,.47-.28Z"/><path class="cls-5" d="M107.92,159.85h-5.87a2.65,2.65,0,0,0,2.76,2.57,2.89,2.89,0,0,0,1.2-.25,2.63,2.63,0,0,0,.95-.72l.53.65a3,3,0,0,1-1.17.9,3.79,3.79,0,0,1-1.54.31,3.75,3.75,0,0,1-1.91-.48,3.41,3.41,0,0,1-1.3-1.34,4,4,0,0,1-.47-1.94,4.13,4.13,0,0,1,.45-1.94,3.33,3.33,0,0,1,1.23-1.33,3.29,3.29,0,0,1,1.75-.48,3.26,3.26,0,0,1,1.75.48,3.31,3.31,0,0,1,1.21,1.33,4.17,4.17,0,0,1,.44,1.94Zm-5.09-2.52a2.73,2.73,0,0,0-.78,1.78h5a2.74,2.74,0,0,0-.78-1.78,2.48,2.48,0,0,0-3.41,0Z"/><path class="cls-5" d="M115.4,163.23l-2.23-3.09-2.24,3.09h-1.07l2.77-3.79L110,155.85h1.07l2.11,2.89,2.11-2.89h1l-2.64,3.59,2.8,3.79Z"/><path class="cls-5" d="M123,162.79a1.79,1.79,0,0,1-.66.39,2.56,2.56,0,0,1-.82.13,2,2,0,0,1-1.52-.56,2.21,2.21,0,0,1-.53-1.59v-4.46h-1.25v-.84h1.25v-1.61h.95v1.61h2.13v.84h-2.13v4.41a1.44,1.44,0,0,0,.31,1,1.16,1.16,0,0,0,.9.34,1.66,1.66,0,0,0,.57-.1,1.39,1.39,0,0,0,.47-.28Z"/><path class="cls-5" d="M126.62,153a.77.77,0,0,1,.2.54,1.52,1.52,0,0,1,0,.36c0,.13-.07.27-.13.44l-.57,1.94h-.64l.47-2a.67.67,0,0,1-.36-.26.77.77,0,0,1-.13-.46.76.76,0,0,1,.2-.55.67.67,0,0,1,.51-.21A.66.66,0,0,1,126.62,153Zm2.27,0a.77.77,0,0,1,.2.54,1.52,1.52,0,0,1,0,.36c0,.13-.07.27-.13.44l-.57,1.94h-.64l.47-2a.67.67,0,0,1-.36-.26.77.77,0,0,1-.13-.46.76.76,0,0,1,.2-.55.67.67,0,0,1,.51-.21A.66.66,0,0,1,128.89,153Z"/><path class="cls-5" d="M132.75,162a.77.77,0,0,1,.2.54,1.61,1.61,0,0,1,0,.37,4,4,0,0,1-.14.45l-.56,1.94h-.64l.45-2a.67.67,0,0,1-.35-.26.84.84,0,0,1,.07-1,.7.7,0,0,1,1,0Z"/><path class="cls-5" d="M38,171.95a.81.81,0,0,1,.13.46.76.76,0,0,1-.2.55.7.7,0,0,1-1,0,.78.78,0,0,1-.19-.54,1.61,1.61,0,0,1,0-.33,4.09,4.09,0,0,1,.14-.47l.56-1.94h.64l-.45,2A.64.64,0,0,1,38,171.95Zm2.27,0a.81.81,0,0,1,.13.46.76.76,0,0,1-.2.55.7.7,0,0,1-1,0,.78.78,0,0,1-.19-.54,1.65,1.65,0,0,1,0-.33,4.09,4.09,0,0,1,.14-.47l.56-1.94h.64l-.45,2A.65.65,0,0,1,40.27,171.95Z"/><path class="cls-5" d="M44.57,179.67a3.45,3.45,0,0,1-1.28-1.34,4.25,4.25,0,0,1,0-3.87,3.41,3.41,0,0,1,1.28-1.33,3.73,3.73,0,0,1,3.65,0,3.35,3.35,0,0,1,1.27,1.33,4.31,4.31,0,0,1,0,3.88,3.4,3.4,0,0,1-1.27,1.34,3.69,3.69,0,0,1-3.65,0Zm3.17-.76a2.45,2.45,0,0,0,.93-1,3.55,3.55,0,0,0,0-3,2.45,2.45,0,0,0-.93-1,2.69,2.69,0,0,0-2.68,0,2.49,2.49,0,0,0-.93,1,3.49,3.49,0,0,0,0,3,2.49,2.49,0,0,0,.93,1,2.69,2.69,0,0,0,2.68,0Z"/><path class="cls-5" d="M55.06,173a3.24,3.24,0,0,1,1.63-.38v1h-.23a2.18,2.18,0,0,0-1.73.72,3,3,0,0,0-.63,2v3.76h-.95V172.7h.91v1.45A2.37,2.37,0,0,1,55.06,173Z"/><path class="cls-5" d="M59.66,170.87a.71.71,0,0,1-.2-.51.69.69,0,0,1,.2-.49.65.65,0,0,1,.49-.21.69.69,0,0,1,.69.69.73.73,0,0,1-.2.52.68.68,0,0,1-1,0Zm0,1.83h.95v7.38h-.95Z"/><path class="cls-5" d="M71,172.7v6.49a3.89,3.89,0,0,1-.87,2.79,3.5,3.5,0,0,1-2.63.91,5.62,5.62,0,0,1-1.85-.3,3.77,3.77,0,0,1-1.42-.84l.48-.76a3.56,3.56,0,0,0,1.23.74,4.4,4.4,0,0,0,1.53.27,2.61,2.61,0,0,0,2-.65,2.84,2.84,0,0,0,.63-2v-.94a2.9,2.9,0,0,1-1.15,1.07,3.42,3.42,0,0,1-1.58.36,3.57,3.57,0,0,1-1.79-.46,3.27,3.27,0,0,1-1.27-1.28,3.74,3.74,0,0,1-.46-1.86,3.7,3.7,0,0,1,.46-1.85,3.26,3.26,0,0,1,1.26-1.26,3.61,3.61,0,0,1,1.8-.45A3.41,3.41,0,0,1,69,173a3,3,0,0,1,1.16,1.09V172.7Zm-2.21,5.88a2.42,2.42,0,0,0,1-1,2.87,2.87,0,0,0,.34-1.4,2.82,2.82,0,0,0-.34-1.4,2.45,2.45,0,0,0-.95-1,2.94,2.94,0,0,0-2.75,0,2.38,2.38,0,0,0-.95,1,3.07,3.07,0,0,0,0,2.81,2.43,2.43,0,0,0,.95,1,2.72,2.72,0,0,0,1.37.34A2.76,2.76,0,0,0,68.81,178.57Z"/><path class="cls-5" d="M74.93,170.87a.71.71,0,0,1-.2-.51.69.69,0,0,1,.2-.49.65.65,0,0,1,.49-.21.69.69,0,0,1,.69.69.73.73,0,0,1-.2.52.68.68,0,0,1-1,0Zm0,1.83h.95v7.38h-.95Z"/><path class="cls-5" d="M85.47,173.45a3.25,3.25,0,0,1,.78,2.35v4.28H85.3V175.9a2.53,2.53,0,0,0-.55-1.75,2,2,0,0,0-1.56-.6,2.33,2.33,0,0,0-1.79.71,2.76,2.76,0,0,0-.66,2v3.88h-.95V172.7h.91v1.36a2.69,2.69,0,0,1,1.07-1,3.29,3.29,0,0,1,1.59-.37A2.79,2.79,0,0,1,85.47,173.45Z"/><path class="cls-5" d="M94.65,173.36a2.88,2.88,0,0,1,.73,2.14v4.58h-.91v-1.15a2.21,2.21,0,0,1-.94.9,3.15,3.15,0,0,1-1.47.32,2.78,2.78,0,0,1-1.87-.59,2.1,2.1,0,0,1,0-3.07,3.05,3.05,0,0,1,2.06-.58h2.23v-.45a2,2,0,0,0-.51-1.45,2,2,0,0,0-1.48-.5,3.6,3.6,0,0,0-1.28.23,3.21,3.21,0,0,0-1.05.64l-.43-.74A3.72,3.72,0,0,1,91,172.9a4.76,4.76,0,0,1,1.57-.26A2.88,2.88,0,0,1,94.65,173.36ZM93.59,179a2.29,2.29,0,0,0,.85-1.12v-1.21h-2.2q-1.8,0-1.8,1.32a1.23,1.23,0,0,0,.47,1,2,2,0,0,0,1.31.37A2.41,2.41,0,0,0,93.59,179Z"/><path class="cls-5" d="M102.92,179.63a1.78,1.78,0,0,1-.66.39,2.54,2.54,0,0,1-.82.13,2,2,0,0,1-1.52-.56,2.21,2.21,0,0,1-.53-1.59v-4.46H98.13v-.84h1.25v-1.62h.95v1.62h2.13v.84h-2.13v4.41a1.44,1.44,0,0,0,.31,1,1.16,1.16,0,0,0,.9.34,1.64,1.64,0,0,0,.57-.1,1.4,1.4,0,0,0,.47-.28Z"/><path class="cls-5" d="M106.69,179.67a3.45,3.45,0,0,1-1.28-1.34,4.25,4.25,0,0,1,0-3.87,3.41,3.41,0,0,1,1.28-1.33,3.73,3.73,0,0,1,3.65,0,3.35,3.35,0,0,1,1.27,1.33,4.31,4.31,0,0,1,0,3.88,3.4,3.4,0,0,1-1.27,1.34,3.69,3.69,0,0,1-3.65,0Zm3.17-.76a2.45,2.45,0,0,0,.93-1,3.55,3.55,0,0,0,0-3,2.45,2.45,0,0,0-.93-1,2.69,2.69,0,0,0-2.68,0,2.49,2.49,0,0,0-.93,1,3.49,3.49,0,0,0,0,3,2.49,2.49,0,0,0,.93,1,2.69,2.69,0,0,0,2.68,0Z"/><path class="cls-5" d="M117.18,173a3.24,3.24,0,0,1,1.63-.38v1h-.23a2.18,2.18,0,0,0-1.73.72,3,3,0,0,0-.63,2v3.76h-.95V172.7h.91v1.45A2.37,2.37,0,0,1,117.18,173Z"/><path class="cls-5" d="M122.94,169.81a.77.77,0,0,1,.2.54,1.51,1.51,0,0,1,0,.36q0,.19-.13.44l-.57,1.94h-.64l.47-2a.67.67,0,0,1-.36-.26.77.77,0,0,1-.13-.46.76.76,0,0,1,.2-.55.67.67,0,0,1,.51-.21A.66.66,0,0,1,122.94,169.81Zm2.27,0a.77.77,0,0,1,.2.54,1.51,1.51,0,0,1,0,.36c0,.13-.07.27-.13.44l-.57,1.94H124l.47-2a.67.67,0,0,1-.36-.26.85.85,0,0,1,.07-1,.67.67,0,0,1,.51-.21A.66.66,0,0,1,125.21,169.81Z"/><path class="cls-5" d="M128.28,173.95a.78.78,0,0,1-.21-.55.75.75,0,0,1,.21-.54.66.66,0,0,1,.5-.22.68.68,0,0,1,.51.22.74.74,0,0,1,.21.54.77.77,0,0,1-.21.55.68.68,0,0,1-.51.22A.66.66,0,0,1,128.28,173.95Zm0,6a.78.78,0,0,1-.21-.55.75.75,0,0,1,.21-.54.66.66,0,0,1,.5-.22.68.68,0,0,1,.51.22.74.74,0,0,1,.21.54.77.77,0,0,1-.21.55.68.68,0,0,1-.51.22A.66.66,0,0,1,128.28,179.93Z"/><path class="cls-5" d="M138.2,171.95a.81.81,0,0,1,.13.46.76.76,0,0,1-.2.55.7.7,0,0,1-1,0,.78.78,0,0,1-.19-.54,1.61,1.61,0,0,1,0-.33,4.09,4.09,0,0,1,.14-.47l.56-1.94h.64l-.45,2A.64.64,0,0,1,138.2,171.95Zm2.27,0a.81.81,0,0,1,.13.46.76.76,0,0,1-.2.55.7.7,0,0,1-1,0,.78.78,0,0,1-.19-.54,1.65,1.65,0,0,1,0-.33,4.09,4.09,0,0,1,.14-.47l.56-1.94h.64l-.45,2A.65.65,0,0,1,140.47,171.95Z"/><path class="cls-5" d="M154.65,172.7,152,180.08h-.89L148.89,174l-2.21,6.05h-.89l-2.64-7.38H144l2.2,6.27,2.25-6.27h.81l2.24,6.27,2.23-6.27Z"/><path class="cls-5" d="M161.69,173.36a2.88,2.88,0,0,1,.73,2.14v4.58h-.91v-1.15a2.21,2.21,0,0,1-.94.9,3.15,3.15,0,0,1-1.47.32,2.78,2.78,0,0,1-1.87-.59,2.1,2.1,0,0,1,0-3.07,3.05,3.05,0,0,1,2.06-.58h2.23v-.45A2,2,0,0,0,161,174a2,2,0,0,0-1.48-.5,3.6,3.6,0,0,0-1.28.23,3.21,3.21,0,0,0-1.05.64l-.43-.74a3.72,3.72,0,0,1,1.28-.74,4.76,4.76,0,0,1,1.57-.26A2.88,2.88,0,0,1,161.69,173.36ZM160.63,179a2.29,2.29,0,0,0,.85-1.12v-1.21h-2.2q-1.8,0-1.8,1.32a1.23,1.23,0,0,0,.47,1,2,2,0,0,0,1.31.37A2.41,2.41,0,0,0,160.63,179Z"/><path class="cls-5" d="M166.51,179.89a3.44,3.44,0,0,1-1.22-.65l.43-.79a3.51,3.51,0,0,0,1.11.6,4.17,4.17,0,0,0,1.39.23,2.54,2.54,0,0,0,1.42-.32,1,1,0,0,0,.46-.89.82.82,0,0,0-.25-.64,1.65,1.65,0,0,0-.64-.35,8.7,8.7,0,0,0-1-.23,11.21,11.21,0,0,1-1.37-.34,2,2,0,0,1-.89-.6,1.71,1.71,0,0,1-.37-1.17,1.86,1.86,0,0,1,.73-1.52,3.17,3.17,0,0,1,2-.59,5.06,5.06,0,0,1,1.36.19,3.66,3.66,0,0,1,1.12.5l-.41.8a3.42,3.42,0,0,0-2.07-.63,2.3,2.3,0,0,0-1.37.34,1,1,0,0,0-.46.88.9.9,0,0,0,.26.67,1.59,1.59,0,0,0,.65.37,10.05,10.05,0,0,0,1.07.25,11.76,11.76,0,0,1,1.35.34,2,2,0,0,1,.87.58A1.64,1.64,0,0,1,171,178a1.81,1.81,0,0,1-.77,1.54,3.51,3.51,0,0,1-2.13.57A5.15,5.15,0,0,1,166.51,179.89Z"/><path class="cls-5" d="M173.65,173.95a.78.78,0,0,1-.21-.55.75.75,0,0,1,.21-.54.66.66,0,0,1,.5-.22.68.68,0,0,1,.51.22.74.74,0,0,1,.21.54.77.77,0,0,1-.21.55.68.68,0,0,1-.51.22A.66.66,0,0,1,173.65,173.95Zm0,6a.78.78,0,0,1-.21-.55.75.75,0,0,1,.21-.54.66.66,0,0,1,.5-.22.68.68,0,0,1,.51.22.74.74,0,0,1,.21.54.77.77,0,0,1-.21.55.68.68,0,0,1-.51.22A.66.66,0,0,1,173.65,179.93Z"/><path class="cls-5" d="M181.5,168.26h.87L178,181.49h-.87Z"/><path class="cls-5" d="M186.37,168.26h.87l-4.4,13.22H182Z"/><path class="cls-5" d="M194.13,175a2.63,2.63,0,0,1,.93,2.14,3.06,3.06,0,0,1-.38,1.53,2.64,2.64,0,0,1-1.14,1.06,4.08,4.08,0,0,1-1.87.39,5.28,5.28,0,0,1-1.9-.34,3.84,3.84,0,0,1-1.45-.92l.47-.8a3.43,3.43,0,0,0,1.23.82,4.22,4.22,0,0,0,1.64.32,2.66,2.66,0,0,0,1.79-.55,1.83,1.83,0,0,0,.63-1.46,1.77,1.77,0,0,0-.71-1.53,4.21,4.21,0,0,0-2.41-.52h-2l.48-4.93h5.11v.9H190.3l-.32,3.13h1.2A4.62,4.62,0,0,1,194.13,175Z"/><path class="cls-5" d="M203.85,179.18v.9H197.3v-.72l3.88-4a5.27,5.27,0,0,0,1-1.31,2.61,2.61,0,0,0,.26-1.12,1.68,1.68,0,0,0-.57-1.35,2.42,2.42,0,0,0-1.62-.48,3.12,3.12,0,0,0-2.55,1.09l-.68-.62a3.58,3.58,0,0,1,1.39-1,4.79,4.79,0,0,1,1.91-.37,3.38,3.38,0,0,1,2.26.71,2.42,2.42,0,0,1,.83,1.94,3.48,3.48,0,0,1-.32,1.46,6.09,6.09,0,0,1-1.21,1.61l-3.17,3.29Z"/><path class="cls-5" d="M211.73,175a2.63,2.63,0,0,1,.93,2.14,3.06,3.06,0,0,1-.38,1.53,2.64,2.64,0,0,1-1.14,1.06,4.08,4.08,0,0,1-1.87.39,5.28,5.28,0,0,1-1.9-.34,3.84,3.84,0,0,1-1.45-.92l.47-.8a3.43,3.43,0,0,0,1.23.82,4.22,4.22,0,0,0,1.64.32,2.66,2.66,0,0,0,1.79-.55,1.83,1.83,0,0,0,.63-1.46,1.77,1.77,0,0,0-.71-1.53,4.21,4.21,0,0,0-2.41-.52h-2l.48-4.93h5.11v.9h-4.27l-.32,3.13h1.2A4.62,4.62,0,0,1,211.73,175Z"/><path class="cls-5" d="M220.47,175a2.63,2.63,0,0,1,.93,2.14,3.06,3.06,0,0,1-.38,1.53,2.64,2.64,0,0,1-1.14,1.06,4.08,4.08,0,0,1-1.87.39,5.28,5.28,0,0,1-1.9-.34,3.84,3.84,0,0,1-1.45-.92l.47-.8a3.43,3.43,0,0,0,1.23.82,4.22,4.22,0,0,0,1.64.32,2.66,2.66,0,0,0,1.79-.55,1.83,1.83,0,0,0,.63-1.46,1.77,1.77,0,0,0-.71-1.53,4.21,4.21,0,0,0-2.41-.52h-2l.48-4.93h5.11v.9h-4.27l-.32,3.13h1.2A4.62,4.62,0,0,1,220.47,175Z"/><path class="cls-5" d="M226.47,170.25v9.83h-1v-8.93h-2.2v-.9Z"/><path class="cls-5" d="M236.34,179.18v.9h-6.55v-.72l3.88-4a5.27,5.27,0,0,0,1-1.31,2.61,2.61,0,0,0,.26-1.12,1.68,1.68,0,0,0-.57-1.35,2.42,2.42,0,0,0-1.62-.48,3.12,3.12,0,0,0-2.55,1.09l-.68-.62a3.58,3.58,0,0,1,1.39-1,4.79,4.79,0,0,1,1.91-.37,3.38,3.38,0,0,1,2.26.71,2.42,2.42,0,0,1,.83,1.94,3.48,3.48,0,0,1-.32,1.46,6.09,6.09,0,0,1-1.21,1.61l-3.17,3.29Z"/><path class="cls-5" d="M244.21,175.3a2.62,2.62,0,0,1,.77,2,2.88,2.88,0,0,1-.39,1.5,2.68,2.68,0,0,1-1.15,1,4.12,4.12,0,0,1-1.85.38,5.31,5.31,0,0,1-1.91-.34,3.84,3.84,0,0,1-1.45-.92l.47-.8a3.42,3.42,0,0,0,1.24.82,4.32,4.32,0,0,0,1.65.32,2.68,2.68,0,0,0,1.77-.53,1.79,1.79,0,0,0,.63-1.45,1.76,1.76,0,0,0-.63-1.43,2.92,2.92,0,0,0-1.89-.52h-.67v-.74l2.59-3.41h-4.77v-.9h6V171l-2.64,3.5A3.36,3.36,0,0,1,244.21,175.3Z"/><path class="cls-5" d="M255.53,177.5h-1.87v2.58h-1V177.5h-5.27v-.73l4.95-6.51h1.07l-4.77,6.35h4.05v-2.27h.93v2.27h1.87Z"/><path class="cls-5" d="M263,175a2.62,2.62,0,0,1,.93,2.14,3.07,3.07,0,0,1-.38,1.53,2.64,2.64,0,0,1-1.14,1.06,4.09,4.09,0,0,1-1.87.39,5.28,5.28,0,0,1-1.9-.34,3.86,3.86,0,0,1-1.45-.92l.47-.8a3.44,3.44,0,0,0,1.23.82,4.23,4.23,0,0,0,1.64.32,2.66,2.66,0,0,0,1.79-.55,1.83,1.83,0,0,0,.63-1.46,1.78,1.78,0,0,0-.71-1.53,4.21,4.21,0,0,0-2.41-.52h-2l.48-4.93h5.11v.9H259.2l-.32,3.13h1.2A4.62,4.62,0,0,1,263,175Z"/><path class="cls-5" d="M271.94,174.56a2.72,2.72,0,0,1,1.11,1,3,3,0,0,1,.4,1.55,3,3,0,0,1-.41,1.59,2.78,2.78,0,0,1-1.14,1.06,3.54,3.54,0,0,1-1.63.37,3.37,3.37,0,0,1-2.84-1.28,5.84,5.84,0,0,1-1-3.63,6.52,6.52,0,0,1,.53-2.78,3.86,3.86,0,0,1,1.49-1.72,4.23,4.23,0,0,1,2.24-.58,4,4,0,0,1,2.21.53l-.39.81a3.13,3.13,0,0,0-1.81-.46,3,3,0,0,0-2.43,1,4.51,4.51,0,0,0-.88,3q0,.35,0,.8a2.59,2.59,0,0,1,1.11-1.24,3.41,3.41,0,0,1,1.75-.44A3.54,3.54,0,0,1,271.94,174.56Zm-.07,4.16a2,2,0,0,0,.63-1.55,2,2,0,0,0-.63-1.54,2.45,2.45,0,0,0-1.71-.58,2.66,2.66,0,0,0-1.25.28,2.14,2.14,0,0,0-.85.77,2,2,0,0,0-.31,1.09,2,2,0,0,0,.29,1,2.09,2.09,0,0,0,.85.77,2.82,2.82,0,0,0,1.33.29A2.34,2.34,0,0,0,271.87,178.73Z"/><path class="cls-5" d="M282.31,170.25V171l-3.91,9.11h-1l3.84-8.93h-4.8V173h-.95v-2.74Z"/><path class="cls-5" d="M291.29,175.86a2.38,2.38,0,0,1,.47,1.49,2.57,2.57,0,0,1-.44,1.5,2.8,2.8,0,0,1-1.26,1,5,5,0,0,1-1.93.34,4.16,4.16,0,0,1-2.64-.76,2.49,2.49,0,0,1-1-2.06,2.41,2.41,0,0,1,.46-1.5,2.77,2.77,0,0,1,1.34-.92,2.34,2.34,0,0,1-1.09-.85,2.48,2.48,0,0,1,.51-3.21,3.73,3.73,0,0,1,2.38-.7,4.38,4.38,0,0,1,1.73.32,2.63,2.63,0,0,1,1.15.91,2.33,2.33,0,0,1,.41,1.38,2.23,2.23,0,0,1-.39,1.31,2.42,2.42,0,0,1-1.11.85A2.84,2.84,0,0,1,291.29,175.86Zm-1.21,2.92a1.72,1.72,0,0,0,.7-1.45,1.7,1.7,0,0,0-.7-1.44,3.82,3.82,0,0,0-3.87,0,1.7,1.7,0,0,0-.7,1.44,1.72,1.72,0,0,0,.69,1.45,3.81,3.81,0,0,0,3.87,0Zm-3.63-4.69a2.69,2.69,0,0,0,1.69.48,2.72,2.72,0,0,0,1.7-.48,1.64,1.64,0,0,0,0-2.58,2.73,2.73,0,0,0-1.69-.48,2.7,2.7,0,0,0-1.69.48,1.66,1.66,0,0,0,0,2.58Z"/><path class="cls-5" d="M303.79,170.95a5.54,5.54,0,0,1,2.19,2.19,6.5,6.5,0,0,1,.79,3.22,5.54,5.54,0,0,1-.59,2.79,1.81,1.81,0,0,1-1.63,1,1.43,1.43,0,0,1-1.06-.41,1.65,1.65,0,0,1-.45-1.12,2.87,2.87,0,0,1-1.09,1.13,3.27,3.27,0,0,1-3.26-.07,3.3,3.3,0,0,1-1.19-1.3,4,4,0,0,1-.43-1.87,3.93,3.93,0,0,1,.43-1.86,3.25,3.25,0,0,1,1.19-1.28,3.15,3.15,0,0,1,1.69-.46,3.1,3.1,0,0,1,1.54.39,2.93,2.93,0,0,1,1.1,1.09V173h.87v5.32a1.2,1.2,0,0,0,.23.81.77.77,0,0,0,.6.25q.63,0,1-.79a5.3,5.3,0,0,0,.37-2.19,5.8,5.8,0,0,0-.69-2.87,4.89,4.89,0,0,0-1.94-1.93,5.81,5.81,0,0,0-2.85-.69,5.69,5.69,0,0,0-2.86.71,5,5,0,0,0-1.94,2,6.07,6.07,0,0,0-.69,2.93,6.15,6.15,0,0,0,.69,2.93,5,5,0,0,0,1.92,2,5.54,5.54,0,0,0,2.83.72,6,6,0,0,0,1.31-.15,4.71,4.71,0,0,0,1.25-.46l.23.69a5.15,5.15,0,0,1-1.33.48,6.69,6.69,0,0,1-1.46.17,6.27,6.27,0,0,1-3.21-.81,5.67,5.67,0,0,1-2.18-2.27,6.85,6.85,0,0,1-.78-3.29,6.75,6.75,0,0,1,.79-3.29,5.65,5.65,0,0,1,2.21-2.25,6.91,6.91,0,0,1,6.43,0Zm-2,8a2.48,2.48,0,0,0,.91-1,3.43,3.43,0,0,0,0-2.95,2.43,2.43,0,0,0-.91-1,2.47,2.47,0,0,0-1.29-.34,2.49,2.49,0,0,0-1.31.35,2.42,2.42,0,0,0-.91,1,3.13,3.13,0,0,0-.33,1.46,3.18,3.18,0,0,0,.33,1.47,2.42,2.42,0,0,0,2.22,1.35A2.43,2.43,0,0,0,301.79,179Z"/><path class="cls-5" d="M314.82,175a2.62,2.62,0,0,1,.93,2.14,3.07,3.07,0,0,1-.38,1.53,2.64,2.64,0,0,1-1.14,1.06,4.09,4.09,0,0,1-1.87.39,5.28,5.28,0,0,1-1.9-.34,3.86,3.86,0,0,1-1.45-.92l.47-.8a3.44,3.44,0,0,0,1.23.82,4.23,4.23,0,0,0,1.64.32,2.66,2.66,0,0,0,1.79-.55,1.83,1.83,0,0,0,.63-1.46,1.78,1.78,0,0,0-.71-1.53,4.21,4.21,0,0,0-2.41-.52h-2l.48-4.93h5.11v.9H311l-.32,3.13h1.2A4.62,4.62,0,0,1,314.82,175Z"/><path class="cls-5" d="M323.57,175a2.62,2.62,0,0,1,.93,2.14,3.07,3.07,0,0,1-.38,1.53,2.64,2.64,0,0,1-1.14,1.06,4.09,4.09,0,0,1-1.87.39,5.28,5.28,0,0,1-1.9-.34,3.86,3.86,0,0,1-1.45-.92l.47-.8a3.44,3.44,0,0,0,1.23.82,4.23,4.23,0,0,0,1.64.32,2.66,2.66,0,0,0,1.79-.55,1.83,1.83,0,0,0,.63-1.46,1.78,1.78,0,0,0-.71-1.53,4.21,4.21,0,0,0-2.41-.52h-2l.48-4.93H324v.9h-4.27l-.32,3.13h1.2A4.62,4.62,0,0,1,323.57,175Z"/><path class="cls-5" d="M334.91,177.5H333v2.58h-1V177.5h-5.27v-.73l4.95-6.51h1.07l-4.77,6.35h4.05v-2.27H333v2.27h1.87Z"/><path class="cls-5" d="M345,177.5h-1.87v2.58h-1V177.5H336.9v-.73l4.95-6.51h1.07l-4.77,6.35h4.05v-2.27h.93v2.27H345Z"/><path class="cls-5" d="M352.35,175.3a2.62,2.62,0,0,1,.77,2,2.88,2.88,0,0,1-.39,1.5,2.68,2.68,0,0,1-1.15,1,4.12,4.12,0,0,1-1.85.38,5.31,5.31,0,0,1-1.91-.34,3.84,3.84,0,0,1-1.45-.92l.47-.8a3.41,3.41,0,0,0,1.24.82,4.33,4.33,0,0,0,1.65.32,2.68,2.68,0,0,0,1.77-.53,1.79,1.79,0,0,0,.63-1.45,1.76,1.76,0,0,0-.63-1.43,2.93,2.93,0,0,0-1.89-.52h-.67v-.74l2.59-3.41h-4.77v-.9h6V171l-2.64,3.5A3.36,3.36,0,0,1,352.35,175.3Z"/><path class="cls-5" d="M362.43,175.86a2.38,2.38,0,0,1,.47,1.49,2.57,2.57,0,0,1-.44,1.5,2.8,2.8,0,0,1-1.26,1,5,5,0,0,1-1.93.34,4.16,4.16,0,0,1-2.64-.76,2.49,2.49,0,0,1-1-2.06,2.41,2.41,0,0,1,.46-1.5,2.77,2.77,0,0,1,1.34-.92,2.34,2.34,0,0,1-1.09-.85,2.48,2.48,0,0,1,.51-3.21,3.73,3.73,0,0,1,2.38-.7,4.38,4.38,0,0,1,1.73.32,2.63,2.63,0,0,1,1.15.91,2.33,2.33,0,0,1,.41,1.38,2.23,2.23,0,0,1-.39,1.31,2.42,2.42,0,0,1-1.11.85A2.84,2.84,0,0,1,362.43,175.86Zm-1.21,2.92a1.72,1.72,0,0,0,.7-1.45,1.7,1.7,0,0,0-.7-1.44,3.82,3.82,0,0,0-3.87,0,1.7,1.7,0,0,0-.7,1.44,1.72,1.72,0,0,0,.69,1.45,3.81,3.81,0,0,0,3.87,0Zm-3.63-4.69a2.69,2.69,0,0,0,1.69.48,2.72,2.72,0,0,0,1.7-.48,1.64,1.64,0,0,0,0-2.58,2.73,2.73,0,0,0-1.69-.48,2.7,2.7,0,0,0-1.69.48,1.66,1.66,0,0,0,0,2.58Z"/><path class="cls-5" d="M367.3,179.56a3.92,3.92,0,0,1-1.32-1.73,7.71,7.71,0,0,1,0-5.32,3.92,3.92,0,0,1,1.32-1.73,3.38,3.38,0,0,1,3.85,0,4,4,0,0,1,1.33,1.73,7.62,7.62,0,0,1,0,5.32,4,4,0,0,1-1.33,1.73,3.38,3.38,0,0,1-3.85,0Zm3.36-.8a3.08,3.08,0,0,0,1-1.39,7.18,7.18,0,0,0,0-4.41,3.08,3.08,0,0,0-1-1.39,2.39,2.39,0,0,0-2.87,0,3.09,3.09,0,0,0-1,1.39,7.18,7.18,0,0,0,0,4.41,3.08,3.08,0,0,0,1,1.39,2.39,2.39,0,0,0,2.87,0Z"/><path class="cls-5" d="M377.39,179.56a3.92,3.92,0,0,1-1.32-1.73,7.71,7.71,0,0,1,0-5.32,3.92,3.92,0,0,1,1.32-1.73,3.38,3.38,0,0,1,3.85,0,4,4,0,0,1,1.33,1.73,7.62,7.62,0,0,1,0,5.32,4,4,0,0,1-1.33,1.73,3.38,3.38,0,0,1-3.85,0Zm3.36-.8a3.08,3.08,0,0,0,1-1.39,7.18,7.18,0,0,0,0-4.41,3.08,3.08,0,0,0-1-1.39,2.39,2.39,0,0,0-2.87,0,3.09,3.09,0,0,0-1,1.39,7.18,7.18,0,0,0,0,4.41,3.08,3.08,0,0,0,1,1.39,2.39,2.39,0,0,0,2.87,0Z"/><path class="cls-5" d="M388.26,170.25v9.83h-1v-8.93h-2.2v-.9Z"/><path class="cls-5" d="M397.16,175a2.62,2.62,0,0,1,.93,2.14,3.07,3.07,0,0,1-.38,1.53,2.64,2.64,0,0,1-1.14,1.06,4.09,4.09,0,0,1-1.87.39,5.28,5.28,0,0,1-1.9-.34,3.86,3.86,0,0,1-1.45-.92l.47-.8a3.44,3.44,0,0,0,1.23.82,4.23,4.23,0,0,0,1.64.32,2.66,2.66,0,0,0,1.79-.55,1.83,1.83,0,0,0,.63-1.46,1.78,1.78,0,0,0-.71-1.53,4.21,4.21,0,0,0-2.41-.52h-2l.48-4.93h5.11v.9h-4.27l-.32,3.13h1.2A4.62,4.62,0,0,1,397.16,175Z"/><path class="cls-5" d="M401.81,169.81a.77.77,0,0,1,.2.54,1.49,1.49,0,0,1,0,.36q0,.19-.13.44l-.57,1.94h-.64l.47-2a.67.67,0,0,1-.36-.26.85.85,0,0,1,.07-1,.67.67,0,0,1,.51-.21A.66.66,0,0,1,401.81,169.81Zm2.27,0a.77.77,0,0,1,.2.54,1.49,1.49,0,0,1,0,.36c0,.13-.07.27-.13.44l-.57,1.94h-.64l.47-2a.67.67,0,0,1-.36-.26.77.77,0,0,1-.13-.46.76.76,0,0,1,.2-.55.71.71,0,0,1,1,0Z"/><path class="cls-5" d="M407.94,178.84a.77.77,0,0,1,.2.54,1.58,1.58,0,0,1,0,.37,4.17,4.17,0,0,1-.14.45l-.56,1.94h-.64l.45-2a.66.66,0,0,1-.35-.26.84.84,0,0,1,.07-1,.7.7,0,0,1,1,0Z"/><path class="cls-5" d="M38.34,188.79a.81.81,0,0,1,.13.46.76.76,0,0,1-.2.55.7.7,0,0,1-1,0,.78.78,0,0,1-.19-.54,1.61,1.61,0,0,1,0-.33,4.09,4.09,0,0,1,.14-.47l.56-1.94h.64l-.45,2A.64.64,0,0,1,38.34,188.79Zm2.27,0a.81.81,0,0,1,.13.46.76.76,0,0,1-.2.55.7.7,0,0,1-1,0,.78.78,0,0,1-.19-.54,1.65,1.65,0,0,1,0-.33,4.09,4.09,0,0,1,.14-.47l.56-1.94h.64l-.45,2A.65.65,0,0,1,40.6,188.79Z"/><path class="cls-5" d="M46.34,189.87a3.24,3.24,0,0,1,1.63-.38v1h-.23a2.18,2.18,0,0,0-1.73.72,3,3,0,0,0-.63,2v3.76h-.95v-7.38h.91V191A2.37,2.37,0,0,1,46.34,189.87Z"/><path class="cls-5" d="M57,193.54H51.12a2.65,2.65,0,0,0,2.76,2.57,2.91,2.91,0,0,0,1.2-.25,2.64,2.64,0,0,0,.95-.72l.53.65a3,3,0,0,1-1.17.9,4,4,0,0,1-3.45-.18,3.41,3.41,0,0,1-1.3-1.34,4,4,0,0,1-.47-1.94,4.13,4.13,0,0,1,.45-1.94A3.34,3.34,0,0,1,51.85,190a3.29,3.29,0,0,1,1.75-.48,3.26,3.26,0,0,1,1.75.48,3.32,3.32,0,0,1,1.21,1.33,4.17,4.17,0,0,1,.44,1.94ZM51.9,191a2.73,2.73,0,0,0-.78,1.78h5a2.74,2.74,0,0,0-.78-1.78,2.48,2.48,0,0,0-3.41,0Z"/><path class="cls-5" d="M71,190.29a3.32,3.32,0,0,1,.75,2.36v4.28h-.95v-4.18A2.59,2.59,0,0,0,70.3,191a1.87,1.87,0,0,0-1.49-.6,2.18,2.18,0,0,0-1.72.71,2.85,2.85,0,0,0-.63,2v3.88h-.95v-4.18A2.59,2.59,0,0,0,65,191a1.89,1.89,0,0,0-1.5-.6,2.18,2.18,0,0,0-1.71.71,2.84,2.84,0,0,0-.63,2v3.88H60.2v-7.38h.91v1.35a2.59,2.59,0,0,1,1-1,3.14,3.14,0,0,1,1.53-.37,2.88,2.88,0,0,1,1.53.39,2.38,2.38,0,0,1,1,1.17,2.8,2.8,0,0,1,1.11-1.14,3.3,3.3,0,0,1,1.66-.41A2.71,2.71,0,0,1,71,190.29Z"/><path class="cls-5" d="M76.69,196.51a3.45,3.45,0,0,1-1.28-1.34,4.25,4.25,0,0,1,0-3.87A3.41,3.41,0,0,1,76.69,190a3.73,3.73,0,0,1,3.65,0,3.35,3.35,0,0,1,1.27,1.33,4.31,4.31,0,0,1,0,3.88,3.4,3.4,0,0,1-1.27,1.34,3.69,3.69,0,0,1-3.65,0Zm3.17-.76a2.45,2.45,0,0,0,.93-1,3.55,3.55,0,0,0,0-3,2.45,2.45,0,0,0-.93-1,2.69,2.69,0,0,0-2.68,0,2.49,2.49,0,0,0-.93,1,3.49,3.49,0,0,0,0,3,2.49,2.49,0,0,0,.93,1,2.69,2.69,0,0,0,2.68,0Z"/><path class="cls-5" d="M89,196.48a1.78,1.78,0,0,1-.66.39,2.54,2.54,0,0,1-.82.13,2,2,0,0,1-1.52-.56,2.21,2.21,0,0,1-.53-1.59v-4.46H84.18v-.84h1.25v-1.62h.95v1.62h2.13v.84H86.38v4.41a1.44,1.44,0,0,0,.31,1,1.16,1.16,0,0,0,.9.34,1.64,1.64,0,0,0,.57-.1,1.4,1.4,0,0,0,.47-.28Z"/><path class="cls-5" d="M97.81,193.54H91.94a2.65,2.65,0,0,0,2.76,2.57,2.91,2.91,0,0,0,1.2-.25,2.64,2.64,0,0,0,.95-.72l.53.65a3,3,0,0,1-1.17.9,4,4,0,0,1-3.45-.18,3.41,3.41,0,0,1-1.3-1.34,4,4,0,0,1-.47-1.94,4.13,4.13,0,0,1,.45-1.94A3.34,3.34,0,0,1,92.67,190a3.29,3.29,0,0,1,1.75-.48,3.26,3.26,0,0,1,1.75.48,3.32,3.32,0,0,1,1.21,1.33,4.17,4.17,0,0,1,.44,1.94ZM92.72,191a2.73,2.73,0,0,0-.78,1.78h5a2.74,2.74,0,0,0-.78-1.78,2.48,2.48,0,0,0-3.41,0Z"/><path class="cls-5" d="M101.6,186.66a.77.77,0,0,1,.2.54,1.51,1.51,0,0,1,0,.36q0,.19-.13.44l-.57,1.94h-.64l.47-2a.67.67,0,0,1-.36-.26.77.77,0,0,1-.13-.46.76.76,0,0,1,.2-.55.67.67,0,0,1,.51-.21A.66.66,0,0,1,101.6,186.66Zm2.27,0a.77.77,0,0,1,.2.54,1.51,1.51,0,0,1,0,.36c0,.13-.07.27-.13.44l-.57,1.94h-.64l.47-2a.67.67,0,0,1-.36-.26.85.85,0,0,1,.07-1,.67.67,0,0,1,.51-.21A.66.66,0,0,1,103.87,186.66Z"/><path class="cls-5" d="M106.94,190.79a.78.78,0,0,1-.21-.55.75.75,0,0,1,.21-.54.66.66,0,0,1,.5-.22.68.68,0,0,1,.51.22.74.74,0,0,1,.21.54.77.77,0,0,1-.21.55.68.68,0,0,1-.51.22A.66.66,0,0,1,106.94,190.79Zm0,6a.78.78,0,0,1-.21-.55.75.75,0,0,1,.21-.54.66.66,0,0,1,.5-.22.68.68,0,0,1,.51.22.74.74,0,0,1,.21.54.77.77,0,0,1-.21.55.68.68,0,0,1-.51.22A.66.66,0,0,1,106.94,196.77Z"/><path class="cls-5" d="M112.05,186.66a.77.77,0,0,1,.2.54,1.51,1.51,0,0,1,0,.36q0,.19-.13.44l-.57,1.94h-.64l.47-2a.67.67,0,0,1-.36-.26.77.77,0,0,1-.13-.46.76.76,0,0,1,.2-.55.67.67,0,0,1,.51-.21A.66.66,0,0,1,112.05,186.66Zm2.27,0a.77.77,0,0,1,.2.54,1.51,1.51,0,0,1,0,.36c0,.13-.07.27-.13.44l-.57,1.94h-.64l.47-2a.67.67,0,0,1-.36-.26.85.85,0,0,1,.07-1,.67.67,0,0,1,.51-.21A.66.66,0,0,1,114.32,186.66Z"/><path class="cls-5" d="M118.47,196.52a3.37,3.37,0,0,1-1.29-1.34,4.27,4.27,0,0,1,0-3.88,3.39,3.39,0,0,1,1.29-1.33,3.63,3.63,0,0,1,1.86-.48,3.45,3.45,0,0,1,1.62.37,2.75,2.75,0,0,1,1.13,1.09l-.71.51a2.24,2.24,0,0,0-.88-.82,2.51,2.51,0,0,0-1.16-.27,2.63,2.63,0,0,0-1.37.36,2.46,2.46,0,0,0-.95,1,3.51,3.51,0,0,0,0,3,2.48,2.48,0,0,0,.95,1,2.64,2.64,0,0,0,1.37.36,2.56,2.56,0,0,0,1.16-.27,2.2,2.2,0,0,0,.88-.81l.71.51a2.74,2.74,0,0,1-1.13,1.09,3.46,3.46,0,0,1-1.61.37A3.63,3.63,0,0,1,118.47,196.52Z"/><path class="cls-5" d="M131.5,190a3.29,3.29,0,0,1,1.25,1.33,4.42,4.42,0,0,1,0,3.9,3.33,3.33,0,0,1-1.25,1.33,3.42,3.42,0,0,1-1.79.48,3.17,3.17,0,0,1-1.58-.39,3,3,0,0,1-1.13-1.14v1.46h-.91V186.51H127v4.44a3,3,0,0,1,1.13-1.09,3.18,3.18,0,0,1,1.54-.37A3.46,3.46,0,0,1,131.5,190Zm-.52,5.8a2.48,2.48,0,0,0,.94-1,3.48,3.48,0,0,0,0-3,2.47,2.47,0,0,0-.94-1,2.67,2.67,0,0,0-2.67,0,2.49,2.49,0,0,0-.93,1,3.49,3.49,0,0,0,0,3,2.49,2.49,0,0,0,.93,1,2.68,2.68,0,0,0,2.67,0Z"/><path class="cls-5" d="M137.45,196.51a3.45,3.45,0,0,1-1.28-1.34,4.25,4.25,0,0,1,0-3.87,3.41,3.41,0,0,1,1.28-1.33,3.73,3.73,0,0,1,3.65,0,3.35,3.35,0,0,1,1.27,1.33,4.31,4.31,0,0,1,0,3.88,3.4,3.4,0,0,1-1.27,1.34,3.69,3.69,0,0,1-3.65,0Zm3.17-.76a2.45,2.45,0,0,0,.93-1,3.55,3.55,0,0,0,0-3,2.45,2.45,0,0,0-.93-1,2.69,2.69,0,0,0-2.68,0,2.49,2.49,0,0,0-.93,1,3.49,3.49,0,0,0,0,3,2.49,2.49,0,0,0,.93,1,2.69,2.69,0,0,0,2.68,0Z"/><path class="cls-5" d="M149.73,196.48a1.78,1.78,0,0,1-.66.39,2.54,2.54,0,0,1-.82.13,2,2,0,0,1-1.52-.56,2.21,2.21,0,0,1-.53-1.59v-4.46h-1.25v-.84h1.25v-1.62h.95v1.62h2.13v.84h-2.13v4.41a1.44,1.44,0,0,0,.31,1,1.16,1.16,0,0,0,.9.34,1.64,1.64,0,0,0,.57-.1,1.4,1.4,0,0,0,.47-.28Z"/><path class="cls-5" d="M152.31,190.79a.78.78,0,0,1-.21-.55.75.75,0,0,1,.21-.54.66.66,0,0,1,.5-.22.68.68,0,0,1,.51.22.74.74,0,0,1,.21.54.77.77,0,0,1-.21.55.68.68,0,0,1-.51.22A.66.66,0,0,1,152.31,190.79Zm0,6a.78.78,0,0,1-.21-.55.75.75,0,0,1,.21-.54.66.66,0,0,1,.5-.22.68.68,0,0,1,.51.22.74.74,0,0,1,.21.54.77.77,0,0,1-.21.55.68.68,0,0,1-.51.22A.66.66,0,0,1,152.31,196.77Z"/><path class="cls-5" d="M160.16,185.11H161l-4.4,13.22h-.87Z"/><path class="cls-5" d="M165,185.11h.87l-4.4,13.22h-.87Z"/><path class="cls-5" d="M168.53,196.66a3.64,3.64,0,0,1-1.47-.93l.39-.8a3.68,3.68,0,0,0,1.35.86,4.71,4.71,0,0,0,1.73.33,3.05,3.05,0,0,0,1.88-.48,1.52,1.52,0,0,0,.63-1.26,1.3,1.3,0,0,0-.34-.94,2.29,2.29,0,0,0-.83-.54,13.23,13.23,0,0,0-1.37-.41,13.84,13.84,0,0,1-1.68-.54,2.76,2.76,0,0,1-1.07-.79,2.18,2.18,0,0,1-.45-1.45,2.54,2.54,0,0,1,.37-1.35,2.59,2.59,0,0,1,1.15-1,4.49,4.49,0,0,1,1.92-.37,5.39,5.39,0,0,1,1.57.23,4.4,4.4,0,0,1,1.33.64l-.33.83a4.56,4.56,0,0,0-2.56-.81,2.91,2.91,0,0,0-1.85.5,1.57,1.57,0,0,0-.62,1.28,1.32,1.32,0,0,0,.34.95,2.21,2.21,0,0,0,.85.55q.51.19,1.38.41a13.42,13.42,0,0,1,1.66.53,2.74,2.74,0,0,1,1.07.79,2.15,2.15,0,0,1,.44,1.43,2.51,2.51,0,0,1-.38,1.35,2.59,2.59,0,0,1-1.17,1,4.67,4.67,0,0,1-1.93.36A5.72,5.72,0,0,1,168.53,196.66Z"/><path class="cls-5" d="M179.1,188h-3.28v-.9h7.55v.9h-3.28v8.93h-1Z"/><path class="cls-5" d="M191.59,194.3h-5.2l-1.12,2.63h-1l4.27-9.83h1l4.27,9.83h-1Zm-.36-.84L189,188.18l-2.24,5.28Z"/><path class="cls-5" d="M202.94,196.93l-2.13-3.16a6.59,6.59,0,0,1-.75,0h-2.51v3.12h-1V187.1h3.49a4.08,4.08,0,0,1,2.8.9,3.13,3.13,0,0,1,1,2.47,3.31,3.31,0,0,1-.55,1.94,3.07,3.07,0,0,1-1.58,1.14l2.28,3.37Zm-.79-4.65a2.63,2.63,0,0,0,0-3.64A3.14,3.14,0,0,0,200,188h-2.48v4.93H200A3.11,3.11,0,0,0,202.15,192.28Z"/><path class="cls-5" d="M209.16,188h-3.28v-.9h7.55v.9h-3.28v8.93h-1Z"/><path class="cls-5" d="M224.73,187.79a5.54,5.54,0,0,1,2.19,2.19,6.5,6.5,0,0,1,.79,3.22,5.54,5.54,0,0,1-.59,2.79,1.81,1.81,0,0,1-1.63,1,1.43,1.43,0,0,1-1.06-.41,1.66,1.66,0,0,1-.45-1.12,2.87,2.87,0,0,1-1.09,1.13,3.28,3.28,0,0,1-3.26-.07,3.3,3.3,0,0,1-1.19-1.3,4,4,0,0,1-.43-1.87,3.93,3.93,0,0,1,.43-1.86,3.25,3.25,0,0,1,1.19-1.28,3.15,3.15,0,0,1,1.69-.46,3.09,3.09,0,0,1,1.54.39,2.93,2.93,0,0,1,1.1,1.09v-1.42h.87v5.32a1.21,1.21,0,0,0,.23.81.77.77,0,0,0,.6.25q.63,0,1-.79a5.29,5.29,0,0,0,.37-2.19,5.79,5.79,0,0,0-.69-2.87,4.89,4.89,0,0,0-1.94-1.93,5.8,5.8,0,0,0-2.85-.69,5.68,5.68,0,0,0-2.86.71,4.94,4.94,0,0,0-1.94,2,6.06,6.06,0,0,0-.69,2.93,6.15,6.15,0,0,0,.69,2.93,5,5,0,0,0,1.92,2,5.54,5.54,0,0,0,2.83.72,6,6,0,0,0,1.31-.15,4.73,4.73,0,0,0,1.25-.46l.23.69a5.16,5.16,0,0,1-1.33.48,6.69,6.69,0,0,1-1.46.17,6.27,6.27,0,0,1-3.21-.81,5.67,5.67,0,0,1-2.18-2.27,6.85,6.85,0,0,1-.78-3.29,6.75,6.75,0,0,1,.79-3.29,5.65,5.65,0,0,1,2.21-2.25,6.91,6.91,0,0,1,6.43,0Zm-2,8a2.47,2.47,0,0,0,.91-1,3.42,3.42,0,0,0,0-2.95,2.42,2.42,0,0,0-.91-1,2.46,2.46,0,0,0-1.29-.34,2.49,2.49,0,0,0-1.31.35,2.42,2.42,0,0,0-.91,1,3.13,3.13,0,0,0-.33,1.46,3.17,3.17,0,0,0,.33,1.47,2.42,2.42,0,0,0,2.22,1.35A2.43,2.43,0,0,0,222.73,195.83Z"/><path class="cls-5" d="M232.14,196.41a3.92,3.92,0,0,1-1.32-1.73,7.71,7.71,0,0,1,0-5.32,3.92,3.92,0,0,1,1.32-1.73,3.38,3.38,0,0,1,3.85,0,4,4,0,0,1,1.33,1.73,7.61,7.61,0,0,1,0,5.32,4,4,0,0,1-1.33,1.73,3.38,3.38,0,0,1-3.85,0Zm3.36-.8a3.08,3.08,0,0,0,1-1.39,7.18,7.18,0,0,0,0-4.41,3.08,3.08,0,0,0-1-1.39,2.39,2.39,0,0,0-2.87,0,3.08,3.08,0,0,0-1,1.39,7.18,7.18,0,0,0,0,4.41,3.08,3.08,0,0,0,1,1.39,2.39,2.39,0,0,0,2.87,0Z"/><path class="cls-5" d="M242.24,196.41a3.92,3.92,0,0,1-1.32-1.73,7.71,7.71,0,0,1,0-5.32,3.92,3.92,0,0,1,1.32-1.73,3.38,3.38,0,0,1,3.85,0,4,4,0,0,1,1.33,1.73,7.61,7.61,0,0,1,0,5.32,4,4,0,0,1-1.33,1.73,3.38,3.38,0,0,1-3.85,0Zm3.36-.8a3.08,3.08,0,0,0,1-1.39,7.18,7.18,0,0,0,0-4.41,3.08,3.08,0,0,0-1-1.39,2.39,2.39,0,0,0-2.87,0,3.08,3.08,0,0,0-1,1.39,7.18,7.18,0,0,0,0,4.41,3.08,3.08,0,0,0,1,1.39,2.39,2.39,0,0,0,2.87,0Z"/><path class="cls-5" d="M252.33,196.41a3.92,3.92,0,0,1-1.32-1.73,7.71,7.71,0,0,1,0-5.32,3.92,3.92,0,0,1,1.32-1.73,3.38,3.38,0,0,1,3.85,0,4,4,0,0,1,1.33,1.73,7.64,7.64,0,0,1,0,5.32,4,4,0,0,1-1.33,1.73,3.38,3.38,0,0,1-3.85,0Zm3.36-.8a3.09,3.09,0,0,0,1-1.39,7.2,7.2,0,0,0,0-4.41,3.09,3.09,0,0,0-1-1.39,2.39,2.39,0,0,0-2.87,0,3.08,3.08,0,0,0-1,1.39,7.18,7.18,0,0,0,0,4.41,3.08,3.08,0,0,0,1,1.39,2.39,2.39,0,0,0,2.87,0Z"/><path class="cls-5" d="M262.43,196.41a3.92,3.92,0,0,1-1.32-1.73,7.71,7.71,0,0,1,0-5.32,3.92,3.92,0,0,1,1.32-1.73,3.38,3.38,0,0,1,3.85,0,4,4,0,0,1,1.33,1.73,7.62,7.62,0,0,1,0,5.32,4,4,0,0,1-1.33,1.73,3.38,3.38,0,0,1-3.85,0Zm3.36-.8a3.08,3.08,0,0,0,1-1.39,7.18,7.18,0,0,0,0-4.41,3.08,3.08,0,0,0-1-1.39,2.39,2.39,0,0,0-2.87,0,3.09,3.09,0,0,0-1,1.39,7.18,7.18,0,0,0,0,4.41,3.08,3.08,0,0,0,1,1.39,2.39,2.39,0,0,0,2.87,0Z"/><path class="cls-5" d="M276.23,191.41a2.72,2.72,0,0,1,1.11,1,3,3,0,0,1,.4,1.55,3,3,0,0,1-.41,1.59,2.78,2.78,0,0,1-1.14,1.06,3.54,3.54,0,0,1-1.63.37,3.37,3.37,0,0,1-2.84-1.28,5.84,5.84,0,0,1-1-3.63,6.52,6.52,0,0,1,.53-2.78,3.86,3.86,0,0,1,1.49-1.72A4.23,4.23,0,0,1,275,187a4,4,0,0,1,2.21.53l-.39.81a3.13,3.13,0,0,0-1.81-.46,3,3,0,0,0-2.43,1,4.51,4.51,0,0,0-.88,3q0,.35,0,.8a2.59,2.59,0,0,1,1.11-1.24,3.41,3.41,0,0,1,1.75-.44A3.54,3.54,0,0,1,276.23,191.41Zm-.07,4.16a2,2,0,0,0,.63-1.55,2,2,0,0,0-.63-1.54,2.45,2.45,0,0,0-1.71-.58,2.66,2.66,0,0,0-1.25.28,2.14,2.14,0,0,0-.85.77,2,2,0,0,0-.31,1.09,2,2,0,0,0,.29,1,2.09,2.09,0,0,0,.85.77,2.82,2.82,0,0,0,1.33.29A2.34,2.34,0,0,0,276.16,195.57Z"/><path class="cls-5" d="M285.53,192.15a2.62,2.62,0,0,1,.77,2,2.88,2.88,0,0,1-.39,1.5,2.68,2.68,0,0,1-1.15,1,4.12,4.12,0,0,1-1.85.38,5.31,5.31,0,0,1-1.91-.34,3.84,3.84,0,0,1-1.45-.92l.47-.8a3.41,3.41,0,0,0,1.24.82,4.33,4.33,0,0,0,1.65.32,2.68,2.68,0,0,0,1.77-.53,1.79,1.79,0,0,0,.63-1.45,1.76,1.76,0,0,0-.63-1.43,2.93,2.93,0,0,0-1.89-.52h-.67v-.74l2.59-3.41h-4.77v-.9h6v.72l-2.64,3.5A3.36,3.36,0,0,1,285.53,192.15Z"/><path class="cls-5" d="M294.41,191.41a2.72,2.72,0,0,1,1.11,1,3,3,0,0,1,.4,1.55,3,3,0,0,1-.41,1.59,2.78,2.78,0,0,1-1.14,1.06,3.54,3.54,0,0,1-1.63.37,3.37,3.37,0,0,1-2.84-1.28,5.84,5.84,0,0,1-1-3.63,6.52,6.52,0,0,1,.53-2.78,3.86,3.86,0,0,1,1.49-1.72,4.23,4.23,0,0,1,2.24-.58,4,4,0,0,1,2.21.53l-.39.81a3.13,3.13,0,0,0-1.81-.46,3,3,0,0,0-2.43,1,4.51,4.51,0,0,0-.88,3q0,.35,0,.8a2.59,2.59,0,0,1,1.11-1.24,3.41,3.41,0,0,1,1.75-.44A3.54,3.54,0,0,1,294.41,191.41Zm-.07,4.16A2,2,0,0,0,295,194a2,2,0,0,0-.63-1.54,2.45,2.45,0,0,0-1.71-.58,2.66,2.66,0,0,0-1.25.28,2.14,2.14,0,0,0-.85.77,2,2,0,0,0-.31,1.09,2,2,0,0,0,.29,1,2.09,2.09,0,0,0,.85.77,2.82,2.82,0,0,0,1.33.29A2.34,2.34,0,0,0,294.34,195.57Z"/><path class="cls-5" d="M304,188.3a5.84,5.84,0,0,1,1,3.63,6.52,6.52,0,0,1-.53,2.78,3.88,3.88,0,0,1-1.49,1.72,4.24,4.24,0,0,1-2.24.58,4,4,0,0,1-2.21-.53l.39-.81a3.13,3.13,0,0,0,1.81.46,3,3,0,0,0,2.43-1,4.5,4.5,0,0,0,.88-3q0-.36,0-.8a2.6,2.6,0,0,1-1.11,1.24,3.41,3.41,0,0,1-1.75.44,3.54,3.54,0,0,1-1.63-.36,2.71,2.71,0,0,1-1.11-1A3,3,0,0,1,298,190a3,3,0,0,1,.41-1.59,2.78,2.78,0,0,1,1.14-1.06,3.53,3.53,0,0,1,1.63-.37A3.37,3.37,0,0,1,304,188.3Zm-1.49,3.54a2.14,2.14,0,0,0,.85-.77,2,2,0,0,0,.31-1.09,2,2,0,0,0-.29-1,2.1,2.1,0,0,0-.85-.77,2.82,2.82,0,0,0-1.33-.29,2.34,2.34,0,0,0-1.65.58A2,2,0,0,0,299,190a2,2,0,0,0,.63,1.54,2.45,2.45,0,0,0,1.71.58A2.66,2.66,0,0,0,302.56,191.84Z"/><path class="cls-5" d="M308.93,186.66a.77.77,0,0,1,.2.54,1.49,1.49,0,0,1,0,.36q0,.19-.13.44l-.57,1.94h-.64l.47-2a.67.67,0,0,1-.36-.26.85.85,0,0,1,.07-1,.67.67,0,0,1,.51-.21A.66.66,0,0,1,308.93,186.66Zm2.27,0a.77.77,0,0,1,.2.54,1.49,1.49,0,0,1,0,.36c0,.13-.07.27-.13.44l-.57,1.94H310l.47-2a.67.67,0,0,1-.36-.26.77.77,0,0,1-.13-.46.76.76,0,0,1,.2-.55.71.71,0,0,1,1,0Z"/><path class="cls-5" d="M315.06,195.68a.77.77,0,0,1,.2.54,1.58,1.58,0,0,1,0,.37,4.17,4.17,0,0,1-.14.45l-.56,1.94h-.64l.45-2a.66.66,0,0,1-.35-.26.84.84,0,0,1,.07-1,.7.7,0,0,1,1,0Z"/><path class="cls-5" d="M38,205.64a.81.81,0,0,1,.13.46.76.76,0,0,1-.2.55.7.7,0,0,1-1,0,.78.78,0,0,1-.19-.54,1.61,1.61,0,0,1,0-.33,4.09,4.09,0,0,1,.14-.47l.56-1.94h.64l-.45,2A.64.64,0,0,1,38,205.64Zm2.27,0a.81.81,0,0,1,.13.46.76.76,0,0,1-.2.55.7.7,0,0,1-1,0,.78.78,0,0,1-.19-.54,1.65,1.65,0,0,1,0-.33,4.09,4.09,0,0,1,.14-.47l.56-1.94h.64l-.45,2A.65.65,0,0,1,40.27,205.64Z"/><path class="cls-5" d="M49.11,206.8a3.29,3.29,0,0,1,1.25,1.33,4.42,4.42,0,0,1,0,3.9,3.33,3.33,0,0,1-1.25,1.33,3.42,3.42,0,0,1-1.79.48,3.17,3.17,0,0,1-1.58-.39,3,3,0,0,1-1.13-1.14v1.46h-.91V203.36h.95v4.44a3,3,0,0,1,1.13-1.09,3.18,3.18,0,0,1,1.54-.37A3.46,3.46,0,0,1,49.11,206.8Zm-.52,5.8a2.48,2.48,0,0,0,.94-1,3.48,3.48,0,0,0,0-3,2.47,2.47,0,0,0-.94-1,2.67,2.67,0,0,0-2.67,0,2.49,2.49,0,0,0-.93,1,3.49,3.49,0,0,0,0,3,2.49,2.49,0,0,0,.93,1,2.68,2.68,0,0,0,2.67,0Z"/><path class="cls-5" d="M55.06,213.36A3.45,3.45,0,0,1,53.78,212a4.25,4.25,0,0,1,0-3.87,3.41,3.41,0,0,1,1.28-1.33,3.73,3.73,0,0,1,3.65,0A3.35,3.35,0,0,1,60,208.14,4.31,4.31,0,0,1,60,212a3.4,3.4,0,0,1-1.27,1.34,3.69,3.69,0,0,1-3.65,0Zm3.17-.76a2.45,2.45,0,0,0,.93-1,3.55,3.55,0,0,0,0-3,2.45,2.45,0,0,0-.93-1,2.69,2.69,0,0,0-2.68,0,2.49,2.49,0,0,0-.93,1,3.49,3.49,0,0,0,0,3,2.49,2.49,0,0,0,.93,1,2.69,2.69,0,0,0,2.68,0Z"/><path class="cls-5" d="M70,203.36v10.42h-.91v-1.46A3,3,0,0,1,68,213.45a3.17,3.17,0,0,1-1.58.39,3.42,3.42,0,0,1-1.79-.48A3.33,3.33,0,0,1,63.39,212a4.42,4.42,0,0,1,0-3.9,3.29,3.29,0,0,1,1.25-1.33,3.46,3.46,0,0,1,1.79-.47,3.18,3.18,0,0,1,1.54.37,3,3,0,0,1,1.13,1.09v-4.44Zm-2.21,9.25a2.49,2.49,0,0,0,.93-1,3.48,3.48,0,0,0,0-3,2.49,2.49,0,0,0-.93-1,2.54,2.54,0,0,0-3.6,1,3.49,3.49,0,0,0,0,3,2.49,2.49,0,0,0,.93,1,2.67,2.67,0,0,0,2.67,0Z"/><path class="cls-5" d="M79.85,206.39l-3.51,8.27a3.53,3.53,0,0,1-1,1.47,2.13,2.13,0,0,1-1.35.44,2.63,2.63,0,0,1-.95-.17,2,2,0,0,1-.76-.5l.44-.74a1.7,1.7,0,0,0,1.28.56,1.24,1.24,0,0,0,.82-.28,2.55,2.55,0,0,0,.63-1l.31-.72-3.13-7.37h1l2.64,6.27,2.64-6.27Z"/><path class="cls-5" d="M83.3,203.5a.77.77,0,0,1,.2.54,1.51,1.51,0,0,1,0,.36q0,.19-.13.44l-.57,1.94h-.64l.47-2a.67.67,0,0,1-.36-.26.77.77,0,0,1-.13-.46.76.76,0,0,1,.2-.55.67.67,0,0,1,.51-.21A.66.66,0,0,1,83.3,203.5Zm2.27,0a.77.77,0,0,1,.2.54,1.51,1.51,0,0,1,0,.36c0,.13-.07.27-.13.44L85,206.78h-.64l.47-2a.67.67,0,0,1-.36-.26.85.85,0,0,1,.07-1,.67.67,0,0,1,.51-.21A.66.66,0,0,1,85.57,203.5Z"/><path class="cls-5" d="M88.64,207.64a.78.78,0,0,1-.21-.55.75.75,0,0,1,.21-.54.66.66,0,0,1,.5-.22.68.68,0,0,1,.51.22.74.74,0,0,1,.21.54.77.77,0,0,1-.21.55.68.68,0,0,1-.51.22A.66.66,0,0,1,88.64,207.64Zm0,6a.78.78,0,0,1-.21-.55.75.75,0,0,1,.21-.54.66.66,0,0,1,.5-.22.68.68,0,0,1,.51.22.74.74,0,0,1,.21.54.77.77,0,0,1-.21.55.68.68,0,0,1-.51.22A.66.66,0,0,1,88.64,213.62Z"/><path class="cls-5" d="M38.68,226.39a.39.39,0,1,0,0,.76,1.58,1.58,0,0,1,.15.77v3.47q0,1.12,1,1.12h.36v.83h-.49a1.63,1.63,0,0,1-1.83-1.87v-3.57q0-.72-.6-.72h-.45v-.84h.45q.6,0,.6-.72v-3.57a1.63,1.63,0,0,1,1.83-1.87h.49V221h-.36q-1,0-1,1.12v3.47A1.58,1.58,0,0,1,38.68,226.39Z"/><path class="cls-5" d="M51.91,237.2a.77.77,0,0,1,.2.54,1.51,1.51,0,0,1,0,.36q0,.19-.13.44l-.57,1.94h-.64l.47-2a.67.67,0,0,1-.36-.26.77.77,0,0,1-.13-.46.76.76,0,0,1,.2-.55.67.67,0,0,1,.51-.21A.66.66,0,0,1,51.91,237.2Zm2.27,0a.77.77,0,0,1,.2.54,1.51,1.51,0,0,1,0,.36c0,.13-.07.27-.13.44l-.57,1.94H53l.47-2a.67.67,0,0,1-.36-.26.85.85,0,0,1,.07-1,.67.67,0,0,1,.51-.21A.66.66,0,0,1,54.18,237.2Z"/><path class="cls-5" d="M61.38,247a1.78,1.78,0,0,1-.66.39,2.54,2.54,0,0,1-.82.13,2,2,0,0,1-1.52-.56,2.21,2.21,0,0,1-.53-1.59v-4.46H56.59v-.84h1.25v-1.62h.95v1.62h2.13v.84H58.79v4.41a1.44,1.44,0,0,0,.31,1,1.16,1.16,0,0,0,.9.34,1.64,1.64,0,0,0,.57-.1,1.4,1.4,0,0,0,.47-.28Z"/><path class="cls-5" d="M70.22,244.08H64.35a2.65,2.65,0,0,0,2.76,2.57,2.91,2.91,0,0,0,1.2-.25,2.64,2.64,0,0,0,.95-.72l.53.65a3,3,0,0,1-1.17.9,4,4,0,0,1-3.45-.18,3.41,3.41,0,0,1-1.3-1.34,4,4,0,0,1-.47-1.94,4.13,4.13,0,0,1,.45-1.94,3.34,3.34,0,0,1,1.23-1.33,3.29,3.29,0,0,1,1.75-.48,3.26,3.26,0,0,1,1.75.48,3.32,3.32,0,0,1,1.21,1.33,4.17,4.17,0,0,1,.44,1.94Zm-5.09-2.52a2.73,2.73,0,0,0-.78,1.78h5a2.74,2.74,0,0,0-.78-1.78,2.48,2.48,0,0,0-3.41,0Z"/><path class="cls-5" d="M77.7,247.47l-2.23-3.09-2.24,3.09H72.17l2.77-3.79-2.64-3.59h1.07L75.48,243l2.11-2.89h1L76,243.68l2.8,3.79Z"/><path class="cls-5" d="M85.32,247a1.78,1.78,0,0,1-.66.39,2.54,2.54,0,0,1-.82.13,2,2,0,0,1-1.52-.56,2.21,2.21,0,0,1-.53-1.59v-4.46H80.53v-.84h1.25v-1.62h.95v1.62h2.13v.84H82.73v4.41a1.44,1.44,0,0,0,.31,1,1.16,1.16,0,0,0,.9.34,1.64,1.64,0,0,0,.57-.1,1.4,1.4,0,0,0,.47-.28Z"/><path class="cls-5" d="M88.92,237.2a.77.77,0,0,1,.2.54,1.51,1.51,0,0,1,0,.36q0,.19-.13.44l-.57,1.94h-.64l.47-2a.67.67,0,0,1-.36-.26.77.77,0,0,1-.13-.46.76.76,0,0,1,.2-.55.67.67,0,0,1,.51-.21A.66.66,0,0,1,88.92,237.2Zm2.27,0a.77.77,0,0,1,.2.54,1.51,1.51,0,0,1,0,.36c0,.13-.07.27-.13.44l-.57,1.94H90l.47-2a.67.67,0,0,1-.36-.26.85.85,0,0,1,.07-1,.67.67,0,0,1,.51-.21A.66.66,0,0,1,91.19,237.2Z"/><path class="cls-5" d="M94.26,241.33a.78.78,0,0,1-.21-.55.75.75,0,0,1,.21-.54.66.66,0,0,1,.5-.22.68.68,0,0,1,.51.22.74.74,0,0,1,.21.54.77.77,0,0,1-.21.55.68.68,0,0,1-.51.22A.66.66,0,0,1,94.26,241.33Zm0,6a.78.78,0,0,1-.21-.55.75.75,0,0,1,.21-.54.66.66,0,0,1,.5-.22.68.68,0,0,1,.51.22.74.74,0,0,1,.21.54.77.77,0,0,1-.21.55.68.68,0,0,1-.51.22A.66.66,0,0,1,94.26,247.31Z"/><path class="cls-5" d="M99.37,237.2a.77.77,0,0,1,.2.54,1.51,1.51,0,0,1,0,.36q0,.19-.13.44l-.57,1.94h-.64l.47-2a.67.67,0,0,1-.36-.26.77.77,0,0,1-.13-.46.76.76,0,0,1,.2-.55.67.67,0,0,1,.51-.21A.66.66,0,0,1,99.37,237.2Zm2.27,0a.77.77,0,0,1,.2.54,1.51,1.51,0,0,1,0,.36c0,.13-.07.27-.13.44l-.57,1.94h-.64l.47-2a.67.67,0,0,1-.36-.26.85.85,0,0,1,.07-1,.67.67,0,0,1,.51-.21A.66.66,0,0,1,101.64,237.2Z"/><path class="cls-5" d="M106.88,246.9a4.61,4.61,0,0,1-1.75-1.79,5.5,5.5,0,0,1,0-5.12,4.59,4.59,0,0,1,1.75-1.79,5.21,5.21,0,0,1,4.43-.28A4,4,0,0,1,112.8,239l-.63.66a3.62,3.62,0,0,0-2.76-1.17,3.9,3.9,0,0,0-2,.53,3.79,3.79,0,0,0-1.42,1.46,4.46,4.46,0,0,0,0,4.16,3.79,3.79,0,0,0,1.42,1.46,3.89,3.89,0,0,0,2,.53,3.58,3.58,0,0,0,2.76-1.18l.63.66a4,4,0,0,1-1.5,1.07,5.17,5.17,0,0,1-4.43-.27Z"/><path class="cls-5" d="M123.48,243.23a2.49,2.49,0,0,1,.5,1.61,2.31,2.31,0,0,1-.89,1.94,4.25,4.25,0,0,1-2.62.68h-4.29v-9.83h4a3.9,3.9,0,0,1,2.42.66,2.22,2.22,0,0,1,.86,1.87,2.43,2.43,0,0,1-.38,1.38,2.29,2.29,0,0,1-1,.85A2.45,2.45,0,0,1,123.48,243.23Zm-6.31-4.74v3.57h3a2.88,2.88,0,0,0,1.75-.46,1.74,1.74,0,0,0,0-2.65,2.89,2.89,0,0,0-1.75-.46Zm5.19,7.67a1.6,1.6,0,0,0,.64-1.4q0-1.84-2.53-1.84h-3.29v3.69h3.29A3.29,3.29,0,0,0,122.35,246.16Z"/><path class="cls-5" d="M129.07,246.9a4.64,4.64,0,0,1-1.76-1.79,5.47,5.47,0,0,1,0-5.11,4.64,4.64,0,0,1,1.76-1.79,5.17,5.17,0,0,1,5,0,4.66,4.66,0,0,1,1.75,1.79,5.45,5.45,0,0,1,0,5.12,4.66,4.66,0,0,1-1.75,1.79,5.17,5.17,0,0,1-5,0Zm4.51-.8a3.72,3.72,0,0,0,1.4-1.46,4.54,4.54,0,0,0,0-4.17,3.72,3.72,0,0,0-1.4-1.46,4.08,4.08,0,0,0-4,0,3.75,3.75,0,0,0-1.41,1.46,4.49,4.49,0,0,0,0,4.17,3.74,3.74,0,0,0,1.41,1.46,4.08,4.08,0,0,0,4,0Z"/><path class="cls-5" d="M141.64,238.54h-3.28v-.9h7.55v.9h-3.28v8.93h-1Z"/><path class="cls-5" d="M155.35,246.57v.9h-6.6v-9.83h6.4v.9h-5.41V242h4.83v.88h-4.83v3.65Z"/><path class="cls-5" d="M159.52,247.2a3.64,3.64,0,0,1-1.47-.93l.39-.8a3.68,3.68,0,0,0,1.35.86,4.71,4.71,0,0,0,1.73.33,3.05,3.05,0,0,0,1.88-.48,1.52,1.52,0,0,0,.63-1.26,1.3,1.3,0,0,0-.34-.94,2.29,2.29,0,0,0-.83-.54,13.23,13.23,0,0,0-1.37-.41,13.84,13.84,0,0,1-1.68-.54,2.76,2.76,0,0,1-1.07-.79,2.18,2.18,0,0,1-.45-1.45,2.54,2.54,0,0,1,.37-1.35,2.59,2.59,0,0,1,1.15-1,4.49,4.49,0,0,1,1.92-.37,5.39,5.39,0,0,1,1.57.23,4.4,4.4,0,0,1,1.33.64l-.33.83a4.56,4.56,0,0,0-2.56-.81,2.91,2.91,0,0,0-1.85.5,1.57,1.57,0,0,0-.62,1.28,1.32,1.32,0,0,0,.34.95,2.21,2.21,0,0,0,.85.55q.51.19,1.38.41a13.42,13.42,0,0,1,1.66.53,2.74,2.74,0,0,1,1.07.79,2.15,2.15,0,0,1,.44,1.43,2.51,2.51,0,0,1-.38,1.35,2.59,2.59,0,0,1-1.17,1,4.67,4.67,0,0,1-1.93.36A5.72,5.72,0,0,1,159.52,247.2Z"/><path class="cls-5" d="M170.08,238.54H166.8v-.9h7.55v.9h-3.28v8.93h-1Z"/><path class="cls-5" d="M182.58,244.84h-5.2l-1.12,2.63h-1l4.27-9.83h1l4.27,9.83h-1Zm-.36-.84L180,238.72,177.74,244Z"/><path class="cls-5" d="M188.54,238.54v3.86h4.83v.9h-4.83v4.17h-1v-9.83H194v.9Z"/><path class="cls-5" d="M203.87,246.57v.9h-6.6v-9.83h6.4v.9h-5.41V242h4.83v.88h-4.83v3.65Z"/><path class="cls-5" d="M209.27,238.54H206v-.9h7.55v.9h-3.28v8.93h-1Z"/><path class="cls-5" d="M221.76,244.84h-5.2l-1.12,2.63h-1l4.27-9.83h1l4.27,9.83h-1Zm-.36-.84-2.24-5.28L216.92,244Z"/><path class="cls-5" d="M234,237.64l-4.13,9.83h-1l-4.13-9.83h1.07l3.57,8.54,3.6-8.54Z"/><path class="cls-5" d="M239,237.64v9.83h-1v-8.93h-2.2v-.9Z"/><path class="cls-5" d="M243.73,237.2a.77.77,0,0,1,.2.54,1.51,1.51,0,0,1,0,.36q0,.19-.13.44l-.57,1.94h-.64l.47-2a.67.67,0,0,1-.36-.26.77.77,0,0,1-.13-.46.76.76,0,0,1,.2-.55.67.67,0,0,1,.51-.21A.66.66,0,0,1,243.73,237.2Zm2.27,0a.77.77,0,0,1,.2.54,1.51,1.51,0,0,1,0,.36c0,.13-.07.27-.13.44l-.57,1.94h-.64l.47-2a.67.67,0,0,1-.36-.26.85.85,0,0,1,.07-1,.67.67,0,0,1,.51-.21A.66.66,0,0,1,246,237.2Z"/><path class="cls-5" d="M249.86,246.22a.77.77,0,0,1,.2.54,1.61,1.61,0,0,1,0,.37,4.08,4.08,0,0,1-.14.45l-.56,1.94h-.64l.45-2a.66.66,0,0,1-.35-.26.84.84,0,0,1,.07-1,.7.7,0,0,1,1,0Z"/><path class="cls-5" d="M52,256.18a.81.81,0,0,1,.13.46.76.76,0,0,1-.2.55.7.7,0,0,1-1,0,.78.78,0,0,1-.19-.54,1.61,1.61,0,0,1,0-.33,4.09,4.09,0,0,1,.14-.47l.56-1.94h.64l-.45,2A.64.64,0,0,1,52,256.18Zm2.27,0a.81.81,0,0,1,.13.46.76.76,0,0,1-.2.55.7.7,0,0,1-1,0,.78.78,0,0,1-.19-.54,1.65,1.65,0,0,1,0-.33,4.09,4.09,0,0,1,.14-.47l.56-1.94h.64l-.45,2A.65.65,0,0,1,54.22,256.18Z"/><path class="cls-5" d="M62.17,257.59a2.88,2.88,0,0,1,.73,2.14v4.58H62v-1.15a2.21,2.21,0,0,1-.94.9,3.15,3.15,0,0,1-1.47.32,2.78,2.78,0,0,1-1.87-.59,2.1,2.1,0,0,1,0-3.07,3.05,3.05,0,0,1,2.06-.58H62v-.45a2,2,0,0,0-.51-1.45,2,2,0,0,0-1.48-.5,3.6,3.6,0,0,0-1.28.23,3.21,3.21,0,0,0-1.05.64l-.43-.74a3.72,3.72,0,0,1,1.28-.74,4.76,4.76,0,0,1,1.57-.26A2.88,2.88,0,0,1,62.17,257.59Zm-1.07,5.62a2.29,2.29,0,0,0,.85-1.12v-1.21h-2.2q-1.8,0-1.8,1.32a1.23,1.23,0,0,0,.47,1,2,2,0,0,0,1.31.37A2.41,2.41,0,0,0,61.1,263.21Z"/><path class="cls-5" d="M67.81,263.91a3.37,3.37,0,0,1-1.29-1.34,4.27,4.27,0,0,1,0-3.88,3.39,3.39,0,0,1,1.29-1.33,3.63,3.63,0,0,1,1.86-.48,3.45,3.45,0,0,1,1.62.37,2.75,2.75,0,0,1,1.13,1.09l-.71.51a2.24,2.24,0,0,0-.88-.82,2.51,2.51,0,0,0-1.16-.27,2.63,2.63,0,0,0-1.37.36,2.46,2.46,0,0,0-.95,1,3.51,3.51,0,0,0,0,3,2.48,2.48,0,0,0,.95,1,2.64,2.64,0,0,0,1.37.36,2.56,2.56,0,0,0,1.16-.27,2.2,2.2,0,0,0,.88-.81l.71.51A2.74,2.74,0,0,1,71.29,264a3.46,3.46,0,0,1-1.61.37A3.63,3.63,0,0,1,67.81,263.91Z"/><path class="cls-5" d="M79.32,263.86a1.78,1.78,0,0,1-.66.39,2.54,2.54,0,0,1-.82.13,2,2,0,0,1-1.52-.56,2.21,2.21,0,0,1-.53-1.59v-4.46H74.53v-.84h1.25v-1.62h.95v1.62h2.13v.84H76.73v4.41a1.44,1.44,0,0,0,.31,1,1.16,1.16,0,0,0,.9.34,1.64,1.64,0,0,0,.57-.1,1.4,1.4,0,0,0,.47-.28Z"/><path class="cls-5" d="M82.29,255.1a.71.71,0,0,1-.2-.51.69.69,0,0,1,.2-.49.65.65,0,0,1,.49-.21.69.69,0,0,1,.69.69.73.73,0,0,1-.2.52.68.68,0,0,1-1,0Zm0,1.83h.95v7.38H82.3Z"/><path class="cls-5" d="M88.2,263.9a3.45,3.45,0,0,1-1.28-1.34,4.25,4.25,0,0,1,0-3.87,3.41,3.41,0,0,1,1.28-1.33,3.73,3.73,0,0,1,3.65,0,3.35,3.35,0,0,1,1.27,1.33,4.31,4.31,0,0,1,0,3.88,3.4,3.4,0,0,1-1.27,1.34,3.69,3.69,0,0,1-3.65,0Zm3.17-.76a2.45,2.45,0,0,0,.93-1,3.55,3.55,0,0,0,0-3,2.45,2.45,0,0,0-.93-1,2.69,2.69,0,0,0-2.68,0,2.49,2.49,0,0,0-.93,1,3.49,3.49,0,0,0,0,3,2.49,2.49,0,0,0,.93,1,2.69,2.69,0,0,0,2.68,0Z"/><path class="cls-5" d="M102.46,257.68a3.25,3.25,0,0,1,.78,2.35v4.28h-.95v-4.18a2.53,2.53,0,0,0-.55-1.75,2,2,0,0,0-1.56-.6,2.33,2.33,0,0,0-1.79.71,2.76,2.76,0,0,0-.66,2v3.88h-.95v-7.38h.91v1.36a2.69,2.69,0,0,1,1.07-1,3.29,3.29,0,0,1,1.59-.37A2.79,2.79,0,0,1,102.46,257.68Z"/><path class="cls-5" d="M107.33,264.12a3.44,3.44,0,0,1-1.22-.65l.43-.79a3.51,3.51,0,0,0,1.11.6,4.17,4.17,0,0,0,1.39.23,2.54,2.54,0,0,0,1.42-.32,1,1,0,0,0,.46-.89.82.82,0,0,0-.25-.64,1.65,1.65,0,0,0-.64-.35,8.7,8.7,0,0,0-1-.23,11.21,11.21,0,0,1-1.37-.34,2,2,0,0,1-.89-.6,1.71,1.71,0,0,1-.37-1.17,1.86,1.86,0,0,1,.73-1.52,3.17,3.17,0,0,1,2-.59,5.06,5.06,0,0,1,1.36.19,3.66,3.66,0,0,1,1.12.5l-.41.8a3.42,3.42,0,0,0-2.07-.63,2.3,2.3,0,0,0-1.37.34,1,1,0,0,0-.46.88.9.9,0,0,0,.26.67,1.59,1.59,0,0,0,.65.37,10.05,10.05,0,0,0,1.07.25,11.76,11.76,0,0,1,1.35.34,2,2,0,0,1,.87.58,1.64,1.64,0,0,1,.36,1.12,1.81,1.81,0,0,1-.77,1.54,3.51,3.51,0,0,1-2.13.57A5.15,5.15,0,0,1,107.33,264.12Z"/><path class="cls-5" d="M115.48,254a.77.77,0,0,1,.2.54,1.51,1.51,0,0,1,0,.36q0,.19-.13.44l-.57,1.94h-.64l.47-2a.67.67,0,0,1-.36-.26.77.77,0,0,1-.13-.46.76.76,0,0,1,.2-.55.67.67,0,0,1,.51-.21A.66.66,0,0,1,115.48,254Zm2.27,0a.77.77,0,0,1,.2.54,1.51,1.51,0,0,1,0,.36c0,.13-.07.27-.13.44l-.57,1.94h-.64l.47-2a.67.67,0,0,1-.36-.26.85.85,0,0,1,.07-1,.67.67,0,0,1,.51-.21A.66.66,0,0,1,117.75,254Z"/><path class="cls-5" d="M120.83,258.18a.78.78,0,0,1-.21-.55.75.75,0,0,1,.21-.54.66.66,0,0,1,.5-.22.68.68,0,0,1,.51.22.74.74,0,0,1,.21.54.77.77,0,0,1-.21.55.68.68,0,0,1-.51.22A.66.66,0,0,1,120.83,258.18Zm0,6a.78.78,0,0,1-.21-.55.75.75,0,0,1,.21-.54.66.66,0,0,1,.5-.22.68.68,0,0,1,.51.22.74.74,0,0,1,.21.54.77.77,0,0,1-.21.55.68.68,0,0,1-.51.22A.66.66,0,0,1,120.83,264.16Z"/><path class="cls-5" d="M131,257.68a3.25,3.25,0,0,1,.78,2.35v4.28h-.95v-4.18a2.53,2.53,0,0,0-.55-1.75,2,2,0,0,0-1.56-.6,2.33,2.33,0,0,0-1.79.71,2.76,2.76,0,0,0-.66,2v3.88h-.95v-7.38h.91v1.36a2.69,2.69,0,0,1,1.07-1,3.29,3.29,0,0,1,1.59-.37A2.79,2.79,0,0,1,131,257.68Z"/><path class="cls-5" d="M141.94,256.93v7.38H141V263a2.66,2.66,0,0,1-1,1,3,3,0,0,1-1.49.37,2.9,2.9,0,0,1-2.17-.81,3.24,3.24,0,0,1-.79-2.37v-4.28h.95v4.18a2.55,2.55,0,0,0,.55,1.77,2,2,0,0,0,1.56.6,2.24,2.24,0,0,0,1.75-.71,2.84,2.84,0,0,0,.64-2v-3.87Z"/><path class="cls-5" d="M145.87,253.9h.95v10.42h-.95Z"/><path class="cls-5" d="M150.72,253.9h.95v10.42h-.95Z"/><path class="cls-5" d="M39.68,276.89v.84h-.45q-.6,0-.6.72V282a1.63,1.63,0,0,1-1.81,1.87h-.51v-.83h.36q1,0,1-1.12v-3.47a1.59,1.59,0,0,1,.15-.77.39.39,0,1,0,0-.76,1.59,1.59,0,0,1-.15-.77v-3.47q0-1.12-1-1.12h-.36v-.83h.51a1.63,1.63,0,0,1,1.81,1.87v3.57q0,.71.6.72Z"/><path class="cls-5" d="M25.73,293.74v.84h-.45q-.6,0-.6.72v3.57a1.63,1.63,0,0,1-1.81,1.87h-.51v-.83h.36q1,0,1-1.12v-3.47a1.59,1.59,0,0,1,.15-.77.39.39,0,1,0,0-.76,1.59,1.59,0,0,1-.15-.77v-3.47q0-1.12-1-1.12h-.36v-.83h.51a1.63,1.63,0,0,1,1.81,1.87V293q0,.71.6.72Z"/><path class="cls-4" d="M159.74,41.27,158,46.88h-2.26L161.47,29h2.64l5.78,17.84h-2.34l-1.81-5.61Zm5.56-1.8-1.66-5.13c-.38-1.16-.63-2.22-.88-3.26h-.05c-.25,1.06-.53,2.14-.86,3.23l-1.66,5.16Z"/></g></g>
<script>
        localStorage.setItem('curPage','5');
        localStorage.setItem('wdth','50');
        localStorage.setItem('wdsvg','70');
</script>
</svg>