<svg xmlns="http://www.w3.org/2000/svg" xmlns:xlink="http://www.w3.org/1999/xlink" viewBox="0 0 800 614.1"><defs>
<style>
    .prev path:hover,.next path:hover{
                fill:#709DCD;
            }
</style>
<style>.cls-1,.cls-10,.cls-12,.cls-13,.cls-15,.cls-18,.cls-19,.cls-2,.cls-20,.cls-23,.cls-24,.cls-27,.cls-29,.cls-3,.cls-32,.cls-33,.cls-6,.cls-7,.cls-8{fill:none;}.cls-1,.cls-2,.cls-3,.cls-6,.cls-7{stroke:#0e2599;}.cls-1,.cls-10,.cls-12,.cls-13,.cls-15,.cls-18,.cls-19,.cls-2,.cls-20,.cls-23,.cls-24,.cls-27,.cls-29,.cls-3,.cls-32,.cls-33,.cls-6,.cls-7{stroke-miterlimit:10;}.cls-1{stroke-width:3px;}.cls-2{stroke-width:2px;}.cls-4{fill:#fff;}.cls-5{fill:#0e2599;}.cls-6{stroke-width:1.5px;}.cls-7{stroke-linecap:round;}.cls-9{fill:#0d0787;}.cls-10,.cls-12{stroke:#000;}.cls-10,.cls-13,.cls-15,.cls-18,.cls-19,.cls-20,.cls-24,.cls-27,.cls-29,.cls-32{stroke-width:4px;}.cls-11{fill:#1d1d1b;fill-rule:evenodd;}.cls-12,.cls-23{stroke-width:5px;}.cls-13{stroke:#df4b38;}.cls-14{fill:#df4b38;}.cls-15{stroke:#2e4e85;}.cls-16{fill:#2e4e85;}.cls-17{fill:#3e5c9a;}.cls-18{stroke:#3e5c9a;}.cls-19{stroke:#dce02b;}.cls-20,.cls-23{stroke:#090;}.cls-21{fill:#090;}.cls-22{fill:url(#linear-gradient);}.cls-24{stroke:#b4173b;}.cls-25{fill:#c1272d;}.cls-26{fill:#d22e3f;}.cls-27{stroke:#385995;}.cls-28{fill:#385995;}.cls-29{stroke:#00b6f3;}.cls-30{fill:#00b6f3;}.cls-31{fill:#29a9e1;}.cls-32{stroke:#29a9e1;}.cls-33{stroke:#1b1464;}.cls-34{fill:#1b1464;}</style><linearGradient id="linear-gradient" x1="118.8" y1="223.61" x2="102.86" y2="263.35" gradientUnits="userSpaceOnUse"><stop offset="0" stop-color="#4bc25a"/><stop offset="1" stop-color="#368c41"/></linearGradient></defs><title>Recurso 6</title><g id="Capa_2" data-name="Capa 2"><g id="Capa_1-2" data-name="Capa 1"><path class="cls-1" d="M309.65,504.29"/><path class="cls-1" d="M320.08,499.2"/><line class="cls-2" x1="346.43" y1="486.32" x2="320.08" y2="499.2"/><line class="cls-2" x1="378.67" y1="491.61" x2="352.77" y2="485.27"/><line class="cls-2" x1="394" y1="460.43" x2="383.43" y2="490.02"/><line class="cls-2" x1="393.47" y1="448.27" x2="395.05" y2="454.61"/><line class="cls-2" x1="397.7" y1="425.54" x2="393.47" y2="441.93"/><line class="cls-2" x1="398.23" y1="312.96" x2="398.23" y2="419.2"/><line class="cls-2" x1="368.63" y1="283.37" x2="396.11" y2="307.68"/><line class="cls-2" x1="384.48" y1="240.55" x2="367.57" y2="277.55"/><line class="cls-2" x1="387.83" y1="195.61" x2="392.41" y2="218.88"/><line class="cls-2" x1="382.9" y1="168.67" x2="386.25" y2="188.21"/><line class="cls-2" x1="390.83" y1="149.12" x2="383.43" y2="162.86"/><circle class="cls-2" cx="392.68" cy="145.68" r="3.96"/><circle class="cls-2" cx="392.41" cy="222.05" r="3.17"/><circle class="cls-2" cx="367.04" cy="280.72" r="3.17"/><circle class="cls-2" cx="398.23" cy="309.79" r="3.17"/><circle class="cls-2" cx="398.23" cy="422.37" r="3.17"/><circle class="cls-2" cx="392.94" cy="445.1" r="3.17"/><circle class="cls-2" cx="395.05" cy="457.26" r="3.17"/><circle class="cls-2" cx="382.37" cy="492.67" r="3.17"/><circle class="cls-2" cx="349.6" cy="484.74" r="3.17"/><circle class="cls-2" cx="382.37" cy="165.5" r="3.17"/><line class="cls-2" x1="368.63" y1="177.13" x2="384.48" y2="190.87"/><line class="cls-2" x1="352.77" y1="182.94" x2="363.34" y2="176.6"/><line class="cls-2" x1="330.16" y1="165.03" x2="346.96" y2="181.89"/><line class="cls-2" x1="354.62" y1="217.03" x2="365.19" y2="223.9"/><line class="cls-2" x1="339.56" y1="218.36" x2="348.01" y2="216.24"/><line class="cls-2" x1="317.36" y1="176.6" x2="335.33" y2="215.71"/><line class="cls-2" x1="372.33" y1="198.8" x2="368.79" y2="222.52"/><line class="cls-2" x1="358.85" y1="245.05" x2="375.76" y2="234.48"/><line class="cls-2" x1="331.89" y1="234.48" x2="351.98" y2="245.05"/><circle class="cls-2" cx="349.6" cy="183.47" r="3.17"/><circle class="cls-2" cx="365.98" cy="175.01" r="3.17"/><circle class="cls-2" cx="386.6" cy="191.93" r="3.17"/><circle class="cls-2" cx="368.1" cy="225.75" r="3.17"/><circle class="cls-2" cx="372.86" cy="195.63" r="3.17"/><circle class="cls-2" cx="377.61" cy="233.15" r="3.17"/><circle class="cls-2" cx="385.54" cy="237.38" r="3.17"/><circle class="cls-2" cx="355.41" cy="246.37" r="3.17"/><circle class="cls-2" cx="329.52" cy="233.15" r="3.17"/><circle class="cls-2" cx="351.71" cy="215.18" r="3.17"/><circle class="cls-2" cx="336.39" cy="218.88" r="3.17"/><line class="cls-2" x1="390.83" y1="225.75" x2="386.86" y2="234.48"/><line class="cls-2" x1="379.99" y1="233.95" x2="382.63" y2="235.53"/><line class="cls-2" x1="370.76" y1="227.67" x2="375.52" y2="230.84"/><circle class="cls-2" cx="315.77" cy="173.43" r="3.96"/><circle class="cls-2" cx="326.99" cy="161.86" r="3.96" transform="translate(-36.43 129.52) rotate(-21.25)"/><circle class="cls-3" cx="323.7" cy="178.19" r="1.59"/><circle class="cls-3" cx="337.97" cy="178.19" r="1.59" transform="translate(-39 116.02) rotate(-18.43)"/><circle class="cls-3" cx="334.8" cy="196.16" r="1.59"/><circle class="cls-3" cx="341.14" cy="186.64" r="1.59" transform="translate(-47.72 188.02) rotate(-28.89)"/><circle class="cls-3" cx="338.5" cy="198.8" r="1.59"/><circle class="cls-3" cx="358.59" cy="187.7" r="1.59"/><circle class="cls-3" cx="346.96" cy="198.27" r="1.59"/><circle class="cls-3" cx="358.59" cy="198.27" r="1.59"/><circle class="cls-3" cx="358.59" cy="204.61" r="1.59"/><circle class="cls-3" cx="330.57" cy="194.04" r="1.59"/><line class="cls-3" x1="338.5" y1="179.77" x2="340.61" y2="185.06"/><line class="cls-3" x1="358.59" y1="189.29" x2="358.59" y2="196.69"/><line class="cls-3" x1="358.59" y1="199.86" x2="358.59" y2="203.03"/><line class="cls-3" x1="348.54" y1="198.27" x2="357" y2="198.27"/><line class="cls-3" x1="340.09" y1="188.23" x2="335.86" y2="194.57"/><line class="cls-3" x1="324.23" y1="179.77" x2="330.04" y2="192.46"/><line class="cls-3" x1="360.17" y1="205.67" x2="369.68" y2="210.96"/><line class="cls-3" x1="339.03" y1="200.38" x2="345.9" y2="216.77"/><line class="cls-3" x1="335.86" y1="197.21" x2="336.91" y2="197.74"/><circle class="cls-3" cx="397.7" cy="204.08" r="1.59"/><circle class="cls-3" cx="394.53" cy="175.01" r="1.59"/><circle class="cls-3" cx="380.26" cy="149.65" r="1.59"/><line class="cls-3" x1="381.31" y1="150.7" x2="386.6" y2="155.46"/><line class="cls-3" x1="386.07" y1="183.47" x2="393.47" y2="176.07"/><line class="cls-3" x1="391.35" y1="210.96" x2="396.64" y2="205.14"/><circle class="cls-3" cx="390.3" cy="274.91" r="1.59"/><circle class="cls-3" cx="396.11" cy="252.71" r="1.59"/><circle class="cls-3" cx="389.77" cy="250.6" r="1.59"/><circle class="cls-3" cx="392.94" cy="256.94" r="1.59"/><circle class="cls-3" cx="382.9" cy="261.17" r="1.59"/><circle class="cls-3" cx="386.6" cy="266.98" r="1.59"/><line class="cls-3" x1="387.65" y1="265.4" x2="391.88" y2="258.52"/><line class="cls-3" x1="385.54" y1="265.4" x2="383.95" y2="262.75"/><line class="cls-3" x1="389.77" y1="273.32" x2="387.13" y2="268.57"/><line class="cls-3" x1="392.41" y1="255.88" x2="390.83" y2="252.18"/><line class="cls-3" x1="394" y1="255.35" x2="395.05" y2="254.3"/><line class="cls-3" x1="378.67" y1="292.35" x2="389.77" y2="276.49"/><line class="cls-3" x1="387.65" y1="299.22" x2="394.53" y2="288.65"/><circle class="cls-3" cx="395.05" cy="287.59" r="1.59"/><line class="cls-3" x1="397.7" y1="323.53" x2="382.37" y2="310.32"/><line class="cls-3" x1="381.31" y1="307.68" x2="382.37" y2="303.98"/><line class="cls-3" x1="372.33" y1="293.94" x2="381.84" y2="301.34"/><circle class="cls-3" cx="381.31" cy="309.26" r="1.59"/><circle class="cls-3" cx="382.9" cy="302.39" r="1.59"/><circle class="cls-3" cx="371.27" cy="292.88" r="1.59"/><circle class="cls-3" cx="363.34" cy="503.24" r="1.59"/><circle class="cls-3" cx="358.06" cy="504.82" r="1.59"/><circle class="cls-3" cx="355.41" cy="514.34" r="1.59"/><line class="cls-3" x1="366.51" y1="489.5" x2="363.87" y2="501.65"/><line class="cls-3" x1="361.76" y1="503.77" x2="359.64" y2="504.3"/><line class="cls-3" x1="357.53" y1="506.41" x2="355.94" y2="512.75"/><circle class="cls-3" cx="354.89" cy="495.84" r="1.59"/><circle class="cls-3" cx="343.26" cy="507.99" r="1.59"/><circle class="cls-3" cx="334.27" cy="504.3" r="1.59"/><circle class="cls-3" cx="328.99" cy="506.41" r="1.59"/><circle class="cls-3" cx="324.76" cy="515.39" r="1.59"/><line class="cls-3" x1="339.03" y1="490.55" x2="334.8" y2="502.71"/><line class="cls-3" x1="353.83" y1="496.9" x2="344.31" y2="506.41"/><line class="cls-3" x1="357" y1="486.85" x2="355.41" y2="494.25"/><line class="cls-3" x1="328.46" y1="507.99" x2="325.29" y2="514.34"/><line class="cls-3" x1="332.69" y1="505.35" x2="330.57" y2="505.88"/><circle class="cls-3" cx="364.93" cy="160.74" r="1.59"/><circle class="cls-3" cx="373.38" cy="153.34" r="1.59"/><circle class="cls-3" cx="361.23" cy="153.34" r="1.59"/><circle class="cls-3" cx="349.6" cy="159.69" r="1.59"/><line class="cls-3" x1="350.66" y1="161.27" x2="359.11" y2="178.19"/><line class="cls-3" x1="363.87" y1="161.8" x2="354.89" y2="169.73"/><line class="cls-3" x1="372.33" y1="154.4" x2="366.51" y2="159.69"/><line class="cls-3" x1="362.28" y1="154.93" x2="363.87" y2="159.16"/><circle class="cls-2" cx="315.19" cy="501.62" r="4.89"/><line class="cls-3" x1="325.5" y1="158.5" x2="319.8" y2="145.47"/><circle class="cls-4" cx="319.87" cy="145.62" r="3.01" transform="matrix(0.92, -0.4, 0.4, 0.92, -31.55, 140.42)"/><path class="cls-5" d="M323,144.26a3.41,3.41,0,1,1-4.49-1.76,3.41,3.41,0,0,1,4.49,1.76Zm-5.51,2.41a2.61,2.61,0,1,0,1.34-3.43,2.61,2.61,0,0,0-1.34,3.43Z"/><line class="cls-2" x1="403" y1="302.95" x2="403" y2="127.55"/><circle class="cls-4" cx="403" cy="302.74" r="3.76"/><path class="cls-5" d="M407.26,302.74A4.26,4.26,0,1,0,403,307a4.26,4.26,0,0,0,4.26-4.26Zm-7.52,0A3.26,3.26,0,1,1,403,306a3.26,3.26,0,0,1-3.26-3.26Z"/><circle class="cls-4" cx="403" cy="127.76" r="3.76"/><path class="cls-5" d="M407.26,127.76A4.26,4.26,0,1,1,403,123.5a4.26,4.26,0,0,1,4.26,4.26Zm-7.52,0A3.26,3.26,0,1,0,403,124.5a3.26,3.26,0,0,0-3.26,3.26Z"/><line class="cls-2" x1="390.03" y1="432.15" x2="383.16" y2="454.88"/><line class="cls-2" x1="390.56" y1="338.07" x2="390.56" y2="426.86"/><line class="cls-2" x1="380.52" y1="326.44" x2="388.45" y2="333.84"/><line class="cls-2" x1="369.16" y1="310.06" x2="376.82" y2="321.68"/><line class="cls-2" x1="349.07" y1="298.96" x2="364.4" y2="305.83"/><line class="cls-2" x1="346.43" y1="260.37" x2="346.43" y2="294.73"/><line class="cls-2" x1="309.7" y1="238.7" x2="343.26" y2="255.62"/><line class="cls-2" x1="311.28" y1="212.81" x2="307.05" y2="234.48"/><line class="cls-2" x1="284.85" y1="200.12" x2="309.17" y2="209.11"/><circle class="cls-2" cx="280.89" cy="198.8" r="3.96"/><line class="cls-2" x1="314.45" y1="196.95" x2="312.87" y2="206.46"/><line class="cls-2" x1="334.54" y1="292.62" x2="343.52" y2="296.31"/><line class="cls-2" x1="312.87" y1="296.84" x2="328.19" y2="292.09"/><line class="cls-2" x1="275.87" y1="272" x2="306.52" y2="295.26"/><line class="cls-2" x1="276.4" y1="256.15" x2="274.28" y2="266.72"/><line class="cls-2" x1="255.26" y1="244.52" x2="273.75" y2="251.92"/><line class="cls-2" x1="292.78" y1="303.19" x2="306" y2="298.96"/><line class="cls-2" x1="267.94" y1="288.92" x2="286.97" y2="302.13"/><line class="cls-2" x1="239.93" y1="302.66" x2="262.66" y2="288.92"/><line class="cls-2" x1="279.57" y1="241.35" x2="277.45" y2="250.86"/><circle class="cls-2" cx="346.16" cy="257.2" r="3.17"/><circle class="cls-2" cx="306.52" cy="237.65" r="3.17"/><circle class="cls-2" cx="311.81" cy="209.63" r="3.17"/><circle class="cls-2" cx="276.93" cy="253.5" r="3.17"/><circle class="cls-2" cx="273.75" cy="269.89" r="3.17"/><circle class="cls-2" cx="346.16" cy="297.9" r="3.17"/><circle class="cls-2" cx="331.37" cy="291.56" r="3.17"/><circle class="cls-2" cx="309.17" cy="297.9" r="3.17"/><circle class="cls-2" cx="289.61" cy="303.71" r="3.17"/><circle class="cls-2" cx="265.3" cy="287.33" r="3.17"/><circle class="cls-2" cx="315.24" cy="192.99" r="3.96"/><line class="cls-2" x1="243.63" y1="272" x2="262.66" y2="285.22"/><circle class="cls-2" cx="367.31" cy="307.41" r="3.17"/><circle class="cls-2" cx="378.41" cy="324.33" r="3.17"/><circle class="cls-2" cx="390.56" cy="335.43" r="3.17"/><circle class="cls-2" cx="390.56" cy="429.51" r="3.17"/><circle class="cls-2" cx="382.63" cy="457.52" r="3.17"/><circle class="cls-2" cx="280.36" cy="237.38" r="3.96"/><circle class="cls-2" cx="251.29" cy="243.2" r="3.96"/><circle class="cls-2" cx="241.25" cy="270.15" r="3.96"/><circle class="cls-2" cx="237.02" cy="304.51" r="3.96"/><polyline class="cls-3" points="379.46 456.99 358.85 465.45 358.06 466.77 355.15 472.85"/><circle class="cls-3" cx="354.49" cy="474.3" r="1.72"/><circle class="cls-3" cx="340.75" cy="478.53" r="1.72"/><line class="cls-3" x1="352.77" y1="474.17" x2="342.2" y2="477.87"/><line class="cls-6" x1="346.16" y1="274.12" x2="321.06" y2="263.28"/><line class="cls-6" x1="319.47" y1="260.64" x2="319.47" y2="256.41"/><line class="cls-6" x1="317.89" y1="253.77" x2="311.02" y2="250.07"/><circle class="cls-6" cx="309.43" cy="249.01" r="1.59"/><circle class="cls-6" cx="319.47" cy="228.93" r="1.59"/><circle class="cls-6" cx="327.93" cy="212.54" r="1.59"/><circle class="cls-6" cx="319.47" cy="254.82" r="1.59"/><circle class="cls-6" cx="319.47" cy="262.22" r="1.59"/><circle class="cls-6" cx="309.43" cy="274.91" r="1.59"/><circle class="cls-6" cx="317.89" cy="274.91" r="1.59"/><circle class="cls-6" cx="287.23" cy="256.41" r="1.59"/><circle class="cls-6" cx="291.46" cy="243.73" r="1.59"/><circle class="cls-6" cx="298.86" cy="256.41" r="1.59"/><circle class="cls-6" cx="295.69" cy="274.91" r="1.59"/><line class="cls-6" x1="297.8" y1="254.82" x2="292.52" y2="245.31"/><line class="cls-6" x1="308.37" y1="273.32" x2="299.92" y2="258"/><line class="cls-6" x1="316.3" y1="274.91" x2="311.02" y2="274.91"/><line class="cls-6" x1="297.27" y1="256.41" x2="288.82" y2="256.41"/><line class="cls-6" x1="307.85" y1="274.91" x2="297.27" y2="274.91"/><line class="cls-6" x1="346.43" y1="284.42" x2="319.47" y2="275.44"/><circle class="cls-3" cx="300.45" cy="195.63" r="1.59"/><circle class="cls-3" cx="301.5" cy="181.89" r="1.59"/><circle class="cls-3" cx="289.87" cy="193.51" r="1.59"/><circle class="cls-3" cx="292.52" cy="225.23" r="1.59"/><circle class="cls-3" cx="299.92" cy="221.53" r="1.59" transform="matrix(0.81, -0.58, 0.58, 0.81, -72.88, 214.8)"/><circle class="cls-3" cx="294.1" cy="208.31" r="1.59"/><line class="cls-6" x1="319.47" y1="243.2" x2="319.47" y2="230.51"/><line class="cls-6" x1="320.53" y1="227.34" x2="326.87" y2="214.13"/><line class="cls-3" x1="299.39" y1="219.94" x2="294.63" y2="209.9"/><line class="cls-3" x1="298.33" y1="222.58" x2="294.1" y2="224.7"/><line class="cls-3" x1="307.32" y1="229.45" x2="300.97" y2="222.58"/><line class="cls-3" x1="298.86" y1="195.63" x2="291.46" y2="194.04"/><line class="cls-3" x1="300.45" y1="194.04" x2="301.5" y2="183.47"/><line class="cls-3" x1="302.03" y1="196.16" x2="313.13" y2="200.38"/><circle class="cls-3" cx="266.09" cy="234.21" r="1.59"/><circle class="cls-3" cx="286.18" cy="220.47" r="1.59"/><circle class="cls-3" cx="276.19" cy="218.18" r="1.59"/><circle class="cls-3" cx="278.78" cy="225.23" r="1.59"/><circle class="cls-3" cx="263.98" cy="225.75" r="1.59"/><circle class="cls-3" cx="262.92" cy="258.52" r="1.59"/><circle class="cls-3" cx="244.95" cy="253.77" r="1.59"/><circle class="cls-3" cx="253.93" cy="264.87" r="1.59"/><circle class="cls-3" cx="233.32" cy="291.29" r="1.59"/><circle class="cls-3" cx="242.31" cy="284.95" r="1.59"/><line class="cls-3" x1="269.26" y1="250.07" x2="266.09" y2="235.8"/><line class="cls-3" x1="265.56" y1="232.63" x2="264.5" y2="227.34"/><line class="cls-3" x1="267.68" y1="233.68" x2="277.72" y2="226.28"/><line class="cls-3" x1="278.78" y1="223.64" x2="277" y2="220"/><line class="cls-3" x1="280.36" y1="224.7" x2="284.59" y2="221.53"/><line class="cls-3" x1="255.52" y1="293.41" x2="243.89" y2="286.01"/><line class="cls-3" x1="240.72" y1="286.01" x2="234.38" y2="290.24"/><line class="cls-3" x1="253.93" y1="278.61" x2="253.93" y2="266.45"/><line class="cls-3" x1="246.01" y1="254.82" x2="252.88" y2="263.28"/><line class="cls-3" x1="261.33" y1="259.58" x2="255.52" y2="264.34"/><line class="cls-6" x1="356.47" y1="302.39" x2="357" y2="278.61"/><line class="cls-6" x1="361.76" y1="265.92" x2="364.4" y2="260.11"/><line class="cls-6" x1="360.17" y1="265.92" x2="355.41" y2="259.05"/><line class="cls-6" x1="358.06" y1="274.91" x2="360.17" y2="269.1"/><circle class="cls-6" cx="357" cy="276.49" r="1.59"/><circle class="cls-6" cx="365.46" cy="258.52" r="1.59"/><circle class="cls-6" cx="354.36" cy="258" r="1.59"/><circle class="cls-6" cx="361.23" cy="267.51" r="1.59"/><circle class="cls-3" cx="365.59" cy="478" r="1.72"/><circle class="cls-3" cx="368.23" cy="470.07" r="1.72"/><circle class="cls-3" cx="374.57" cy="470.07" r="1.72"/><line class="cls-3" x1="367.57" y1="472.05" x2="366.51" y2="476.28"/><line class="cls-3" x1="372.86" y1="470.47" x2="370.21" y2="470.47"/><line class="cls-3" x1="376.56" y1="458.31" x2="374.97" y2="468.35"/><line class="cls-7" x1="233" y1="278" x2="210.09" y2="270.95"/><circle class="cls-4" cx="210.26" cy="271" r="3.01" transform="translate(-110.6 392.26) rotate(-72.9)"/><path class="cls-5" d="M211.26,267.75A3.41,3.41,0,1,1,207,270a3.41,3.41,0,0,1,4.26-2.25Zm-1.77,5.75a2.61,2.61,0,1,0-1.73-3.26,2.61,2.61,0,0,0,1.73,3.26Z"/><line class="cls-3" x1="275.25" y1="217.25" x2="251.17" y2="195.9"/><circle class="cls-4" cx="251.3" cy="196.01" r="3.01" transform="translate(-62.09 253.98) rotate(-48.43)"/><path class="cls-5" d="M253.56,193.46a3.41,3.41,0,1,1-4.81.29,3.41,3.41,0,0,1,4.81-.29Zm-4,4.5a2.61,2.61,0,1,0-.22-3.68,2.61,2.61,0,0,0,.22,3.68Z"/><path class="cls-8" d="M319.5,141.5"/><path class="cls-8" d="M326.5,159.5"/><path class="cls-2" d="M333.07,463a88.11,88.11,0,0,1,53.53-32.95"/><circle class="cls-2" cx="330.32" cy="466.97" r="3.96"/><line class="cls-3" x1="339.43" y1="477.43" x2="332.58" y2="469.96"/><path class="cls-2" d="M490.52,506.41a89.06,89.06,0,0,1,.59,10.26,88.13,88.13,0,1,1-176.26,0c0-3.57,0-6.85.25-10.17"/><path class="cls-9" d="M376.88,574.56h6.26l.13.93-.64-.05q-.51,0-1.41,0h-4.27a.82.82,0,0,0-.59.17,1.62,1.62,0,0,0-.11.65v1.7a1.17,1.17,0,0,0,.13.65c.08.12.28.17.58.17h4.26a3,3,0,0,1,1.79.4,2,2,0,0,1,.5,1.58v2.06a2,2,0,0,1-.51,1.54,2.75,2.75,0,0,1-1.78.44h-6.38l-.14-.94.64.06q.51,0,1.39,0h4.43a.7.7,0,0,0,.57-.18,1.13,1.13,0,0,0,.14-.66v-2a1.43,1.43,0,0,0-.1-.66q-.1-.18-.6-.18h-4.26a3.25,3.25,0,0,1-1.78-.38,1.25,1.25,0,0,1-.38-.61,3.18,3.18,0,0,1-.14-1v-1.77a2,2,0,0,1,.5-1.58A3,3,0,0,1,376.88,574.56Z"/><path class="cls-9" d="M389,584.79h-2l-2.22-8.11-.27-1-.43-1.16h2.08l0,.36,0,.23v.24l.07.29.15.62,2,7.54,2.37-9.28h2l2.5,9.29,2-7.76.09-.4,0-.33,0-.79h1.31a6.81,6.81,0,0,0-.38.83l-.32,1-2.12,8.37h-1.92l-2.56-9.39Z"/><path class="cls-9" d="M401.52,576.16v7a7.73,7.73,0,0,0,.14,1.6h-1.94a6.92,6.92,0,0,0,.14-1.6v-7a7.73,7.73,0,0,0-.14-1.6h1.94A6.92,6.92,0,0,0,401.52,576.16Z"/><path class="cls-9" d="M406.17,575.4h-1.58l-1,0-.9.1.16-1h8.34l.16,1-.82-.1-1.1,0h-1.58v7.79a7.73,7.73,0,0,0,.14,1.6H406a6.92,6.92,0,0,0,.14-1.6Z"/><path class="cls-9" d="M414.36,574.56h5.55l.1,1-.43-.12a1.92,1.92,0,0,0-.5-.05h-4.66a.76.76,0,0,0-.58.18,1.28,1.28,0,0,0-.13.65v6.9a1.18,1.18,0,0,0,.13.65q.13.18.58.18h3.52a10.06,10.06,0,0,0,2.21-.19l-.1,1h-5.7a2.92,2.92,0,0,1-1.78-.41,1.94,1.94,0,0,1-.51-1.57v-6.26a2,2,0,0,1,.5-1.58A3,3,0,0,1,414.36,574.56Z"/><path class="cls-9" d="M429.05,580h-6v3.2a7.68,7.68,0,0,0,.14,1.6h-2l.1-.42.06-.35v-7.86a7.52,7.52,0,0,0-.16-1.6h2a6.83,6.83,0,0,0-.14,1.59v3h6v-3a7.7,7.7,0,0,0-.14-1.59h1.94a6.92,6.92,0,0,0-.14,1.6v7a7.73,7.73,0,0,0,.14,1.6h-1.94a6.94,6.94,0,0,0,.14-1.6Z"/><circle class="cls-3" cx="367.66" cy="606.4" r="1.59"/><circle class="cls-3" cx="380.73" cy="610.76" r="1.59"/><circle class="cls-3" cx="387.59" cy="612.01" r="1.59"/><circle class="cls-3" cx="360.8" cy="603.29" r="1.59"/><circle class="cls-3" cx="374.51" cy="608.9" r="1.59"/><circle class="cls-3" cx="438.66" cy="606.4" r="1.59"/><circle class="cls-3" cx="425.58" cy="610.76" r="1.59"/><circle class="cls-3" cx="418.73" cy="612.01" r="1.59"/><circle class="cls-3" cx="445.51" cy="603.29" r="1.59"/><circle class="cls-3" cx="431.81" cy="608.9" r="1.59"/><path class="cls-1" d="M496.07,504.29"/><path class="cls-1" d="M485.64,499.2"/><line class="cls-2" x1="459.29" y1="486.32" x2="485.64" y2="499.2"/><line class="cls-2" x1="427.05" y1="491.61" x2="452.95" y2="485.27"/><line class="cls-2" x1="411.72" y1="460.43" x2="422.29" y2="490.02"/><line class="cls-2" x1="412.25" y1="448.27" x2="410.67" y2="454.61"/><line class="cls-2" x1="408.02" y1="425.54" x2="412.25" y2="441.93"/><line class="cls-2" x1="407.49" y1="312.96" x2="407.49" y2="419.2"/><line class="cls-2" x1="437.09" y1="283.37" x2="409.61" y2="307.68"/><line class="cls-2" x1="421.24" y1="240.55" x2="438.15" y2="277.55"/><line class="cls-2" x1="417.89" y1="195.61" x2="413.31" y2="218.88"/><line class="cls-2" x1="422.82" y1="168.67" x2="419.47" y2="188.21"/><line class="cls-2" x1="414.89" y1="149.12" x2="422.29" y2="162.86"/><circle class="cls-2" cx="413.04" cy="145.68" r="3.96"/><circle class="cls-2" cx="413.31" cy="222.05" r="3.17"/><circle class="cls-2" cx="438.68" cy="280.72" r="3.17"/><circle class="cls-2" cx="407.49" cy="309.79" r="3.17"/><circle class="cls-2" cx="407.49" cy="422.37" r="3.17"/><circle class="cls-2" cx="412.78" cy="445.1" r="3.17"/><circle class="cls-2" cx="410.67" cy="457.26" r="3.17"/><circle class="cls-2" cx="423.35" cy="492.67" r="3.17"/><circle class="cls-2" cx="456.12" cy="484.74" r="3.17"/><circle class="cls-2" cx="423.35" cy="165.5" r="3.17"/><line class="cls-2" x1="437.09" y1="177.13" x2="421.24" y2="190.87"/><line class="cls-2" x1="452.95" y1="182.94" x2="442.38" y2="176.6"/><line class="cls-2" x1="477.56" y1="165.03" x2="458.76" y2="181.89"/><line class="cls-2" x1="451.1" y1="217.03" x2="440.53" y2="223.9"/><line class="cls-2" x1="466.16" y1="218.36" x2="457.71" y2="216.24"/><line class="cls-2" x1="488.36" y1="176.6" x2="470.39" y2="215.71"/><line class="cls-2" x1="433.39" y1="198.8" x2="436.93" y2="222.52"/><line class="cls-2" x1="446.87" y1="245.05" x2="429.96" y2="234.48"/><line class="cls-2" x1="473.83" y1="234.48" x2="453.74" y2="245.05"/><circle class="cls-2" cx="456.12" cy="183.47" r="3.17"/><circle class="cls-2" cx="439.73" cy="175.01" r="3.17"/><circle class="cls-2" cx="419.12" cy="191.93" r="3.17"/><circle class="cls-2" cx="437.62" cy="225.75" r="3.17"/><circle class="cls-2" cx="432.86" cy="195.63" r="3.17"/><circle class="cls-2" cx="428.11" cy="233.15" r="3.17"/><circle class="cls-2" cx="420.18" cy="237.38" r="3.17"/><circle class="cls-2" cx="450.31" cy="246.37" r="3.17"/><circle class="cls-2" cx="476.2" cy="233.15" r="3.17"/><circle class="cls-2" cx="454.01" cy="215.18" r="3.17"/><circle class="cls-2" cx="469.33" cy="218.88" r="3.17"/><line class="cls-2" x1="414.89" y1="225.75" x2="418.86" y2="234.48"/><line class="cls-2" x1="425.73" y1="233.95" x2="423.09" y2="235.53"/><line class="cls-2" x1="434.96" y1="227.67" x2="430.2" y2="230.84"/><circle class="cls-2" cx="489.95" cy="173.43" r="3.96"/><circle class="cls-2" cx="480.73" cy="162.86" r="3.96"/><circle class="cls-3" cx="482.02" cy="178.19" r="1.59"/><circle class="cls-3" cx="468.75" cy="178.19" r="1.59" transform="translate(151.47 566.53) rotate(-71.57)"/><circle class="cls-3" cx="470.92" cy="196.16" r="1.59"/><circle class="cls-3" cx="464.58" cy="186.64" r="1.59" transform="translate(76.73 503.25) rotate(-61.11)"/><circle class="cls-3" cx="467.22" cy="198.8" r="1.59"/><circle class="cls-3" cx="447.13" cy="187.7" r="1.59"/><circle class="cls-3" cx="458.76" cy="198.27" r="1.59"/><circle class="cls-3" cx="447.13" cy="198.27" r="1.59"/><circle class="cls-3" cx="447.13" cy="204.61" r="1.59"/><circle class="cls-3" cx="475.15" cy="194.04" r="1.59"/><line class="cls-3" x1="468.22" y1="179.77" x2="465.1" y2="185.06"/><line class="cls-3" x1="447.13" y1="189.29" x2="447.13" y2="196.69"/><line class="cls-3" x1="447.13" y1="199.86" x2="447.13" y2="203.03"/><line class="cls-3" x1="457.18" y1="198.27" x2="448.72" y2="198.27"/><line class="cls-3" x1="465.63" y1="188.23" x2="469.86" y2="194.57"/><line class="cls-3" x1="481.49" y1="179.77" x2="475.68" y2="192.46"/><line class="cls-3" x1="445.55" y1="205.67" x2="436.04" y2="210.96"/><line class="cls-3" x1="466.69" y1="200.38" x2="459.82" y2="216.77"/><line class="cls-3" x1="469.86" y1="197.21" x2="468.8" y2="197.74"/><circle class="cls-3" cx="408.02" cy="204.08" r="1.59"/><circle class="cls-3" cx="411.19" cy="175.01" r="1.59"/><circle class="cls-3" cx="425.46" cy="149.65" r="1.59"/><line class="cls-3" x1="424.41" y1="150.7" x2="419.12" y2="155.46"/><line class="cls-3" x1="419.65" y1="183.47" x2="412.25" y2="176.07"/><line class="cls-3" x1="414.36" y1="210.96" x2="409.08" y2="205.14"/><circle class="cls-3" cx="415.42" cy="274.91" r="1.59"/><circle class="cls-3" cx="409.61" cy="252.71" r="1.59"/><circle class="cls-3" cx="415.95" cy="250.6" r="1.59"/><circle class="cls-3" cx="412.78" cy="256.94" r="1.59"/><circle class="cls-3" cx="422.82" cy="261.17" r="1.59"/><circle class="cls-3" cx="419.12" cy="266.98" r="1.59"/><line class="cls-3" x1="418.06" y1="265.4" x2="413.84" y2="258.52"/><line class="cls-3" x1="420.18" y1="265.4" x2="421.76" y2="262.75"/><line class="cls-3" x1="415.95" y1="273.32" x2="418.59" y2="268.57"/><line class="cls-3" x1="413.31" y1="255.88" x2="414.89" y2="252.18"/><line class="cls-3" x1="411.72" y1="255.35" x2="410.67" y2="254.3"/><line class="cls-3" x1="427.05" y1="292.35" x2="415.95" y2="276.49"/><line class="cls-3" x1="418.06" y1="299.22" x2="411.19" y2="288.65"/><circle class="cls-3" cx="410.67" cy="287.59" r="1.59"/><line class="cls-3" x1="408.02" y1="323.53" x2="423.35" y2="310.32"/><line class="cls-3" x1="424.41" y1="307.68" x2="423.35" y2="303.98"/><line class="cls-3" x1="433.39" y1="293.94" x2="423.88" y2="301.34"/><circle class="cls-3" cx="424.41" cy="309.26" r="1.59"/><circle class="cls-3" cx="422.82" cy="302.39" r="1.59"/><circle class="cls-3" cx="434.45" cy="292.88" r="1.59"/><circle class="cls-3" cx="442.38" cy="503.24" r="1.59"/><circle class="cls-3" cx="447.66" cy="504.82" r="1.59"/><circle class="cls-3" cx="450.31" cy="514.34" r="1.59"/><line class="cls-3" x1="439.21" y1="489.5" x2="441.85" y2="501.65"/><line class="cls-3" x1="443.96" y1="503.77" x2="446.08" y2="504.3"/><line class="cls-3" x1="448.19" y1="506.41" x2="449.78" y2="512.75"/><circle class="cls-3" cx="450.83" cy="495.84" r="1.59"/><circle class="cls-3" cx="462.46" cy="507.99" r="1.59"/><circle class="cls-3" cx="471.45" cy="504.3" r="1.59"/><circle class="cls-3" cx="476.73" cy="506.41" r="1.59"/><circle class="cls-3" cx="480.96" cy="515.39" r="1.59"/><line class="cls-3" x1="466.69" y1="490.55" x2="470.92" y2="502.71"/><line class="cls-3" x1="451.89" y1="496.9" x2="461.4" y2="506.41"/><line class="cls-3" x1="448.72" y1="486.85" x2="450.31" y2="494.25"/><line class="cls-3" x1="477.26" y1="507.99" x2="480.43" y2="514.34"/><line class="cls-3" x1="473.03" y1="505.35" x2="475.15" y2="505.88"/><circle class="cls-3" cx="440.79" cy="160.74" r="1.59"/><circle class="cls-3" cx="432.34" cy="153.34" r="1.59"/><circle class="cls-3" cx="444.49" cy="153.34" r="1.59"/><circle class="cls-3" cx="456.12" cy="159.69" r="1.59"/><line class="cls-3" x1="455.06" y1="161.27" x2="446.61" y2="178.19"/><line class="cls-3" x1="441.85" y1="161.8" x2="450.83" y2="169.73"/><line class="cls-3" x1="433.39" y1="154.4" x2="439.21" y2="159.69"/><line class="cls-3" x1="443.43" y1="154.93" x2="441.85" y2="159.16"/><circle class="cls-2" cx="490.53" cy="501.62" r="4.89"/><line class="cls-3" x1="482.5" y1="159.5" x2="489.12" y2="145.43"/><circle class="cls-4" cx="489.05" cy="145.58" r="3.01" transform="translate(149.09 526.1) rotate(-64.8)"/><path class="cls-5" d="M492.13,147a3.41,3.41,0,1,1-1.63-4.53,3.41,3.41,0,0,1,1.63,4.53Zm-5.44-2.56a2.61,2.61,0,1,0,3.47-1.25,2.61,2.61,0,0,0-3.47,1.25Z"/><line class="cls-2" x1="415.69" y1="432.15" x2="422.56" y2="454.88"/><line class="cls-2" x1="415.16" y1="338.07" x2="415.16" y2="426.86"/><line class="cls-2" x1="425.2" y1="326.44" x2="417.27" y2="333.84"/><line class="cls-2" x1="436.56" y1="310.06" x2="428.9" y2="321.68"/><line class="cls-2" x1="456.65" y1="298.96" x2="441.32" y2="305.83"/><line class="cls-2" x1="459.29" y1="260.37" x2="459.29" y2="294.73"/><line class="cls-2" x1="496.02" y1="238.7" x2="462.46" y2="255.62"/><line class="cls-2" x1="494.44" y1="212.81" x2="498.67" y2="234.48"/><line class="cls-2" x1="520.87" y1="200.12" x2="496.55" y2="209.11"/><circle class="cls-2" cx="524.83" cy="198.8" r="3.96"/><line class="cls-2" x1="491.27" y1="196.95" x2="492.85" y2="206.46"/><line class="cls-2" x1="471.18" y1="292.62" x2="462.2" y2="296.31"/><line class="cls-2" x1="492.85" y1="296.84" x2="477.53" y2="292.09"/><line class="cls-2" x1="529.85" y1="272" x2="499.2" y2="295.26"/><line class="cls-2" x1="529.32" y1="256.15" x2="531.44" y2="266.72"/><line class="cls-2" x1="550.46" y1="244.52" x2="531.96" y2="251.92"/><line class="cls-2" x1="512.94" y1="303.19" x2="499.72" y2="298.96"/><line class="cls-2" x1="537.78" y1="288.92" x2="518.75" y2="302.13"/><line class="cls-2" x1="565.79" y1="302.66" x2="543.06" y2="288.92"/><line class="cls-2" x1="526.15" y1="241.35" x2="528.27" y2="250.86"/><circle class="cls-2" cx="459.56" cy="257.2" r="3.17"/><circle class="cls-2" cx="499.2" cy="237.65" r="3.17"/><circle class="cls-2" cx="493.91" cy="209.63" r="3.17"/><circle class="cls-2" cx="528.79" cy="253.5" r="3.17"/><circle class="cls-2" cx="531.96" cy="269.89" r="3.17"/><circle class="cls-2" cx="459.56" cy="297.9" r="3.17"/><circle class="cls-2" cx="474.35" cy="291.56" r="3.17"/><circle class="cls-2" cx="496.55" cy="297.9" r="3.17"/><circle class="cls-2" cx="516.11" cy="303.71" r="3.17"/><circle class="cls-2" cx="540.42" cy="287.33" r="3.17"/><circle class="cls-2" cx="490.47" cy="192.99" r="3.96"/><line class="cls-2" x1="562.09" y1="272" x2="543.06" y2="285.22"/><circle class="cls-2" cx="438.41" cy="307.41" r="3.17"/><circle class="cls-2" cx="427.31" cy="324.33" r="3.17"/><circle class="cls-2" cx="415.16" cy="335.43" r="3.17"/><circle class="cls-2" cx="415.16" cy="429.51" r="3.17"/><circle class="cls-2" cx="423.09" cy="457.52" r="3.17"/><circle class="cls-2" cx="525.36" cy="237.38" r="3.96"/><circle class="cls-2" cx="554.43" cy="243.2" r="3.96"/><circle class="cls-2" cx="564.47" cy="270.15" r="3.96"/><circle class="cls-2" cx="568.7" cy="304.51" r="3.96"/><polyline class="cls-3" points="426.26 456.99 446.87 465.45 447.66 466.77 450.57 472.85"/><circle class="cls-3" cx="451.23" cy="474.3" r="1.72"/><circle class="cls-3" cx="464.97" cy="478.53" r="1.72"/><line class="cls-3" x1="452.95" y1="474.17" x2="463.52" y2="477.87"/><line class="cls-6" x1="459.56" y1="274.12" x2="484.66" y2="263.28"/><line class="cls-6" x1="486.25" y1="260.64" x2="486.25" y2="256.41"/><line class="cls-6" x1="487.83" y1="253.77" x2="494.7" y2="250.07"/><circle class="cls-6" cx="496.29" cy="249.01" r="1.59"/><circle class="cls-6" cx="486.25" cy="228.93" r="1.59"/><circle class="cls-6" cx="477.79" cy="212.54" r="1.59"/><circle class="cls-6" cx="486.25" cy="254.82" r="1.59"/><circle class="cls-6" cx="486.25" cy="262.22" r="1.59"/><circle class="cls-6" cx="496.29" cy="274.91" r="1.59"/><circle class="cls-6" cx="487.83" cy="274.91" r="1.59"/><circle class="cls-6" cx="518.49" cy="256.41" r="1.59"/><circle class="cls-6" cx="514.26" cy="243.73" r="1.59"/><circle class="cls-6" cx="506.86" cy="256.41" r="1.59"/><circle class="cls-6" cx="510.03" cy="274.91" r="1.59"/><line class="cls-6" x1="507.92" y1="254.82" x2="513.2" y2="245.31"/><line class="cls-6" x1="497.35" y1="273.32" x2="505.8" y2="258"/><line class="cls-6" x1="489.42" y1="274.91" x2="494.7" y2="274.91"/><line class="cls-6" x1="508.44" y1="256.41" x2="516.9" y2="256.41"/><line class="cls-6" x1="497.87" y1="274.91" x2="508.44" y2="274.91"/><line class="cls-6" x1="459.29" y1="284.42" x2="486.25" y2="275.44"/><circle class="cls-3" cx="505.27" cy="195.63" r="1.59"/><circle class="cls-3" cx="504.22" cy="181.89" r="1.59"/><circle class="cls-3" cx="515.84" cy="193.51" r="1.59"/><circle class="cls-3" cx="513.2" cy="225.23" r="1.59"/><circle class="cls-3" cx="505.8" cy="221.53" r="1.59" transform="translate(32.14 505.35) rotate(-54.58)"/><circle class="cls-3" cx="511.62" cy="208.31" r="1.59"/><line class="cls-6" x1="486.25" y1="243.2" x2="486.25" y2="230.51"/><line class="cls-6" x1="485.19" y1="227.34" x2="478.85" y2="214.13"/><line class="cls-3" x1="506.33" y1="219.94" x2="511.09" y2="209.9"/><line class="cls-3" x1="507.39" y1="222.58" x2="511.62" y2="224.7"/><line class="cls-3" x1="498.4" y1="229.45" x2="504.75" y2="222.58"/><line class="cls-3" x1="506.86" y1="195.63" x2="514.26" y2="194.04"/><line class="cls-3" x1="505.27" y1="194.04" x2="504.22" y2="183.47"/><line class="cls-3" x1="503.69" y1="196.16" x2="492.59" y2="200.38"/><circle class="cls-3" cx="539.63" cy="234.21" r="1.59"/><circle class="cls-3" cx="519.54" cy="220.47" r="1.59"/><circle class="cls-3" cx="527.53" cy="215.18" r="1.59"/><circle class="cls-6" cx="526" cy="224" r="1.59"/><circle class="cls-3" cx="541.74" cy="225.75" r="1.59"/><circle class="cls-3" cx="542.8" cy="258.52" r="1.59"/><circle class="cls-3" cx="560.77" cy="253.77" r="1.59"/><circle class="cls-3" cx="551.79" cy="264.87" r="1.59"/><circle class="cls-3" cx="571.4" cy="291.29" r="1.59"/><circle class="cls-3" cx="563.41" cy="284.95" r="1.59"/><line class="cls-3" x1="536.46" y1="250.07" x2="539.63" y2="235.8"/><line class="cls-3" x1="540.16" y1="232.63" x2="541.21" y2="227.34"/><line class="cls-3" x1="538.04" y1="233.68" x2="527" y2="225.28"/><line class="cls-3" x1="525.94" y1="222.64" x2="527" y2="216.77"/><line class="cls-3" x1="524.36" y1="223.7" x2="521.13" y2="221.53"/><line class="cls-3" x1="550.2" y1="293.41" x2="561.83" y2="286.01"/><line class="cls-3" x1="564" y1="284.01" x2="570.34" y2="278.24"/><line class="cls-3" x1="551.79" y1="278.61" x2="551.79" y2="266.45"/><line class="cls-3" x1="559.71" y1="254.82" x2="552.84" y2="263.28"/><line class="cls-3" x1="544.39" y1="259.58" x2="550.2" y2="264.34"/><line class="cls-6" x1="449.25" y1="302.39" x2="448.72" y2="278.61"/><line class="cls-6" x1="443.96" y1="265.92" x2="441.32" y2="260.11"/><line class="cls-6" x1="445.55" y1="265.92" x2="450.31" y2="259.05"/><line class="cls-6" x1="447.66" y1="274.91" x2="445.55" y2="269.1"/><circle class="cls-6" cx="448.72" cy="276.49" r="1.59"/><circle class="cls-6" cx="440.26" cy="258.52" r="1.59"/><circle class="cls-6" cx="451.36" cy="258" r="1.59"/><circle class="cls-6" cx="444.49" cy="267.51" r="1.59"/><circle class="cls-3" cx="440.13" cy="478" r="1.72"/><circle class="cls-3" cx="437.49" cy="470.07" r="1.72"/><circle class="cls-3" cx="431.15" cy="470.07" r="1.72"/><line class="cls-3" x1="438.15" y1="472.05" x2="439.21" y2="476.28"/><line class="cls-3" x1="432.86" y1="470.47" x2="435.51" y2="470.47"/><line class="cls-3" x1="429.16" y1="458.31" x2="430.75" y2="468.35"/><line class="cls-3" x1="527.5" y1="222.5" x2="557.06" y2="196.63"/><circle class="cls-4" cx="556.94" cy="196.74" r="3.01" transform="translate(8.24 415.43) rotate(-41.19)"/><path class="cls-5" d="M559.18,199.31a3.41,3.41,0,1,1,.32-4.81,3.41,3.41,0,0,1-.32,4.81Zm-4-4.53a2.61,2.61,0,1,0,3.68.25,2.61,2.61,0,0,0-3.68-.25Z"/><line class="cls-3" x1="571.44" y1="276.92" x2="596.4" y2="269.43"/><circle class="cls-4" cx="571.54" cy="276.89" r="1.88" transform="translate(-55.46 175.91) rotate(-16.7)"/><path class="cls-5" d="M572.15,278.93a2.13,2.13,0,1,0-2.65-1.43,2.13,2.13,0,0,0,2.65,1.43Zm-1.08-3.6a1.63,1.63,0,1,1-1.09,2,1.63,1.63,0,0,1,1.09-2Z"/><circle class="cls-4" cx="596.24" cy="269.48" r="3.01" transform="translate(-52.29 182.69) rotate(-16.7)"/><path class="cls-5" d="M597.22,272.74a3.41,3.41,0,1,1,2.28-4.24,3.41,3.41,0,0,1-2.28,4.24ZM595.49,267a2.61,2.61,0,1,0,3.25,1.75,2.61,2.61,0,0,0-3.25-1.75Z"/><line class="cls-3" x1="564.5" y1="286.5" x2="570.5" y2="290.5"/><path class="cls-2" d="M472.65,463a88.11,88.11,0,0,0-53.53-32.95"/><circle class="cls-2" cx="475.4" cy="466.97" r="3.96"/><line class="cls-3" x1="466.28" y1="477.43" x2="473.14" y2="469.96"/><line class="cls-3" x1="241" y1="284" x2="234.11" y2="278.73"/><circle class="cls-4" cx="234.19" cy="278.79" r="1.88" transform="translate(-129.53 295.47) rotate(-52.59)"/><path class="cls-5" d="M235.49,277.1a2.13,2.13,0,1,1-3,.4,2.13,2.13,0,0,1,3-.4Zm-2.28,3a1.63,1.63,0,1,0-.3-2.28,1.63,1.63,0,0,0,.3,2.28Z"/><circle class="cls-10" cx="308.81" cy="115.1" r="26.81"/><path d="M290.73,110.08h5l.05.58-.39,0c-.21,0-.51,0-.87,0h-2.64V113H295l.55-.08v.66l-.43,0-.89,0h-2.4V116h2.64l.79,0h.22l.25,0-.05.59h-5l.06-.26,0-.22v-4.94A4.76,4.76,0,0,0,290.73,110.08Z"/><path d="M302.42,111.32v1.52a1.26,1.26,0,0,1-.31,1,1.71,1.71,0,0,1-1.12.28h-3.42v1.41a4.85,4.85,0,0,0,.09,1h-1.23l.06-.26,0-.22v-4.94a4.7,4.7,0,0,0-.1-1H301a1.74,1.74,0,0,1,1.12.26.89.89,0,0,1,.23.36l.06.27Zm-4.85,2.25H301a.42.42,0,0,0,.35-.11.71.71,0,0,0,.08-.41v-1.92a.88.88,0,0,0-.07-.41c0-.07-.17-.11-.37-.11h-3.38Z"/><path d="M307.71,117.76h-5.08v-.5h5.08Z"/><path d="M314.89,116.5h-1.36v-.22a.47.47,0,0,0-.09-.24l-.28-.58-.44-.93h-3.48l-.53,1.08-.23.57,0,.32h-.85a2.85,2.85,0,0,0,.45-.69l2.59-5.34-.13-.2-.22-.2h1.33l2.6,5.27.37.69A3,3,0,0,0,314.89,116.5Zm-2.4-2.49L311,111,309.5,114Z"/><path d="M315.33,115.5v-4.42l0-.58,0-.23,0-.19h4.5a1.74,1.74,0,0,1,1.12.26.91.91,0,0,1,.23.36l.06.27v1.39a.89.89,0,0,1-.2.67,1,1,0,0,1-.68.19,1.37,1.37,0,0,1,.4,0l.16.06.13.09a1,1,0,0,1,.19.68v1.16a1.26,1.26,0,0,1-.31,1,1.7,1.7,0,0,1-1.12.28h-4.48l.07-.42Zm1-4.9v2.32h3.3a.43.43,0,0,0,.35-.11.71.71,0,0,0,.09-.41v-1.28a.9.9,0,0,0-.07-.41c0-.07-.17-.11-.37-.11Zm0,2.79V116h3.3a.42.42,0,0,0,.35-.11.71.71,0,0,0,.09-.41v-1.55a.9.9,0,0,0-.07-.41c0-.07-.17-.11-.37-.11Z"/><path d="M323.49,110.08H327l.06.63-.27-.08a1.24,1.24,0,0,0-.31,0h-2.93a.48.48,0,0,0-.36.11.81.81,0,0,0-.08.41v4.34a.74.74,0,0,0,.08.41c.05.07.17.11.36.11h2.21a6.33,6.33,0,0,0,1.39-.12l-.06.64h-3.58a1.83,1.83,0,0,1-1.12-.26,1.22,1.22,0,0,1-.32-1v-3.93a1.24,1.24,0,0,1,.31-1A1.85,1.85,0,0,1,323.49,110.08Z"/><path class="cls-11" d="M282.61,37.73a8.88,8.88,0,0,1,6.52-3.61A8.86,8.86,0,0,1,287,40.75c-2.89,3.48-6.18,2.91-6.18,2.91S280.18,40.93,282.61,37.73Z"/><path class="cls-11" d="M281.15,46c1.4,0,4-1.93,7.39-1.93a9.26,9.26,0,0,1,8.13,4.15,9,9,0,0,0-4.49,7.86,9.24,9.24,0,0,0,5.59,8.45s-3.91,11-9.19,11c-2.42,0-4.31-1.63-6.86-1.63s-5.19,1.69-6.87,1.69c-4.82,0-10.91-10.43-10.91-18.82s5.15-12.58,10-12.58C277.07,44.22,279.51,46,281.15,46Z"/><circle class="cls-12" cx="280.86" cy="54.87" r="28.09"/><line class="cls-10" x1="289.96" y1="79.92" x2="295.83" y2="93.32"/><circle class="cls-13" cx="227.55" cy="173.75" r="26.81"/><path class="cls-14" d="M207.94,168.72h5l0,.58-.39,0c-.21,0-.51,0-.87,0h-2.64v2.42h3.18l.55-.08v.66l-.43,0-.89,0h-2.4v2.43h2.64l.79,0h.22l.25,0,0,.59h-5l.06-.26,0-.22v-4.94A4.7,4.7,0,0,0,207.94,168.72Z"/><path class="cls-14" d="M219.63,170v1.52a1.26,1.26,0,0,1-.31,1,1.71,1.71,0,0,1-1.12.28h-3.42v1.41a4.84,4.84,0,0,0,.09,1h-1.23l.06-.26,0-.22v-4.94a4.76,4.76,0,0,0-.1-1h4.57a1.74,1.74,0,0,1,1.12.26.9.9,0,0,1,.23.36l.06.27Zm-4.85,2.24h3.38a.42.42,0,0,0,.35-.11.7.7,0,0,0,.09-.41v-1.92a.9.9,0,0,0-.07-.41c0-.07-.17-.11-.37-.11h-3.38Z"/><path class="cls-14" d="M224.92,176.4h-5.08v-.5h5.08Z"/><path class="cls-14" d="M226.43,169.71v4.4a.74.74,0,0,0,.08.41c.05.07.17.11.36.11h2.9a.42.42,0,0,0,.35-.11.71.71,0,0,0,.08-.41v-2.27h-2.49a2,2,0,0,0-.7.12v-.64h4.3l-.07.64v2.19a5,5,0,0,0,.07,1h-.93l-.1-.42a.59.59,0,0,1-.21.35,2,2,0,0,1-.59.07h-2.72a1.78,1.78,0,0,1-1.07-.23,1.11,1.11,0,0,1-.29-.89v-4.17a1.14,1.14,0,0,1,.28-.88,1.7,1.7,0,0,1,1.08-.25H231l0,.59-.56-.1-.75,0h-2.88a.48.48,0,0,0-.36.11A.81.81,0,0,0,226.43,169.71Z"/><path class="cls-14" d="M232.36,174.14v-4.42l0-.58,0-.23,0-.19h4.5a1.74,1.74,0,0,1,1.12.26.9.9,0,0,1,.23.36l.06.27V171a.89.89,0,0,1-.2.67,1,1,0,0,1-.68.19,1.38,1.38,0,0,1,.4,0l.16.06.13.09a1,1,0,0,1,.19.68v1.16a1.26,1.26,0,0,1-.31,1,1.71,1.71,0,0,1-1.12.28h-4.48l.07-.42Zm1-4.9v2.32h3.3a.43.43,0,0,0,.35-.11.71.71,0,0,0,.08-.41v-1.28a.9.9,0,0,0-.06-.41c0-.07-.17-.11-.37-.11Zm0,2.78v2.59h3.3a.42.42,0,0,0,.35-.11.71.71,0,0,0,.08-.41v-1.55a.9.9,0,0,0-.06-.41c0-.07-.17-.11-.37-.11Z"/><path class="cls-14" d="M239.8,175.15h-.71l.08-.3,0-.37v-4.25a7.08,7.08,0,0,0-.11-1.51h1.45l2.57,5.71,2.54-5.71h1.4l0,.23-.06.37,0,.61v4.21a4.83,4.83,0,0,0,.09,1h-1.22a4.31,4.31,0,0,0,.09-1v-4.72l-2.57,5.72h-1l-2.6-5.73,0,4.81v.49Z"/><g id="_Grupo_" data-name="&lt;Grupo&gt;"><path id="_Trazado_" data-name="&lt;Trazado&gt;" class="cls-14" d="M175.23,151.53h0a21,21,0,0,1-21-21h0a21,21,0,0,1,21-21h0a21,21,0,0,1,21,21h0A21,21,0,0,1,175.23,151.53Z"/><g id="_Grupo_2" data-name="&lt;Grupo&gt;"><path id="_Trazado_2" data-name="&lt;Trazado&gt;" class="cls-4" d="M177.86,129.94h-8.5v2.43h5.73c-.68,3-2.77,4.78-5.58,4.78a6.67,6.67,0,1,1,4.53-11.56l1.88-1.62a9.14,9.14,0,1,0-6.41,15.65c4.85,0,8.35-3.7,8.35-8.75Z"/><polygon id="_Trazado_3" data-name="&lt;Trazado&gt;" class="cls-4" points="190.08 130.04 186.57 130.04 186.57 126.53 184.33 126.53 184.33 130.04 180.82 130.04 180.82 132.28 184.33 132.28 184.33 135.79 186.57 135.79 186.57 132.28 190.08 132.28 190.08 130.04"/></g></g><circle class="cls-13" cx="175.23" cy="130.49" r="26.81"/><line class="cls-13" x1="196.13" y1="147.78" x2="207.02" y2="156.99"/><circle class="cls-15" cx="501.51" cy="115.1" r="26.81"/><path class="cls-16" d="M483.81,110.08h5l0,.58-.39,0c-.21,0-.51,0-.87,0h-2.64V113h3.18l.55-.08v.66l-.43,0-.89,0h-2.4V116h2.64l.79,0h.22l.25,0,0,.59h-5l.06-.26,0-.22v-4.94A4.7,4.7,0,0,0,483.81,110.08Z"/><path class="cls-16" d="M495.5,111.32v1.52a1.26,1.26,0,0,1-.31,1,1.71,1.71,0,0,1-1.12.28h-3.42v1.41a4.84,4.84,0,0,0,.09,1h-1.23l.06-.26,0-.22v-4.94a4.7,4.7,0,0,0-.1-1h4.57a1.74,1.74,0,0,1,1.12.26.89.89,0,0,1,.23.36l.06.27Zm-4.85,2.25H494a.42.42,0,0,0,.35-.11.71.71,0,0,0,.08-.41v-1.92a.88.88,0,0,0-.07-.41c0-.07-.17-.11-.37-.11h-3.38Z"/><path class="cls-16" d="M500.79,117.76h-5.08v-.5h5.08Z"/><path class="cls-16" d="M501.29,110.08h5.1l.08.58-.39,0c-.21,0-.51,0-.87,0h-2.78V113h3.1l.55-.08v.66l-.43,0-.9,0h-2.32v2a4.84,4.84,0,0,0,.09,1h-1.23l.06-.26,0-.22v-4.94A4.7,4.7,0,0,0,501.29,110.08Z"/><path class="cls-16" d="M506.89,115.5v-4.42l0-.58,0-.23,0-.19h4.5a1.74,1.74,0,0,1,1.12.26.91.91,0,0,1,.23.36l.06.27v1.39a.89.89,0,0,1-.2.67,1,1,0,0,1-.68.19,1.37,1.37,0,0,1,.4,0l.16.06.13.09a1,1,0,0,1,.19.68v1.16a1.26,1.26,0,0,1-.31,1,1.7,1.7,0,0,1-1.12.28h-4.48l.07-.42Zm1-4.9v2.32h3.3a.43.43,0,0,0,.35-.11.71.71,0,0,0,.09-.41v-1.28a.9.9,0,0,0-.07-.41c0-.07-.17-.11-.37-.11Zm0,2.79V116h3.3a.42.42,0,0,0,.35-.11.71.71,0,0,0,.09-.41v-1.55a.9.9,0,0,0-.07-.41c0-.07-.17-.11-.37-.11Z"/><path class="cls-16" d="M518.5,110.08h1l-.41.35-.44.37-1.69,1.58,2.88,4.13h-1.3l-2.32-3.45-1.42,1.4v1.05a4.81,4.81,0,0,0,.09,1h-1.23l.06-.26,0-.22v-4.94a4.7,4.7,0,0,0-.1-1h1.23a4.32,4.32,0,0,0-.09,1v2.66l3.15-3,.29-.31.14-.15Z"/><g id="_Grupo_3" data-name="&lt;Grupo&gt;"><path id="_Trazado_4" data-name="&lt;Trazado&gt;" class="cls-17" d="M526.5,76.26h0A21.3,21.3,0,0,1,505.2,55h0a21.3,21.3,0,0,1,21.3-21.3h0A21.3,21.3,0,0,1,547.79,55h0A21.3,21.3,0,0,1,526.5,76.26Z"/><path id="_Trazado_5" data-name="&lt;Trazado&gt;" class="cls-4" d="M523.25,67.83h5.18v-13h3.62l.39-4.35h-4V48c0-1,.21-1.43,1.2-1.43h2.81V42.08h-3.59c-3.86,0-5.6,1.7-5.6,5V50.5h-2.7v4.4h2.7Z"/></g><circle class="cls-18" cx="526.5" cy="54.96" r="26.81"/><line class="cls-18" x1="517.84" y1="81.59" x2="513.66" y2="90.81"/><path class="cls-19" d="M283,127.66"/><path class="cls-19" d="M247.54,153.27"/><path class="cls-19" d="M209.85,196"/><path class="cls-19" d="M188.37,234.1"/><path class="cls-19" d="M475.21,104.81"/><path class="cls-19" d="M432.39,95.69"/><path class="cls-19" d="M618.31,236.83"/><path class="cls-19" d="M597.6,198.26"/><circle class="cls-20" cx="178.95" cy="260.88" r="26.81"/><path class="cls-21" d="M159.36,255.85h5l0,.58-.39,0q-.32,0-.87,0H160.5v2.42h3.18l.55-.08v.66l-.43,0-.89,0h-2.4v2.43h2.64l.79,0h.22l.25,0,0,.59h-5l.06-.26,0-.22v-4.94A4.69,4.69,0,0,0,159.36,255.85Z"/><path class="cls-21" d="M171.05,257.1v1.52a1.26,1.26,0,0,1-.31,1,1.71,1.71,0,0,1-1.12.28h-3.42v1.41a4.84,4.84,0,0,0,.09,1h-1.23l.06-.26,0-.22v-4.94a4.75,4.75,0,0,0-.1-1h4.57a1.74,1.74,0,0,1,1.12.26.89.89,0,0,1,.23.36l.06.27Zm-4.85,2.25h3.38a.42.42,0,0,0,.35-.11.7.7,0,0,0,.09-.41V256.9a.89.89,0,0,0-.07-.41c0-.07-.17-.11-.37-.11h-3.38Z"/><path class="cls-21" d="M176.34,263.54h-5.08V263h5.08Z"/><path class="cls-21" d="M179.4,262.28h-1.23l-1.4-5.1-.17-.6-.27-.73h1.31l0,.22v.3l0,.18.09.39,1.27,4.74,1.49-5.83h1.28l1.57,5.83,1.23-4.88.05-.25,0-.21v-.5h.82a4.41,4.41,0,0,0-.24.52l-.2.64-1.33,5.26H182.5l-1.61-5.9Z"/><path class="cls-21" d="M192.64,262.28h-1.36v-.22a.48.48,0,0,0-.09-.24l-.28-.58-.44-.93H187l-.53,1.08-.24.57,0,.32h-.85a2.9,2.9,0,0,0,.45-.69l2.59-5.34-.13-.2-.22-.2h1.33l2.6,5.27.37.69A2.86,2.86,0,0,0,192.64,262.28Zm-2.4-2.49-1.52-3.05-1.47,3.05Z"/><path class="cls-21" d="M194.38,255.85h3.93l.08.58-.4,0q-.32,0-.88,0h-2.68a.52.52,0,0,0-.37.11,1,1,0,0,0-.07.41V258a.74.74,0,0,0,.08.41c.05.07.17.11.36.11h2.67a1.86,1.86,0,0,1,1.13.25,1.24,1.24,0,0,1,.31,1V261a1.23,1.23,0,0,1-.32,1,1.73,1.73,0,0,1-1.12.28h-4l-.09-.59.4,0c.21,0,.51,0,.88,0h2.79a.44.44,0,0,0,.36-.11.71.71,0,0,0,.09-.41V260a.9.9,0,0,0-.07-.41c0-.07-.17-.11-.38-.11h-2.67a2.05,2.05,0,0,1-1.12-.24.79.79,0,0,1-.24-.38,2,2,0,0,1-.09-.62V257.1a1.24,1.24,0,0,1,.31-1A1.86,1.86,0,0,1,194.38,255.85Z"/><path class="cls-22" d="M111.83,222.88a18.12,18.12,0,0,0-15.6,27.35L94.85,258l8.05-1.18a18.12,18.12,0,1,0,8.92-33.9Z"/><path class="cls-4" d="M101.67,249.25a5.44,5.44,0,0,1-.46-2.09,1,1,0,0,1,0-.33c0-.11.31-.31.8-.61s1.1-.64,1.83-1l1.1-.6.39-.27a3.19,3.19,0,0,1,.52-.31,1.07,1.07,0,0,1,.44-.1q.37,0,1,.67t1.18,1.36q.58.68.91.68a1,1,0,0,0,.34-.07l.32-.13.35-.2.29-.18a15,15,0,0,0,6.15-6.15l.18-.29.2-.35a2.91,2.91,0,0,0,.14-.32,1,1,0,0,0,.07-.34,1.16,1.16,0,0,0-.42-.69,8.14,8.14,0,0,0-.93-.8,7.19,7.19,0,0,1-.93-.82,1.23,1.23,0,0,1-.42-.76,1,1,0,0,1,.1-.44,3.17,3.17,0,0,1,.31-.52l.27-.39.31-.59.52-.94.55-1a8.3,8.3,0,0,1,.52-.84,1.21,1.21,0,0,1,.34-.37,1,1,0,0,1,.33,0,5.45,5.45,0,0,1,2.09.46,3.73,3.73,0,0,1,1.66,2,6.59,6.59,0,0,1,.71,2.7,5.06,5.06,0,0,1-.05.7c0,.25-.07.46-.1.63a6.75,6.75,0,0,1-.19.68c-.09.28-.16.49-.21.61l-.26.68-.23.62a21.08,21.08,0,0,1-11.13,11.13l-.62.23-.68.26-.61.21a7,7,0,0,1-.68.19l-.63.1a5.08,5.08,0,0,1-.71.05,6.56,6.56,0,0,1-2.7-.71,3.74,3.74,0,0,1-2-1.66Z"/><circle class="cls-23" cx="111.83" cy="241" r="28.09"/><line class="cls-20" x1="138.32" y1="249.15" x2="153.4" y2="253.34"/><circle class="cls-24" cx="581.1" cy="175.42" r="26.81"/><path class="cls-25" d="M560.35,170.4h5l0,.58-.39,0c-.21,0-.51,0-.87,0h-2.64v2.42h3.18l.55-.08v.66l-.43,0-.89,0h-2.4v2.43h2.64l.79,0h.22l.25,0,0,.59h-5l.06-.26,0-.22V171.4A4.7,4.7,0,0,0,560.35,170.4Z"/><path class="cls-25" d="M572,171.64v1.52a1.26,1.26,0,0,1-.31,1,1.71,1.71,0,0,1-1.12.28H567.2v1.41a4.84,4.84,0,0,0,.09,1h-1.23l.06-.26,0-.22V171.4a4.7,4.7,0,0,0-.1-1h4.57a1.74,1.74,0,0,1,1.12.26.9.9,0,0,1,.23.36l.06.27Zm-4.85,2.24h3.38a.43.43,0,0,0,.35-.11.71.71,0,0,0,.08-.41v-1.92a.89.89,0,0,0-.07-.41c0-.07-.17-.11-.37-.11H567.2Z"/><path class="cls-25" d="M577.33,178.08h-5.08v-.5h5.08Z"/><path class="cls-25" d="M579.24,170.4h3.49l.06.63-.27-.08a1.2,1.2,0,0,0-.31,0h-2.93a.48.48,0,0,0-.36.11.81.81,0,0,0-.08.41v4.33a.74.74,0,0,0,.08.41c.05.07.17.11.36.11h2.21a6.34,6.34,0,0,0,1.39-.12l-.06.64h-3.58a1.83,1.83,0,0,1-1.12-.26,1.21,1.21,0,0,1-.32-1v-3.94a1.24,1.24,0,0,1,.31-1A1.86,1.86,0,0,1,579.24,170.4Z"/><path class="cls-25" d="M583.64,175.82V171.4l0-.58,0-.23,0-.19H588a1.74,1.74,0,0,1,1.12.26.92.92,0,0,1,.23.36l.06.27v1.4a.89.89,0,0,1-.2.67,1,1,0,0,1-.68.19,1.38,1.38,0,0,1,.4,0l.16.06.13.09a1,1,0,0,1,.19.68v1.16a1.26,1.26,0,0,1-.31,1,1.71,1.71,0,0,1-1.12.28h-4.48l.07-.42Zm1-4.9v2.32H588a.43.43,0,0,0,.35-.11.71.71,0,0,0,.09-.41v-1.28a.9.9,0,0,0-.07-.41c0-.07-.17-.11-.37-.11Zm0,2.78v2.59H588a.42.42,0,0,0,.35-.11.71.71,0,0,0,.09-.41v-1.55a.9.9,0,0,0-.07-.41c0-.07-.17-.11-.37-.11Z"/><path class="cls-25" d="M591.72,170.4h3.22a1.38,1.38,0,0,1,1,.32,1.22,1.22,0,0,1,.3.9v4a1.27,1.27,0,0,1-.3.9,1.38,1.38,0,0,1-1,.33h-3.22a1.4,1.4,0,0,1-1-.33,1.23,1.23,0,0,1-.32-.9v-4a1.28,1.28,0,0,1,.3-.88A1.35,1.35,0,0,1,591.72,170.4Zm3.53,5.38v-4.33a.9.9,0,0,0-.07-.41c0-.07-.17-.11-.37-.11h-3a.48.48,0,0,0-.36.11.81.81,0,0,0-.08.41v4.33a.74.74,0,0,0,.08.41c.05.07.17.11.36.11h3a.42.42,0,0,0,.35-.11A.71.71,0,0,0,595.25,175.78Z"/><path class="cls-25" d="M599,170.92h-1l-.64,0-.56.06.1-.61h5.24l.1.61-.51-.06-.69,0h-1v4.9a4.82,4.82,0,0,0,.09,1h-1.22a4.31,4.31,0,0,0,.09-1Z"/><line class="cls-24" x1="611.68" y1="149.45" x2="600.79" y2="158.67"/><circle class="cls-24" cx="633.46" cy="131.02" r="26.81"/><path class="cls-26" d="M644.52,115.82l0,0h0a1.67,1.67,0,0,0-2.08,2.62h0a1.7,1.7,0,0,0,1.06.38,1.67,1.67,0,0,0,1.06-3Z"/><path class="cls-26" d="M648.18,119.84a1.67,1.67,0,1,0-2.78,1.86h0a1.67,1.67,0,0,0,2.78-1.86Z"/><path class="cls-26" d="M649.46,126.95a1.67,1.67,0,1,0-2.09-1.12h0A1.69,1.69,0,0,0,649,127,1.67,1.67,0,0,0,649.46,126.95Z"/><path class="cls-26" d="M651.42,130.14a2,2,0,0,0-.1-.32,2.12,2.12,0,0,0-.16-.29,1.75,1.75,0,0,0-.2-.25,1.67,1.67,0,0,0-1.51-.46,1.56,1.56,0,0,0-.31.09,2,2,0,0,0-.29.15,1.8,1.8,0,0,0-.25.21,1.77,1.77,0,0,0-.22.27,1.93,1.93,0,0,0-.14.27,1.57,1.57,0,0,0-.1.32,1.64,1.64,0,0,0,0,.33,1.67,1.67,0,0,0,2,1.64,1.57,1.57,0,0,0,.31-.09,1.85,1.85,0,0,0,.54-.36,1.68,1.68,0,0,0,.49-1.18A1.63,1.63,0,0,0,651.42,130.14Z"/><path class="cls-26" d="M628.28,149a1.79,1.79,0,0,1-.44-.05,19,19,0,1,1,11.94-36.06,1.78,1.78,0,0,1-1.36,3.29,15.48,15.48,0,1,0-9.7,29.31,1.78,1.78,0,0,1-.43,3.51Z"/><path class="cls-26" d="M643,144.07l4.74-8.86,7.12,4.82a.3.3,0,0,1-.08.53Z"/><path class="cls-26" d="M646,134,628.55,122.2a.3.3,0,0,0-.46.31L635,153.59a.3.3,0,0,0,.56.08Z"/><circle class="cls-27" cx="628.43" cy="262.56" r="26.81"/><path class="cls-28" d="M607.75,258.37h5l0,.58-.39,0q-.32,0-.87,0h-2.64v2.42h3.18l.55-.08v.66l-.43,0-.89,0h-2.4v2.43h2.64l.79,0h.22l.25,0,0,.59h-5l.06-.26,0-.22v-4.94A4.69,4.69,0,0,0,607.75,258.37Z"/><path class="cls-28" d="M619.44,259.61v1.52a1.26,1.26,0,0,1-.31,1,1.71,1.71,0,0,1-1.12.28h-3.42v1.41a4.84,4.84,0,0,0,.09,1h-1.23l.06-.26,0-.22v-4.94a4.69,4.69,0,0,0-.1-1H618a1.74,1.74,0,0,1,1.12.26.89.89,0,0,1,.23.36l.06.27Zm-4.85,2.25H618a.43.43,0,0,0,.35-.11.71.71,0,0,0,.08-.41v-1.92a.88.88,0,0,0-.07-.41c0-.07-.17-.11-.37-.11h-3.38Z"/><path class="cls-28" d="M624.73,266h-5.08v-.5h5.08Z"/><path class="cls-28" d="M626.64,258.37h3.49l.06.63-.27-.08a1.2,1.2,0,0,0-.31,0h-2.93a.48.48,0,0,0-.36.11.81.81,0,0,0-.08.41v4.33a.75.75,0,0,0,.08.41c.05.07.17.11.36.11h2.21a6.33,6.33,0,0,0,1.39-.12l-.06.64h-3.58a1.83,1.83,0,0,1-1.12-.26,1.22,1.22,0,0,1-.32-1v-3.93a1.24,1.24,0,0,1,.31-1A1.85,1.85,0,0,1,626.64,258.37Z"/><path class="cls-28" d="M632.35,258.37h3.49l.06.63-.27-.08a1.2,1.2,0,0,0-.31,0h-2.93a.48.48,0,0,0-.36.11.81.81,0,0,0-.08.41v4.33a.75.75,0,0,0,.08.41c.05.07.17.11.36.11h2.21a6.33,6.33,0,0,0,1.39-.12l-.06.64h-3.58a1.83,1.83,0,0,1-1.12-.26,1.22,1.22,0,0,1-.32-1v-3.93a1.24,1.24,0,0,1,.31-1A1.85,1.85,0,0,1,632.35,258.37Z"/><path class="cls-28" d="M641.58,261.78h-3.8v2a4.84,4.84,0,0,0,.09,1h-1.23l.06-.26,0-.22v-4.94a4.69,4.69,0,0,0-.1-1h1.23a4.3,4.3,0,0,0-.09,1v1.88h3.8v-1.88a4.81,4.81,0,0,0-.09-1h1.22a4.31,4.31,0,0,0-.09,1v4.42a4.83,4.83,0,0,0,.09,1h-1.22a4.33,4.33,0,0,0,.09-1Z"/><path class="cls-28" d="M645.44,258.89h-1l-.64,0-.56.06.1-.61h5.24l.1.61-.51-.06-.69,0h-1v4.9a4.83,4.83,0,0,0,.09,1h-1.22a4.32,4.32,0,0,0,.09-1Z"/><line class="cls-27" x1="669.49" y1="246.64" x2="653.57" y2="251.66"/><circle class="cls-27" cx="695.46" cy="241.61" r="26.81"/><path class="cls-28" d="M706.52,227l0,0h0a1.67,1.67,0,0,0-2.08,2.62h0a1.7,1.7,0,0,0,1.06.38,1.67,1.67,0,0,0,1.06-3Z"/><path class="cls-28" d="M710.18,231a1.67,1.67,0,1,0-2.78,1.86h0a1.67,1.67,0,0,0,2.78-1.86Z"/><path class="cls-28" d="M711.46,238.16a1.67,1.67,0,1,0-2.09-1.12h0a1.69,1.69,0,0,0,1.6,1.19A1.67,1.67,0,0,0,711.46,238.16Z"/><path class="cls-28" d="M713.42,241.35a2,2,0,0,0-.1-.32,2.12,2.12,0,0,0-.16-.29,1.75,1.75,0,0,0-.2-.25,1.67,1.67,0,0,0-1.51-.46,1.56,1.56,0,0,0-.31.09,2,2,0,0,0-.29.15,1.8,1.8,0,0,0-.25.21,1.77,1.77,0,0,0-.22.27,1.93,1.93,0,0,0-.14.27,1.57,1.57,0,0,0-.1.32,1.64,1.64,0,0,0,0,.33,1.67,1.67,0,0,0,2,1.64,1.57,1.57,0,0,0,.31-.09,1.85,1.85,0,0,0,.54-.36,1.68,1.68,0,0,0,.49-1.18A1.63,1.63,0,0,0,713.42,241.35Z"/><path class="cls-28" d="M690.28,260.19a1.79,1.79,0,0,1-.44-.05,19,19,0,1,1,11.94-36.06,1.78,1.78,0,0,1-1.36,3.29,15.48,15.48,0,1,0-9.7,29.31,1.78,1.78,0,0,1-.43,3.51Z"/><path class="cls-28" d="M705,255.28l4.74-8.86,7.12,4.82a.3.3,0,0,1-.08.53Z"/><path class="cls-28" d="M708,245.24l-17.46-11.84a.3.3,0,0,0-.46.31L697,264.8a.3.3,0,0,0,.56.08Z"/><circle class="cls-29" cx="403.48" cy="94.16" r="26.81"/><path class="cls-30" d="M382.19,89.13h5l0,.58-.39,0q-.32,0-.87,0h-2.64v2.42h3.18l.55-.08v.66l-.43,0-.89,0h-2.4V95H386l.79,0H387l.25,0,0,.59h-5l.06-.26,0-.22V90.14A4.69,4.69,0,0,0,382.19,89.13Z"/><path class="cls-30" d="M393.88,90.38V91.9a1.25,1.25,0,0,1-.31,1,1.71,1.71,0,0,1-1.12.28H389v1.41a4.85,4.85,0,0,0,.09,1H387.9l.06-.26,0-.22V90.14a4.69,4.69,0,0,0-.1-1h4.57a1.74,1.74,0,0,1,1.12.26.9.9,0,0,1,.23.36l.06.27ZM389,92.62h3.38a.42.42,0,0,0,.35-.11.71.71,0,0,0,.08-.41V90.18a.87.87,0,0,0-.07-.41c0-.07-.17-.11-.37-.11H389Z"/><path class="cls-30" d="M399.17,96.81h-5.08v-.5h5.08Z"/><path class="cls-30" d="M401.43,89.65h-1l-.64,0-.56.06.1-.61h5.24l.1.61-.51-.06-.69,0h-1v4.9a4.83,4.83,0,0,0,.09,1h-1.22a4.33,4.33,0,0,0,.09-1Z"/><path class="cls-30" d="M407.72,95.56H406.5l-1.4-5.1-.17-.6-.27-.73H406l0,.23v.3l0,.18.09.39L407.32,95l1.49-5.83h1.27L411.66,95l1.23-4.88.05-.25,0-.21v-.5h.83a4.12,4.12,0,0,0-.24.52l-.2.64L412,95.56h-1.21l-1.61-5.9Z"/><path class="cls-30" d="M416,89.65h-1l-.64,0-.56.06.1-.61h5.24l.1.61-.51-.06-.69,0h-1v4.9a4.83,4.83,0,0,0,.09,1H416a4.33,4.33,0,0,0,.09-1Z"/><path class="cls-30" d="M425.08,95.56h-5.25l.08-.41,0-.59V90.14a3.35,3.35,0,0,0-.11-1h1.24a4.32,4.32,0,0,0-.09,1V95h2.89l.79,0h.22l.26,0Z"/><g id="_Grupo_4" data-name="&lt;Grupo&gt;"><path id="_Trazado_6" data-name="&lt;Trazado&gt;" class="cls-31" d="M403.07,49.27h0a20.46,20.46,0,0,1-20.46-20.46h0A20.46,20.46,0,0,1,403.07,8.35h0a20.46,20.46,0,0,1,20.46,20.46h0A20.46,20.46,0,0,1,403.07,49.27Z"/><path id="_Trazado_7" data-name="&lt;Trazado&gt;" class="cls-4" d="M392.17,35.66a12.72,12.72,0,0,0,19.57-11.3A9.07,9.07,0,0,0,414,22a8.94,8.94,0,0,1-2.57.7,4.48,4.48,0,0,0,2-2.47,9,9,0,0,1-2.84,1.09,4.48,4.48,0,0,0-7.62,4.08,12.69,12.69,0,0,1-9.22-4.67,4.48,4.48,0,0,0,1.38,6,4.46,4.46,0,0,1-2-.56,4.48,4.48,0,0,0,3.59,4.44,4.48,4.48,0,0,1-2,.08,4.48,4.48,0,0,0,4.18,3.11A9,9,0,0,1,392.17,35.66Z"/></g><circle class="cls-32" cx="403.07" cy="28.81" r="26.81"/><line class="cls-32" x1="403.48" y1="55.62" x2="403.48" y2="67.35"/><path d="M658.08,39a5.36,5.36,0,0,1,2.1.35,5.07,5.07,0,0,1,1.43.91V42l-.87-.62a5.63,5.63,0,0,0-1.12-.59,4.16,4.16,0,0,0-1.54-.25,4.63,4.63,0,0,0-2.36.6,4.36,4.36,0,0,0-1.63,1.64,4.68,4.68,0,0,0-.6,2.36,4.63,4.63,0,0,0,.6,2.36,4.44,4.44,0,0,0,1.63,1.64,4.58,4.58,0,0,0,2.36.61,5.42,5.42,0,0,0,2.31-.45,8.45,8.45,0,0,0,1.57-.92v1.58a5.44,5.44,0,0,1-1.61.94,6.62,6.62,0,0,1-4.74-.09,6.24,6.24,0,0,1-2-1.33,6,6,0,0,1-1.31-2,6.32,6.32,0,0,1,0-4.76,6,6,0,0,1,1.31-2,6.24,6.24,0,0,1,2-1.33A6.17,6.17,0,0,1,658.08,39Z"/><path d="M668,42a3.66,3.66,0,0,1,1.54.36,4,4,0,0,1,1.34,1V42.21h1.44V51h-1.44V49.51a4.35,4.35,0,0,1-1.24,1.23,3.12,3.12,0,0,1-1.78.53,3.86,3.86,0,0,1-2.06-.57,4.14,4.14,0,0,1-1.49-1.59,4.86,4.86,0,0,1-.55-2.36,5.34,5.34,0,0,1,.55-2.51,4,4,0,0,1,1.52-1.63A4.17,4.17,0,0,1,668,42Zm.26,1.41a2.72,2.72,0,0,0-1.62.47,3.15,3.15,0,0,0-1,1.22,3.65,3.65,0,0,0-.36,1.61,3.46,3.46,0,0,0,.35,1.56,2.83,2.83,0,0,0,1,1.13,2.64,2.64,0,0,0,1.49.42,2.54,2.54,0,0,0,1.44-.42,2.93,2.93,0,0,0,1-1.17,3.58,3.58,0,0,0,.35-1.68l0-1.69a4.62,4.62,0,0,0-1.17-1.07A2.66,2.66,0,0,0,668.23,43.44Z"/><path d="M676.72,42.21V43.6a4.89,4.89,0,0,1,.72-.71,4.33,4.33,0,0,1,1-.61,2.81,2.81,0,0,1,1.15-.25,3.41,3.41,0,0,1,1.63.4,2.9,2.9,0,0,1,1.18,1.2,4.14,4.14,0,0,1,.44,2V51h-1.44l0-5.22a2.65,2.65,0,0,0-.5-1.74,1.89,1.89,0,0,0-1.54-.6,2.32,2.32,0,0,0-1.4.52,6.26,6.26,0,0,0-1.22,1.2V51h-1.44V42.21Z"/><path d="M689.18,42a3.66,3.66,0,0,1,1.54.36,4,4,0,0,1,1.34,1V42.21h1.44V51h-1.44V49.51a4.35,4.35,0,0,1-1.24,1.23,3.12,3.12,0,0,1-1.78.53,3.86,3.86,0,0,1-2.06-.57,4.14,4.14,0,0,1-1.49-1.59,4.86,4.86,0,0,1-.55-2.36,5.34,5.34,0,0,1,.55-2.51A4,4,0,0,1,687,42.61,4.17,4.17,0,0,1,689.18,42Zm.26,1.41a2.72,2.72,0,0,0-1.62.47,3.15,3.15,0,0,0-1,1.22,3.65,3.65,0,0,0-.36,1.61,3.46,3.46,0,0,0,.35,1.56,2.83,2.83,0,0,0,1,1.13,2.64,2.64,0,0,0,1.49.42,2.54,2.54,0,0,0,1.44-.42,2.93,2.93,0,0,0,1-1.17,3.58,3.58,0,0,0,.35-1.68l0-1.69a4.62,4.62,0,0,0-1.17-1.07A2.66,2.66,0,0,0,689.44,43.44Z"/><path d="M697.93,38.34V51h-1.44V38.34Z"/><path d="M147.25,379.21v1.49h-5.73v3.8H148V386h-8.07V374.22H148v1.49h-6.49v3.5Z"/><path d="M152.34,377.21v1.39a4.89,4.89,0,0,1,.72-.71,4.33,4.33,0,0,1,1-.61,2.81,2.81,0,0,1,1.15-.25,3.41,3.41,0,0,1,1.63.4,2.9,2.9,0,0,1,1.18,1.2,4.14,4.14,0,0,1,.44,2V386H157l0-5.22a2.65,2.65,0,0,0-.5-1.74,1.89,1.89,0,0,0-1.54-.6,2.32,2.32,0,0,0-1.4.52,6.26,6.26,0,0,0-1.22,1.2V386H150.9v-8.79Z"/><path d="M169.13,373.34V386h-1.44v-1.49a4.35,4.35,0,0,1-1.24,1.23,3.12,3.12,0,0,1-1.78.53,3.86,3.86,0,0,1-2.06-.57,4.14,4.14,0,0,1-1.49-1.59,4.86,4.86,0,0,1-.55-2.36,5.34,5.34,0,0,1,.55-2.51,4,4,0,0,1,1.52-1.63,4.17,4.17,0,0,1,2.16-.57,3.66,3.66,0,0,1,1.54.36,4,4,0,0,1,1.34,1v-5Zm-4.06,5.13a2.76,2.76,0,0,0-1.62.47,3.1,3.1,0,0,0-1,1.2,3.6,3.6,0,0,0-.36,1.6,3.46,3.46,0,0,0,.35,1.56,2.83,2.83,0,0,0,1,1.13,2.64,2.64,0,0,0,1.49.42,2.54,2.54,0,0,0,1.44-.42,2.93,2.93,0,0,0,1-1.17,3.58,3.58,0,0,0,.35-1.68l0-1.69a4.33,4.33,0,0,0-1.17-1.05A2.76,2.76,0,0,0,165.07,378.48Z"/><path d="M177.25,374.22a4.31,4.31,0,0,1,2,.47,4.07,4.07,0,0,1,1.54,1.34,3.55,3.55,0,0,1,.61,2.08,3.41,3.41,0,0,1-.58,1.92,4.28,4.28,0,0,1-1.57,1.42A4.57,4.57,0,0,1,177,382a7.12,7.12,0,0,1-2.85-.58V386h-1.58V374.22Zm-3.11,1.49V380a7.76,7.76,0,0,0,1.24.36,7.27,7.27,0,0,0,1.56.17,2.88,2.88,0,0,0,2.07-.69,2.23,2.23,0,0,0,.73-1.68,2,2,0,0,0-.41-1.28,2.72,2.72,0,0,0-1.08-.82,3.54,3.54,0,0,0-1.42-.29Z"/><path d="M187.69,377a4.46,4.46,0,0,1,2.37.63,4.54,4.54,0,0,1,1.63,1.69,4.64,4.64,0,0,1,.59,2.3,4.59,4.59,0,0,1-2.21,4,4.77,4.77,0,0,1-4.75,0,4.59,4.59,0,0,1-2.21-4,4.64,4.64,0,0,1,.59-2.3,4.54,4.54,0,0,1,1.63-1.69A4.46,4.46,0,0,1,187.69,377Zm0,1.41a3,3,0,0,0-1.63.45,3,3,0,0,0-1.08,1.18,3.41,3.41,0,0,0-.38,1.59,3.37,3.37,0,0,0,.38,1.57,3,3,0,0,0,1.08,1.18,3.22,3.22,0,0,0,3.28,0,3,3,0,0,0,1.07-1.18,3.37,3.37,0,0,0,.38-1.57,3.41,3.41,0,0,0-.38-1.59,3,3,0,0,0-1.07-1.18A3,3,0,0,0,187.69,378.44Z"/><path d="M197,377.21V386h-1.44v-7.44h-1.39v-1.35Zm-.9-4.22a1.13,1.13,0,0,1,.85.36,1.18,1.18,0,0,1,0,1.66,1.17,1.17,0,0,1-1.71,0,1.18,1.18,0,0,1,0-1.66A1.13,1.13,0,0,1,196.06,373Z"/><path d="M201.51,377.21v1.39a4.89,4.89,0,0,1,.72-.71,4.33,4.33,0,0,1,1-.61,2.81,2.81,0,0,1,1.15-.25,3.41,3.41,0,0,1,1.63.4,2.9,2.9,0,0,1,1.18,1.2,4.14,4.14,0,0,1,.44,2V386h-1.44l0-5.22a2.65,2.65,0,0,0-.5-1.74,1.89,1.89,0,0,0-1.54-.6,2.32,2.32,0,0,0-1.4.52,6.26,6.26,0,0,0-1.22,1.2V386h-1.44v-8.79Z"/><path d="M212.78,374.68v2.53h2.57v1.35h-2.57v5.15a1.25,1.25,0,0,0,.28.86,1.09,1.09,0,0,0,.86.32,2.53,2.53,0,0,0,.88-.13,3.77,3.77,0,0,0,.62-.29v1.18a3.16,3.16,0,0,1-.75.45,2.79,2.79,0,0,1-1.06.17,2.1,2.1,0,0,1-1.7-.68,2.7,2.7,0,0,1-.57-1.8v-5.22h-1.69v-.42a3.36,3.36,0,0,0,1.44-1.27,9.65,9.65,0,0,0,1-2.19Z"/><line class="cls-33" x1="646" y1="49" x2="639.87" y2="91.03"/><path class="cls-34" d="M639,97a30.22,30.22,0,0,0-3.47-9.14L640,90.24l5-1A30.2,30.2,0,0,0,639,97Z"/><line class="cls-33" x1="646.5" y1="49.5" x2="564.53" y2="54.16"/><path class="cls-34" d="M558.5,54.5a30.22,30.22,0,0,0,8.26-5.23l-1.45,4.85,2,4.65A30.2,30.2,0,0,0,558.5,54.5Z"/><line class="cls-33" x1="178.5" y1="369.5" x2="178.5" y2="296.54"/><path class="cls-34" d="M178.5,290.5a30.22,30.22,0,0,0,4.76,8.55l-4.76-1.72L173.75,299A30.19,30.19,0,0,0,178.5,290.5Z"/></g>
<g id="navegacion">
    <!--a href="#" class="prev">
        <path d="M9.37,298.61a32,32,0,1,0,0-45.23A32,32,0,0,0,9.37,298.61Zm7.5-23.67,13.76-13.76a1.48,1.48,0,0,1,2.1,2.1L21.49,274.51H51.32a1.49,1.49,0,0,1,0,3H21.49l11.23,11.23a1.48,1.48,0,0,1,0,2.1,1.52,1.52,0,0,1-1.06.43,1.46,1.46,0,0,1-1.06-.43L16.85,277.06A1.53,1.53,0,0,1,16.86,274.94Z"/>
    </a>
    <a href="fcv2.svg" class="next" target="container-svg">
        <path d="M790.63,253.39a32,32,0,1,0,0,45.23A32,32,0,0,0,790.63,253.39Zm-7.48,23.67-13.76,13.76a1.46,1.46,0,0,1-1.06.43,1.52,1.52,0,0,1-1.06-.43,1.48,1.48,0,0,1,0-2.1l11.23-11.23H748.68a1.49,1.49,0,0,1,0-3h29.83l-11.23-11.23a1.48,1.48,0,1,1,2.1-2.1l13.76,13.76A1.53,1.53,0,0,1,783.15,277.06Z"/>
    </a-->
    <script>
        localStorage.setItem('curPage','1');
        localStorage.setItem('wdth','70');
        localStorage.setItem('wdsvg','100');
    </script>
</g></g></svg>