<?xml version="1.0" encoding="UTF-8" standalone="no"?>
<!-- Created with Inkscape (http://www.inkscape.org/) -->

<svg
   xmlns:dc="http://purl.org/dc/elements/1.1/"
   xmlns:cc="http://creativecommons.org/ns#"
   xmlns:rdf="http://www.w3.org/1999/02/22-rdf-syntax-ns#"
   xmlns:svg="http://www.w3.org/2000/svg"
   xmlns="http://www.w3.org/2000/svg"
   xmlns:sodipodi="http://sodipodi.sourceforge.net/DTD/sodipodi-0.dtd"
   xmlns:inkscape="http://www.inkscape.org/namespaces/inkscape"
   width="210mm"
   height="297mm"
   viewBox="0 0 744.09448819 1052.3622047"
   id="svg4629"
   version="1.1"
   inkscape:version="0.91 r13725"
   sodipodi:docname="pensa-2.svg">
  <defs
     id="defs4631" />
  <sodipodi:namedview
     id="base"
     pagecolor="#ffffff"
     bordercolor="#666666"
     borderopacity="1.0"
     inkscape:pageopacity="0.0"
     inkscape:pageshadow="2"
     inkscape:zoom="0.67372241"
     inkscape:cx="372.04724"
     inkscape:cy="526.1811"
     inkscape:document-units="px"
     inkscape:current-layer="layer1"
     showgrid="false"
     inkscape:window-width="1440"
     inkscape:window-height="851"
     inkscape:window-x="0"
     inkscape:window-y="1"
     inkscape:window-maximized="1" />
  <metadata
     id="metadata4634">
    <rdf:RDF>
      <cc:Work
         rdf:about="">
        <dc:format>image/svg+xml</dc:format>
        <dc:type
           rdf:resource="http://purl.org/dc/dcmitype/StillImage" />
        <dc:title></dc:title>
      </cc:Work>
    </rdf:RDF>
  </metadata>
  <g
     inkscape:label="Livello 1"
     inkscape:groupmode="layer"
     id="layer1">
    <g
       id="g5414"
       transform="matrix(0.98631162,0,0,0.98631162,-14.746909,-3.959721)">
      <g
         inkscape:label="Layer 1"
         id="layer1-3"
         transform="matrix(0.59467103,0.29429738,-0.29429738,0.59467103,335.64968,-265.50724)">
        <g
           id="g3286"
           transform="matrix(1.0959525,0,0,1.0959525,-15.586991,-65.277904)">
          <path
             inkscape:connector-curvature="0"
             id="path3270"
             d="m 71.928061,603.03369 c -15.697932,1.7e-4 -27.191777,6.25819 -34.534409,18.75 -7.342545,12.42306 -11.021532,31.87285 -11.02162,58.375 8.8e-5,26.64036 3.642954,46.22683 11.02162,58.71875 7.378842,12.49198 18.908838,18.71875 34.534409,18.71875 l 22.502474,0 0,-154.5625 -22.502474,0 z"
             style="font-style:normal;font-weight:normal;font-size:175.34698486px;line-height:125%;font-family:Sans;letter-spacing:0px;word-spacing:0px;fill:#d45500;fill-opacity:1;stroke:none" />
          <path
             sodipodi:nodetypes="ccccccc"
             inkscape:connector-curvature="0"
             id="path3284"
             style="font-style:normal;font-weight:normal;font-size:175.34698486px;line-height:125%;font-family:Sans;letter-spacing:0px;word-spacing:0px;fill:#ffcc00;fill-opacity:1;stroke:none"
             d="m 90.063461,599.82662 649.040349,0 69.46632,26.17455 4.25336,107.31881 -74.04686,27.48328 -648.713169,0 0,-160.97664" />
          <path
             d="m 90.063461,599.82662 21.779819,0 0,160.97664 -21.779819,0 0,-160.97664"
             style="font-style:normal;font-weight:normal;font-size:175.34698486px;line-height:125%;font-family:Sans;letter-spacing:0px;word-spacing:0px;fill:#000000;fill-opacity:1;stroke:none"
             id="path3239"
             inkscape:connector-curvature="0" />
          <path
             d="m 159.04275,617.72488 0,125.18008 26.30831,0 c 22.21101,3e-5 38.45602,-5.03161 48.73505,-15.09493 10.35068,-10.06324 15.52608,-25.94883 15.52622,-47.65684 -1.4e-4,-21.56409 -5.17554,-37.34186 -15.52622,-47.33338 -10.27903,-10.06316 -26.52404,-15.09479 -48.73505,-15.09493 l -26.30831,0 m -21.77983,-17.89828 44.74569,0 c 31.19609,1.7e-4 54.09003,6.50535 68.68192,19.51559 14.59161,12.93864 21.88749,33.20896 21.88765,60.811 -1.6e-4,27.74598 -7.33198,48.1241 -21.99546,61.13446 -14.66378,13.01041 -37.52179,19.51559 -68.57411,19.51559 l -44.74569,0 0,-160.97664"
             style="font-style:normal;font-weight:normal;font-size:175.34698486px;line-height:125%;font-family:Sans;letter-spacing:0px;word-spacing:0px;fill:#000000;fill-opacity:1;stroke:none"
             id="path3241"
             inkscape:connector-curvature="0" />
          <path
             inkscape:connector-curvature="0"
             id="path3243"
             d="m 297.9978,599.81709 0,160.99567 414.74782,0 0,-18.33879 -393.57557,0 0,-58.32206 368.23184,0 0,-18.33879 -368.23184,0 0,-47.65724 384.20941,0 0,-18.33879 -405.38166,0 z"
             style="font-style:normal;font-weight:normal;font-size:175.34698486px;line-height:125%;font-family:Sans;letter-spacing:0px;word-spacing:0px;fill:#000000;fill-opacity:1;stroke:none" />
          <path
             inkscape:connector-curvature="0"
             id="path3245"
             d="m 738.17982,599.81709 0,25.06826 57.49564,16.01692 0,79.17949 -57.49564,16.01693 0,24.71407 224.11888,-66.97986 0,-26.91788 -224.11888,-67.09793 z"
             style="font-style:normal;font-weight:normal;font-size:175.34698486px;line-height:125%;font-family:Sans;letter-spacing:0px;word-spacing:0px;fill:#000000;fill-opacity:1;stroke:none" />
        </g>
      </g>
      <g
         transform="translate(-58.579354,49.771853)"
         id="g5324">
        <path
           style="color:#000000;display:inline;overflow:visible;visibility:visible;fill:#ffcc00;fill-rule:evenodd;stroke:#4d4d4d;stroke-width:10;stroke-linecap:butt;stroke-linejoin:miter;stroke-miterlimit:4;stroke-dasharray:none;stroke-dashoffset:0;stroke-opacity:1;marker:none;enable-background:accumulate"
           d="m 311.70108,613.01212 106.86894,41.56014 c 1.27262,55.34275 -1.40442,111.67291 14.8429,163.27199 44.03396,10.98959 88.06793,22.00865 132.10189,-13.35862 -11.07395,-60.22438 -37.56574,-117.36518 -68.27738,-173.66202 -50.46589,-37.06446 -100.93177,-46.1931 -151.39766,-65.3088 l -38.59157,48.9816 z"
           id="path4765"
           inkscape:connector-curvature="0"
           sodipodi:nodetypes="cccccccc" />
        <path
           style="color:#000000;display:inline;overflow:visible;visibility:visible;fill:#ffcc00;fill-rule:evenodd;stroke:#4d4d4d;stroke-width:10;stroke-linecap:butt;stroke-linejoin:miter;stroke-miterlimit:4;stroke-dasharray:none;stroke-dashoffset:0;stroke-opacity:1;marker:none;enable-background:accumulate"
           d="m 498.40913,524.17028 51.84037,-3.37591 52.86705,35.23053 c 54.5102,-20.8415 110.20388,-47.14783 170.75935,-95.90386 2.44337,-54.78819 -43.43595,-69.38214 -80.32723,-91.45224 l -126.86259,-6.61289"
           id="path5318"
           inkscape:connector-curvature="0"
           sodipodi:nodetypes="cccccc" />
        <path
           style="opacity:1;fill:#ffcc00;fill-opacity:1;fill-rule:evenodd;stroke:#4d4d4d;stroke-width:10;stroke-linecap:round;stroke-linejoin:round;stroke-miterlimit:4;stroke-dasharray:none;stroke-dashoffset:0;stroke-opacity:1"
           id="path4767"
           sodipodi:type="arc"
           sodipodi:cx="590.7478"
           sodipodi:cy="373.29913"
           sodipodi:rx="117.25898"
           sodipodi:ry="115.03254"
           sodipodi:start="5.3215438"
           sodipodi:end="5.282239"
           sodipodi:open="true"
           d="M 657.8404,278.95728 A 117.25898,115.03254 0 0 1 687.57024,438.18764 117.25898,115.03254 0 0 1 525.55797,468.91618 117.25898,115.03254 0 0 1 492.64424,310.28971 117.25898,115.03254 0 0 1 654.0097,276.44382" />
        <path
           style="color:#000000;display:inline;overflow:visible;visibility:visible;fill:#ffcc00;fill-rule:evenodd;stroke:#4d4d4d;stroke-width:10;stroke-linecap:butt;stroke-linejoin:miter;stroke-miterlimit:4;stroke-dasharray:none;stroke-dashoffset:0;stroke-opacity:1;marker:none;enable-background:accumulate"
           d="m 453.45117,232.29883 c -23.50127,0.44815 -47.00263,9.30331 -70.5039,27.45117 l 29.68554,148.42969 -50.46679,63.82422 C 204.16613,505.02177 246.71309,613.92261 222.64453,697.61719 173.08461,737.72515 121.05522,775.8586 90.541016,831.20312 112.84483,933.6287 183.0896,927.38819 264.20312,896.51172 l 63.82422,-326.54492 0,16.32812 193.2793,-62.96094 -9.12874,-79.36922 -54.26774,31.30672 51.20117,-31.46875 3.11914,-39.59961 -0.15039,-1.96093 0.32226,-0.23828 11.55274,-146.70508 c -23.50127,-15.48758 -47.00264,-23.44815 -70.50391,-23 z"
           id="path5312"
           inkscape:connector-curvature="0"
           sodipodi:nodetypes="sccccccccccccccccs" />
        <path
           style="color:#000000;display:inline;overflow:visible;visibility:visible;fill:#4d4d4d;fill-rule:evenodd;stroke:#4d4d4d;stroke-width:1.31196809px;stroke-linecap:butt;stroke-linejoin:miter;stroke-miterlimit:4;stroke-dasharray:none;stroke-dashoffset:0;stroke-opacity:1;marker:none;enable-background:accumulate"
           d="m 515.04892,445.28725 -63.8245,32.6544 48.98159,47.49731 13.35862,164.75628 53.43447,48.9816 23.74865,-54.91876 -68.27737,-164.75629 z"
           id="path5322"
           inkscape:connector-curvature="0" />
      </g>
    </g>
  </g>
</svg>
