<svg xmlns="http://www.w3.org/2000/svg" viewBox="0 0 1366 768">
    <defs>
        <style>.cls-1,.cls-2,.cls-3{fill:none;stroke:#0e2599;stroke-miterlimit:10;}.cls-1{stroke-width:3px;}.cls-2{stroke-width:1.5px;}.cls-3{stroke-width:2px;}
        </style>
    </defs>
    <title>yggs-tree</title>
       <g id="base">
           <path class="cls-1" d="M787.89,533.06a106.31,106.31,0,0,1,.71,12.25,105.19,105.19,0,0,1-210.39,0c0-4.26,0-8.18.3-12.13"/>

           <circle class="cls-2" cx="641.23" cy="652.42" r="1.89"/>
           <circle class="cls-2" cx="656.85" cy="657.62" r="1.89"/>
           <circle class="cls-2" cx="665.02" cy="659.11" r="1.89"/>
           <circle class="cls-2" cx="633.06" cy="648.7" r="1.89"/>
           <circle class="cls-2" cx="649.41" cy="655.39" r="1.89"/>
           <circle class="cls-2" cx="725.98" cy="652.42" r="1.89"/>
           <circle class="cls-2" cx="710.37" cy="657.62" r="1.89"/>
           <circle class="cls-2" cx="702.19" cy="659.11" r="1.89"/>
           <circle class="cls-2" cx="734.16" cy="648.7" r="1.89"/>
           <circle class="cls-2" cx="717.81" cy="655.39" r="1.89"/>
        </g>
        <g id="arbol">
            <line class="cls-1" x1="572.75" y1="529.8" x2="560.38" y2="536.22"/>
            <line class="cls-1" x1="615.9" y1="509.09" x2="584.45" y2="524.46"/>
            <line class="cls-1" x1="654.38" y1="515.4" x2="623.47" y2="507.83"/>
            <line class="cls-1" x1="672.68" y1="478.18" x2="660.06" y2="513.51"/>
            <line class="cls-1" x1="672.04" y1="463.67" x2="673.94" y2="471.24"/>
            <line class="cls-1" x1="677.09" y1="436.54" x2="672.04" y2="456.1"/>
            <line class="cls-1" x1="677.72" y1="302.17" x2="677.72" y2="428.97"/>
            <line class="cls-1" x1="642.39" y1="266.84" x2="675.2" y2="295.86"/>
            <line class="cls-1" x1="661.32" y1="215.74" x2="641.13" y2="259.9"/>
            <line class="cls-1" x1="665.32" y1="162.09" x2="670.78" y2="189.87"/>
            <line class="cls-1" x1="659.43" y1="129.94" x2="663.43" y2="153.26"/>
            <line class="cls-1" x1="668.89" y1="106.6" x2="660.06" y2="123"/>
            <circle class="cls-1" cx="671.1" cy="102.5" r="4.73"/>
            <circle class="cls-1" cx="670.78" cy="193.66" r="3.79"/>
            <circle class="cls-1" cx="640.5" cy="263.68" r="3.79"/>
            <circle class="cls-1" cx="677.72" cy="298.38" r="3.79"/>
            <circle class="cls-1" cx="677.72" cy="432.76" r="3.79"/>
            <circle class="cls-1" cx="671.41" cy="459.88" r="3.79"/>
            <circle class="cls-1" cx="673.94" cy="474.39" r="3.79"/>
            <circle class="cls-1" cx="658.8" cy="516.66" r="3.79"/>
            <circle class="cls-1" cx="619.68" cy="507.2" r="3.79"/>
            <circle class="cls-1" cx="555.49" cy="538.58" r="5.84"/>
            <circle class="cls-1" cx="658.8" cy="126.16" r="3.79"/>
            <line class="cls-1" x1="642.39" y1="140.03" x2="661.32" y2="156.44"/>
            <line class="cls-1" x1="623.47" y1="146.97" x2="636.09" y2="139.4"/>
            <line class="cls-1" x1="598.86" y1="126.79" x2="616.53" y2="145.71"/>
            <line class="cls-1" x1="625.68" y1="187.66" x2="638.29" y2="195.87"/>
            <line class="cls-1" x1="607.7" y1="189.24" x2="617.79" y2="186.72"/>
            <line class="cls-1" x1="581.2" y1="139.4" x2="602.65" y2="186.09"/>
            <line class="cls-1" x1="646.81" y1="165.9" x2="642.58" y2="194.22"/>
            <line class="cls-1" x1="630.72" y1="221.1" x2="650.91" y2="208.48"/>
            <line class="cls-1" x1="598.55" y1="208.48" x2="622.52" y2="221.1"/>
            <circle class="cls-1" cx="619.68" cy="147.6" r="3.79"/>
            <circle class="cls-1" cx="639.24" cy="137.51" r="3.79"/>
            <circle class="cls-1" cx="663.84" cy="157.7" r="3.79"/>
            <circle class="cls-1" cx="641.76" cy="198.07" r="3.79"/>
            <circle class="cls-1" cx="647.44" cy="162.11" r="3.79"/>
            <circle class="cls-1" cx="653.12" cy="206.91" r="3.79"/>
            <circle class="cls-1" cx="662.58" cy="211.95" r="3.79"/>
            <circle class="cls-1" cx="626.62" cy="222.68" r="3.79"/>
            <circle class="cls-1" cx="595.71" cy="206.91" r="3.79"/>
            <circle class="cls-1" cx="622.21" cy="185.46" r="3.79"/>
            <circle class="cls-1" cx="603.91" cy="189.87" r="3.79"/>
            <line class="cls-1" x1="668.89" y1="198.07" x2="664.16" y2="208.48"/>
            <line class="cls-1" x1="655.96" y1="207.85" x2="659.11" y2="209.74"/>
            <line class="cls-1" x1="644.94" y1="200.36" x2="650.62" y2="204.15"/>
            <circle class="cls-1" cx="579.31" cy="135.62" r="4.73"/>
            <circle class="cls-1" cx="595.08" cy="123" r="4.73"/>
            <circle class="cls-1" cx="578.62" cy="527.35" r="5.84"/>
            <line class="cls-1" x1="667.94" y1="444.43" x2="659.74" y2="471.55"/>
            <line class="cls-1" x1="668.57" y1="332.13" x2="668.57" y2="438.12"/>
            <line class="cls-1" x1="656.59" y1="318.25" x2="666.05" y2="327.09"/>
            <line class="cls-1" x1="643.02" y1="298.7" x2="652.17" y2="312.58"/>
            <line class="cls-1" x1="619.05" y1="285.45" x2="637.35" y2="293.65"/>
            <line class="cls-1" x1="615.9" y1="239.4" x2="615.9" y2="280.4"/>
            <line class="cls-1" x1="572.05" y1="213.53" x2="612.11" y2="233.72"/>
            <line class="cls-1" x1="573.95" y1="182.62" x2="568.9" y2="208.48"/>
            <line class="cls-1" x1="542.4" y1="167.48" x2="571.42" y2="178.2"/>
            <circle class="cls-1" cx="537.67" cy="165.9" r="4.73"/>
            <line class="cls-1" x1="577.73" y1="163.69" x2="575.84" y2="175.05"/>
            <line class="cls-1" x1="601.7" y1="277.88" x2="612.43" y2="282.29"/>
            <line class="cls-1" x1="575.84" y1="282.92" x2="594.13" y2="277.25"/>
            <line class="cls-1" x1="532.31" y1="234.35" x2="529.78" y2="246.97"/>
            <line class="cls-1" x1="507.07" y1="220.47" x2="529.15" y2="229.3"/>
            <line class="cls-1" x1="551.86" y1="290.5" x2="567.64" y2="285.45"/>
            <line class="cls-1" x1="522.21" y1="273.46" x2="544.93" y2="289.23"/>
            <line class="cls-1" x1="488.78" y1="289.86" x2="515.91" y2="273.46"/>
            <line class="cls-1" x1="536.09" y1="216.68" x2="533.57" y2="228.04"/>
            <circle class="cls-1" cx="615.58" cy="235.61" r="3.79"/>
            <circle class="cls-1" cx="568.27" cy="212.27" r="3.79"/>
            <circle class="cls-1" cx="574.58" cy="178.83" r="3.79"/>
            <circle class="cls-1" cx="532.94" cy="231.19" r="3.79"/>
            <circle class="cls-1" cx="529.15" cy="250.75" r="3.79"/>
            <circle class="cls-1" cx="615.58" cy="284.19" r="3.79"/>
            <circle class="cls-1" cx="597.92" cy="276.62" r="3.79"/>
            <circle class="cls-1" cx="571.42" cy="284.19" r="3.79"/>
            <circle class="cls-1" cx="548.08" cy="291.13" r="3.79"/>
            <circle class="cls-1" cx="519.06" cy="271.57" r="3.79"/>
            <circle class="cls-1" cx="578.68" cy="158.96" r="4.73"/>
            <line class="cls-1" x1="493.19" y1="253.27" x2="515.91" y2="269.05"/><circle class="cls-1" cx="640.82" cy="295.54" r="3.79"/>
            <circle class="cls-1" cx="654.06" cy="315.73" r="3.79"/>
            <circle class="cls-1" cx="668.57" cy="328.98" r="3.79"/>
            <circle class="cls-1" cx="668.57" cy="441.27" r="3.79"/>
            <circle class="cls-1" cx="659.11" cy="474.71" r="3.79"/>
            <circle class="cls-1" cx="537.04" cy="211.95" r="4.73"/>
            <circle class="cls-1" cx="502.34" cy="218.89" r="4.73"/>
            <circle class="cls-1" cx="490.36" cy="251.07" r="4.73"/>
            <circle class="cls-1" cx="485.31" cy="292.07" r="4.73"/>
            <path class="cls-1" d="M599.95,481.25a105.17,105.17,0,0,1,63.89-39.33"/>
            <circle class="cls-1" cx="596.67" cy="485.99" r="4.73"/>
            <line class="cls-1" x1="797.34" y1="529.8" x2="809.7" y2="536.22"/>
            <line class="cls-1" x1="754.19" y1="509.09" x2="785.63" y2="524.46"/>
            <line class="cls-1" x1="715.7" y1="515.4" x2="746.62" y2="507.83"/>
            <line class="cls-1" x1="697.41" y1="478.18" x2="710.03" y2="513.51"/>
            <line class="cls-1" x1="698.04" y1="463.67" x2="696.15" y2="471.24"/>
            <line class="cls-1" x1="692.99" y1="436.54" x2="698.04" y2="456.1"/>
            <line class="cls-1" x1="692.36" y1="302.17" x2="692.36" y2="428.97"/>
            <line class="cls-1" x1="727.69" y1="266.84" x2="694.89" y2="295.86"/>
            <line class="cls-1" x1="708.76" y1="215.74" x2="728.95" y2="259.9"/>
            <line class="cls-1" x1="704.77" y1="162.09" x2="699.3" y2="189.87"/>
            <line class="cls-1" x1="710.66" y1="129.94" x2="706.66" y2="153.26"/>
            <line class="cls-1" x1="701.19" y1="106.6" x2="710.03" y2="123"/>
            <circle class="cls-1" cx="698.99" cy="102.5" r="4.73"/><circle class="cls-1" cx="699.3" cy="193.66" r="3.79"/>
            <circle class="cls-1" cx="729.58" cy="263.68" r="3.79"/><circle class="cls-1" cx="692.36" cy="298.38" r="3.79"/>
            <circle class="cls-1" cx="692.36" cy="432.76" r="3.79"/>
            <circle class="cls-1" cx="698.67" cy="459.88" r="3.79"/>
            <circle class="cls-1" cx="696.15" cy="474.39" r="3.79"/>
            <circle class="cls-1" cx="711.29" cy="516.66" r="3.79"/>
            <circle class="cls-1" cx="750.4" cy="507.2" r="3.79"/>
            <circle class="cls-1" cx="814.59" cy="538.58" r="5.84"/>
            <circle class="cls-1" cx="711.29" cy="126.16" r="3.79"/>
            <line class="cls-1" x1="727.69" y1="140.03" x2="708.76" y2="156.44"/>
            <line class="cls-1" x1="746.62" y1="146.97" x2="734" y2="139.4"/>
            <line class="cls-1" x1="771.22" y1="126.79" x2="753.56" y2="145.71"/>
            <line class="cls-1" x1="744.41" y1="187.66" x2="731.79" y2="195.87"/>
            <line class="cls-1" x1="762.39" y1="189.24" x2="752.29" y2="186.72"/>
            <line class="cls-1" x1="788.88" y1="139.4" x2="767.44" y2="186.09"/>
            <line class="cls-1" x1="723.27" y1="165.9" x2="727.5" y2="194.22"/>
            <line class="cls-1" x1="739.36" y1="221.1" x2="719.17" y2="208.48"/>
            <line class="cls-1" x1="771.54" y1="208.48" x2="747.56" y2="221.1"/>
            <circle class="cls-1" cx="750.4" cy="147.6" r="3.79"/>
            <circle class="cls-1" cx="730.85" cy="137.51" r="3.79"/>
            <circle class="cls-1" cx="706.24" cy="157.7" r="3.79"/>
            <circle class="cls-1" cx="728.32" cy="198.07" r="3.79"/>
            <circle class="cls-1" cx="722.64" cy="162.11" r="3.79"/>
            <circle class="cls-1" cx="716.97" cy="206.91" r="3.79"/>
            <circle class="cls-1" cx="707.5" cy="211.95" r="3.79"/>
            <circle class="cls-1" cx="743.46" cy="222.68" r="3.79"/>
            <circle class="cls-1" cx="774.37" cy="206.91" r="3.79"/>
            <circle class="cls-1" cx="747.88" cy="185.46" r="3.79"/>
            <circle class="cls-1" cx="766.17" cy="189.87" r="3.79"/>
            <line class="cls-1" x1="701.19" y1="198.07" x2="705.93" y2="208.48"/>
            <line class="cls-1" x1="714.13" y1="207.85" x2="710.97" y2="209.74"/>
            <line class="cls-1" x1="725.14" y1="200.36" x2="719.47" y2="204.15"/>
            <circle class="cls-1" cx="790.78" cy="135.62" r="4.73"/>
            <circle class="cls-1" cx="775.01" cy="123" r="4.73"/>
            <circle class="cls-1" cx="791.47" cy="527.35" r="5.84"/>
            <line class="cls-1" x1="702.14" y1="444.43" x2="710.34" y2="471.55"/>
            <line class="cls-1" x1="701.51" y1="332.13" x2="701.51" y2="438.12"/>
            <line class="cls-1" x1="713.5" y1="318.25" x2="704.03" y2="327.09"/>
            <line class="cls-1" x1="727.06" y1="298.7" x2="717.91" y2="312.58"/>
            <line class="cls-1" x1="751.03" y1="285.45" x2="732.74" y2="293.65"/>
            <line class="cls-1" x1="754.19" y1="239.4" x2="754.19" y2="280.4"/>
            <line class="cls-1" x1="798.03" y1="213.53" x2="757.97" y2="233.72"/>
            <line class="cls-1" x1="796.14" y1="182.62" x2="801.19" y2="208.48"/>
            <line class="cls-1" x1="827.68" y1="167.48" x2="798.66" y2="178.2"/>
            <circle class="cls-1" cx="832.41" cy="165.9" r="4.73"/>
            <line class="cls-1" x1="792.35" y1="163.69" x2="794.25" y2="175.05"/>
            <line class="cls-1" x1="768.38" y1="277.88" x2="757.66" y2="282.29"/>
            <line class="cls-1" x1="794.25" y1="282.92" x2="775.95" y2="277.25"/>
            <line class="cls-1" x1="837.78" y1="234.35" x2="840.3" y2="246.97"/>
            <line class="cls-1" x1="863.01" y1="220.47" x2="840.93" y2="229.3"/>
            <line class="cls-1" x1="818.22" y1="290.5" x2="802.45" y2="285.45"/>
            <line class="cls-1" x1="847.87" y1="273.46" x2="825.16" y2="289.23"/>
            <line class="cls-1" x1="881.31" y1="289.86" x2="854.18" y2="273.46"/>
            <line class="cls-1" x1="833.99" y1="216.68" x2="836.51" y2="228.04"/>
            <circle class="cls-1" cx="754.5" cy="235.61" r="3.79"/>
            <circle class="cls-1" cx="801.82" cy="212.27" r="3.79"/>
            <circle class="cls-1" cx="795.51" cy="178.83" r="3.79"/>
            <circle class="cls-1" cx="837.15" cy="231.19" r="3.79"/>
            <circle class="cls-1" cx="840.93" cy="250.75" r="3.79"/>
            <circle class="cls-1" cx="754.5" cy="284.19" r="3.79"/>
            <circle class="cls-1" cx="772.17" cy="276.62" r="3.79"/>
            <circle class="cls-1" cx="798.66" cy="284.19" r="3.79"/>
            <circle class="cls-1" cx="822.01" cy="291.13" r="3.79"/>
            <circle class="cls-1" cx="851.02" cy="271.57" r="3.79"/>
            <circle class="cls-1" cx="791.41" cy="158.96" r="4.73"/>
            <line class="cls-1" x1="876.89" y1="253.27" x2="854.18" y2="269.05"/>
            <circle class="cls-1" cx="729.27" cy="295.54" r="3.79"/>
            <circle class="cls-1" cx="716.02" cy="315.73" r="3.79"/>
            <circle class="cls-1" cx="701.51" cy="328.98" r="3.79"/>
            <circle class="cls-1" cx="701.51" cy="441.27" r="3.79"/>
            <circle class="cls-1" cx="710.97" cy="474.71" r="3.79"/>
            <circle class="cls-1" cx="833.05" cy="211.95" r="4.73"/>
            <circle class="cls-1" cx="867.74" cy="218.89" r="4.73"/>
            <circle class="cls-1" cx="879.73" cy="251.07" r="4.73"/>
            <circle class="cls-1" cx="884.78" cy="292.07" r="4.73"/>
            <path class="cls-1" d="M770.14,481.25a105.17,105.17,0,0,0-63.89-39.33"/>
            <circle class="cls-1" cx="773.42" cy="485.99" r="4.73"/>
        </g>
            
            <g id="ramitas"><circle class="cls-2" cx="656.27" cy="107.23" r="1.89"/><line class="cls-2" x1="657.53" y1="108.49" x2="663.84" y2="114.17"/><circle class="cls-2" cx="637.98" cy="120.48" r="1.89"/><circle class="cls-2" cx="648.07" cy="111.65" r="1.89"/><circle class="cls-2" cx="633.56" cy="111.65" r="1.89"/><circle class="cls-2" cx="619.68" cy="119.22" r="1.89"/><line class="cls-2" x1="620.94" y1="121.11" x2="631.04" y2="141.3"/><line class="cls-2" x1="636.72" y1="121.74" x2="625.99" y2="131.2"/><line class="cls-2" x1="646.81" y1="112.91" x2="639.87" y2="119.22"/><line class="cls-2" x1="634.82" y1="113.54" x2="636.72" y2="118.58"/><circle class="cls-2" cx="588.77" cy="141.3" r="1.89"/><circle class="cls-2" cx="605.8" cy="141.3" r="1.89" transform="translate(-13.59 198.82) rotate(-18.43)"/><circle class="cls-2" cx="602.02" cy="162.75" r="1.89"/><circle class="cls-2" cx="609.59" cy="151.39" r="1.89" transform="translate(2.71 313.31) rotate(-28.89)"/><circle class="cls-2" cx="606.43" cy="165.9" r="1.89"/><circle class="cls-2" cx="596.97" cy="160.22" r="1.89"/><line class="cls-2" x1="606.43" y1="143.19" x2="608.96" y2="149.5"/><line class="cls-2" x1="608.33" y1="153.28" x2="603.28" y2="160.85"/><line class="cls-2" x1="607.07" y1="167.79" x2="615.27" y2="187.35"/><line class="cls-2" x1="589.4" y1="143.19" x2="596.34" y2="158.33"/><line class="cls-2" x1="603.28" y1="164.01" x2="604.54" y2="164.64"/><circle class="cls-2" cx="630.41" cy="152.65" r="1.89"/><circle class="cls-2" cx="616.53" cy="165.27" r="1.89"/><circle class="cls-2" cx="630.41" cy="165.27" r="1.89"/><circle class="cls-2" cx="630.41" cy="172.84" r="1.89"/><line class="cls-2" x1="630.41" y1="154.54" x2="630.41" y2="163.38"/><line class="cls-2" x1="630.41" y1="167.16" x2="630.41" y2="170.95"/><line class="cls-2" x1="618.42" y1="165.27" x2="628.51" y2="165.27"/><line class="cls-2" x1="632.3" y1="174.1" x2="643.66" y2="180.41"/><circle class="cls-2" cx="677.09" cy="172.21" r="1.89"/><line class="cls-2" x1="663.21" y1="147.6" x2="672.04" y2="138.77"/><line class="cls-2" x1="669.52" y1="180.41" x2="675.83" y2="173.47"/><circle class="cls-2" cx="673.31" cy="137.51" r="1.89"/><circle class="cls-2" cx="668.26" cy="256.74" r="1.89"/><circle class="cls-2" cx="675.2" cy="230.25" r="1.89"/><circle class="cls-2" cx="667.63" cy="227.72" r="1.89"/><circle class="cls-2" cx="671.41" cy="235.29" r="1.89"/><circle class="cls-2" cx="659.43" cy="240.34" r="1.89"/><circle class="cls-2" cx="663.84" cy="247.28" r="1.89"/><line class="cls-2" x1="665.11" y1="245.39" x2="670.15" y2="237.19"/><line class="cls-2" x1="662.58" y1="245.39" x2="660.69" y2="242.23"/><line class="cls-2" x1="667.63" y1="254.85" x2="664.47" y2="249.17"/><line class="cls-2" x1="670.78" y1="234.03" x2="668.89" y2="229.62"/><line class="cls-2" x1="672.68" y1="233.4" x2="673.94" y2="232.14"/><line class="cls-2" x1="654.38" y1="277.56" x2="667.63" y2="258.64"/><line class="cls-2" x1="665.11" y1="285.76" x2="673.31" y2="273.15"/><circle class="cls-2" cx="673.94" cy="271.88" r="1.89"/><line class="cls-2" x1="627.88" y1="289.55" x2="628.51" y2="261.16"/><line class="cls-2" x1="634.19" y1="246.02" x2="637.35" y2="239.08"/><line class="cls-2" x1="632.3" y1="246.02" x2="626.62" y2="237.82"/><line class="cls-2" x1="629.78" y1="256.74" x2="632.3" y2="249.8"/><circle class="cls-2" cx="638.61" cy="237.19" r="1.89"/><circle class="cls-2" cx="625.36" cy="236.56" r="1.89"/><circle class="cls-2" cx="633.56" cy="247.91" r="1.89"/><circle class="cls-2" cx="628.51" cy="258.64" r="1.89"/><circle class="cls-2" cx="583.72" cy="201.86" r="1.89"/><circle class="cls-2" cx="593.82" cy="182.3" r="1.89"/><line class="cls-2" x1="583.72" y1="218.89" x2="583.72" y2="203.75"/><line class="cls-2" x1="584.99" y1="199.97" x2="592.56" y2="184.19"/><circle class="cls-2" cx="561.01" cy="162.11" r="1.89"/><circle class="cls-2" cx="562.27" cy="145.71" r="1.89"/><circle class="cls-2" cx="548.4" cy="159.59" r="1.89"/><line class="cls-2" x1="561.01" y1="160.22" x2="562.27" y2="147.6"/><line class="cls-2" x1="562.91" y1="162.75" x2="576.15" y2="167.79"/><line class="cls-2" x1="559.12" y1="162.11" x2="550.29" y2="160.22"/><line class="cls-2" x1="677.09" y1="314.78" x2="658.8" y2="299.01"/><line class="cls-2" x1="646.81" y1="279.46" x2="658.17" y2="288.29"/><circle class="cls-2" cx="657.53" cy="297.75" r="1.89"/><circle class="cls-2" cx="659.43" cy="289.55" r="1.89"/><circle class="cls-2" cx="645.55" cy="278.19" r="1.89"/><line class="cls-2" x1="657.53" y1="295.86" x2="658.8" y2="291.44"/><line class="cls-1" x1="531.68" y1="253.27" x2="568.27" y2="281.03"/><line class="cls-2" x1="581.83" y1="231.51" x2="573.63" y2="227.09"/><circle class="cls-2" cx="571.74" cy="225.83" r="1.89"/><circle class="cls-2" cx="571.74" cy="256.74" r="1.89"/><circle class="cls-2" cx="545.24" cy="234.66" r="1.89"/><circle class="cls-2" cx="550.29" cy="219.52" r="1.89"/><circle class="cls-2" cx="559.12" cy="234.66" r="1.89"/><circle class="cls-2" cx="555.33" cy="256.74" r="1.89"/><line class="cls-2" x1="557.86" y1="232.77" x2="551.55" y2="221.42"/><line class="cls-2" x1="570.48" y1="254.85" x2="560.38" y2="236.56"/><line class="cls-2" x1="579.94" y1="256.74" x2="573.63" y2="256.74"/><line class="cls-2" x1="557.23" y1="234.66" x2="547.13" y2="234.66"/><line class="cls-2" x1="569.84" y1="256.74" x2="557.23" y2="256.74"/><line class="cls-2" x1="615.58" y1="255.8" x2="585.62" y2="242.87"/><line class="cls-2" x1="583.72" y1="239.71" x2="583.72" y2="234.66"/><circle class="cls-2" cx="583.72" cy="232.77" r="1.89"/><circle class="cls-2" cx="583.72" cy="241.6" r="1.89"/><circle class="cls-2" cx="581.83" cy="256.74" r="1.89"/><line class="cls-2" x1="615.9" y1="268.1" x2="583.72" y2="257.37"/><circle class="cls-2" cx="551.55" cy="197.44" r="1.89"/><circle class="cls-2" cx="560.38" cy="193.03" r="1.89" transform="translate(-8.17 360.47) rotate(-35.42)"/><circle class="cls-2" cx="553.44" cy="177.26" r="1.89"/><line class="cls-2" x1="559.75" y1="191.13" x2="554.07" y2="179.15"/><line class="cls-2" x1="558.49" y1="194.29" x2="553.44" y2="196.81"/><line class="cls-2" x1="569.21" y1="202.49" x2="561.64" y2="194.29"/><circle class="cls-2" cx="543.98" cy="191.77" r="1.89"/><circle class="cls-2" cx="533.25" cy="185.46" r="1.89"/><circle class="cls-2" cx="535.15" cy="197.44" r="1.89"/><circle class="cls-2" cx="517.48" cy="198.07" r="1.89"/><line class="cls-2" x1="519.38" y1="206.27" x2="518.11" y2="199.97"/><line class="cls-2" x1="521.9" y1="207.54" x2="533.89" y2="198.7"/><line class="cls-2" x1="535.15" y1="195.55" x2="533.89" y2="187.35"/><line class="cls-2" x1="537.04" y1="196.81" x2="542.09" y2="193.03"/><line class="cls-2" x1="523.79" y1="227.09" x2="520.01" y2="210.06"/><circle class="cls-2" cx="520.01" cy="208.17" r="1.89"/><circle class="cls-2" cx="516.22" cy="237.19" r="1.89"/><circle class="cls-2" cx="494.77" cy="231.51" r="1.89"/><circle class="cls-2" cx="505.5" cy="244.76" r="1.89"/><line class="cls-2" x1="505.5" y1="261.16" x2="505.5" y2="246.65"/><line class="cls-2" x1="496.03" y1="232.77" x2="504.23" y2="242.87"/><line class="cls-2" x1="514.33" y1="238.45" x2="507.39" y2="244.13"/><circle class="cls-2" cx="480.89" cy="276.3" r="1.89"/><circle class="cls-2" cx="491.62" cy="268.73" r="1.89"/><line class="cls-2" x1="507.39" y1="278.82" x2="493.51" y2="269.99"/><line class="cls-2" x1="489.72" y1="269.99" x2="482.15" y2="275.04"/><polyline class="cls-3" points="655.33 474.08 630.72 484.17 629.78 485.75 626.31 493"/><circle class="cls-3" cx="625.52" cy="494.74" r="2.05"/><line class="cls-3" x1="623.47" y1="494.58" x2="610.85" y2="499"/><circle class="cls-3" cx="638.77" cy="499.15" r="2.05"/><circle class="cls-3" cx="641.92" cy="489.69" r="2.05"/><circle class="cls-3" cx="649.49" cy="489.69" r="2.05"/><line class="cls-3" x1="641.13" y1="492.06" x2="639.87" y2="497.1"/><line class="cls-3" x1="647.44" y1="490.16" x2="644.29" y2="490.16"/><line class="cls-3" x1="651.86" y1="475.65" x2="649.96" y2="487.64"/><circle class="cls-3" cx="609.12" cy="499.78" r="2.05"/><line class="cls-3" x1="607.55" y1="498.47" x2="599.37" y2="489.55"/><circle class="cls-2" cx="636.09" cy="529.28" r="1.89"/><circle class="cls-2" cx="629.78" cy="531.17" r="1.89"/><circle class="cls-2" cx="626.62" cy="542.53" r="1.89"/><line class="cls-2" x1="634.19" y1="529.91" x2="631.67" y2="530.54"/><line class="cls-2" x1="629.15" y1="533.06" x2="627.25" y2="540.63"/><circle class="cls-2" cx="612.11" cy="534.96" r="1.89"/><circle class="cls-2" cx="601.39" cy="530.54" r="1.89"/><circle class="cls-2" cx="595.08" cy="533.06" r="1.89"/><circle class="cls-2" cx="590.03" cy="543.79" r="1.89"/><line class="cls-2" x1="607.07" y1="514.14" x2="602.02" y2="528.65"/><line class="cls-2" x1="624.73" y1="521.71" x2="613.37" y2="533.06"/><line class="cls-2" x1="594.45" y1="534.96" x2="590.66" y2="542.53"/><line class="cls-2" x1="599.5" y1="531.8" x2="596.97" y2="532.43"/><line class="cls-2" x1="639.87" y1="512.88" x2="636.72" y2="527.39"/><circle class="cls-2" cx="625.99" cy="520.45" r="1.89"/><line class="cls-2" x1="628.51" y1="509.72" x2="626.62" y2="518.55"/><circle class="cls-2" cx="712.71" cy="107.23" r="1.89"/><line class="cls-2" x1="711.45" y1="108.49" x2="705.14" y2="114.17"/><circle class="cls-2" cx="731.01" cy="120.48" r="1.89"/><circle class="cls-2" cx="720.91" cy="111.65" r="1.89"/><circle class="cls-2" cx="735.42" cy="111.65" r="1.89"/><circle class="cls-2" cx="749.3" cy="119.22" r="1.89"/><line class="cls-2" x1="748.04" y1="121.11" x2="737.95" y2="141.3"/><line class="cls-2" x1="732.27" y1="121.74" x2="742.99" y2="131.2"/><line class="cls-2" x1="722.17" y1="112.91" x2="729.11" y2="119.22"/><line class="cls-2" x1="734.16" y1="113.54" x2="732.27" y2="118.58"/><circle class="cls-2" cx="780.21" cy="141.3" r="1.89"/><circle class="cls-2" cx="763.18" cy="141.3" r="1.89" transform="translate(387.8 820.63) rotate(-71.57)"/><circle class="cls-2" cx="766.97" cy="162.75" r="1.89"/><circle class="cls-2" cx="759.4" cy="151.39" r="1.89" transform="translate(260 743.17) rotate(-61.11)"/><circle class="cls-2" cx="762.55" cy="165.9" r="1.89"/><circle class="cls-2" cx="772.01" cy="160.22" r="1.89"/><line class="cls-2" x1="762.55" y1="143.19" x2="760.03" y2="149.5"/><line class="cls-2" x1="760.66" y1="153.28" x2="765.7" y2="160.85"/><line class="cls-2" x1="761.92" y1="167.79" x2="753.72" y2="187.35"/><line class="cls-2" x1="779.58" y1="143.19" x2="772.64" y2="158.33"/><line class="cls-2" x1="765.7" y1="164.01" x2="764.44" y2="164.64"/><circle class="cls-2" cx="738.58" cy="152.65" r="1.89"/><circle class="cls-2" cx="752.46" cy="165.27" r="1.89"/><circle class="cls-2" cx="738.58" cy="165.27" r="1.89"/><circle class="cls-2" cx="738.58" cy="172.84" r="1.89"/><line class="cls-2" x1="738.58" y1="154.54" x2="738.58" y2="163.38"/><line class="cls-2" x1="738.58" y1="167.16" x2="738.58" y2="170.95"/><line class="cls-2" x1="750.56" y1="165.27" x2="740.47" y2="165.27"/><line class="cls-2" x1="736.68" y1="174.1" x2="725.33" y2="180.41"/><circle class="cls-2" cx="691.89" cy="172.21" r="1.89"/><line class="cls-2" x1="705.77" y1="147.6" x2="696.94" y2="138.77"/><line class="cls-2" x1="699.46" y1="180.41" x2="693.15" y2="173.47"/><circle class="cls-2" cx="695.68" cy="137.51" r="1.89"/><circle class="cls-2" cx="700.72" cy="256.74" r="1.89"/><circle class="cls-2" cx="693.79" cy="230.25" r="1.89"/><circle class="cls-2" cx="701.36" cy="227.72" r="1.89"/><circle class="cls-2" cx="697.57" cy="235.29" r="1.89"/><circle class="cls-2" cx="709.56" cy="240.34" r="1.89"/><circle class="cls-2" cx="705.14" cy="247.28" r="1.89"/><line class="cls-2" x1="703.88" y1="245.39" x2="698.83" y2="237.19"/><line class="cls-2" x1="706.4" y1="245.39" x2="708.3" y2="242.23"/><line class="cls-2" x1="701.36" y1="254.85" x2="704.51" y2="249.17"/><line class="cls-2" x1="698.2" y1="234.03" x2="700.09" y2="229.62"/><line class="cls-2" x1="696.31" y1="233.4" x2="695.05" y2="232.14"/><line class="cls-2" x1="714.6" y1="277.56" x2="701.36" y2="258.64"/><line class="cls-2" x1="703.88" y1="285.76" x2="695.68" y2="273.15"/><circle class="cls-2" cx="695.05" cy="271.88" r="1.89"/><line class="cls-2" x1="741.1" y1="289.55" x2="740.47" y2="261.16"/><line class="cls-2" x1="734.79" y1="246.02" x2="731.64" y2="239.08"/><line class="cls-2" x1="736.68" y1="246.02" x2="742.36" y2="237.82"/><line class="cls-2" x1="739.21" y1="256.74" x2="736.68" y2="249.8"/><circle class="cls-2" cx="730.38" cy="237.19" r="1.89"/><circle class="cls-2" cx="743.62" cy="236.56" r="1.89"/><circle class="cls-2" cx="735.42" cy="247.91" r="1.89"/><circle class="cls-2" cx="740.47" cy="258.64" r="1.89"/><circle class="cls-2" cx="785.26" cy="201.86" r="1.89"/><circle class="cls-2" cx="775.17" cy="182.3" r="1.89"/><line class="cls-2" x1="785.26" y1="218.89" x2="785.26" y2="203.75"/><line class="cls-2" x1="784" y1="199.97" x2="776.43" y2="184.19"/><circle class="cls-2" cx="807.97" cy="162.11" r="1.89"/><circle class="cls-2" cx="806.71" cy="145.71" r="1.89"/><circle class="cls-2" cx="820.59" cy="159.59" r="1.89"/><line class="cls-2" x1="807.97" y1="160.22" x2="806.71" y2="147.6"/><line class="cls-2" x1="806.08" y1="162.75" x2="792.83" y2="167.79"/><line class="cls-2" x1="809.86" y1="162.11" x2="818.7" y2="160.22"/><line class="cls-2" x1="691.89" y1="314.78" x2="710.19" y2="299.01"/><line class="cls-2" x1="722.17" y1="279.46" x2="710.82" y2="288.29"/><circle class="cls-2" cx="711.45" cy="297.75" r="1.89"/><circle class="cls-2" cx="709.56" cy="289.55" r="1.89"/><circle class="cls-2" cx="723.44" cy="278.19" r="1.89"/><line class="cls-2" x1="711.45" y1="295.86" x2="710.19" y2="291.44"/><line class="cls-1" x1="837.31" y1="253.27" x2="800.72" y2="281.03"/><line class="cls-2" x1="787.15" y1="231.51" x2="795.35" y2="227.09"/><circle class="cls-2" cx="797.25" cy="225.83" r="1.89"/><circle class="cls-2" cx="797.25" cy="256.74" r="1.89"/><circle class="cls-2" cx="823.74" cy="234.66" r="1.89"/><circle class="cls-2" cx="818.7" cy="219.52" r="1.89"/><circle class="cls-2" cx="809.86" cy="234.66" r="1.89"/><circle class="cls-2" cx="813.65" cy="256.74" r="1.89"/><line class="cls-2" x1="811.13" y1="232.77" x2="817.43" y2="221.42"/><line class="cls-2" x1="798.51" y1="254.85" x2="808.6" y2="236.56"/><line class="cls-2" x1="789.05" y1="256.74" x2="795.35" y2="256.74"/><line class="cls-2" x1="811.76" y1="234.66" x2="821.85" y2="234.66"/><line class="cls-2" x1="799.14" y1="256.74" x2="811.76" y2="256.74"/><line class="cls-2" x1="753.4" y1="255.8" x2="783.37" y2="242.87"/><line class="cls-2" x1="785.26" y1="239.71" x2="785.26" y2="234.66"/><circle class="cls-2" cx="785.26" cy="232.77" r="1.89"/><circle class="cls-2" cx="785.26" cy="241.6" r="1.89"/><circle class="cls-2" cx="787.15" cy="256.74" r="1.89"/><line class="cls-2" x1="753.09" y1="268.1" x2="785.26" y2="257.37"/><circle class="cls-2" cx="817.43" cy="197.44" r="1.89"/><circle class="cls-2" cx="808.6" cy="193.03" r="1.89" transform="translate(182.69 740.14) rotate(-54.58)"/><circle class="cls-2" cx="815.54" cy="177.26" r="1.89"/><line class="cls-2" x1="809.23" y1="191.13" x2="814.91" y2="179.15"/><line class="cls-2" x1="810.5" y1="194.29" x2="815.54" y2="196.81"/><line class="cls-2" x1="799.77" y1="202.49" x2="807.34" y2="194.29"/><circle class="cls-2" cx="825.01" cy="191.77" r="1.89"/><circle class="cls-2" cx="835.73" cy="185.46" r="1.89"/><circle class="cls-2" cx="833.84" cy="197.44" r="1.89"/><circle class="cls-2" cx="851.5" cy="198.07" r="1.89"/><line class="cls-2" x1="849.61" y1="206.27" x2="850.87" y2="199.97"/><line class="cls-2" x1="847.09" y1="207.54" x2="835.1" y2="198.7"/><line class="cls-2" x1="833.84" y1="195.55" x2="835.1" y2="187.35"/><line class="cls-2" x1="831.94" y1="196.81" x2="826.9" y2="193.03"/><line class="cls-2" x1="845.19" y1="227.09" x2="848.98" y2="210.06"/><circle class="cls-2" cx="848.98" cy="208.17" r="1.89"/><circle class="cls-2" cx="852.76" cy="237.19" r="1.89"/><circle class="cls-2" cx="874.21" cy="231.51" r="1.89"/><circle class="cls-2" cx="863.49" cy="244.76" r="1.89"/><line class="cls-2" x1="863.49" y1="261.16" x2="863.49" y2="246.65"/><line class="cls-2" x1="872.95" y1="232.77" x2="864.75" y2="242.87"/><line class="cls-2" x1="854.66" y1="238.45" x2="861.6" y2="244.13"/><circle class="cls-2" cx="888.09" cy="276.3" r="1.89"/><circle class="cls-2" cx="877.37" cy="268.73" r="1.89"/><line class="cls-2" x1="861.6" y1="278.82" x2="875.47" y2="269.99"/><line class="cls-2" x1="879.26" y1="269.99" x2="886.83" y2="275.04"/><polyline class="cls-3" points="713.66 474.08 738.26 484.17 739.21 485.75 742.68 493"/><circle class="cls-3" cx="743.47" cy="494.74" r="2.05"/><line class="cls-3" x1="745.52" y1="494.58" x2="758.13" y2="499"/><circle class="cls-3" cx="730.22" cy="499.15" r="2.05"/><circle class="cls-3" cx="727.06" cy="489.69" r="2.05"/><circle class="cls-3" cx="719.49" cy="489.69" r="2.05"/><line class="cls-3" x1="727.85" y1="492.06" x2="729.11" y2="497.1"/><line class="cls-3" x1="721.54" y1="490.16" x2="724.7" y2="490.16"/><line class="cls-3" x1="717.13" y1="475.65" x2="719.02" y2="487.64"/><circle class="cls-3" cx="759.87" cy="499.78" r="2.05"/><line class="cls-3" x1="761.43" y1="498.47" x2="769.61" y2="489.55"/><circle class="cls-2" cx="732.9" cy="529.28" r="1.89"/><circle class="cls-2" cx="739.21" cy="531.17" r="1.89"/><circle class="cls-2" cx="742.36" cy="542.53" r="1.89"/><line class="cls-2" x1="734.79" y1="529.91" x2="737.31" y2="530.54"/><line class="cls-2" x1="739.84" y1="533.06" x2="741.73" y2="540.63"/><circle class="cls-2" cx="756.87" cy="534.96" r="1.89"/><circle class="cls-2" cx="767.6" cy="530.54" r="1.89"/><circle class="cls-2" cx="773.91" cy="533.06" r="1.89"/><circle class="cls-2" cx="778.95" cy="543.79" r="1.89"/><line class="cls-2" x1="761.92" y1="514.14" x2="766.97" y2="528.65"/><line class="cls-2" x1="744.25" y1="521.71" x2="755.61" y2="533.06"/><line class="cls-2" x1="774.54" y1="534.96" x2="778.32" y2="542.53"/><line class="cls-2" x1="769.49" y1="531.8" x2="772.01" y2="532.43"/><line class="cls-2" x1="729.11" y1="512.88" x2="732.27" y2="527.39"/><circle class="cls-2" cx="742.99" cy="520.45" r="1.89"/><line class="cls-2" x1="740.47" y1="509.72" x2="742.36" y2="518.55"/></g>
</svg>